<svg width="36" height="35" viewBox="0 0 36 35" fill="none" xmlns="http://www.w3.org/2000/svg">
<g clip-path="url(#clip0_112_14)">
<path d="M1.97385 17.0382C1.96281 8.61495 8.94363 1.77737 17.5659 1.76607C26.1883 1.75477 33.187 8.57402 33.198 16.9973C33.2091 25.4206 26.2282 32.2581 17.6059 32.2694C8.98361 32.2807 1.98489 25.4615 1.97385 17.0382Z" fill="white"/>
<path d="M34.8995 16.9949C34.9003 21.4317 33.0822 25.6896 29.8413 28.8337C26.6001 31.9782 22.2006 33.7516 17.6077 33.7625C14.1816 33.7669 10.8319 32.7882 7.98204 30.951C5.13226 29.1138 2.91086 26.501 1.59744 23.4439C0.28408 20.387 -0.0627803 17.0222 0.600353 13.7748C1.2635 10.5274 2.90716 7.54189 5.32486 5.19636C7.74264 2.85075 10.8259 1.2506 14.1851 0.599482C17.5444 -0.0516424 21.0276 0.275778 24.1939 1.54002C27.3602 2.80424 30.0665 4.94807 31.9716 7.69915C33.8765 10.4501 34.8951 13.685 34.8995 16.9949ZM4.16317 17.0353L4.16317 17.0356C4.17204 20.4837 5.59397 23.7858 8.11427 26.2181C10.6343 28.6501 14.0467 30.0142 17.6026 30.0138L17.6029 30.0138C20.2559 30.0103 22.8489 29.2457 25.0541 27.8159C27.2595 26.3859 28.9784 24.3545 29.9922 21.9776C31.0061 19.6005 31.2689 16.9855 30.747 14.4635C30.2251 11.9416 28.9423 9.62732 27.0622 7.81282C25.1821 5.9984 22.7891 4.7651 20.1863 4.26768C17.5835 3.77025 14.8865 4.03077 12.4362 5.0166C9.98572 6.00245 7.89106 7.66978 6.41799 9.80898C4.94484 11.9483 4.1598 14.4631 4.16317 17.0353Z" fill="#0743B7" stroke="black" stroke-width="0.5"/>
<path d="M16.2243 22.0823L16.2666 22.1238L16.2734 22.126C16.4443 22.292 16.5812 22.4871 16.6774 22.7013C16.7808 22.9314 16.8351 23.1789 16.8374 23.4292C16.8397 23.6795 16.7899 23.9279 16.6908 24.1597C16.5916 24.3915 16.4451 24.6022 16.2593 24.779C16.0736 24.9558 15.8525 25.0951 15.609 25.1882C15.3656 25.2812 15.105 25.326 14.8428 25.3196C14.5807 25.3132 14.3229 25.2559 14.0846 25.1512C13.8464 25.0465 13.633 24.8968 13.4568 24.7113L13.4569 24.7112L13.4507 24.7051L8.98521 20.322C8.98499 20.3218 8.98476 20.3216 8.98453 20.3214C8.09944 19.4379 7.60523 18.2579 7.60362 17.0308C7.60201 15.8038 8.09313 14.6225 8.9759 13.7367C8.97613 13.7365 8.97635 13.7362 8.97658 13.736L13.4262 9.34267L13.4263 9.34278L13.4323 9.33647C13.608 9.15052 13.821 9.00021 14.0589 8.89491C14.2969 8.7896 14.5546 8.73158 14.8167 8.72453C15.0788 8.71749 15.3395 8.76156 15.5832 8.85396C15.8269 8.94636 16.0484 9.08506 16.2346 9.26141C16.4208 9.43774 16.5679 9.64807 16.6677 9.87961C16.7674 10.1111 16.8178 10.3594 16.8162 10.6097C16.8146 10.86 16.7609 11.1077 16.6582 11.338C16.5554 11.5684 16.4055 11.777 16.217 11.9511L16.2169 11.951L16.211 11.9568L13.4103 14.7207L12.9759 15.1494L13.5862 15.1486L25.6334 15.1329C26.152 15.1322 26.648 15.3309 27.0127 15.6829C27.3772 16.0346 27.5807 16.5102 27.5813 17.0046C27.582 17.499 27.3797 17.9752 27.0162 18.3279C26.6524 18.6808 26.1569 18.8809 25.6383 18.8815L13.5912 18.8973L12.9808 18.8981L13.4164 19.3257L16.2243 22.0823Z" fill="#0743B7" stroke="black" stroke-width="0.5"/>
<path d="M1 15C0.999996 15.5523 1.44771 16 1.99999 16C2.55228 16 3 15.5523 3 15L1 15ZM8.44722 5.89443C8.94119 5.64744 9.14142 5.04676 8.89443 4.55278C8.64744 4.05881 8.04676 3.85858 7.55278 4.10557L8.44722 5.89443ZM2 15C3 15 3 15.0005 3 15.001C3 15.0011 3 15.0016 3 15.0019C3 15.0025 3 15.003 2.99999 15.0036C2.99999 15.0046 2.99998 15.0056 2.99998 15.0064C2.99996 15.008 2.99995 15.0092 2.99994 15.0098C2.99992 15.0112 2.99991 15.0106 2.99999 15.0082C3.00015 15.0032 3.00062 14.9907 3.0019 14.9706C3.00445 14.9305 3.0102 14.8602 3.02303 14.7608C3.04867 14.5621 3.10268 14.246 3.21624 13.8202C3.44316 12.9692 3.90941 11.6741 4.86826 9.99614L3.13177 9.00386C2.09061 10.8259 1.55686 12.2808 1.28377 13.3048C1.14733 13.8165 1.07633 14.2192 1.03947 14.5048C1.02105 14.6476 1.01118 14.7609 1.00592 14.8439C1.00328 14.8853 1.00181 14.9191 1.00098 14.9452C1.00057 14.9582 1.00033 14.9693 1.00018 14.9785C1.00011 14.983 1.00007 14.9871 1.00004 14.9907C1.00002 14.9925 1.00001 14.9942 1.00001 14.9957C1.00001 14.9965 1 14.9972 1 14.9979C1 14.9983 1 14.9988 1 14.999C1 14.9995 1 15 2 15ZM4.86826 9.99614C5.81644 8.33682 6.75125 7.29293 7.42573 6.67465C7.76353 6.365 8.03765 6.16062 8.21776 6.03841C8.30785 5.97728 8.37454 5.93662 8.41403 5.91358C8.43378 5.90206 8.44673 5.89494 8.45242 5.89187C8.45527 5.89033 8.45629 5.88981 8.45545 5.89025C8.45502 5.89047 8.45413 5.89093 8.45276 5.89163C8.45208 5.89198 8.45127 5.89239 8.45035 5.89285C8.44989 5.89309 8.44939 5.89333 8.44887 5.8936C8.44861 5.89373 8.4482 5.89393 8.44807 5.894C8.44765 5.89421 8.44722 5.89443 8 5C7.55278 4.10557 7.55234 4.1058 7.55189 4.10602C7.55173 4.1061 7.55127 4.10633 7.55094 4.1065C7.5503 4.10682 7.54963 4.10716 7.54892 4.10752C7.54751 4.10823 7.54598 4.109 7.54433 4.10985C7.54102 4.11153 7.53723 4.11348 7.53296 4.1157C7.52442 4.12014 7.51397 4.12566 7.50168 4.1323C7.47709 4.14558 7.44513 4.16337 7.40628 4.18603C7.32859 4.23135 7.2234 4.29616 7.09475 4.38346C6.83735 4.55813 6.48648 4.8225 6.07428 5.20035C5.24877 5.95707 4.18359 7.16318 3.13177 9.00386L4.86826 9.99614Z" fill="white" fill-opacity="0.9"/>
</g>
<defs>
<clipPath id="clip0_112_14">
<rect width="35.1272" height="33.9895" fill="white" transform="translate(35.1718 33.9894) rotate(179.925)"/>
</clipPath>
</defs>
</svg>
