<svg width="280" height="260" viewBox="0 0 280 260" fill="none" xmlns="http://www.w3.org/2000/svg">
<path d="M8.0635 0.500807L5.56431 0.437302L5.4373 5.43569L7.9365 5.49919L8.0635 0.500807ZM279 9.88615V12.3862L279.064 7.38696L279 9.88615ZM8 9.88615V7.38615L7.91535 12.3847L8 9.88615ZM279 19.0677V21.5677L279.085 16.5691L279 19.0677ZM8 19.0677V16.5677L7.92592 21.5666L8 19.0677ZM279 27.1015V29.6015L279.074 24.6026L279 27.1015ZM8 27.1015V24.6015L7.94178 29.6009L8 27.1015ZM279 33.4138L279.037 35.9136L279.058 30.9145L279 33.4138ZM8 37.4308L7.96295 34.931L7.9365 39.9299L8 37.4308ZM279 44.3169L279.1 46.8149L279.064 41.8177L279 44.3169ZM8 55.22L7.8995 52.722L8 57.72V55.22ZM263.365 55.22V57.72L263.472 52.7223L263.365 55.22ZM8 44.3169L8.10664 41.8192L7.78174 46.8074L8 44.3169ZM263.365 66.6969V69.1969L263.584 64.2064L263.365 66.6969ZM8 66.6969V64.1969H0.924547L6.42941 68.642L8 66.6969ZM23.6346 79.3215L22.064 81.2666L22.767 81.8342L23.6705 81.8213L23.6346 79.3215ZM263.365 75.8784L263.401 78.3782L263.41 73.3788L263.365 75.8784ZM8 71.2877L8.04494 68.7881L7.85977 73.7837L8 71.2877ZM263.365 85.6338V88.1338L263.506 83.1377L263.365 85.6338ZM23.6346 85.6338V83.1338L23.5449 88.1322L23.6346 85.6338ZM263.365 94.2415L263.413 96.741L263.455 91.7431L263.365 94.2415ZM23.5868 96.3327L21.0872 96.3806L21.1829 101.38L23.6825 101.332L23.5868 96.3327ZM143.5 49.7684L143.601 52.2664L143.5 49.7684ZM7.9365 5.49919L278.936 12.3853L279.064 7.38696L8.0635 0.500807L7.9365 5.49919ZM279 7.38615H8V12.3862H279V7.38615ZM7.91535 12.3847L278.915 21.5663L279.085 16.5691L8.08465 7.38759L7.91535 12.3847ZM279 16.5677H8V21.5677H279V16.5677ZM7.92592 21.5666L278.926 29.6004L279.074 24.6026L8.07408 16.5688L7.92592 21.5666ZM279 24.6015H8V29.6015H279V24.6015ZM7.94178 29.6009L278.942 35.9132L279.058 30.9145L8.05822 24.6022L7.94178 29.6009ZM278.963 30.9141L7.96295 34.931L8.03705 39.9305L279.037 35.9136L278.963 30.9141ZM7.9365 39.9299L278.936 46.8161L279.064 41.8177L8.0635 34.9316L7.9365 39.9299ZM8 57.72H263.365V52.72H8V57.72ZM263.472 52.7223L8.10664 41.8192L7.89336 46.8146L263.259 57.7177L263.472 52.7223ZM7.78174 46.8074L263.147 69.1874L263.584 64.2064L8.21826 41.8265L7.78174 46.8074ZM6.42941 68.642L22.064 81.2666L25.2052 77.3764L9.57059 64.7518L6.42941 68.642ZM23.6705 81.8213L263.401 78.3782L263.329 73.3787L23.5987 76.8218L23.6705 81.8213ZM263.41 73.3788L8.04494 68.7881L7.95506 73.7873L263.32 78.378L263.41 73.3788ZM7.85977 73.7837L263.225 88.1299L263.506 83.1377L8.14023 68.7916L7.85977 73.7837ZM263.365 83.1338H23.6346V88.1338H263.365V83.1338ZM23.5449 88.1322L263.276 96.7399L263.455 91.7431L23.7243 83.1354L23.5449 88.1322ZM263.318 91.742L23.5868 96.3327L23.6825 101.332L263.413 96.741L263.318 91.742ZM278.9 41.8189L143.4 47.2705L143.601 52.2664L279.1 46.8149L278.9 41.8189ZM143.4 47.2705L7.8995 52.722L8.1005 57.718L143.601 52.2664L143.4 47.2705ZM263.365 64.1969H135.683V69.1969H263.365V64.1969ZM135.683 64.1969H8V69.1969H135.683V64.1969Z" fill="#6A9EDA" fill-opacity="0.5"/>
<path d="M8.0635 86.5875L5.56431 86.524L5.4373 91.5224L7.9365 91.5859L8.0635 86.5875ZM279 95.9729V98.4729L279.064 93.4737L279 95.9729ZM8 95.9729V93.4729L7.91535 98.4714L8 95.9729ZM279 105.154V107.654L279.085 102.656L279 105.154ZM8 105.154V102.654L7.92592 107.653L8 105.154ZM279 113.188V115.688L279.074 110.689L279 113.188ZM8 113.188V110.688L7.94178 115.688L8 113.188ZM279 119.501L279.037 122L279.058 117.001L279 119.501ZM8 123.517L7.96295 121.018L7.9365 126.017L8 123.517ZM279 130.404L279.1 132.902L279.064 127.904L279 130.404ZM8 141.307L7.8995 138.809L8 143.807V141.307ZM263.365 141.307V143.807L263.472 138.809L263.365 141.307ZM8 130.404L8.10664 127.906L7.78174 132.894L8 130.404ZM263.365 152.784V155.284L263.584 150.293L263.365 152.784ZM8 152.784V150.284H0.924547L6.42941 154.729L8 152.784ZM23.6346 165.408L22.064 167.353L22.767 167.921L23.6705 167.908L23.6346 165.408ZM263.365 161.965L263.401 164.465L263.41 159.466L263.365 161.965ZM8 157.374L8.04494 154.875L7.85977 159.87L8 157.374ZM263.365 171.721V174.221L263.506 169.224L263.365 171.721ZM23.6346 171.721V169.221L23.5449 174.219L23.6346 171.721ZM263.365 180.328L263.413 182.828L263.455 177.83L263.365 180.328ZM23.5868 182.419L21.0872 182.467L21.1829 187.466L23.6825 187.419L23.5868 182.419ZM143.5 135.855L143.601 138.353L143.5 135.855ZM7.9365 91.5859L278.936 98.4721L279.064 93.4737L8.0635 86.5875L7.9365 91.5859ZM279 93.4729H8V98.4729H279V93.4729ZM7.91535 98.4714L278.915 107.653L279.085 102.656L8.08465 93.4743L7.91535 98.4714ZM279 102.654H8V107.654H279V102.654ZM7.92592 107.653L278.926 115.687L279.074 110.689L8.07408 102.656L7.92592 107.653ZM279 110.688H8V115.688H279V110.688ZM7.94178 115.688L278.942 122L279.058 117.001L8.05822 110.689L7.94178 115.688ZM278.963 117.001L7.96295 121.018L8.03705 126.017L279.037 122L278.963 117.001ZM7.9365 126.017L278.936 132.903L279.064 127.904L8.0635 121.018L7.9365 126.017ZM8 143.807H263.365V138.807H8V143.807ZM263.472 138.809L8.10664 127.906L7.89336 132.901L263.259 143.804L263.472 138.809ZM7.78174 132.894L263.147 155.274L263.584 150.293L8.21826 127.913L7.78174 132.894ZM6.42941 154.729L22.064 167.353L25.2052 163.463L9.57059 150.839L6.42941 154.729ZM23.6705 167.908L263.401 164.465L263.329 159.465L23.5987 162.909L23.6705 167.908ZM263.41 159.466L8.04494 154.875L7.95506 159.874L263.32 164.465L263.41 159.466ZM7.85977 159.87L263.225 174.217L263.506 169.224L8.14023 154.878L7.85977 159.87ZM263.365 169.221H23.6346V174.221H263.365V169.221ZM23.5449 174.219L263.276 182.827L263.455 177.83L23.7243 169.222L23.5449 174.219ZM263.318 177.829L23.5868 182.419L23.6825 187.419L263.413 182.828L263.318 177.829ZM278.9 127.906L143.4 133.357L143.601 138.353L279.1 132.902L278.9 127.906ZM143.4 133.357L7.8995 138.809L8.1005 143.805L143.601 138.353L143.4 133.357ZM263.365 150.284H135.683V155.284H263.365V150.284ZM135.683 150.284H8V155.284H135.683V150.284Z" fill="#6A9EDA" fill-opacity="0.5"/>
<path d="M8.0635 72.5819L5.56431 72.5184L5.4373 77.5167L7.9365 77.5802L8.0635 72.5819ZM279 81.9672V84.4672L279.064 79.468L279 81.9672ZM8 81.9672V79.4672L7.91535 84.4658L8 81.9672ZM279 91.1487V93.6487L279.085 88.6502L279 91.1487ZM8 91.1487V88.6487L7.92592 93.6476L8 91.1487ZM279 99.1826V101.683L279.074 96.6837L279 99.1826ZM8 99.1826V96.6826L7.94178 101.682L8 99.1826ZM279 105.495L279.037 107.995L279.058 102.996L279 105.495ZM8 109.512L7.96295 107.012L7.9365 112.011L8 109.512ZM279 116.398L279.1 118.896L279.064 113.899L279 116.398ZM8 127.301L7.8995 124.803L8 129.801V127.301ZM263.365 127.301V129.801L263.472 124.803L263.365 127.301ZM8 116.398L8.10664 113.9L7.78174 118.888L8 116.398ZM263.365 138.778V141.278L263.584 136.287L263.365 138.778ZM8 138.778V136.278H0.924547L6.42941 140.723L8 138.778ZM23.6346 151.403L22.064 153.348L22.767 153.915L23.6705 153.902L23.6346 151.403ZM263.365 147.959L263.401 150.459L263.41 145.46L263.365 147.959ZM8 143.369L8.04494 140.869L7.85977 145.865L8 143.369ZM263.365 157.715V160.215L263.506 155.219L263.365 157.715ZM23.6346 157.715V155.215L23.5449 160.213L23.6346 157.715ZM263.365 166.323L263.413 168.822L263.455 163.824L263.365 166.323ZM23.5868 168.414L21.0872 168.462L21.1829 173.461L23.6825 173.413L23.5868 168.414ZM143.5 121.849L143.601 124.347L143.5 121.849ZM7.9365 77.5802L278.936 84.4664L279.064 79.468L8.0635 72.5819L7.9365 77.5802ZM279 79.4672H8V84.4672H279V79.4672ZM7.91535 84.4658L278.915 93.6473L279.085 88.6502L8.08465 79.4686L7.91535 84.4658ZM279 88.6487H8V93.6487H279V88.6487ZM7.92592 93.6476L278.926 101.681L279.074 96.6837L8.07408 88.6498L7.92592 93.6476ZM279 96.6826H8V101.683H279V96.6826ZM7.94178 101.682L278.942 107.994L279.058 102.996L8.05822 96.6833L7.94178 101.682ZM278.963 102.995L7.96295 107.012L8.03705 112.012L279.037 107.995L278.963 102.995ZM7.9365 112.011L278.936 118.897L279.064 113.899L8.0635 107.013L7.9365 112.011ZM8 129.801H263.365V124.801H8V129.801ZM263.472 124.803L8.10664 113.9L7.89336 118.896L263.259 129.799L263.472 124.803ZM7.78174 118.888L263.147 141.268L263.584 136.287L8.21826 113.908L7.78174 118.888ZM6.42941 140.723L22.064 153.348L25.2052 149.458L9.57059 136.833L6.42941 140.723ZM23.6705 153.902L263.401 150.459L263.329 145.46L23.5987 148.903L23.6705 153.902ZM263.41 145.46L8.04494 140.869L7.95506 145.868L263.32 150.459L263.41 145.46ZM7.85977 145.865L263.225 160.211L263.506 155.219L8.14023 140.873L7.85977 145.865ZM263.365 155.215H23.6346V160.215H263.365V155.215ZM23.5449 160.213L263.276 168.821L263.455 163.824L23.7243 155.216L23.5449 160.213ZM263.318 163.823L23.5868 168.414L23.6825 173.413L263.413 168.822L263.318 163.823ZM278.9 113.9L143.4 119.352L143.601 124.347L279.1 118.896L278.9 113.9ZM143.4 119.352L7.8995 124.803L8.1005 129.799L143.601 124.347L143.4 119.352ZM263.365 136.278H135.683V141.278H263.365V136.278ZM135.683 136.278H8V141.278H135.683V136.278Z" fill="#6A9EDA" fill-opacity="0.5"/>
<path d="M8.0635 158.668L5.56431 158.605L5.4373 163.603L7.9365 163.667L8.0635 158.668ZM279 168.054V170.554L279.064 165.555L279 168.054ZM8 168.054V165.554L7.91535 170.552L8 168.054ZM279 177.235V179.735L279.085 174.737L279 177.235ZM8 177.235V174.735L7.92592 179.734L8 177.235ZM279 185.269V187.769L279.074 182.77L279 185.269ZM8 185.269V182.769L7.94178 187.769L8 185.269ZM279 191.582L279.037 194.081L279.058 189.082L279 191.582ZM8 195.598L7.96295 193.099L7.9365 198.098L8 195.598ZM279 202.485L279.1 204.983L279.064 199.985L279 202.485ZM8 213.388L7.8995 210.89L8 215.888V213.388ZM263.365 213.388V215.888L263.472 210.89L263.365 213.388ZM8 202.485L8.10664 199.987L7.78174 204.975L8 202.485ZM263.365 224.865V227.365L263.584 222.374L263.365 224.865ZM8 224.865V222.365H0.924548L6.42941 226.81L8 224.865ZM23.6346 237.489L22.064 239.434L22.767 240.002L23.6705 239.989L23.6346 237.489ZM263.365 234.046L263.401 236.546L263.41 231.547L263.365 234.046ZM8 229.455L8.04494 226.956L7.85977 231.951L8 229.455ZM263.365 243.801V246.301L263.506 241.305L263.365 243.801ZM23.6346 243.801V241.301L23.5449 246.3L23.6346 243.801ZM263.365 252.409L263.413 254.909L263.455 249.911L263.365 252.409ZM23.5868 254.5L21.0872 254.548L21.1829 259.547L23.6825 259.499L23.5868 254.5ZM143.5 207.936L143.601 210.434L143.5 207.936ZM7.9365 163.667L278.936 170.553L279.064 165.555L8.0635 158.668L7.9365 163.667ZM279 165.554H8V170.554H279V165.554ZM7.91535 170.552L278.915 179.734L279.085 174.737L8.08465 165.555L7.91535 170.552ZM279 174.735H8V179.735H279V174.735ZM7.92592 179.734L278.926 187.768L279.074 182.77L8.07408 174.736L7.92592 179.734ZM279 182.769H8V187.769H279V182.769ZM7.94178 187.769L278.942 194.081L279.058 189.082L8.05822 182.77L7.94178 187.769ZM278.963 189.082L7.96295 193.099L8.03705 198.098L279.037 194.081L278.963 189.082ZM7.9365 198.098L278.936 204.984L279.064 199.985L8.0635 193.099L7.9365 198.098ZM8 215.888H263.365V210.888H8V215.888ZM263.472 210.89L8.10664 199.987L7.89336 204.982L263.259 215.885L263.472 210.89ZM7.78174 204.975L263.147 227.355L263.584 222.374L8.21826 199.994L7.78174 204.975ZM6.42941 226.81L22.064 239.434L25.2052 235.544L9.57059 222.92L6.42941 226.81ZM23.6705 239.989L263.401 236.546L263.329 231.546L23.5987 234.989L23.6705 239.989ZM263.41 231.547L8.04494 226.956L7.95506 231.955L263.32 236.546L263.41 231.547ZM7.85977 231.951L263.225 246.298L263.506 241.305L8.14023 226.959L7.85977 231.951ZM263.365 241.301H23.6346V246.301H263.365V241.301ZM23.5449 246.3L263.276 254.908L263.455 249.911L23.7243 241.303L23.5449 246.3ZM263.318 249.91L23.5868 254.5L23.6825 259.499L263.413 254.909L263.318 249.91ZM278.9 199.987L143.4 205.438L143.601 210.434L279.1 204.983L278.9 199.987ZM143.4 205.438L7.8995 210.89L8.1005 215.886L143.601 210.434L143.4 205.438ZM263.365 222.365H135.683V227.365H263.365V222.365ZM135.683 222.365H8V227.365H135.683V222.365Z" fill="#6A9EDA" fill-opacity="0.5"/>
<path d="M8.062 6.52451L5.56277 6.46251L5.43877 11.461L7.938 11.523L8.062 6.52451ZM279 15.7466V18.2466L279.062 13.2474L279 15.7466ZM8 15.7466V13.2466L7.91735 18.2452L8 15.7466ZM279 24.7104V27.2104L279.083 22.2117L279 24.7104ZM8 24.7104V22.2104L7.92767 27.2093L8 24.7104ZM279 32.5537V35.0537L279.072 30.0547L279 32.5537ZM8 32.5537V30.0537L7.94316 35.0531L8 32.5537ZM279 38.7163L279.036 41.216L279.057 36.2169L279 38.7163ZM8 42.638L7.96383 40.1382L7.938 45.1372L8 42.638ZM279 49.3608L279.098 51.8589L279.062 46.8616L279 49.3608ZM8 60.0053L7.90188 57.5072L8 62.5053V60.0053ZM263.365 60.0053V62.5053L263.47 57.5075L263.365 60.0053ZM8 49.3608L8.10412 46.863L7.78688 51.8517L8 49.3608ZM263.365 71.21V73.71L263.579 68.7191L263.365 71.21ZM8 71.21V68.71H0.79055L6.45227 73.1733L8 71.21ZM23.6346 83.5353L22.0869 85.4986L22.7832 86.0474L23.6697 86.035L23.6346 83.5353ZM263.365 80.1738L263.4 82.6736L263.409 77.6742L263.365 80.1738ZM8 75.6919L8.04387 73.1923L7.86309 78.1882L8 75.6919ZM263.365 89.6979V92.1979L263.502 87.2016L263.365 89.6979ZM23.6346 89.6979V87.1979L23.547 92.1963L23.6346 89.6979ZM263.365 98.1014L263.412 100.601L263.453 95.603L263.365 98.1014ZM23.5879 100.084L21.0883 100.13L21.1818 105.13L23.6813 105.083L23.5879 100.084ZM143.5 54.6831L143.598 57.1811L143.5 54.6831ZM7.938 11.523L278.938 18.2458L279.062 13.2474L8.062 6.52451L7.938 11.523ZM279 13.2466H8V18.2466H279V13.2466ZM7.91735 18.2452L278.917 27.209L279.083 22.2117L8.08265 13.248L7.91735 18.2452ZM279 22.2104H8V27.2104H279V22.2104ZM7.92767 27.2093L278.928 35.0527L279.072 30.0547L8.07233 22.2114L7.92767 27.2093ZM279 30.0537H8V35.0537H279V30.0537ZM7.94316 35.0531L278.943 41.2157L279.057 36.2169L8.05684 30.0543L7.94316 35.0531ZM278.964 36.2166L7.96383 40.1382L8.03617 45.1377L279.036 41.216L278.964 36.2166ZM7.938 45.1372L278.938 51.86L279.062 46.8616L8.062 40.1387L7.938 45.1372ZM8 62.5053H263.365V57.5053H8V62.5053ZM263.47 57.5075L8.10412 46.863L7.89588 51.8586L263.261 62.5031L263.47 57.5075ZM7.78688 51.8517L263.152 73.7009L263.579 68.7191L8.21312 46.8699L7.78688 51.8517ZM6.45227 73.1733L22.0869 85.4986L25.1823 81.572L9.54773 69.2467L6.45227 73.1733ZM23.6697 86.035L263.4 82.6736L263.33 77.6741L23.5996 81.0355L23.6697 86.035ZM263.409 77.6742L8.04387 73.1923L7.95613 78.1916L263.322 82.6735L263.409 77.6742ZM7.86309 78.1882L263.228 92.1941L263.502 87.2016L8.13691 73.1957L7.86309 78.1882ZM263.365 87.1979H23.6346V92.1979H263.365V87.1979ZM23.547 92.1963L263.278 100.6L263.453 95.603L23.7222 87.1994L23.547 92.1963ZM263.319 95.6019L23.5879 100.084L23.6813 105.083L263.412 100.601L263.319 95.6019ZM278.902 46.8627L143.402 52.185L143.598 57.1811L279.098 51.8589L278.902 46.8627ZM143.402 52.185L7.90188 57.5072L8.09812 62.5034L143.598 57.1811L143.402 52.185ZM263.365 68.71H135.683V73.71H263.365V68.71ZM135.683 68.71H8V73.71H135.683V68.71Z" fill="#6A9EDA" fill-opacity="0.5"/>
<path d="M8.062 90.5696L5.56277 90.5076L5.43877 95.5061L7.938 95.5681L8.062 90.5696ZM279 99.7917V102.292L279.062 97.2925L279 99.7917ZM8 99.7917V97.2917L7.91735 102.29L8 99.7917ZM279 108.755V111.255L279.083 106.257L279 108.755ZM8 108.755V106.255L7.92767 111.254L8 108.755ZM279 116.599V119.099L279.072 114.1L279 116.599ZM8 116.599V114.099L7.94316 119.098L8 116.599ZM279 122.761L279.036 125.261L279.057 120.262L279 122.761ZM8 126.683L7.96383 124.183L7.938 129.182L8 126.683ZM279 133.406L279.098 135.904L279.062 130.907L279 133.406ZM8 144.05L7.90188 141.552L8 146.55V144.05ZM263.365 144.05V146.55L263.47 141.553L263.365 144.05ZM8 133.406L8.10412 130.908L7.78688 135.897L8 133.406ZM263.365 155.255V157.755L263.579 152.764L263.365 155.255ZM8 155.255V152.755H0.79055L6.45227 157.218L8 155.255ZM23.6346 167.58L22.0869 169.544L22.7832 170.093L23.6697 170.08L23.6346 167.58ZM263.365 164.219L263.4 166.719L263.409 161.719L263.365 164.219ZM8 159.737L8.04387 157.237L7.86309 162.233L8 159.737ZM263.365 173.743V176.243L263.502 171.247L263.365 173.743ZM23.6346 173.743V171.243L23.547 176.241L23.6346 173.743ZM263.365 182.147L263.412 184.646L263.453 179.648L263.365 182.147ZM23.5879 184.129L21.0883 184.176L21.1818 189.175L23.6813 189.128L23.5879 184.129ZM143.5 138.728L143.598 141.226L143.5 138.728ZM7.938 95.5681L278.938 102.291L279.062 97.2925L8.062 90.5696L7.938 95.5681ZM279 97.2917H8V102.292H279V97.2917ZM7.91735 102.29L278.917 111.254L279.083 106.257L8.08265 97.2931L7.91735 102.29ZM279 106.255H8V111.255H279V106.255ZM7.92767 111.254L278.928 119.098L279.072 114.1L8.07233 106.257L7.92767 111.254ZM279 114.099H8V119.099H279V114.099ZM7.94316 119.098L278.943 125.261L279.057 120.262L8.05684 114.099L7.94316 119.098ZM278.964 120.262L7.96383 124.183L8.03617 129.183L279.036 125.261L278.964 120.262ZM7.938 129.182L278.938 135.905L279.062 130.907L8.062 124.184L7.938 129.182ZM8 146.55H263.365V141.55H8V146.55ZM263.47 141.553L8.10412 130.908L7.89588 135.904L263.261 146.548L263.47 141.553ZM7.78688 135.897L263.152 157.746L263.579 152.764L8.21312 130.915L7.78688 135.897ZM6.45227 157.218L22.0869 169.544L25.1823 165.617L9.54773 153.292L6.45227 157.218ZM23.6697 170.08L263.4 166.719L263.33 161.719L23.5996 165.081L23.6697 170.08ZM263.409 161.719L8.04387 157.237L7.95613 162.237L263.322 166.719L263.409 161.719ZM7.86309 162.233L263.228 176.239L263.502 171.247L8.13691 157.241L7.86309 162.233ZM263.365 171.243H23.6346V176.243H263.365V171.243ZM23.547 176.241L263.278 184.645L263.453 179.648L23.7222 171.245L23.547 176.241ZM263.319 179.647L23.5879 184.129L23.6813 189.128L263.412 184.646L263.319 179.647ZM278.902 130.908L143.402 136.23L143.598 141.226L279.098 135.904L278.902 130.908ZM143.402 136.23L7.90188 141.552L8.09812 146.548L143.598 141.226L143.402 136.23ZM263.365 152.755H135.683V157.755H263.365V152.755ZM135.683 152.755H8V157.755H135.683V152.755Z" fill="#6A9EDA" fill-opacity="0.5"/>
<path d="M8.03967 0.500315L5.53998 0.460648L5.46065 5.46002L7.96033 5.49969L8.03967 0.500315ZM279 7.30044V9.80044L279.04 4.80076L279 7.30044ZM8 7.30044V4.80044L7.94712 9.79988L8 7.30044ZM279 13.0344V15.5344L279.053 10.5349L279 13.0344ZM8 13.0344V10.5344L7.95372 15.5339L8 13.0344ZM279 18.0515V20.5515L279.046 15.552L279 18.0515ZM8 18.0515V15.5515L7.96364 20.5513L8 18.0515ZM279 21.9936L279.023 24.4935L279.036 19.4939L279 21.9936ZM8 24.5022L7.97686 22.0023L7.96033 27.0019L8 24.5022ZM279 28.8027L279.063 31.3019L279.04 26.303L279 28.8027ZM8 35.6117L7.93721 33.1125L8 38.1117V35.6117ZM263.365 35.6117V38.1117L263.432 33.1126L263.365 35.6117ZM8 28.8027L8.06664 26.3035L7.86338 31.2989L8 28.8027ZM263.365 42.7791V45.2791L263.502 40.2828L263.365 42.7791ZM8 42.7791V40.2791L6.87434 45.0113L8 42.7791ZM23.6346 50.6632L22.509 52.8955L23.0505 53.1686L23.657 53.1631L23.6346 50.6632ZM263.365 48.513L263.388 51.0129L263.393 46.0132L263.365 48.513ZM8 45.6461L8.02807 43.1462L7.91234 48.1445L8 45.6461ZM263.365 54.6053V57.1053L263.453 52.1068L263.365 54.6053ZM23.6346 54.6053V52.1053L23.5786 57.1047L23.6346 54.6053ZM263.365 59.9809L263.395 62.4807L263.421 57.4815L263.365 59.9809ZM23.6047 60.348L21.1049 60.3779L21.1647 65.3775L23.6645 65.3477L23.6047 60.348ZM143.5 32.2072L143.563 34.7064L143.5 32.2072ZM7.96033 5.49969L278.96 9.80013L279.04 4.80076L8.03967 0.500315L7.96033 5.49969ZM279 4.80044H8V9.80044H279V4.80044ZM7.94712 9.79988L278.947 15.5338L279.053 10.5349L8.05288 4.801L7.94712 9.79988ZM279 10.5344H8V15.5344H279V10.5344ZM7.95372 15.5339L278.954 20.5511L279.046 15.552L8.04628 10.5348L7.95372 15.5339ZM279 15.5515H8V20.5515H279V15.5515ZM7.96364 20.5513L278.964 24.4934L279.036 19.4939L8.03636 15.5518L7.96364 20.5513ZM278.977 19.4937L7.97686 22.0023L8.02314 27.0021L279.023 24.4935L278.977 19.4937ZM7.96033 27.0019L278.96 31.3023L279.04 26.303L8.03967 22.0025L7.96033 27.0019ZM8 38.1117H263.365V33.1117H8V38.1117ZM263.432 33.1126L8.06664 26.3035L7.93336 31.3018L263.299 38.1108L263.432 33.1126ZM7.86338 31.2989L263.229 45.2754L263.502 40.2828L8.13662 26.3064L7.86338 31.2989ZM6.87434 45.0113L22.509 52.8955L24.7603 48.431L9.12566 40.5469L6.87434 45.0113ZM23.657 53.1631L263.388 51.0129L263.343 46.0131L23.6122 48.1633L23.657 53.1631ZM263.393 46.0132L8.02807 43.1462L7.97193 48.1459L263.337 51.0129L263.393 46.0132ZM7.91234 48.1445L263.278 57.1038L263.453 52.1068L8.08766 43.1476L7.91234 48.1445ZM263.365 52.1053H23.6346V57.1053H263.365V52.1053ZM23.5786 57.1047L263.309 62.4802L263.421 57.4815L23.6907 52.1059L23.5786 57.1047ZM263.335 57.481L23.6047 60.348L23.6645 65.3477L263.395 62.4807L263.335 57.481ZM278.937 26.3034L143.437 29.708L143.563 34.7064L279.063 31.3019L278.937 26.3034ZM143.437 29.708L7.93721 33.1125L8.06279 38.1109L143.563 34.7064L143.437 29.708ZM263.365 40.2791H135.683V45.2791H263.365V40.2791ZM135.683 40.2791H8V45.2791H135.683V40.2791Z" fill="#6A9EDA" fill-opacity="0.5"/>
<path d="M8.03967 54.262L5.53998 54.2223L5.46065 59.2217L7.96033 59.2613L8.03967 54.262ZM279 61.0621V63.5621L279.04 58.5624L279 61.0621ZM8 61.0621V58.5621L7.94712 63.5615L8 61.0621ZM279 66.796V69.296L279.053 64.2966L279 66.796ZM8 66.796V64.296L7.95372 69.2956L8 66.796ZM279 71.8132V74.3132L279.046 69.3136L279 71.8132ZM8 71.8132V69.3132L7.96364 74.3129L8 71.8132ZM279 75.7553L279.023 78.2552L279.036 73.2555L279 75.7553ZM8 78.2639L7.97686 75.764L7.96033 80.7636L8 78.2639ZM279 82.5643L279.063 85.0635L279.04 80.0646L279 82.5643ZM8 89.3733L7.93721 86.8741L8 91.8733V89.3733ZM263.365 89.3733V91.8733L263.432 86.8742L263.365 89.3733ZM8 82.5643L8.06664 80.0652L7.86338 85.0606L8 82.5643ZM263.365 96.5408V99.0408L263.502 94.0445L263.365 96.5408ZM8 96.5408V94.0408L6.87434 98.773L8 96.5408ZM23.6346 104.425L22.509 106.657L23.0505 106.93L23.657 106.925L23.6346 104.425ZM263.365 102.275L263.388 104.775L263.393 99.7748L263.365 102.275ZM8 99.4077L8.02807 96.9079L7.91234 101.906L8 99.4077ZM263.365 108.367V110.867L263.453 105.869L263.365 108.367ZM23.6346 108.367V105.867L23.5786 110.866L23.6346 108.367ZM263.365 113.743L263.395 116.242L263.421 111.243L263.365 113.743ZM23.6047 114.11L21.1049 114.14L21.1647 119.139L23.6645 119.109L23.6047 114.11ZM143.5 85.9688L143.563 88.468L143.5 85.9688ZM7.96033 59.2613L278.96 63.5618L279.04 58.5624L8.03967 54.262L7.96033 59.2613ZM279 58.5621H8V63.5621H279V58.5621ZM7.94712 63.5615L278.947 69.2955L279.053 64.2966L8.05288 58.5627L7.94712 63.5615ZM279 64.296H8V69.296H279V64.296ZM7.95372 69.2956L278.954 74.3128L279.046 69.3136L8.04628 64.2965L7.95372 69.2956ZM279 69.3132H8V74.3132H279V69.3132ZM7.96364 74.3129L278.964 78.255L279.036 73.2555L8.03636 69.3135L7.96364 74.3129ZM278.977 73.2554L7.97686 75.764L8.02314 80.7638L279.023 78.2552L278.977 73.2554ZM7.96033 80.7636L278.96 85.064L279.04 80.0646L8.03967 75.7642L7.96033 80.7636ZM8 91.8733H263.365V86.8734H8V91.8733ZM263.432 86.8742L8.06664 80.0652L7.93336 85.0634L263.299 91.8725L263.432 86.8742ZM7.86338 85.0606L263.229 99.037L263.502 94.0445L8.13662 80.0681L7.86338 85.0606ZM6.87434 98.773L22.509 106.657L24.7603 102.193L9.12566 94.3085L6.87434 98.773ZM23.657 106.925L263.388 104.775L263.343 99.7748L23.6122 101.925L23.657 106.925ZM263.393 99.7748L8.02807 96.9079L7.97193 101.908L263.337 104.775L263.393 99.7748ZM7.91234 101.906L263.278 110.865L263.453 105.869L8.08766 96.9093L7.91234 101.906ZM263.365 105.867H23.6346V110.867H263.365V105.867ZM23.5786 110.866L263.309 116.242L263.421 111.243L23.6907 105.868L23.5786 110.866ZM263.335 111.243L23.6047 114.11L23.6645 119.109L263.395 116.242L263.335 111.243ZM278.937 80.0651L143.437 83.4696L143.563 88.468L279.063 85.0635L278.937 80.0651ZM143.437 83.4696L7.93721 86.8741L8.06279 91.8726L143.563 88.468L143.437 83.4696ZM263.365 94.0408H135.683V99.0408H263.365V94.0408ZM135.683 94.0408H8V99.0408H135.683V94.0408Z" fill="#6A9EDA" fill-opacity="0.5"/>
<path d="M8.03967 45.5153L5.53998 45.4757L5.46065 50.475L7.96033 50.5147L8.03967 45.5153ZM279 52.3155V54.8155L279.04 49.8158L279 52.3155ZM8 52.3155V49.8155L7.94712 54.8149L8 52.3155ZM279 58.0494V60.5494L279.053 55.5499L279 58.0494ZM8 58.0494V55.5494L7.95372 60.549L8 58.0494ZM279 63.0666V65.5666L279.046 60.567L279 63.0666ZM8 63.0666V60.5666L7.96364 65.5663L8 63.0666ZM279 67.0086L279.023 69.5085L279.036 64.5089L279 67.0086ZM8 69.5172L7.97686 67.0173L7.96033 72.0169L8 69.5172ZM279 73.8177L279.063 76.3169L279.04 71.318L279 73.8177ZM8 80.6267L7.93721 78.1275L8 83.1267V80.6267ZM263.365 80.6267V83.1267L263.432 78.1276L263.365 80.6267ZM8 73.8177L8.06664 71.3186L7.86338 76.3139L8 73.8177ZM263.365 87.7941V90.2941L263.502 85.2978L263.365 87.7941ZM8 87.7941V85.2941L6.87434 90.0263L8 87.7941ZM23.6346 95.6783L22.509 97.9105L23.0505 98.1836L23.657 98.1782L23.6346 95.6783ZM263.365 93.528L263.388 96.0279L263.393 91.0282L263.365 93.528ZM8 90.6611L8.02807 88.1612L7.91234 93.1595L8 90.6611ZM263.365 99.6203V102.12L263.453 97.1219L263.365 99.6203ZM23.6346 99.6203V97.1203L23.5786 102.12L23.6346 99.6203ZM263.365 104.996L263.395 107.496L263.421 102.497L263.365 104.996ZM23.6047 105.363L21.1049 105.393L21.1647 110.393L23.6645 110.363L23.6047 105.363ZM143.5 77.2222L143.563 79.7214L143.5 77.2222ZM7.96033 50.5147L278.96 54.8151L279.04 49.8158L8.03967 45.5153L7.96033 50.5147ZM279 49.8155H8V54.8155H279V49.8155ZM7.94712 54.8149L278.947 60.5488L279.053 55.5499L8.05288 49.816L7.94712 54.8149ZM279 55.5494H8V60.5494H279V55.5494ZM7.95372 60.549L278.954 65.5661L279.046 60.567L8.04628 55.5498L7.95372 60.549ZM279 60.5666H8V65.5666H279V60.5666ZM7.96364 65.5663L278.964 69.5084L279.036 64.5089L8.03636 60.5668L7.96364 65.5663ZM278.977 64.5087L7.97686 67.0173L8.02314 72.0171L279.023 69.5085L278.977 64.5087ZM7.96033 72.0169L278.96 76.3174L279.04 71.318L8.03967 67.0175L7.96033 72.0169ZM8 83.1267H263.365V78.1267H8V83.1267ZM263.432 78.1276L8.06664 71.3186L7.93336 76.3168L263.299 83.1258L263.432 78.1276ZM7.86338 76.3139L263.229 90.2904L263.502 85.2978L8.13662 71.3214L7.86338 76.3139ZM6.87434 90.0263L22.509 97.9105L24.7603 93.446L9.12566 85.5619L6.87434 90.0263ZM23.657 98.1782L263.388 96.0279L263.343 91.0281L23.6122 93.1784L23.657 98.1782ZM263.393 91.0282L8.02807 88.1612L7.97193 93.1609L263.337 96.0279L263.393 91.0282ZM7.91234 93.1595L263.278 102.119L263.453 97.1219L8.08766 88.1626L7.91234 93.1595ZM263.365 97.1203H23.6346V102.12H263.365V97.1203ZM23.5786 102.12L263.309 107.495L263.421 102.497L23.6907 97.121L23.5786 102.12ZM263.335 102.496L23.6047 105.363L23.6645 110.363L263.395 107.496L263.335 102.496ZM278.937 71.3185L143.437 74.723L143.563 79.7214L279.063 76.3169L278.937 71.3185ZM143.437 74.723L7.93721 78.1275L8.06279 83.1259L143.563 79.7214L143.437 74.723ZM263.365 85.2941H135.683V90.2941H263.365V85.2941ZM135.683 85.2941H8V90.2941H135.683V85.2941Z" fill="#6A9EDA" fill-opacity="0.5"/>
<path d="M8.03967 99.2769L5.53998 99.2373L5.46065 104.237L7.96033 104.276L8.03967 99.2769ZM279 106.077V108.577L279.04 103.577L279 106.077ZM8 106.077V103.577L7.94712 108.576L8 106.077ZM279 111.811V114.311L279.053 109.312L279 111.811ZM8 111.811V109.311L7.95372 114.311L8 111.811ZM279 116.828V119.328L279.046 114.329L279 116.828ZM8 116.828V114.328L7.96364 119.328L8 116.828ZM279 120.77L279.023 123.27L279.036 118.27L279 120.77ZM8 123.279L7.97686 120.779L7.96033 125.779L8 123.279ZM279 127.579L279.063 130.078L279.04 125.08L279 127.579ZM8 134.388L7.93721 131.889L8 136.888V134.388ZM263.365 134.388V136.888L263.432 131.889L263.365 134.388ZM8 127.579L8.06664 125.08L7.86338 130.076L8 127.579ZM263.365 141.556V144.056L263.502 139.059L263.365 141.556ZM8 141.556V139.056L6.87434 143.788L8 141.556ZM23.6346 149.44L22.509 151.672L23.0505 151.945L23.657 151.94L23.6346 149.44ZM263.365 147.29L263.388 149.79L263.393 144.79L263.365 147.29ZM8 144.423L8.02807 141.923L7.91234 146.921L8 144.423ZM263.365 153.382V155.882L263.453 150.883L263.365 153.382ZM23.6346 153.382V150.882L23.5786 155.881L23.6346 153.382ZM263.365 158.757L263.395 161.257L263.421 156.258L263.365 158.757ZM23.6047 159.125L21.1049 159.155L21.1647 164.154L23.6645 164.124L23.6047 159.125ZM143.5 130.984L143.563 133.483L143.5 130.984ZM7.96033 104.276L278.96 108.577L279.04 103.577L8.03967 99.2769L7.96033 104.276ZM279 103.577H8V108.577H279V103.577ZM7.94712 108.576L278.947 114.31L279.053 109.312L8.05288 103.578L7.94712 108.576ZM279 109.311H8V114.311H279V109.311ZM7.95372 114.311L278.954 119.328L279.046 114.329L8.04628 109.311L7.95372 114.311ZM279 114.328H8V119.328H279V114.328ZM7.96364 119.328L278.964 123.27L279.036 118.27L8.03636 114.328L7.96364 119.328ZM278.977 118.27L7.97686 120.779L8.02314 125.779L279.023 123.27L278.977 118.27ZM7.96033 125.779L278.96 130.079L279.04 125.08L8.03967 120.779L7.96033 125.779ZM8 136.888H263.365V131.888H8V136.888ZM263.432 131.889L8.06664 125.08L7.93336 130.078L263.299 136.887L263.432 131.889ZM7.86338 130.076L263.229 144.052L263.502 139.059L8.13662 125.083L7.86338 130.076ZM6.87434 143.788L22.509 151.672L24.7603 147.208L9.12566 139.323L6.87434 143.788ZM23.657 151.94L263.388 149.79L263.343 144.79L23.6122 146.94L23.657 151.94ZM263.393 144.79L8.02807 141.923L7.97193 146.923L263.337 149.789L263.393 144.79ZM7.91234 146.921L263.278 155.88L263.453 150.883L8.08766 141.924L7.91234 146.921ZM263.365 150.882H23.6346V155.882H263.365V150.882ZM23.5786 155.881L263.309 161.257L263.421 156.258L23.6907 150.883L23.5786 155.881ZM263.335 156.258L23.6047 159.125L23.6645 164.124L263.395 161.257L263.335 156.258ZM278.937 125.08L143.437 128.485L143.563 133.483L279.063 130.078L278.937 125.08ZM143.437 128.485L7.93721 131.889L8.06279 136.888L143.563 133.483L143.437 128.485ZM263.365 139.056H135.683V144.056H263.365V139.056ZM135.683 139.056H8V144.056H135.683V139.056Z" fill="#6A9EDA" fill-opacity="0.5"/>
<path d="M8.062 76.8961L5.56277 76.8341L5.43877 81.8326L7.938 81.8946L8.062 76.8961ZM279 86.1182V88.6182L279.062 83.6189L279 86.1182ZM8 86.1182V83.6182L7.91735 88.6168L8 86.1182ZM279 95.082V97.582L279.083 92.5833L279 95.082ZM8 95.082V92.582L7.92767 97.5809L8 95.082ZM279 102.925V105.425L279.072 100.426L279 102.925ZM8 102.925V100.425L7.94316 105.425L8 102.925ZM279 109.088L279.036 111.588L279.057 106.589L279 109.088ZM8 113.01L7.96383 110.51L7.938 115.509L8 113.01ZM279 119.732L279.098 122.23L279.062 117.233L279 119.732ZM8 130.377L7.90188 127.879L8 132.877V130.377ZM263.365 130.377V132.877L263.47 127.879L263.365 130.377ZM8 119.732L8.10412 117.235L7.78688 122.223L8 119.732ZM263.365 141.582V144.082L263.579 139.091L263.365 141.582ZM8 141.582V139.082H0.79055L6.45227 143.545L8 141.582ZM23.6346 153.907L22.0869 155.87L22.7832 156.419L23.6697 156.407L23.6346 153.907ZM263.365 150.545L263.4 153.045L263.409 148.046L263.365 150.545ZM8 146.064L8.04387 143.564L7.86309 148.56L8 146.064ZM263.365 160.069V162.569L263.502 157.573L263.365 160.069ZM23.6346 160.069V157.569L23.547 162.568L23.6346 160.069ZM263.365 168.473L263.412 170.973L263.453 165.975L263.365 168.473ZM23.5879 170.455L21.0883 170.502L21.1818 175.501L23.6813 175.454L23.5879 170.455ZM143.5 125.055L143.598 127.553L143.5 125.055ZM7.938 81.8946L278.938 88.6174L279.062 83.6189L8.062 76.8961L7.938 81.8946ZM279 83.6182H8V88.6182H279V83.6182ZM7.91735 88.6168L278.917 97.5806L279.083 92.5833L8.08265 83.6195L7.91735 88.6168ZM279 92.582H8V97.582H279V92.582ZM7.92767 97.5809L278.928 105.424L279.072 100.426L8.07233 92.583L7.92767 97.5809ZM279 100.425H8V105.425H279V100.425ZM7.94316 105.425L278.943 111.587L279.057 106.589L8.05684 100.426L7.94316 105.425ZM278.964 106.588L7.96383 110.51L8.03617 115.509L279.036 111.588L278.964 106.588ZM7.938 115.509L278.938 122.232L279.062 117.233L8.062 110.51L7.938 115.509ZM8 132.877H263.365V127.877H8V132.877ZM263.47 127.879L8.10412 117.235L7.89588 122.23L263.261 132.875L263.47 127.879ZM7.78688 122.223L263.152 144.073L263.579 139.091L8.21312 117.241L7.78688 122.223ZM6.45227 143.545L22.0869 155.87L25.1823 151.944L9.54773 139.618L6.45227 143.545ZM23.6697 156.407L263.4 153.045L263.33 148.046L23.5996 151.407L23.6697 156.407ZM263.409 148.046L8.04387 143.564L7.95613 148.563L263.322 153.045L263.409 148.046ZM7.86309 148.56L263.228 162.566L263.502 157.573L8.13691 143.567L7.86309 148.56ZM263.365 157.569H23.6346V162.569H263.365V157.569ZM23.547 162.568L263.278 170.971L263.453 165.975L23.7222 157.571L23.547 162.568ZM263.319 165.973L23.5879 170.455L23.6813 175.454L263.412 170.973L263.319 165.973ZM278.902 117.234L143.402 122.557L143.598 127.553L279.098 122.23L278.902 117.234ZM143.402 122.557L7.90188 127.879L8.09812 132.875L143.598 127.553L143.402 122.557ZM263.365 139.082H135.683V144.082H263.365V139.082ZM135.683 139.082H8V144.082H135.683V139.082Z" fill="#6A9EDA" fill-opacity="0.5"/>
<path d="M8.062 160.941L5.56277 160.879L5.43877 165.878L7.938 165.94L8.062 160.941ZM279 170.163V172.663L279.062 167.664L279 170.163ZM8 170.163V167.663L7.91735 172.662L8 170.163ZM279 179.127V181.627L279.083 176.628L279 179.127ZM8 179.127V176.627L7.92767 181.626L8 179.127ZM279 186.97V189.47L279.072 184.471L279 186.97ZM8 186.97V184.47L7.94316 189.47L8 186.97ZM279 193.133L279.036 195.633L279.057 190.634L279 193.133ZM8 197.055L7.96383 194.555L7.938 199.554L8 197.055ZM279 203.777L279.098 206.276L279.062 201.278L279 203.777ZM8 214.422L7.90188 211.924L8 216.922V214.422ZM263.365 214.422V216.922L263.47 211.924L263.365 214.422ZM8 203.777L8.10412 201.28L7.78688 206.268L8 203.777ZM263.365 225.627V228.127L263.579 223.136L263.365 225.627ZM8 225.627V223.127H0.790549L6.45227 227.59L8 225.627ZM23.6346 237.952L22.0869 239.915L22.7832 240.464L23.6697 240.452L23.6346 237.952ZM263.365 234.59L263.4 237.09L263.409 232.091L263.365 234.59ZM8 230.109L8.04387 227.609L7.86309 232.605L8 230.109ZM263.365 244.114V246.614L263.502 241.618L263.365 244.114ZM23.6346 244.114V241.614L23.547 246.613L23.6346 244.114ZM263.365 252.518L263.412 255.018L263.453 250.02L263.365 252.518ZM23.5879 254.5L21.0883 254.547L21.1818 259.546L23.6813 259.5L23.5879 254.5ZM143.5 209.1L143.598 211.598L143.5 209.1ZM7.938 165.94L278.938 172.662L279.062 167.664L8.062 160.941L7.938 165.94ZM279 167.663H8V172.663H279V167.663ZM7.91735 172.662L278.917 181.626L279.083 176.628L8.08265 167.665L7.91735 172.662ZM279 176.627H8V181.627H279V176.627ZM7.92767 181.626L278.928 189.469L279.072 184.471L8.07233 176.628L7.92767 181.626ZM279 184.47H8V189.47H279V184.47ZM7.94316 189.47L278.943 195.632L279.057 190.634L8.05684 184.471L7.94316 189.47ZM278.964 190.633L7.96383 194.555L8.03617 199.554L279.036 195.633L278.964 190.633ZM7.938 199.554L278.938 206.277L279.062 201.278L8.062 194.555L7.938 199.554ZM8 216.922H263.365V211.922H8V216.922ZM263.47 211.924L8.10412 201.28L7.89588 206.275L263.261 216.92L263.47 211.924ZM7.78688 206.268L263.152 228.118L263.579 223.136L8.21312 201.287L7.78688 206.268ZM6.45227 227.59L22.0869 239.915L25.1823 235.989L9.54773 223.663L6.45227 227.59ZM23.6697 240.452L263.4 237.09L263.33 232.091L23.5996 235.452L23.6697 240.452ZM263.409 232.091L8.04387 227.609L7.95613 232.608L263.322 237.09L263.409 232.091ZM7.86309 232.605L263.228 246.611L263.502 241.618L8.13691 227.612L7.86309 232.605ZM263.365 241.614H23.6346V246.614H263.365V241.614ZM23.547 246.613L263.278 255.017L263.453 250.02L23.7222 241.616L23.547 246.613ZM263.319 250.018L23.5879 254.5L23.6813 259.5L263.412 255.018L263.319 250.018ZM278.902 201.279L143.402 206.602L143.598 211.598L279.098 206.276L278.902 201.279ZM143.402 206.602L7.90188 211.924L8.09812 216.92L143.598 211.598L143.402 206.602ZM263.365 223.127H135.683V228.127H263.365V223.127ZM135.683 223.127H8V228.127H135.683V223.127Z" fill="#6A9EDA" fill-opacity="0.5"/>
<path d="M8.03967 95.8758L5.53998 95.8361L5.46065 100.836L7.96033 100.875L8.03967 95.8758ZM279 102.676V105.176L279.04 100.176L279 102.676ZM8 102.676V100.176L7.94712 105.175L8 102.676ZM279 108.41V110.91L279.053 105.91L279 108.41ZM8 108.41V105.91L7.95372 110.909L8 108.41ZM279 113.427V115.927L279.046 110.927L279 113.427ZM8 113.427V110.927L7.96364 115.927L8 113.427ZM279 117.369L279.023 119.869L279.036 114.869L279 117.369ZM8 119.878L7.97686 117.378L7.96033 122.377L8 119.878ZM279 124.178L279.063 126.677L279.04 121.678L279 124.178ZM8 130.987L7.93721 128.488L8 133.487V130.987ZM263.365 130.987V133.487L263.432 128.488L263.365 130.987ZM8 124.178L8.06664 121.679L7.86338 126.674L8 124.178ZM263.365 138.155V140.655L263.502 135.658L263.365 138.155ZM8 138.155V135.655L6.87434 140.387L8 138.155ZM23.6346 146.039L22.509 148.271L23.0505 148.544L23.657 148.539L23.6346 146.039ZM263.365 143.889L263.388 146.388L263.393 141.389L263.365 143.889ZM8 141.022L8.02807 138.522L7.91234 143.52L8 141.022ZM263.365 149.981V152.481L263.453 147.482L263.365 149.981ZM23.6346 149.981V147.481L23.5786 152.48L23.6346 149.981ZM263.365 155.356L263.395 157.856L263.421 152.857L263.365 155.356ZM23.6047 155.724L21.1049 155.753L21.1647 160.753L23.6645 160.723L23.6047 155.724ZM143.5 127.583L143.563 130.082L143.5 127.583ZM7.96033 100.875L278.96 105.176L279.04 100.176L8.03967 95.8758L7.96033 100.875ZM279 100.176H8V105.176H279V100.176ZM7.94712 105.175L278.947 110.909L279.053 105.91L8.05288 100.176L7.94712 105.175ZM279 105.91H8V110.91H279V105.91ZM7.95372 110.909L278.954 115.927L279.046 110.927L8.04628 105.91L7.95372 110.909ZM279 110.927H8V115.927H279V110.927ZM7.96364 115.927L278.964 119.869L279.036 114.869L8.03636 110.927L7.96364 115.927ZM278.977 114.869L7.97686 117.378L8.02314 122.378L279.023 119.869L278.977 114.869ZM7.96033 122.377L278.96 126.678L279.04 121.678L8.03967 117.378L7.96033 122.377ZM8 133.487H263.365V128.487H8V133.487ZM263.432 128.488L8.06664 121.679L7.93336 126.677L263.299 133.486L263.432 128.488ZM7.86338 126.674L263.229 140.651L263.502 135.658L8.13662 121.682L7.86338 126.674ZM6.87434 140.387L22.509 148.271L24.7603 143.806L9.12566 135.922L6.87434 140.387ZM23.657 148.539L263.388 146.388L263.343 141.389L23.6122 143.539L23.657 148.539ZM263.393 141.389L8.02807 138.522L7.97193 143.521L263.337 146.388L263.393 141.389ZM7.91234 143.52L263.278 152.479L263.453 147.482L8.08766 138.523L7.91234 143.52ZM263.365 147.481H23.6346V152.481H263.365V147.481ZM23.5786 152.48L263.309 157.856L263.421 152.857L23.6907 147.481L23.5786 152.48ZM263.335 152.857L23.6047 155.724L23.6645 160.723L263.395 157.856L263.335 152.857ZM278.937 121.679L143.437 125.083L143.563 130.082L279.063 126.677L278.937 121.679ZM143.437 125.083L7.93721 128.488L8.06279 133.486L143.563 130.082L143.437 125.083ZM263.365 135.655H135.683V140.655H263.365V135.655ZM135.683 135.655H8V140.655H135.683V135.655Z" fill="#6A9EDA" fill-opacity="0.5"/>
<path d="M8.03967 149.638L5.53998 149.598L5.46065 154.597L7.96033 154.637L8.03967 149.638ZM279 156.438V158.938L279.04 153.938L279 156.438ZM8 156.438V153.938L7.94712 158.937L8 156.438ZM279 162.172V164.672L279.053 159.672L279 162.172ZM8 162.172V159.672L7.95372 164.671L8 162.172ZM279 167.189V169.689L279.046 164.689L279 167.189ZM8 167.189V164.689L7.96364 169.688L8 167.189ZM279 171.131L279.023 173.631L279.036 168.631L279 171.131ZM8 173.639L7.97686 171.14L7.96033 176.139L8 173.639ZM279 177.94L279.063 180.439L279.04 175.44L279 177.94ZM8 184.749L7.93721 182.25L8 187.249V184.749ZM263.365 184.749V187.249L263.432 182.25L263.365 184.749ZM8 177.94L8.06664 175.441L7.86338 180.436L8 177.94ZM263.365 191.916V194.416L263.502 189.42L263.365 191.916ZM8 191.916V189.416L6.87434 194.149L8 191.916ZM23.6346 199.8L22.509 202.033L23.0505 202.306L23.657 202.3L23.6346 199.8ZM263.365 197.65L263.388 200.15L263.393 195.15L263.365 197.65ZM8 194.783L8.02807 192.283L7.91234 197.282L8 194.783ZM263.365 203.743V206.243L263.453 201.244L263.365 203.743ZM23.6346 203.743V201.243L23.5786 206.242L23.6346 203.743ZM263.365 209.118L263.395 211.618L263.421 206.619L263.365 209.118ZM23.6047 209.485L21.1049 209.515L21.1647 214.515L23.6645 214.485L23.6047 209.485ZM143.5 181.344L143.563 183.844L143.5 181.344ZM7.96033 154.637L278.96 158.937L279.04 153.938L8.03967 149.638L7.96033 154.637ZM279 153.938H8V158.938H279V153.938ZM7.94712 158.937L278.947 164.671L279.053 159.672L8.05288 153.938L7.94712 158.937ZM279 159.672H8V164.672H279V159.672ZM7.95372 164.671L278.954 169.688L279.046 164.689L8.04628 159.672L7.95372 164.671ZM279 164.689H8V169.689H279V164.689ZM7.96364 169.688L278.964 173.631L279.036 168.631L8.03636 164.689L7.96364 169.688ZM278.977 168.631L7.97686 171.14L8.02314 176.139L279.023 173.631L278.977 168.631ZM7.96033 176.139L278.96 180.44L279.04 175.44L8.03967 171.14L7.96033 176.139ZM8 187.249H263.365V182.249H8V187.249ZM263.432 182.25L8.06664 175.441L7.93336 180.439L263.299 187.248L263.432 182.25ZM7.86338 180.436L263.229 194.413L263.502 189.42L8.13662 175.444L7.86338 180.436ZM6.87434 194.149L22.509 202.033L24.7603 197.568L9.12566 189.684L6.87434 194.149ZM23.657 202.3L263.388 200.15L263.343 195.15L23.6122 197.301L23.657 202.3ZM263.393 195.15L8.02807 192.283L7.97193 197.283L263.337 200.15L263.393 195.15ZM7.91234 197.282L263.278 206.241L263.453 201.244L8.08766 192.285L7.91234 197.282ZM263.365 201.243H23.6346V206.243H263.365V201.243ZM23.5786 206.242L263.309 211.617L263.421 206.619L23.6907 201.243L23.5786 206.242ZM263.335 206.618L23.6047 209.485L23.6645 214.485L263.395 211.618L263.335 206.618ZM278.937 175.441L143.437 178.845L143.563 183.844L279.063 180.439L278.937 175.441ZM143.437 178.845L7.93721 182.25L8.06279 187.248L143.563 183.844L143.437 178.845ZM263.365 189.416H135.683V194.416H263.365V189.416ZM135.683 189.416H8V194.416H135.683V189.416Z" fill="#6A9EDA" fill-opacity="0.5"/>
<path d="M8.03967 140.891L5.53998 140.851L5.46065 145.851L7.96033 145.89L8.03967 140.891ZM279 147.691V150.191L279.04 145.191L279 147.691ZM8 147.691V145.191L7.94712 150.19L8 147.691ZM279 153.425V155.925L279.053 150.925L279 153.425ZM8 153.425V150.925L7.95372 155.924L8 153.425ZM279 158.442V160.942L279.046 155.942L279 158.442ZM8 158.442V155.942L7.96364 160.942L8 158.442ZM279 162.384L279.023 164.884L279.036 159.884L279 162.384ZM8 164.893L7.97686 162.393L7.96033 167.392L8 164.893ZM279 169.193L279.063 171.692L279.04 166.693L279 169.193ZM8 176.002L7.93721 173.503L8 178.502V176.002ZM263.365 176.002V178.502L263.432 173.503L263.365 176.002ZM8 169.193L8.06664 166.694L7.86338 171.689L8 169.193ZM263.365 183.17V185.67L263.502 180.673L263.365 183.17ZM8 183.17V180.67L6.87434 185.402L8 183.17ZM23.6346 191.054L22.509 193.286L23.0505 193.559L23.657 193.554L23.6346 191.054ZM263.365 188.904L263.388 191.403L263.393 186.404L263.365 188.904ZM8 186.037L8.02807 183.537L7.91234 188.535L8 186.037ZM263.365 194.996V197.496L263.453 192.497L263.365 194.996ZM23.6346 194.996V192.496L23.5786 197.495L23.6346 194.996ZM263.365 200.371L263.395 202.871L263.421 197.872L263.365 200.371ZM23.6047 200.739L21.1049 200.768L21.1647 205.768L23.6645 205.738L23.6047 200.739ZM143.5 172.598L143.563 175.097L143.5 172.598ZM7.96033 145.89L278.96 150.191L279.04 145.191L8.03967 140.891L7.96033 145.89ZM279 145.191H8V150.191H279V145.191ZM7.94712 150.19L278.947 155.924L279.053 150.925L8.05288 145.192L7.94712 150.19ZM279 150.925H8V155.925H279V150.925ZM7.95372 155.924L278.954 160.942L279.046 155.942L8.04628 150.925L7.95372 155.924ZM279 155.942H8V160.942H279V155.942ZM7.96364 160.942L278.964 164.884L279.036 159.884L8.03636 155.942L7.96364 160.942ZM278.977 159.884L7.97686 162.393L8.02314 167.393L279.023 164.884L278.977 159.884ZM7.96033 167.392L278.96 171.693L279.04 166.693L8.03967 162.393L7.96033 167.392ZM8 178.502H263.365V173.502H8V178.502ZM263.432 173.503L8.06664 166.694L7.93336 171.692L263.299 178.501L263.432 173.503ZM7.86338 171.689L263.229 185.666L263.502 180.673L8.13662 166.697L7.86338 171.689ZM6.87434 185.402L22.509 193.286L24.7603 188.822L9.12566 180.937L6.87434 185.402ZM23.657 193.554L263.388 191.403L263.343 186.404L23.6122 188.554L23.657 193.554ZM263.393 186.404L8.02807 183.537L7.97193 188.536L263.337 191.403L263.393 186.404ZM7.91234 188.535L263.278 197.494L263.453 192.497L8.08766 183.538L7.91234 188.535ZM263.365 192.496H23.6346V197.496H263.365V192.496ZM23.5786 197.495L263.309 202.871L263.421 197.872L23.6907 192.496L23.5786 197.495ZM263.335 197.872L23.6047 200.739L23.6645 205.738L263.395 202.871L263.335 197.872ZM278.937 166.694L143.437 170.098L143.563 175.097L279.063 171.692L278.937 166.694ZM143.437 170.098L7.93721 173.503L8.06279 178.501L143.563 175.097L143.437 170.098ZM263.365 180.67H135.683V185.67H263.365V180.67ZM135.683 180.67H8V185.67H135.683V180.67Z" fill="#6A9EDA" fill-opacity="0.5"/>
<path d="M8.03967 194.652L5.53998 194.613L5.46065 199.612L7.96033 199.652L8.03967 194.652ZM279 201.453V203.953L279.04 198.953L279 201.453ZM8 201.453V198.953L7.94712 203.952L8 201.453ZM279 207.186V209.686L279.053 204.687L279 207.186ZM8 207.186V204.686L7.95372 209.686L8 207.186ZM279 212.204V214.704L279.046 209.704L279 212.204ZM8 212.204V209.704L7.96364 214.703L8 212.204ZM279 216.146L279.023 218.646L279.036 213.646L279 216.146ZM8 218.654L7.97686 216.154L7.96033 221.154L8 218.654ZM279 222.955L279.063 225.454L279.04 220.455L279 222.955ZM8 229.764L7.93721 227.265L8 232.264V229.764ZM263.365 229.764V232.264L263.432 227.265L263.365 229.764ZM8 222.955L8.06664 220.456L7.86338 225.451L8 222.955ZM263.365 236.931V239.431L263.502 234.435L263.365 236.931ZM8 236.931V234.431L6.87434 239.163L8 236.931ZM23.6346 244.815L22.509 247.048L23.0505 247.321L23.657 247.315L23.6346 244.815ZM263.365 242.665L263.388 245.165L263.393 240.165L263.365 242.665ZM8 239.798L8.02807 237.298L7.91234 242.297L8 239.798ZM263.365 248.757V251.257L263.453 246.259L263.365 248.757ZM23.6346 248.757V246.257L23.5786 251.257L23.6346 248.757ZM263.365 254.133L263.395 256.633L263.421 251.634L263.365 254.133ZM23.6047 254.5L21.1049 254.53L21.1647 259.53L23.6645 259.5L23.6047 254.5ZM143.5 226.359L143.563 228.858L143.5 226.359ZM7.96033 199.652L278.96 203.952L279.04 198.953L8.03967 194.652L7.96033 199.652ZM279 198.953H8V203.953H279V198.953ZM7.94712 203.952L278.947 209.686L279.053 204.687L8.05288 198.953L7.94712 203.952ZM279 204.686H8V209.686H279V204.686ZM7.95372 209.686L278.954 214.703L279.046 209.704L8.04628 204.687L7.95372 209.686ZM279 209.704H8V214.704H279V209.704ZM7.96364 214.703L278.964 218.645L279.036 213.646L8.03636 209.704L7.96364 214.703ZM278.977 213.646L7.97686 216.154L8.02314 221.154L279.023 218.646L278.977 213.646ZM7.96033 221.154L278.96 225.454L279.04 220.455L8.03967 216.155L7.96033 221.154ZM8 232.264H263.365V227.264H8V232.264ZM263.432 227.265L8.06664 220.456L7.93336 225.454L263.299 232.263L263.432 227.265ZM7.86338 225.451L263.229 239.427L263.502 234.435L8.13662 220.458L7.86338 225.451ZM6.87434 239.163L22.509 247.048L24.7603 242.583L9.12566 234.699L6.87434 239.163ZM23.657 247.315L263.388 245.165L263.343 240.165L23.6122 242.315L23.657 247.315ZM263.393 240.165L8.02807 237.298L7.97193 242.298L263.337 245.165L263.393 240.165ZM7.91234 242.297L263.278 251.256L263.453 246.259L8.08766 237.3L7.91234 242.297ZM263.365 246.257H23.6346V251.257H263.365V246.257ZM23.5786 251.257L263.309 256.632L263.421 251.634L23.6907 246.258L23.5786 251.257ZM263.335 251.633L23.6047 254.5L23.6645 259.5L263.395 256.633L263.335 251.633ZM278.937 220.456L143.437 223.86L143.563 228.858L279.063 225.454L278.937 220.456ZM143.437 223.86L7.93721 227.265L8.06279 232.263L143.563 228.858L143.437 223.86ZM263.365 234.431H135.683V239.431H263.365V234.431ZM135.683 234.431H8V239.431H135.683V234.431Z" fill="#6A9EDA" fill-opacity="0.5"/>
</svg>
