<svg width="47" height="48" viewBox="0 0 47 48" fill="none" xmlns="http://www.w3.org/2000/svg">
<ellipse cx="23.5" cy="24" rx="23.5" ry="24" fill="white"/>
<path d="M22.1448 19.5991L22.1448 19.5992H22.1473H22.6848C23.8241 19.5992 24.9172 20.0622 25.7235 20.8873C26.5299 21.7125 26.9833 22.8321 26.9833 24V33.5003C26.9833 34.2039 26.7102 34.8782 26.2247 35.375C25.7392 35.8717 25.0813 36.1503 24.3958 36.1503C23.7103 36.1503 23.0524 35.8717 22.567 35.375C22.0815 34.8782 21.8083 34.2039 21.8083 33.5003V24.9753V24.8843L21.7176 24.8758C21.0458 24.8129 20.4241 24.4837 19.9855 23.9576C19.5473 23.4322 19.3267 22.7519 19.3713 22.062C19.451 21.3712 19.7796 20.7361 20.2923 20.2808C20.8055 19.825 21.4662 19.5821 22.1448 19.5991Z" fill="#D3D3D3" stroke="black" stroke-width="0.2"/>
<path d="M39.7249 24.0001V24C39.7249 20.7173 38.7736 17.5082 36.9911 14.7784C35.2085 12.0486 32.6747 9.92062 29.7097 8.66392C26.7447 7.40721 23.4819 7.07835 20.3341 7.71905C17.1863 8.35975 14.2952 9.94113 12.0263 12.2628C9.75734 14.5845 8.21243 17.5423 7.58656 20.7619C6.96069 23.9816 7.28189 27.3188 8.50963 30.3518C9.73739 33.3848 11.8167 35.9775 14.4849 37.8018C17.1531 39.6261 20.2904 40.6 23.4999 40.6H23.5C27.8022 40.5946 31.9263 38.8434 34.9677 35.7313C38.0091 32.6192 39.7196 28.4003 39.7249 24.0001ZM11.6116 5.79022C15.1307 3.38412 19.2678 2.10001 23.4998 2.1C29.1728 2.10629 34.6122 4.41506 38.6243 8.52051C42.6366 12.6261 44.8937 18.193 44.8999 24.0001C44.8999 28.332 43.6445 32.5664 41.2927 36.1679C38.941 39.7693 35.5986 42.576 31.6885 44.2333C27.7785 45.8905 23.4761 46.3241 19.3254 45.4793C15.1746 44.6344 11.3616 42.5491 8.36861 39.4865C5.37559 36.4238 3.33706 32.5215 2.51117 28.2729C1.68527 24.0243 2.10917 19.6205 3.72917 15.6185C5.34916 11.6165 8.09238 8.19635 11.6116 5.79022Z" fill="#D3D3D3" stroke="black" stroke-width="0.2"/>
<path d="M23.1955 17.421H23.1954C22.8051 17.4212 22.4184 17.3427 22.0576 17.1899C21.6968 17.0371 21.3688 16.813 21.0925 16.5302C20.8161 16.2474 20.5968 15.9115 20.4472 15.5417C20.2976 15.1719 20.2207 14.7754 20.221 14.3751V14.375C20.221 13.7721 20.3957 13.1828 20.7228 12.6819C21.05 12.1809 21.5147 11.7908 22.0579 11.5606C22.6012 11.3303 23.1988 11.2701 23.7753 11.3874C24.3519 11.5048 24.8818 11.7945 25.298 12.2203C25.7141 12.6462 25.9978 13.189 26.1127 13.7803C26.2277 14.3716 26.1687 14.9845 25.9432 15.5414C25.7178 16.0983 25.3363 16.5738 24.8471 16.9083C24.358 17.2427 23.7833 17.421 23.1955 17.421Z" fill="#D3D3D3" stroke="black" stroke-width="0.2"/>
<path d="M4 19C4 19.5523 4.44771 20 4.99999 20C5.55228 20 6 19.5523 6 19L4 19ZM11.4472 9.89443C11.9412 9.64744 12.1414 9.04676 11.8944 8.55278C11.6474 8.05881 11.0468 7.85858 10.5528 8.10557L11.4472 9.89443ZM5 19C6 19 6 19.0005 6 19.001C6 19.0011 6 19.0016 6 19.0019C6 19.0025 6 19.003 5.99999 19.0036C5.99999 19.0046 5.99998 19.0056 5.99998 19.0064C5.99996 19.008 5.99995 19.0092 5.99994 19.0098C5.99992 19.0112 5.99991 19.0106 5.99999 19.0082C6.00015 19.0032 6.00062 18.9907 6.0019 18.9706C6.00445 18.9305 6.0102 18.8602 6.02303 18.7608C6.04867 18.5621 6.10268 18.246 6.21624 17.8202C6.44316 16.9692 6.90941 15.6741 7.86826 13.9961L6.13177 13.0039C5.09061 14.8259 4.55686 16.2808 4.28377 17.3048C4.14733 17.8165 4.07633 18.2192 4.03947 18.5048C4.02105 18.6476 4.01118 18.7609 4.00592 18.8439C4.00328 18.8853 4.00181 18.9191 4.00098 18.9452C4.00057 18.9582 4.00033 18.9693 4.00018 18.9785C4.00011 18.983 4.00007 18.9871 4.00004 18.9907C4.00002 18.9925 4.00001 18.9942 4.00001 18.9957C4.00001 18.9965 4 18.9972 4 18.9979C4 18.9983 4 18.9988 4 18.999C4 18.9995 4 19 5 19ZM7.86826 13.9961C8.81644 12.3368 9.75125 11.2929 10.4257 10.6747C10.7635 10.365 11.0377 10.1606 11.2178 10.0384C11.3079 9.97728 11.3745 9.93662 11.414 9.91358C11.4338 9.90206 11.4467 9.89494 11.4524 9.89187C11.4553 9.89033 11.4563 9.88981 11.4554 9.89025C11.455 9.89047 11.4541 9.89093 11.4528 9.89163C11.4521 9.89198 11.4513 9.89239 11.4503 9.89285C11.4499 9.89309 11.4494 9.89333 11.4489 9.8936C11.4486 9.89373 11.4482 9.89393 11.4481 9.894C11.4476 9.89421 11.4472 9.89443 11 9C10.5528 8.10557 10.5523 8.1058 10.5519 8.10602C10.5517 8.1061 10.5513 8.10633 10.5509 8.1065C10.5503 8.10682 10.5496 8.10716 10.5489 8.10752C10.5475 8.10823 10.546 8.109 10.5443 8.10985C10.541 8.11153 10.5372 8.11348 10.533 8.1157C10.5244 8.12014 10.514 8.12566 10.5017 8.1323C10.4771 8.14558 10.4451 8.16337 10.4063 8.18603C10.3286 8.23135 10.2234 8.29616 10.0947 8.38346C9.83735 8.55813 9.48648 8.8225 9.07428 9.20035C8.24877 9.95707 7.18359 11.1632 6.13177 13.0039L7.86826 13.9961Z" fill="white" fill-opacity="0.9"/>
</svg>
