<svg width="79" height="130" viewBox="0 0 79 130" fill="none" xmlns="http://www.w3.org/2000/svg">
<path d="M78.8898 0.502432L81.3873 0.392184L81.6078 5.38732L79.1102 5.49757L78.8898 0.502432ZM1 6.44308V8.94308L0.889755 3.94551L1 6.44308ZM79 6.44308V3.94308L79.1469 8.93876L79 6.44308ZM1 11.0338V13.5338L0.853111 8.53816L1 11.0338ZM79 11.0338V8.53384L79.1286 13.5305L79 11.0338ZM1 15.0508V17.5508L0.871422 12.5541L1 15.0508ZM79 15.0508V12.5508L79.1011 17.5487L79 15.0508ZM1 18.2069L0.935646 20.7061L0.898926 15.709L1 18.2069ZM79 20.2154L79.0644 17.7162L79.1102 22.7129L79 20.2154ZM1 23.6585L0.825699 26.1524L0.889755 21.1609L1 23.6585ZM79 29.11L79.1743 26.6161L79 31.61V29.11ZM5.5 29.11V31.61L5.31508 26.6168L5.5 29.11ZM79 23.6585L78.8151 21.1653L79.3763 26.13L79 23.6585ZM5.5 34.8484V37.3484L5.12373 32.3769L5.5 34.8484ZM79 34.8484V32.3484H83.8525L81.0357 36.2997L79 34.8484ZM74.5 41.1608L76.5357 42.612L75.765 43.6931L74.4376 43.66L74.5 41.1608ZM5.5 39.4392L5.43764 41.9384L5.42197 36.9404L5.5 39.4392ZM79 37.1438L78.922 34.6451L79.2428 39.632L79 37.1438ZM5.5 44.3169V46.8169L5.25717 41.8287L5.5 44.3169ZM74.5 44.3169V41.8169L74.6556 46.8121L74.5 44.3169ZM5.5 48.6208L5.41688 51.1194L5.34437 46.1256L5.5 48.6208ZM74.5831 48.4175L77.0817 48.5006L76.9155 53.4979L74.4169 53.4148L74.5831 48.4175ZM40 26.3842L39.8257 28.8781L40 26.3842ZM79.1102 5.49757L1.11024 8.94064L0.889755 3.94551L78.8898 0.502432L79.1102 5.49757ZM1 3.94308H79V8.94308H1V3.94308ZM79.1469 8.93876L1.14689 13.5295L0.853111 8.53816L78.8531 3.94739L79.1469 8.93876ZM1 8.53384H79V13.5338H1V8.53384ZM79.1286 13.5305L1.12858 17.5475L0.871422 12.5541L78.8714 8.53715L79.1286 13.5305ZM1 12.5508H79V17.5508H1V12.5508ZM79.1011 17.5487L1.10107 20.7049L0.898926 15.709L78.8989 12.5528L79.1011 17.5487ZM1.06435 15.7077L79.0644 17.7162L78.9356 22.7146L0.935646 20.7061L1.06435 15.7077ZM79.1102 22.7129L1.11024 26.156L0.889755 21.1609L78.8898 17.7178L79.1102 22.7129ZM79 31.61H5.5V26.61H79V31.61ZM5.31508 26.6168L78.8151 21.1653L79.1849 26.1516L5.68492 31.6031L5.31508 26.6168ZM79.3763 26.13L5.87627 37.32L5.12373 32.3769L78.6237 21.1869L79.3763 26.13ZM81.0357 36.2997L76.5357 42.612L72.4643 39.7095L76.9643 33.3972L81.0357 36.2997ZM74.4376 43.66L5.43764 41.9384L5.56236 36.94L74.5624 38.6615L74.4376 43.66ZM5.42197 36.9404L78.922 34.6451L79.078 39.6426L5.57803 41.938L5.42197 36.9404ZM79.2428 39.632L5.74283 46.8051L5.25717 41.8287L78.7572 34.6557L79.2428 39.632ZM5.5 41.8169H74.5V46.8169H5.5V41.8169ZM74.6556 46.8121L5.65563 51.1159L5.34437 46.1256L74.3444 41.8218L74.6556 46.8121ZM5.58312 46.1221L74.5831 48.4175L74.4169 53.4148L5.41688 51.1194L5.58312 46.1221ZM1.1743 21.1645L40.1743 23.8903L39.8257 28.8781L0.825699 26.1524L1.1743 21.1645ZM40.1743 23.8903L79.1743 26.6161L78.8257 31.6039L39.8257 28.8781L40.1743 23.8903ZM5.5 32.3484H42.25V37.3484H5.5V32.3484ZM42.25 32.3484H79V37.3484H42.25V32.3484Z" fill="#6A9EDA" fill-opacity="0.5"/>
<path d="M78.8898 43.5458L81.3873 43.4355L81.6078 48.4307L79.1102 48.5409L78.8898 43.5458ZM1 49.4864V51.9864L0.889755 46.9889L1 49.4864ZM79 49.4864V46.9864L79.1469 51.9821L79 49.4864ZM1 54.0772V56.5772L0.853111 51.5815L1 54.0772ZM79 54.0772V51.5772L79.1286 56.5739L79 54.0772ZM1 58.0941V60.5941L0.871422 55.5974L1 58.0941ZM79 58.0941V55.5941L79.1011 60.5921L79 58.0941ZM1 61.2503L0.935646 63.7495L0.898926 58.7523L1 61.2503ZM79 63.2587L79.0644 60.7596L79.1102 65.7563L79 63.2587ZM1 66.7018L0.825699 69.1957L0.889755 64.2043L1 66.7018ZM79 72.1534L79.1743 69.6594L79 74.6534V72.1534ZM5.5 72.1534V74.6534L5.31508 69.6602L5.5 72.1534ZM79 66.7018L78.8151 64.2087L79.3763 69.1733L79 66.7018ZM5.5 77.8918V80.3918L5.12373 75.4203L5.5 77.8918ZM79 77.8918V75.3918H83.8525L81.0357 79.343L79 77.8918ZM74.5 84.2041L76.5357 85.6553L75.765 86.7365L74.4376 86.7034L74.5 84.2041ZM5.5 82.4826L5.43764 84.9818L5.42197 79.9838L5.5 82.4826ZM79 80.1872L78.922 77.6884L79.2428 82.6754L79 80.1872ZM5.5 87.3603V89.8603L5.25717 84.8721L5.5 87.3603ZM74.5 87.3603V84.8603L74.6556 89.8554L74.5 87.3603ZM5.5 91.6641L5.41688 94.1627L5.34437 89.169L5.5 91.6641ZM74.5831 91.4609L77.0817 91.544L76.9155 96.5412L74.4169 96.4581L74.5831 91.4609ZM40 69.4276L39.8257 71.9215L40 69.4276ZM79.1102 48.5409L1.11024 51.984L0.889755 46.9889L78.8898 43.5458L79.1102 48.5409ZM1 46.9864H79V51.9864H1V46.9864ZM79.1469 51.9821L1.14689 56.5729L0.853111 51.5815L78.8531 46.9908L79.1469 51.9821ZM1 51.5772H79V56.5772H1V51.5772ZM79.1286 56.5739L1.12858 60.5908L0.871422 55.5974L78.8714 51.5805L79.1286 56.5739ZM1 55.5941H79V60.5941H1V55.5941ZM79.1011 60.5921L1.10107 63.7482L0.898926 58.7523L78.8989 55.5962L79.1011 60.5921ZM1.06435 58.7511L79.0644 60.7596L78.9356 65.7579L0.935646 63.7495L1.06435 58.7511ZM79.1102 65.7563L1.11024 69.1994L0.889755 64.2043L78.8898 60.7612L79.1102 65.7563ZM79 74.6534H5.5V69.6534H79V74.6534ZM5.31508 69.6602L78.8151 64.2087L79.1849 69.195L5.68492 74.6465L5.31508 69.6602ZM79.3763 69.1733L5.87627 80.3633L5.12373 75.4203L78.6237 64.2303L79.3763 69.1733ZM81.0357 79.343L76.5357 85.6553L72.4643 82.7529L76.9643 76.4406L81.0357 79.343ZM74.4376 86.7034L5.43764 84.9818L5.56236 79.9834L74.5624 81.7049L74.4376 86.7034ZM5.42197 79.9838L78.922 77.6884L79.078 82.686L5.57803 84.9814L5.42197 79.9838ZM79.2428 82.6754L5.74283 89.8485L5.25717 84.8721L78.7572 77.699L79.2428 82.6754ZM5.5 84.8603H74.5V89.8603H5.5V84.8603ZM74.6556 89.8554L5.65563 94.1593L5.34437 89.169L74.3444 84.8651L74.6556 89.8554ZM5.58312 89.1655L74.5831 91.4609L74.4169 96.4581L5.41688 94.1627L5.58312 89.1655ZM1.1743 64.2079L40.1743 66.9337L39.8257 71.9215L0.825699 69.1957L1.1743 64.2079ZM40.1743 66.9337L79.1743 69.6594L78.8257 74.6473L39.8257 71.9215L40.1743 66.9337ZM5.5 75.3918H42.25V80.3918H5.5V75.3918ZM42.25 75.3918H79V80.3918H42.25V75.3918Z" fill="#6A9EDA" fill-opacity="0.5"/>
<path d="M78.8898 36.543L81.3873 36.4327L81.6078 41.4278L79.1102 41.5381L78.8898 36.543ZM1 42.4836V44.9836L0.889755 39.986L1 42.4836ZM79 42.4836V39.9836L79.1469 44.9793L79 42.4836ZM1 47.0744V49.5744L0.853111 44.5787L1 47.0744ZM79 47.0744V44.5744L79.1286 49.5711L79 47.0744ZM1 51.0913V53.5913L0.871422 48.5946L1 51.0913ZM79 51.0913V48.5913L79.1011 53.5892L79 51.0913ZM1 54.2474L0.935646 56.7466L0.898926 51.7495L1 54.2474ZM79 56.2559L79.0644 53.7567L79.1102 58.7535L79 56.2559ZM1 59.699L0.825699 62.1929L0.889755 57.2014L1 59.699ZM79 65.1505L79.1743 62.6566L79 67.6505V65.1505ZM5.5 65.1505V67.6505L5.31508 62.6574L5.5 65.1505ZM79 59.699L78.8151 57.2058L79.3763 62.1705L79 59.699ZM5.5 70.889V73.389L5.12373 68.4175L5.5 70.889ZM79 70.889V68.389H83.8525L81.0357 72.3402L79 70.889ZM74.5 77.2013L76.5357 78.6525L75.765 79.7336L74.4376 79.7005L74.5 77.2013ZM5.5 75.4797L5.43764 77.979L5.42197 72.981L5.5 75.4797ZM79 73.1844L78.922 70.6856L79.2428 75.6725L79 73.1844ZM5.5 80.3574V82.8574L5.25717 77.8693L5.5 80.3574ZM74.5 80.3574V77.8574L74.6556 82.8526L74.5 80.3574ZM5.5 84.6613L5.41688 87.1599L5.34437 82.1661L5.5 84.6613ZM74.5831 84.458L77.0817 84.5412L76.9155 89.5384L74.4169 89.4553L74.5831 84.458ZM40 62.4247L39.8257 64.9187L40 62.4247ZM79.1102 41.5381L1.11024 44.9812L0.889755 39.986L78.8898 36.543L79.1102 41.5381ZM1 39.9836H79V44.9836H1V39.9836ZM79.1469 44.9793L1.14689 49.5701L0.853111 44.5787L78.8531 39.9879L79.1469 44.9793ZM1 44.5744H79V49.5744H1V44.5744ZM79.1286 49.5711L1.12858 53.588L0.871422 48.5946L78.8714 44.5777L79.1286 49.5711ZM1 48.5913H79V53.5913H1V48.5913ZM79.1011 53.5892L1.10107 56.7454L0.898926 51.7495L78.8989 48.5933L79.1011 53.5892ZM1.06435 51.7483L79.0644 53.7567L78.9356 58.7551L0.935646 56.7466L1.06435 51.7483ZM79.1102 58.7535L1.11024 62.1965L0.889755 57.2014L78.8898 53.7583L79.1102 58.7535ZM79 67.6505H5.5V62.6505H79V67.6505ZM5.31508 62.6574L78.8151 57.2058L79.1849 62.1921L5.68492 67.6437L5.31508 62.6574ZM79.3763 62.1705L5.87627 73.3605L5.12373 68.4175L78.6237 57.2275L79.3763 62.1705ZM81.0357 72.3402L76.5357 78.6525L72.4643 75.7501L76.9643 69.4378L81.0357 72.3402ZM74.4376 79.7005L5.43764 77.979L5.56236 72.9805L74.5624 74.7021L74.4376 79.7005ZM5.42197 72.981L78.922 70.6856L79.078 75.6831L5.57803 77.9785L5.42197 72.981ZM79.2428 75.6725L5.74283 82.8456L5.25717 77.8693L78.7572 70.6962L79.2428 75.6725ZM5.5 77.8574H74.5V82.8574H5.5V77.8574ZM74.6556 82.8526L5.65563 87.1564L5.34437 82.1661L74.3444 77.8623L74.6556 82.8526ZM5.58312 82.1627L74.5831 84.458L74.4169 89.4553L5.41688 87.1599L5.58312 82.1627ZM1.1743 57.2051L40.1743 59.9308L39.8257 64.9187L0.825699 62.1929L1.1743 57.2051ZM40.1743 59.9308L79.1743 62.6566L78.8257 67.6444L39.8257 64.9187L40.1743 59.9308ZM5.5 68.389H42.25V73.389H5.5V68.389ZM42.25 68.389H79V73.389H42.25V68.389Z" fill="#6A9EDA" fill-opacity="0.5"/>
<path d="M78.8898 79.5863L81.3873 79.476L81.6078 84.4712L79.1102 84.5814L78.8898 79.5863ZM1 85.5269V88.0269L0.889755 83.0293L1 85.5269ZM79 85.5269V83.0269L79.1469 88.0226L79 85.5269ZM1 90.1177V92.6177L0.853111 87.622L1 90.1177ZM79 90.1177V87.6177L79.1286 92.6144L79 90.1177ZM1 94.1346V96.6346L0.871422 91.6379L1 94.1346ZM79 94.1346V91.6346L79.1011 96.6326L79 94.1346ZM1 97.2908L0.935646 99.7899L0.898926 94.7928L1 97.2908ZM79 99.2992L79.0644 96.8L79.1102 101.797L79 99.2992ZM1 102.742L0.825699 105.236L0.889755 100.245L1 102.742ZM79 108.194L79.1743 105.7L79 110.694V108.194ZM5.5 108.194V110.694L5.31508 105.701L5.5 108.194ZM79 102.742L78.8151 100.249L79.3763 105.214L79 102.742ZM5.5 113.932V116.432L5.12373 111.461L5.5 113.932ZM79 113.932V111.432H83.8525L81.0357 115.384L79 113.932ZM74.5 120.245L76.5357 121.696L75.765 122.777L74.4376 122.744L74.5 120.245ZM5.5 118.523L5.43764 121.022L5.42197 116.024L5.5 118.523ZM79 116.228L78.922 113.729L79.2428 118.716L79 116.228ZM5.5 123.401V125.901L5.25717 120.913L5.5 123.401ZM74.5 123.401V120.901L74.6556 125.896L74.5 123.401ZM5.5 127.705L5.41688 130.203L5.34437 125.209L5.5 127.705ZM74.5831 127.501L77.0817 127.584L76.9155 132.582L74.4169 132.499L74.5831 127.501ZM40 105.468L39.8257 107.962L40 105.468ZM79.1102 84.5814L1.11024 88.0245L0.889755 83.0293L78.8898 79.5863L79.1102 84.5814ZM1 83.0269H79V88.0269H1V83.0269ZM79.1469 88.0226L1.14689 92.6134L0.853111 87.622L78.8531 83.0312L79.1469 88.0226ZM1 87.6177H79V92.6177H1V87.6177ZM79.1286 92.6144L1.12858 96.6313L0.871422 91.6379L78.8714 87.621L79.1286 92.6144ZM1 91.6346H79V96.6346H1V91.6346ZM79.1011 96.6326L1.10107 99.7887L0.898926 94.7928L78.8989 91.6366L79.1011 96.6326ZM1.06435 94.7916L79.0644 96.8L78.9356 101.798L0.935646 99.7899L1.06435 94.7916ZM79.1102 101.797L1.11024 105.24L0.889755 100.245L78.8898 96.8016L79.1102 101.797ZM79 110.694H5.5V105.694H79V110.694ZM5.31508 105.701L78.8151 100.249L79.1849 105.235L5.68492 110.687L5.31508 105.701ZM79.3763 105.214L5.87627 116.404L5.12373 111.461L78.6237 100.271L79.3763 105.214ZM81.0357 115.384L76.5357 121.696L72.4643 118.793L76.9643 112.481L81.0357 115.384ZM74.4376 122.744L5.43764 121.022L5.56236 116.024L74.5624 117.745L74.4376 122.744ZM5.42197 116.024L78.922 113.729L79.078 118.726L5.57803 121.022L5.42197 116.024ZM79.2428 118.716L5.74283 125.889L5.25717 120.913L78.7572 113.739L79.2428 118.716ZM5.5 120.901H74.5V125.901H5.5V120.901ZM74.6556 125.896L5.65563 130.2L5.34437 125.209L74.3444 120.906L74.6556 125.896ZM5.58312 125.206L74.5831 127.501L74.4169 132.499L5.41688 130.203L5.58312 125.206ZM1.1743 100.248L40.1743 102.974L39.8257 107.962L0.825699 105.236L1.1743 100.248ZM40.1743 102.974L79.1743 105.7L78.8257 110.688L39.8257 107.962L40.1743 102.974ZM5.5 111.432H42.25V116.432H5.5V111.432ZM42.25 111.432H79V116.432H42.25V111.432Z" fill="#6A9EDA" fill-opacity="0.5"/>
<path d="M78.8924 3.51417L81.39 3.40654L81.6053 8.4019L79.1076 8.50954L78.8924 3.51417ZM1 9.37328V11.8733L0.892365 6.8756L1 9.37328ZM79 9.37328V6.87328L79.1434 11.8692L79 9.37328ZM1 13.8552V16.3552L0.856583 11.3593L1 13.8552ZM79 13.8552V11.3552L79.1255 16.352L79 13.8552ZM1 17.7768V20.2768L0.874466 15.28L1 17.7768ZM79 17.7768V15.2768L79.0987 20.2749L79 17.7768ZM1 20.8581L0.937172 23.3573L0.901314 18.3601L1 20.8581ZM79 22.819L79.0628 20.3198L79.1076 25.3166L79 22.819ZM1 26.1804L0.829811 28.6746L0.892365 23.6827L1 26.1804ZM79 31.5026L79.1702 29.0084L79 34.0026V31.5026ZM5.5 31.5026V34.0026L5.31944 29.0092L5.5 31.5026ZM79 26.1804L78.8194 23.6869L79.3675 28.6532L79 26.1804ZM5.5 37.105V39.605L5.13245 34.6322L5.5 37.105ZM79 37.105V34.605H83.9211L81.019 38.5793L79 37.105ZM74.5 43.2676L76.519 44.7419L75.7473 45.7987L74.4391 45.7669L74.5 43.2676ZM5.5 41.5869L5.43913 44.0862L5.42381 39.0881L5.5 41.5869ZM79 39.346L78.9238 36.8471L79.2371 41.8347L79 39.346ZM5.5 46.3489V48.8489L5.26288 43.8602L5.5 46.3489ZM74.5 46.3489V43.8489L74.652 48.8443L74.5 46.3489ZM5.5 50.5507L5.41885 53.0494L5.34805 48.0553L5.5 50.5507ZM74.5812 50.293L77.0798 50.3741L76.9175 55.3715L74.4188 55.2903L74.5812 50.293ZM40 28.8415L39.8298 31.3357L40 28.8415ZM79.1076 8.50954L1.10764 11.871L0.892365 6.8756L78.8924 3.51417L79.1076 8.50954ZM1 6.87328H79V11.8733H1V6.87328ZM79.1434 11.8692L1.14342 16.3511L0.856583 11.3593L78.8566 6.8774L79.1434 11.8692ZM1 11.3552H79V16.3552H1V11.3552ZM79.1255 16.352L1.12553 20.2737L0.874466 15.28L78.8745 11.3583L79.1255 16.352ZM1 15.2768H79V20.2768H1V15.2768ZM79.0987 20.2749L1.09869 23.3562L0.901314 18.3601L78.9013 15.2788L79.0987 20.2749ZM1.06283 18.3589L79.0628 20.3198L78.9372 25.3182L0.937172 23.3573L1.06283 18.3589ZM79.1076 25.3166L1.10764 28.6781L0.892365 23.6827L78.8924 20.3213L79.1076 25.3166ZM79 34.0026H5.5V29.0026H79V34.0026ZM5.31944 29.0092L78.8194 23.6869L79.1806 28.6739L5.68056 33.9961L5.31944 29.0092ZM79.3675 28.6532L5.86755 39.5778L5.13245 34.6322L78.6325 23.7076L79.3675 28.6532ZM81.019 38.5793L76.519 44.7419L72.481 41.7933L76.981 35.6307L81.019 38.5793ZM74.4391 45.7669L5.43913 44.0862L5.56087 39.0876L74.5609 40.7684L74.4391 45.7669ZM5.42381 39.0881L78.9238 36.8471L79.0762 41.8448L5.57619 44.0857L5.42381 39.0881ZM79.2371 41.8347L5.73712 48.8376L5.26288 43.8602L78.7629 36.8572L79.2371 41.8347ZM5.5 43.8489H74.5V48.8489H5.5V43.8489ZM74.652 48.8443L5.65195 53.0461L5.34805 48.0553L74.348 43.8535L74.652 48.8443ZM5.58115 48.052L74.5812 50.293L74.4188 55.2903L5.41885 53.0494L5.58115 48.052ZM1.17019 23.6862L40.1702 26.3473L39.8298 31.3357L0.829811 28.6746L1.17019 23.6862ZM40.1702 26.3473L79.1702 29.0084L78.8298 33.9968L39.8298 31.3357L40.1702 26.3473ZM5.5 34.605H42.25V39.605H5.5V34.605ZM42.25 34.605H79V39.605H42.25V34.605Z" fill="#6A9EDA" fill-opacity="0.5"/>
<path d="M78.8924 45.5367L81.39 45.4291L81.6053 50.4245L79.1076 50.5321L78.8924 45.5367ZM1 51.3958V53.8958L0.892365 48.8982L1 51.3958ZM79 51.3958V48.8958L79.1434 53.8917L79 51.3958ZM1 55.8777V58.3777L0.856583 53.3819L1 55.8777ZM79 55.8777V53.3777L79.1255 58.3746L79 55.8777ZM1 59.7994V62.2994L0.874466 57.3026L1 59.7994ZM79 59.7994V57.2994L79.0987 62.2975L79 59.7994ZM1 62.8807L0.937172 65.3799L0.901314 60.3827L1 62.8807ZM79 64.8415L79.0628 62.3423L79.1076 67.3392L79 64.8415ZM1 68.203L0.829811 70.6972L0.892365 65.7053L1 68.203ZM79 73.5252L79.1702 71.031L79 76.0252V73.5252ZM5.5 73.5252V76.0252L5.31944 71.0317L5.5 73.5252ZM79 68.203L78.8194 65.7095L79.3675 70.6758L79 68.203ZM5.5 79.1276V81.6276L5.13245 76.6547L5.5 79.1276ZM79 79.1276V76.6276H83.9211L81.019 80.6019L79 79.1276ZM74.5 85.2902L76.519 86.7645L75.7473 87.8213L74.4391 87.7894L74.5 85.2902ZM5.5 83.6095L5.43913 86.1087L5.42381 81.1106L5.5 83.6095ZM79 81.3685L78.9238 78.8697L79.2371 83.8573L79 81.3685ZM5.5 88.3715V90.8715L5.26288 85.8828L5.5 88.3715ZM74.5 88.3715V85.8715L74.652 90.8669L74.5 88.3715ZM5.5 92.5733L5.41885 95.0719L5.34805 90.0779L5.5 92.5733ZM74.5812 92.3155L77.0798 92.3967L76.9175 97.394L74.4188 97.3129L74.5812 92.3155ZM40 70.8641L39.8298 73.3583L40 70.8641ZM79.1076 50.5321L1.10764 53.8935L0.892365 48.8982L78.8924 45.5367L79.1076 50.5321ZM1 48.8958H79V53.8958H1V48.8958ZM79.1434 53.8917L1.14342 58.3736L0.856583 53.3819L78.8566 48.9L79.1434 53.8917ZM1 53.3777H79V58.3777H1V53.3777ZM79.1255 58.3746L1.12553 62.2962L0.874466 57.3026L78.8745 53.3809L79.1255 58.3746ZM1 57.2994H79V62.2994H1V57.2994ZM79.0987 62.2975L1.09869 65.3788L0.901314 60.3827L78.9013 57.3013L79.0987 62.2975ZM1.06283 60.3815L79.0628 62.3423L78.9372 67.3407L0.937172 65.3799L1.06283 60.3815ZM79.1076 67.3392L1.10764 70.7006L0.892365 65.7053L78.8924 62.3439L79.1076 67.3392ZM79 76.0252H5.5V71.0252H79V76.0252ZM5.31944 71.0317L78.8194 65.7095L79.1806 70.6964L5.68056 76.0187L5.31944 71.0317ZM79.3675 70.6758L5.86755 81.6004L5.13245 76.6547L78.6325 65.7301L79.3675 70.6758ZM81.019 80.6019L76.519 86.7645L72.481 83.8159L76.981 77.6533L81.019 80.6019ZM74.4391 87.7894L5.43913 86.1087L5.56087 81.1102L74.5609 82.7909L74.4391 87.7894ZM5.42381 81.1106L78.9238 78.8697L79.0762 83.8674L5.57619 86.1083L5.42381 81.1106ZM79.2371 83.8573L5.73712 90.8602L5.26288 85.8828L78.7629 78.8798L79.2371 83.8573ZM5.5 85.8715H74.5V90.8715H5.5V85.8715ZM74.652 90.8669L5.65195 95.0686L5.34805 90.0779L74.348 85.8761L74.652 90.8669ZM5.58115 90.0746L74.5812 92.3155L74.4188 97.3129L5.41885 95.0719L5.58115 90.0746ZM1.17019 65.7088L40.1702 68.3699L39.8298 73.3583L0.829811 70.6972L1.17019 65.7088ZM40.1702 68.3699L79.1702 71.031L78.8298 76.0194L39.8298 73.3583L40.1702 68.3699ZM5.5 76.6276H42.25V81.6276H5.5V76.6276ZM42.25 76.6276H79V81.6276H42.25V76.6276Z" fill="#6A9EDA" fill-opacity="0.5"/>
<path d="M78.9311 0.500949L81.4302 0.432058L81.5679 5.43016L79.0689 5.49905L78.9311 0.500949ZM1 5.15022V7.65022L0.931107 2.65117L1 5.15022ZM79 5.15022V2.65022L79.0918 7.64853L79 5.15022ZM1 8.01718V10.5172L0.908173 5.51887L1 8.01718ZM79 8.01718V5.51718L79.0804 10.5159L79 8.01718ZM1 10.5258V13.0258L0.91964 8.02707L1 10.5258ZM79 10.5258V8.02577L79.0632 13.025L79 10.5258ZM1 12.4968L0.959801 14.9965L0.936844 9.99761L1 12.4968ZM79 13.7511L79.0402 11.2514L79.0689 16.2502L79 13.7511ZM1 15.9013L0.890984 18.3989L0.931107 13.4023L1 15.9013ZM79 19.3058L79.109 16.8082L79 21.8058V19.3058ZM5.5 19.3058V21.8058L5.38432 16.8085L5.5 19.3058ZM79 15.9013L78.8843 13.404L79.2366 18.3901L79 15.9013ZM5.5 22.8895V25.3895L5.26337 20.4008L5.5 22.8895ZM79 22.8895V20.3895H85.6478L80.6473 24.77L79 22.8895ZM74.5 26.8316L76.1473 28.7121L75.4234 29.3463L74.4611 29.3313L74.5 26.8316ZM5.5 25.7565L5.46105 28.2562L5.45125 23.257L5.5 25.7565ZM79 24.323L78.9513 21.8235L79.1521 26.8184L79 24.323ZM5.5 28.8027V31.3027L5.34792 26.3073L5.5 28.8027ZM74.5 28.8027V26.3027L74.5973 31.3008L74.5 28.8027ZM5.5 31.4904L5.44807 33.9899L5.40269 28.9923L5.5 31.4904ZM74.5519 30.4245L77.0514 30.4764L76.9475 35.4753L74.4481 35.4234L74.5519 30.4245ZM40 17.6036L39.891 20.1012L40 17.6036ZM79.0689 5.49905L1.06889 7.64927L0.931107 2.65117L78.9311 0.500949L79.0689 5.49905ZM1 2.65022H79V7.65022H1V2.65022ZM79.0918 7.64853L1.09183 10.5155L0.908173 5.51887L78.9082 2.65191L79.0918 7.64853ZM1 5.51718H79V10.5172H1V5.51718ZM79.0804 10.5159L1.08036 13.0245L0.91964 8.02707L78.9196 5.51848L79.0804 10.5159ZM1 8.02577H79V13.0258H1V8.02577ZM79.0632 13.025L1.06316 14.996L0.936844 9.99761L78.9368 8.02657L79.0632 13.025ZM1.0402 9.99713L79.0402 11.2514L78.9598 16.2508L0.959801 14.9965L1.0402 9.99713ZM79.0689 16.2502L1.06889 18.4004L0.931107 13.4023L78.9311 11.2521L79.0689 16.2502ZM79 21.8058H5.5V16.8058H79V21.8058ZM5.38432 16.8085L78.8843 13.404L79.1157 18.3987L5.61568 21.8032L5.38432 16.8085ZM79.2366 18.3901L5.73663 25.3783L5.26337 20.4008L78.7634 13.4126L79.2366 18.3901ZM80.6473 24.77L76.1473 28.7121L72.8527 24.9511L77.3527 21.0091L80.6473 24.77ZM74.4611 29.3313L5.46105 28.2562L5.53895 23.2568L74.5389 24.3319L74.4611 29.3313ZM5.45125 23.257L78.9513 21.8235L79.0487 26.8226L5.54875 28.256L5.45125 23.257ZM79.1521 26.8184L5.65208 31.298L5.34792 26.3073L78.8479 21.8277L79.1521 26.8184ZM5.5 26.3027H74.5V31.3027H5.5V26.3027ZM74.5973 31.3008L5.59731 33.9885L5.40269 28.9923L74.4027 26.3046L74.5973 31.3008ZM5.55193 28.991L74.5519 30.4245L74.4481 35.4234L5.44807 33.9899L5.55193 28.991ZM1.10902 13.4037L40.109 15.106L39.891 20.1012L0.890984 18.3989L1.10902 13.4037ZM40.109 15.106L79.109 16.8082L78.891 21.8035L39.891 20.1012L40.109 15.106ZM5.5 20.3895H42.25V25.3895H5.5V20.3895ZM42.25 20.3895H79V25.3895H42.25V20.3895Z" fill="#6A9EDA" fill-opacity="0.5"/>
<path d="M78.9311 27.3818L81.4302 27.3129L81.5679 32.311L79.0689 32.3799L78.9311 27.3818ZM1 32.0311V34.5311L0.931107 29.532L1 32.0311ZM79 32.0311V29.5311L79.0918 34.5294L79 32.0311ZM1 34.898V37.398L0.908173 32.3997L1 34.898ZM79 34.898V32.398L79.0804 37.3967L79 34.898ZM1 37.4066V39.9066L0.91964 34.9079L1 37.4066ZM79 37.4066V34.9066L79.0632 39.9058L79 37.4066ZM1 39.3776L0.959801 41.8773L0.936844 36.8784L1 39.3776ZM79 40.6319L79.0402 38.1323L79.0689 43.131L79 40.6319ZM1 42.7822L0.890984 45.2798L0.931107 40.2831L1 42.7822ZM79 46.1867L79.109 43.6891L79 48.6867V46.1867ZM5.5 46.1867V48.6867L5.38432 43.6894L5.5 46.1867ZM79 42.7822L78.8843 40.2848L79.2366 45.2709L79 42.7822ZM5.5 49.7704V52.2704L5.26337 47.2816L5.5 49.7704ZM79 49.7704V47.2704H85.6478L80.6473 51.6509L79 49.7704ZM74.5 53.7125L76.1473 55.5929L75.4234 56.2271L74.4611 56.2121L74.5 53.7125ZM5.5 52.6373L5.46105 55.137L5.45125 50.1378L5.5 52.6373ZM79 51.2039L78.9513 48.7043L79.1521 53.6992L79 51.2039ZM5.5 55.6835V58.1835L5.34792 53.1881L5.5 55.6835ZM74.5 55.6835V53.1835L74.5973 58.1816L74.5 55.6835ZM5.5 58.3713L5.44807 60.8707L5.40269 55.8732L5.5 58.3713ZM74.5519 57.3053L77.0514 57.3572L76.9475 62.3561L74.4481 62.3042L74.5519 57.3053ZM40 44.4844L39.891 46.982L40 44.4844ZM79.0689 32.3799L1.06889 34.5301L0.931107 29.532L78.9311 27.3818L79.0689 32.3799ZM1 29.5311H79V34.5311H1V29.5311ZM79.0918 34.5294L1.09183 37.3963L0.908173 32.3997L78.9082 29.5327L79.0918 34.5294ZM1 32.398H79V37.398H1V32.398ZM79.0804 37.3967L1.08036 39.9053L0.91964 34.9079L78.9196 32.3993L79.0804 37.3967ZM1 34.9066H79V39.9066H1V34.9066ZM79.0632 39.9058L1.06316 41.8768L0.936844 36.8784L78.9368 34.9074L79.0632 39.9058ZM1.0402 36.878L79.0402 38.1323L78.9598 43.1316L0.959801 41.8773L1.0402 36.878ZM79.0689 43.131L1.06889 45.2812L0.931107 40.2831L78.9311 38.1329L79.0689 43.131ZM79 48.6867H5.5V43.6867H79V48.6867ZM5.38432 43.6894L78.8843 40.2848L79.1157 45.2795L5.61568 48.684L5.38432 43.6894ZM79.2366 45.2709L5.73663 52.2592L5.26337 47.2816L78.7634 40.2934L79.2366 45.2709ZM80.6473 51.6509L76.1473 55.5929L72.8527 51.832L77.3527 47.8899L80.6473 51.6509ZM74.4611 56.2121L5.46105 55.137L5.53895 50.1376L74.5389 51.2128L74.4611 56.2121ZM5.45125 50.1378L78.9513 48.7043L79.0487 53.7034L5.54875 55.1369L5.45125 50.1378ZM79.1521 53.6992L5.65208 58.1789L5.34792 53.1881L78.8479 48.7085L79.1521 53.6992ZM5.5 53.1835H74.5V58.1835H5.5V53.1835ZM74.5973 58.1816L5.59731 60.8694L5.40269 55.8732L74.4027 53.1854L74.5973 58.1816ZM5.55193 55.8718L74.5519 57.3053L74.4481 62.3042L5.44807 60.8707L5.55193 55.8718ZM1.10902 40.2845L40.109 41.9868L39.891 46.982L0.890984 45.2798L1.10902 40.2845ZM40.109 41.9868L79.109 43.6891L78.891 48.6843L39.891 46.982L40.109 41.9868ZM5.5 47.2704H42.25V52.2704H5.5V47.2704ZM42.25 47.2704H79V52.2704H42.25V47.2704Z" fill="#6A9EDA" fill-opacity="0.5"/>
<path d="M78.9311 23.0085L81.4302 22.9396L81.5679 27.9377L79.0689 28.0066L78.9311 23.0085ZM1 27.6577V30.1577L0.931107 25.1587L1 27.6577ZM79 27.6577V25.1577L79.0918 30.156L79 27.6577ZM1 30.5247V33.0247L0.908173 28.0264L1 30.5247ZM79 30.5247V28.0247L79.0804 33.0234L79 30.5247ZM1 33.0333V35.5333L0.91964 30.5346L1 33.0333ZM79 33.0333V30.5333L79.0632 35.5325L79 33.0333ZM1 35.0043L0.959801 37.504L0.936844 32.5051L1 35.0043ZM79 36.2586L79.0402 33.7589L79.0689 38.7577L79 36.2586ZM1 38.4088L0.890984 40.9065L0.931107 35.9098L1 38.4088ZM79 41.8134L79.109 39.3157L79 44.3134V41.8134ZM5.5 41.8134V44.3134L5.38432 39.316L5.5 41.8134ZM79 38.4088L78.8843 35.9115L79.2366 40.8976L79 38.4088ZM5.5 45.3971V47.8971L5.26337 42.9083L5.5 45.3971ZM79 45.3971V42.8971H85.6478L80.6473 47.2775L79 45.3971ZM74.5 49.3391L76.1473 51.2196L75.4234 51.8538L74.4611 51.8388L74.5 49.3391ZM5.5 48.264L5.46105 50.7637L5.45125 45.7645L5.5 48.264ZM79 46.8305L78.9513 44.331L79.1521 49.3259L79 46.8305ZM5.5 51.3102V53.8102L5.34792 48.8148L5.5 51.3102ZM74.5 51.3102V48.8102L74.5973 53.8083L74.5 51.3102ZM5.5 53.9979L5.44807 56.4974L5.40269 51.4998L5.5 53.9979ZM74.5519 52.932L77.0514 52.9839L76.9475 57.9828L74.4481 57.9309L74.5519 52.932ZM40 40.1111L39.891 42.6087L40 40.1111ZM79.0689 28.0066L1.06889 30.1568L0.931107 25.1587L78.9311 23.0085L79.0689 28.0066ZM1 25.1577H79V30.1577H1V25.1577ZM79.0918 30.156L1.09183 33.023L0.908173 28.0264L78.9082 25.1594L79.0918 30.156ZM1 28.0247H79V33.0247H1V28.0247ZM79.0804 33.0234L1.08036 35.532L0.91964 30.5346L78.9196 28.026L79.0804 33.0234ZM1 30.5333H79V35.5333H1V30.5333ZM79.0632 35.5325L1.06316 37.5035L0.936844 32.5051L78.9368 30.5341L79.0632 35.5325ZM1.0402 32.5046L79.0402 33.7589L78.9598 38.7583L0.959801 37.504L1.0402 32.5046ZM79.0689 38.7577L1.06889 40.9079L0.931107 35.9098L78.9311 33.7596L79.0689 38.7577ZM79 44.3134H5.5V39.3134H79V44.3134ZM5.38432 39.316L78.8843 35.9115L79.1157 40.9062L5.61568 44.3107L5.38432 39.316ZM79.2366 40.8976L5.73663 47.8858L5.26337 42.9083L78.7634 35.9201L79.2366 40.8976ZM80.6473 47.2775L76.1473 51.2196L72.8527 47.4586L77.3527 43.5166L80.6473 47.2775ZM74.4611 51.8388L5.46105 50.7637L5.53895 45.7643L74.5389 46.8394L74.4611 51.8388ZM5.45125 45.7645L78.9513 44.331L79.0487 49.3301L5.54875 50.7635L5.45125 45.7645ZM79.1521 49.3259L5.65208 53.8055L5.34792 48.8148L78.8479 44.3352L79.1521 49.3259ZM5.5 48.8102H74.5V53.8102H5.5V48.8102ZM74.5973 53.8083L5.59731 56.496L5.40269 51.4998L74.4027 48.8121L74.5973 53.8083ZM5.55193 51.4985L74.5519 52.932L74.4481 57.9309L5.44807 56.4974L5.55193 51.4985ZM1.10902 35.9112L40.109 37.6135L39.891 42.6087L0.890984 40.9065L1.10902 35.9112ZM40.109 37.6135L79.109 39.3157L78.891 44.311L39.891 42.6087L40.109 37.6135ZM5.5 42.8971H42.25V47.8971H5.5V42.8971ZM42.25 42.8971H79V47.8971H42.25V42.8971Z" fill="#6A9EDA" fill-opacity="0.5"/>
<path d="M78.9311 49.8893L81.4302 49.8204L81.5679 54.8185L79.0689 54.8874L78.9311 49.8893ZM1 54.5385V57.0385L0.931107 52.0395L1 54.5385ZM79 54.5385V52.0385L79.0918 57.0368L79 54.5385ZM1 57.4055V59.9055L0.908173 54.9072L1 57.4055ZM79 57.4055V54.9055L79.0804 59.9042L79 57.4055ZM1 59.9141V62.4141L0.91964 57.4154L1 59.9141ZM79 59.9141V57.4141L79.0632 62.4133L79 59.9141ZM1 61.8851L0.959801 64.3848L0.936844 59.3859L1 61.8851ZM79 63.1394L79.0402 60.6397L79.0689 65.6385L79 63.1394ZM1 65.2896L0.890984 67.7873L0.931107 62.7906L1 65.2896ZM79 68.6942L79.109 66.1965L79 71.1942V68.6942ZM5.5 68.6942V71.1942L5.38432 66.1968L5.5 68.6942ZM79 65.2896L78.8843 62.7923L79.2366 67.7784L79 65.2896ZM5.5 72.2779V74.7779L5.26337 69.7891L5.5 72.2779ZM79 72.2779V69.7779H85.6478L80.6473 74.1583L79 72.2779ZM74.5 76.2199L76.1473 78.1004L75.4234 78.7346L74.4611 78.7196L74.5 76.2199ZM5.5 75.1448L5.46105 77.6445L5.45125 72.6453L5.5 75.1448ZM79 73.7113L78.9513 71.2118L79.1521 76.2067L79 73.7113ZM5.5 78.191V80.691L5.34792 75.6956L5.5 78.191ZM74.5 78.191V75.691L74.5973 80.6891L74.5 78.191ZM5.5 80.8787L5.44807 83.3782L5.40269 78.3806L5.5 80.8787ZM74.5519 79.8128L77.0514 79.8647L76.9475 84.8636L74.4481 84.8117L74.5519 79.8128ZM40 66.9919L39.891 69.4895L40 66.9919ZM79.0689 54.8874L1.06889 57.0376L0.931107 52.0395L78.9311 49.8893L79.0689 54.8874ZM1 52.0385H79V57.0385H1V52.0385ZM79.0918 57.0368L1.09183 59.9038L0.908173 54.9072L78.9082 52.0402L79.0918 57.0368ZM1 54.9055H79V59.9055H1V54.9055ZM79.0804 59.9042L1.08036 62.4128L0.91964 57.4154L78.9196 54.9068L79.0804 59.9042ZM1 57.4141H79V62.4141H1V57.4141ZM79.0632 62.4133L1.06316 64.3843L0.936844 59.3859L78.9368 57.4149L79.0632 62.4133ZM1.0402 59.3854L79.0402 60.6397L78.9598 65.6391L0.959801 64.3848L1.0402 59.3854ZM79.0689 65.6385L1.06889 67.7887L0.931107 62.7906L78.9311 60.6404L79.0689 65.6385ZM79 71.1942H5.5V66.1942H79V71.1942ZM5.38432 66.1968L78.8843 62.7923L79.1157 67.787L5.61568 71.1915L5.38432 66.1968ZM79.2366 67.7784L5.73663 74.7666L5.26337 69.7891L78.7634 62.8009L79.2366 67.7784ZM80.6473 74.1583L76.1473 78.1004L72.8527 74.3394L77.3527 70.3974L80.6473 74.1583ZM74.4611 78.7196L5.46105 77.6445L5.53895 72.6451L74.5389 73.7202L74.4611 78.7196ZM5.45125 72.6453L78.9513 71.2118L79.0487 76.2109L5.54875 77.6443L5.45125 72.6453ZM79.1521 76.2067L5.65208 80.6863L5.34792 75.6956L78.8479 71.216L79.1521 76.2067ZM5.5 75.691H74.5V80.691H5.5V75.691ZM74.5973 80.6891L5.59731 83.3768L5.40269 78.3806L74.4027 75.6929L74.5973 80.6891ZM5.55193 78.3793L74.5519 79.8128L74.4481 84.8117L5.44807 83.3782L5.55193 78.3793ZM1.10902 62.792L40.109 64.4943L39.891 69.4895L0.890984 67.7873L1.10902 62.792ZM40.109 64.4943L79.109 66.1965L78.891 71.1918L39.891 69.4895L40.109 64.4943ZM5.5 69.7779H42.25V74.7779H5.5V69.7779ZM42.25 69.7779H79V74.7779H42.25V69.7779Z" fill="#6A9EDA" fill-opacity="0.5"/>
<path d="M78.8924 38.7L81.39 38.5923L81.6053 43.5877L79.1076 43.6953L78.8924 38.7ZM1 44.5591V47.0591L0.892365 42.0614L1 44.5591ZM79 44.5591V42.0591L79.1434 47.055L79 44.5591ZM1 49.041V51.541L0.856583 46.5451L1 49.041ZM79 49.041V46.541L79.1255 51.5378L79 49.041ZM1 52.9626V55.4626L0.874466 50.4658L1 52.9626ZM79 52.9626V50.4626L79.0987 55.4607L79 52.9626ZM1 56.0439L0.937172 58.5432L0.901314 53.5459L1 56.0439ZM79 58.0048L79.0628 55.5056L79.1076 60.5025L79 58.0048ZM1 61.3662L0.829811 63.8604L0.892365 58.8685L1 61.3662ZM79 66.6884L79.1702 64.1942L79 69.1884V66.6884ZM5.5 66.6884V69.1884L5.31944 64.195L5.5 66.6884ZM79 61.3662L78.8194 58.8727L79.3675 63.839L79 61.3662ZM5.5 72.2908V74.7908L5.13245 69.818L5.5 72.2908ZM79 72.2908V69.7908H83.9211L81.019 73.7651L79 72.2908ZM74.5 78.4534L76.519 79.9277L75.7473 80.9845L74.4391 80.9527L74.5 78.4534ZM5.5 76.7727L5.43913 79.272L5.42381 74.2739L5.5 76.7727ZM79 74.5318L78.9238 72.0329L79.2371 77.0205L79 74.5318ZM5.5 81.5347V84.0347L5.26288 79.046L5.5 81.5347ZM74.5 81.5347V79.0347L74.652 84.0301L74.5 81.5347ZM5.5 85.7365L5.41885 88.2352L5.34805 83.2411L5.5 85.7365ZM74.5812 85.4788L77.0798 85.5599L76.9175 90.5573L74.4188 90.4761L74.5812 85.4788ZM40 64.0273L39.8298 66.5215L40 64.0273ZM79.1076 43.6953L1.10764 47.0568L0.892365 42.0614L78.8924 38.7L79.1076 43.6953ZM1 42.0591H79V47.0591H1V42.0591ZM79.1434 47.055L1.14342 51.5369L0.856583 46.5451L78.8566 42.0632L79.1434 47.055ZM1 46.541H79V51.541H1V46.541ZM79.1255 51.5378L1.12553 55.4595L0.874466 50.4658L78.8745 46.5441L79.1255 51.5378ZM1 50.4626H79V55.4626H1V50.4626ZM79.0987 55.4607L1.09869 58.542L0.901314 53.5459L78.9013 50.4646L79.0987 55.4607ZM1.06283 53.5447L79.0628 55.5056L78.9372 60.504L0.937172 58.5432L1.06283 53.5447ZM79.1076 60.5025L1.10764 63.8639L0.892365 58.8685L78.8924 55.5071L79.1076 60.5025ZM79 69.1884H5.5V64.1884H79V69.1884ZM5.31944 64.195L78.8194 58.8727L79.1806 63.8597L5.68056 69.1819L5.31944 64.195ZM79.3675 63.839L5.86755 74.7636L5.13245 69.818L78.6325 58.8934L79.3675 63.839ZM81.019 73.7651L76.519 79.9277L72.481 76.9791L76.981 70.8165L81.019 73.7651ZM74.4391 80.9527L5.43913 79.272L5.56087 74.2734L74.5609 75.9542L74.4391 80.9527ZM5.42381 74.2739L78.9238 72.0329L79.0762 77.0306L5.57619 79.2715L5.42381 74.2739ZM79.2371 77.0205L5.73712 84.0234L5.26288 79.046L78.7629 72.043L79.2371 77.0205ZM5.5 79.0347H74.5V84.0347H5.5V79.0347ZM74.652 84.0301L5.65195 88.2319L5.34805 83.2411L74.348 79.0393L74.652 84.0301ZM5.58115 83.2378L74.5812 85.4788L74.4188 90.4761L5.41885 88.2352L5.58115 83.2378ZM1.17019 58.872L40.1702 61.5331L39.8298 66.5215L0.829811 63.8604L1.17019 58.872ZM40.1702 61.5331L79.1702 64.1942L78.8298 69.1826L39.8298 66.5215L40.1702 61.5331ZM5.5 69.7908H42.25V74.7908H5.5V69.7908ZM42.25 69.7908H79V74.7908H42.25V69.7908Z" fill="#6A9EDA" fill-opacity="0.5"/>
<path d="M78.8924 80.7225L81.39 80.6149L81.6053 85.6102L79.1076 85.7179L78.8924 80.7225ZM1 86.5816V89.0816L0.892365 84.0839L1 86.5816ZM79 86.5816V84.0816L79.1434 89.0775L79 86.5816ZM1 91.0635V93.5635L0.856583 88.5676L1 91.0635ZM79 91.0635V88.5635L79.1255 93.5603L79 91.0635ZM1 94.9852V97.4852L0.874466 92.4883L1 94.9852ZM79 94.9852V92.4852L79.0987 97.4832L79 94.9852ZM1 98.0665L0.937172 100.566L0.901314 95.5684L1 98.0665ZM79 100.027L79.0628 97.5281L79.1076 102.525L79 100.027ZM1 103.389L0.829811 105.883L0.892365 100.891L1 103.389ZM79 108.711L79.1702 106.217L79 111.211V108.711ZM5.5 108.711V111.211L5.31944 106.217L5.5 108.711ZM79 103.389L78.8194 100.895L79.3675 105.862L79 103.389ZM5.5 114.313V116.813L5.13245 111.841L5.5 114.313ZM79 114.313V111.813H83.9211L81.019 115.788L79 114.313ZM74.5 120.476L76.519 121.95L75.7473 123.007L74.4391 122.975L74.5 120.476ZM5.5 118.795L5.43913 121.294L5.42381 116.296L5.5 118.795ZM79 116.554L78.9238 114.055L79.2371 119.043L79 116.554ZM5.5 123.557V126.057L5.26288 121.069L5.5 123.557ZM74.5 123.557V121.057L74.652 126.053L74.5 123.557ZM5.5 127.759L5.41885 130.258L5.34805 125.264L5.5 127.759ZM74.5812 127.501L77.0798 127.582L76.9175 132.58L74.4188 132.499L74.5812 127.501ZM40 106.05L39.8298 108.544L40 106.05ZM79.1076 85.7179L1.10764 89.0793L0.892365 84.0839L78.8924 80.7225L79.1076 85.7179ZM1 84.0816H79V89.0816H1V84.0816ZM79.1434 89.0775L1.14342 93.5594L0.856583 88.5676L78.8566 84.0857L79.1434 89.0775ZM1 88.5635H79V93.5635H1V88.5635ZM79.1255 93.5603L1.12553 97.482L0.874466 92.4883L78.8745 88.5667L79.1255 93.5603ZM1 92.4852H79V97.4852H1V92.4852ZM79.0987 97.4832L1.09869 100.565L0.901314 95.5684L78.9013 92.4871L79.0987 97.4832ZM1.06283 95.5673L79.0628 97.5281L78.9372 102.527L0.937172 100.566L1.06283 95.5673ZM79.1076 102.525L1.10764 105.886L0.892365 100.891L78.8924 97.5296L79.1076 102.525ZM79 111.211H5.5V106.211H79V111.211ZM5.31944 106.217L78.8194 100.895L79.1806 105.882L5.68056 111.204L5.31944 106.217ZM79.3675 105.862L5.86755 116.786L5.13245 111.841L78.6325 100.916L79.3675 105.862ZM81.019 115.788L76.519 121.95L72.481 119.002L76.981 112.839L81.019 115.788ZM74.4391 122.975L5.43913 121.294L5.56087 116.296L74.5609 117.977L74.4391 122.975ZM5.42381 116.296L78.9238 114.055L79.0762 119.053L5.57619 121.294L5.42381 116.296ZM79.2371 119.043L5.73712 126.046L5.26288 121.069L78.7629 114.066L79.2371 119.043ZM5.5 121.057H74.5V126.057H5.5V121.057ZM74.652 126.053L5.65195 130.254L5.34805 125.264L74.348 121.062L74.652 126.053ZM5.58115 125.26L74.5812 127.501L74.4188 132.499L5.41885 130.258L5.58115 125.26ZM1.17019 100.895L40.1702 103.556L39.8298 108.544L0.829811 105.883L1.17019 100.895ZM40.1702 103.556L79.1702 106.217L78.8298 111.205L39.8298 108.544L40.1702 103.556ZM5.5 111.813H42.25V116.813H5.5V111.813ZM42.25 111.813H79V116.813H42.25V111.813Z" fill="#6A9EDA" fill-opacity="0.5"/>
<path d="M78.9311 48.1887L81.4302 48.1198L81.5679 53.1179L79.0689 53.1868L78.9311 48.1887ZM1 52.838V55.338L0.931107 50.3389L1 52.838ZM79 52.838V50.338L79.0918 55.3363L79 52.838ZM1 55.7049V58.2049L0.908173 53.2066L1 55.7049ZM79 55.7049V53.2049L79.0804 58.2036L79 55.7049ZM1 58.2135V60.7135L0.91964 55.7148L1 58.2135ZM79 58.2135V55.7135L79.0632 60.7127L79 58.2135ZM1 60.1846L0.959801 62.6842L0.936844 57.6854L1 60.1846ZM79 61.4389L79.0402 58.9392L79.0689 63.9379L79 61.4389ZM1 63.5891L0.890984 66.0867L0.931107 61.09L1 63.5891ZM79 66.9936L79.109 64.496L79 69.4936V66.9936ZM5.5 66.9936V69.4936L5.38432 64.4963L5.5 66.9936ZM79 63.5891L78.8843 61.0917L79.2366 66.0778L79 63.5891ZM5.5 70.5773V73.0773L5.26337 68.0885L5.5 70.5773ZM79 70.5773V68.0773H85.6478L80.6473 72.4578L79 70.5773ZM74.5 74.5194L76.1473 76.3999L75.4234 77.0341L74.4611 77.0191L74.5 74.5194ZM5.5 73.4443L5.46105 75.9439L5.45125 70.9447L5.5 73.4443ZM79 72.0108L78.9513 69.5112L79.1521 74.5061L79 72.0108ZM5.5 76.4904V78.9904L5.34792 73.995L5.5 76.4904ZM74.5 76.4904V73.9904L74.5973 78.9885L74.5 76.4904ZM5.5 79.1782L5.44807 81.6776L5.40269 76.6801L5.5 79.1782ZM74.5519 78.1122L77.0514 78.1641L76.9475 83.163L74.4481 83.1111L74.5519 78.1122ZM40 65.2913L39.891 67.789L40 65.2913ZM79.0689 53.1868L1.06889 55.337L0.931107 50.3389L78.9311 48.1887L79.0689 53.1868ZM1 50.338H79V55.338H1V50.338ZM79.0918 55.3363L1.09183 58.2032L0.908173 53.2066L78.9082 50.3397L79.0918 55.3363ZM1 53.2049H79V58.2049H1V53.2049ZM79.0804 58.2036L1.08036 60.7122L0.91964 55.7148L78.9196 53.2062L79.0804 58.2036ZM1 55.7135H79V60.7135H1V55.7135ZM79.0632 60.7127L1.06316 62.6838L0.936844 57.6854L78.9368 55.7143L79.0632 60.7127ZM1.0402 57.6849L79.0402 58.9392L78.9598 63.9385L0.959801 62.6842L1.0402 57.6849ZM79.0689 63.9379L1.06889 66.0881L0.931107 61.09L78.9311 58.9398L79.0689 63.9379ZM79 69.4936H5.5V64.4936H79V69.4936ZM5.38432 64.4963L78.8843 61.0917L79.1157 66.0864L5.61568 69.4909L5.38432 64.4963ZM79.2366 66.0778L5.73663 73.0661L5.26337 68.0885L78.7634 61.1003L79.2366 66.0778ZM80.6473 72.4578L76.1473 76.3999L72.8527 72.6389L77.3527 68.6968L80.6473 72.4578ZM74.4611 77.0191L5.46105 75.9439L5.53895 70.9446L74.5389 72.0197L74.4611 77.0191ZM5.45125 70.9447L78.9513 69.5112L79.0487 74.5103L5.54875 75.9438L5.45125 70.9447ZM79.1521 74.5061L5.65208 78.9858L5.34792 73.995L78.8479 69.5154L79.1521 74.5061ZM5.5 73.9904H74.5V78.9904H5.5V73.9904ZM74.5973 78.9885L5.59731 81.6763L5.40269 76.6801L74.4027 73.9923L74.5973 78.9885ZM5.55193 76.6787L74.5519 78.1122L74.4481 83.1111L5.44807 81.6776L5.55193 76.6787ZM1.10902 61.0914L40.109 62.7937L39.891 67.789L0.890984 66.0867L1.10902 61.0914ZM40.109 62.7937L79.109 64.496L78.891 69.4912L39.891 67.789L40.109 62.7937ZM5.5 68.0773H42.25V73.0773H5.5V68.0773ZM42.25 68.0773H79V73.0773H42.25V68.0773Z" fill="#6A9EDA" fill-opacity="0.5"/>
<path d="M78.9311 75.0695L81.4302 75.0006L81.5679 79.9987L79.0689 80.0676L78.9311 75.0695ZM1 79.7188V82.2188L0.931107 77.2197L1 79.7188ZM79 79.7188V77.2188L79.0918 82.2171L79 79.7188ZM1 82.5858V85.0858L0.908173 80.0874L1 82.5858ZM79 82.5858V80.0858L79.0804 85.0845L79 82.5858ZM1 85.0943V87.5943L0.91964 82.5956L1 85.0943ZM79 85.0943V82.5943L79.0632 87.5935L79 85.0943ZM1 87.0654L0.959801 89.5651L0.936844 84.5662L1 87.0654ZM79 88.3197L79.0402 85.82L79.0689 90.8187L79 88.3197ZM1 90.4699L0.890984 92.9675L0.931107 87.9708L1 90.4699ZM79 93.8744L79.109 91.3768L79 96.3744V93.8744ZM5.5 93.8744V96.3744L5.38432 91.3771L5.5 93.8744ZM79 90.4699L78.8843 87.9726L79.2366 92.9587L79 90.4699ZM5.5 97.4581V99.9581L5.26337 94.9693L5.5 97.4581ZM79 97.4581V94.9581H85.6478L80.6473 99.3386L79 97.4581ZM74.5 101.4L76.1473 103.281L75.4234 103.915L74.4611 103.9L74.5 101.4ZM5.5 100.325L5.46105 102.825L5.45125 97.8256L5.5 100.325ZM79 98.8916L78.9513 96.3921L79.1521 101.387L79 98.8916ZM5.5 103.371V105.871L5.34792 100.876L5.5 103.371ZM74.5 103.371V100.871L74.5973 105.869L74.5 103.371ZM5.5 106.059L5.44807 108.558L5.40269 103.561L5.5 106.059ZM74.5519 104.993L77.0514 105.045L76.9475 110.044L74.4481 109.992L74.5519 104.993ZM40 92.1722L39.891 94.6698L40 92.1722ZM79.0689 80.0676L1.06889 82.2178L0.931107 77.2197L78.9311 75.0695L79.0689 80.0676ZM1 77.2188H79V82.2188H1V77.2188ZM79.0918 82.2171L1.09183 85.0841L0.908173 80.0874L78.9082 77.2205L79.0918 82.2171ZM1 80.0858H79V85.0858H1V80.0858ZM79.0804 85.0845L1.08036 87.5931L0.91964 82.5956L78.9196 80.087L79.0804 85.0845ZM1 82.5943H79V87.5943H1V82.5943ZM79.0632 87.5935L1.06316 89.5646L0.936844 84.5662L78.9368 82.5951L79.0632 87.5935ZM1.0402 84.5657L79.0402 85.82L78.9598 90.8194L0.959801 89.5651L1.0402 84.5657ZM79.0689 90.8187L1.06889 92.969L0.931107 87.9708L78.9311 85.8206L79.0689 90.8187ZM79 96.3744H5.5V91.3744H79V96.3744ZM5.38432 91.3771L78.8843 87.9726L79.1157 92.9672L5.61568 96.3717L5.38432 91.3771ZM79.2366 92.9587L5.73663 99.9469L5.26337 94.9693L78.7634 87.9811L79.2366 92.9587ZM80.6473 99.3386L76.1473 103.281L72.8527 99.5197L77.3527 95.5776L80.6473 99.3386ZM74.4611 103.9L5.46105 102.825L5.53895 97.8254L74.5389 98.9005L74.4611 103.9ZM5.45125 97.8256L78.9513 96.3921L79.0487 101.391L5.54875 102.825L5.45125 97.8256ZM79.1521 101.387L5.65208 105.867L5.34792 100.876L78.8479 96.3962L79.1521 101.387ZM5.5 100.871H74.5V105.871H5.5V100.871ZM74.5973 105.869L5.59731 108.557L5.40269 103.561L74.4027 100.873L74.5973 105.869ZM5.55193 103.56L74.5519 104.993L74.4481 109.992L5.44807 108.558L5.55193 103.56ZM1.10902 87.9723L40.109 89.6745L39.891 94.6698L0.890984 92.9675L1.10902 87.9723ZM40.109 89.6745L79.109 91.3768L78.891 96.372L39.891 94.6698L40.109 89.6745ZM5.5 94.9581H42.25V99.9581H5.5V94.9581ZM42.25 94.9581H79V99.9581H42.25V94.9581Z" fill="#6A9EDA" fill-opacity="0.5"/>
<path d="M78.9311 70.6962L81.4302 70.6273L81.5679 75.6254L79.0689 75.6943L78.9311 70.6962ZM1 75.3455V77.8455L0.931107 72.8464L1 75.3455ZM79 75.3455V72.8455L79.0918 77.8438L79 75.3455ZM1 78.2124V80.7124L0.908173 75.7141L1 78.2124ZM79 78.2124V75.7124L79.0804 80.7111L79 78.2124ZM1 80.721V83.221L0.91964 78.2223L1 80.721ZM79 80.721V78.221L79.0632 83.2202L79 80.721ZM1 82.6921L0.959801 85.1917L0.936844 80.1929L1 82.6921ZM79 83.9464L79.0402 81.4467L79.0689 86.4454L79 83.9464ZM1 86.0966L0.890984 88.5942L0.931107 83.5975L1 86.0966ZM79 89.5011L79.109 87.0035L79 92.0011V89.5011ZM5.5 89.5011V92.0011L5.38432 87.0038L5.5 89.5011ZM79 86.0966L78.8843 83.5993L79.2366 88.5854L79 86.0966ZM5.5 93.0848V95.5848L5.26337 90.596L5.5 93.0848ZM79 93.0848V90.5848H85.6478L80.6473 94.9653L79 93.0848ZM74.5 97.0269L76.1473 98.9074L75.4234 99.5416L74.4611 99.5266L74.5 97.0269ZM5.5 95.9518L5.46105 98.4514L5.45125 93.4522L5.5 95.9518ZM79 94.5183L78.9513 92.0187L79.1521 97.0136L79 94.5183ZM5.5 98.9979V101.498L5.34792 96.5025L5.5 98.9979ZM74.5 98.9979V96.4979L74.5973 101.496L74.5 98.9979ZM5.5 101.686L5.44807 104.185L5.40269 99.1876L5.5 101.686ZM74.5519 100.62L77.0514 100.672L76.9475 105.671L74.4481 105.619L74.5519 100.62ZM40 87.7988L39.891 90.2965L40 87.7988ZM79.0689 75.6943L1.06889 77.8445L0.931107 72.8464L78.9311 70.6962L79.0689 75.6943ZM1 72.8455H79V77.8455H1V72.8455ZM79.0918 77.8438L1.09183 80.7107L0.908173 75.7141L78.9082 72.8472L79.0918 77.8438ZM1 75.7124H79V80.7124H1V75.7124ZM79.0804 80.7111L1.08036 83.2197L0.91964 78.2223L78.9196 75.7137L79.0804 80.7111ZM1 78.221H79V83.221H1V78.221ZM79.0632 83.2202L1.06316 85.1913L0.936844 80.1929L78.9368 78.2218L79.0632 83.2202ZM1.0402 80.1924L79.0402 81.4467L78.9598 86.446L0.959801 85.1917L1.0402 80.1924ZM79.0689 86.4454L1.06889 88.5956L0.931107 83.5975L78.9311 81.4473L79.0689 86.4454ZM79 92.0011H5.5V87.0011H79V92.0011ZM5.38432 87.0038L78.8843 83.5993L79.1157 88.5939L5.61568 91.9984L5.38432 87.0038ZM79.2366 88.5854L5.73663 95.5736L5.26337 90.596L78.7634 83.6078L79.2366 88.5854ZM80.6473 94.9653L76.1473 98.9074L72.8527 95.1464L77.3527 91.2043L80.6473 94.9653ZM74.4611 99.5266L5.46105 98.4514L5.53895 93.4521L74.5389 94.5272L74.4611 99.5266ZM5.45125 93.4522L78.9513 92.0187L79.0487 97.0178L5.54875 98.4513L5.45125 93.4522ZM79.1521 97.0136L5.65208 101.493L5.34792 96.5025L78.8479 92.0229L79.1521 97.0136ZM5.5 96.4979H74.5V101.498H5.5V96.4979ZM74.5973 101.496L5.59731 104.184L5.40269 99.1876L74.4027 96.4998L74.5973 101.496ZM5.55193 99.1862L74.5519 100.62L74.4481 105.619L5.44807 104.185L5.55193 99.1862ZM1.10902 83.599L40.109 85.3012L39.891 90.2965L0.890984 88.5942L1.10902 83.599ZM40.109 85.3012L79.109 87.0035L78.891 91.9987L39.891 90.2965L40.109 85.3012ZM5.5 90.5848H42.25V95.5848H5.5V90.5848ZM42.25 90.5848H79V95.5848H42.25V90.5848Z" fill="#6A9EDA" fill-opacity="0.5"/>
<path d="M78.9311 97.577L81.4302 97.5081L81.5679 102.506L79.0689 102.575L78.9311 97.577ZM1 102.226V104.726L0.931107 99.7272L1 102.226ZM79 102.226V99.7263L79.0918 104.725L79 102.226ZM1 105.093V107.593L0.908173 102.595L1 105.093ZM79 105.093V102.593L79.0804 107.592L79 105.093ZM1 107.602V110.102L0.91964 105.103L1 107.602ZM79 107.602V105.102L79.0632 110.101L79 107.602ZM1 109.573L0.959801 112.073L0.936844 107.074L1 109.573ZM79 110.827L79.0402 108.327L79.0689 113.326L79 110.827ZM1 112.977L0.890984 115.475L0.931107 110.478L1 112.977ZM79 116.382L79.109 113.884L79 118.882V116.382ZM5.5 116.382V118.882L5.38432 113.885L5.5 116.382ZM79 112.977L78.8843 110.48L79.2366 115.466L79 112.977ZM5.5 119.966V122.466L5.26337 117.477L5.5 119.966ZM79 119.966V117.466H85.6478L80.6473 121.846L79 119.966ZM74.5 123.908L76.1473 125.788L75.4234 126.422L74.4611 126.407L74.5 123.908ZM5.5 122.833L5.46105 125.332L5.45125 120.333L5.5 122.833ZM79 121.399L78.9513 118.9L79.1521 123.894L79 121.399ZM5.5 125.879V128.379L5.34792 123.383L5.5 125.879ZM74.5 125.879V123.379L74.5973 128.377L74.5 125.879ZM5.5 128.566L5.44807 131.066L5.40269 126.068L5.5 128.566ZM74.5519 127.501L77.0514 127.552L76.9475 132.551L74.4481 132.499L74.5519 127.501ZM40 114.68L39.891 117.177L40 114.68ZM79.0689 102.575L1.06889 104.725L0.931107 99.7272L78.9311 97.577L79.0689 102.575ZM1 99.7263H79V104.726H1V99.7263ZM79.0918 104.725L1.09183 107.592L0.908173 102.595L78.9082 99.728L79.0918 104.725ZM1 102.593H79V107.593H1V102.593ZM79.0804 107.592L1.08036 110.101L0.91964 105.103L78.9196 102.595L79.0804 107.592ZM1 105.102H79V110.102H1V105.102ZM79.0632 110.101L1.06316 112.072L0.936844 107.074L78.9368 105.103L79.0632 110.101ZM1.0402 107.073L79.0402 108.327L78.9598 113.327L0.959801 112.073L1.0402 107.073ZM79.0689 113.326L1.06889 115.476L0.931107 110.478L78.9311 108.328L79.0689 113.326ZM79 118.882H5.5V113.882H79V118.882ZM5.38432 113.885L78.8843 110.48L79.1157 115.475L5.61568 118.879L5.38432 113.885ZM79.2366 115.466L5.73663 122.454L5.26337 117.477L78.7634 110.489L79.2366 115.466ZM80.6473 121.846L76.1473 125.788L72.8527 122.027L77.3527 118.085L80.6473 121.846ZM74.4611 126.407L5.46105 125.332L5.53895 120.333L74.5389 121.408L74.4611 126.407ZM5.45125 120.333L78.9513 118.9L79.0487 123.899L5.54875 125.332L5.45125 120.333ZM79.1521 123.894L5.65208 128.374L5.34792 123.383L78.8479 118.904L79.1521 123.894ZM5.5 123.379H74.5V128.379H5.5V123.379ZM74.5973 128.377L5.59731 131.065L5.40269 126.068L74.4027 123.381L74.5973 128.377ZM5.55193 126.067L74.5519 127.501L74.4481 132.499L5.44807 131.066L5.55193 126.067ZM1.10902 110.48L40.109 112.182L39.891 117.177L0.890984 115.475L1.10902 110.48ZM40.109 112.182L79.109 113.884L78.891 118.88L39.891 117.177L40.109 112.182ZM5.5 117.466H42.25V122.466H5.5V117.466ZM42.25 117.466H79V122.466H42.25V117.466Z" fill="#6A9EDA" fill-opacity="0.5"/>
</svg>
