<svg width="138" height="34" viewBox="0 0 138 34" fill="none" xmlns="http://www.w3.org/2000/svg">
<path fill-rule="evenodd" clip-rule="evenodd" d="M136.525 12.8103C135.117 11.6131 133.606 10.4177 131.557 9.26486C131.231 9.08102 131.011 8.88578 130.627 8.70945C129.858 8.35457 129.011 8.00887 128.197 7.65928C127.246 7.25127 126.372 6.83245 125.326 6.43751C124.073 5.96388 122.681 5.50944 121.329 5.05057C121.173 4.998 120.923 4.95962 120.698 4.92013C119.73 4.74714 119.106 4.53104 119.07 4.313C117.931 4.10274 116.823 3.98732 116.363 3.79097C115.81 3.55624 114.924 3.46085 114.139 3.31734C113.799 3.2556 113.403 3.20971 113.047 3.15186C111.188 2.84955 109.335 2.54612 107.478 2.24323C106.538 2.32778 106.48 2.05744 105.759 2.01684C105.011 1.97373 104.367 1.83133 103.678 1.7326C102.817 1.60967 102.018 1.43668 101.08 1.37299C97.2176 1.10711 93.5404 0.708289 89.5206 0.551717C86.9986 0.452708 84.5453 0.266923 82.0497 0.133982C80.8801 0.0722391 79.6071 -0.0390091 78.5098 0.0138343C76.4583 0.11312 74.4202 0.14872 72.3444 0.153725C70.7597 0.156784 69.1689 0.190714 67.5856 0.177921C65.4294 0.1604 63.2782 0.0894782 61.122 0.0822445C58.8816 0.0750136 56.6423 0.0766822 54.4717 0.279151C52.6644 0.447692 50.767 0.60761 48.8501 0.662675C45.569 0.757234 42.6283 1.04898 39.7562 1.38164C37.9382 1.59217 35.7651 1.56909 34.131 1.88364C33.9193 1.9248 33.4596 1.89393 33.1179 1.90228C32.3298 1.92063 31.3828 1.88503 30.786 1.97486C29.6694 2.14229 28.7345 2.37842 27.7635 2.59563C27.4122 2.67462 27.2112 2.78892 26.8803 2.87542C25.6879 3.18969 24.1201 3.42498 23.2164 3.80128C22.9095 3.92922 22.6629 4.07328 22.2417 4.17897C20.6956 4.565 19.5645 5.00942 18.4853 5.46695C17.9391 5.69806 17.0932 5.8933 16.583 6.12747C15.529 6.6114 14.6097 7.11229 13.6242 7.60541C13.457 7.68996 13.2693 7.77562 13.019 7.84737C12.4872 8.00089 11.8507 8.13689 11.3718 8.29792C10.8893 8.45979 10.6595 8.6656 10.118 8.81355C8.35647 9.29525 7.92092 9.88545 7.59965 10.4717C7.3205 10.9823 6.69362 11.4648 5.79359 11.9238C5.00547 12.3262 4.1945 12.7195 3.69275 13.1511C3.06949 13.6873 2.22001 14.2085 1.54496 14.742C1.27183 14.9581 1.18639 15.1881 1.06007 15.4139C0.658182 16.1225 -0.380211 16.8201 0.392261 17.5515C0.49213 17.6488 0.289988 17.7631 0.226217 17.8699C0.148006 18.0015 -0.0011941 18.1328 7.21061e-06 18.2643C0.00722677 19.0745 0.0469314 19.8852 0.0842336 20.6956C0.0890465 20.826 -0.057748 20.9751 0.163647 21.0847C0.796552 21.4003 0.771294 21.7263 0.815804 22.0603C0.863934 22.4191 1.00952 22.7828 1.3043 23.1353C1.70739 23.6189 2.2681 24.0959 2.80835 24.5726C3.26198 24.9728 3.65301 25.3811 4.31598 25.7633C4.88513 26.0898 5.80801 26.384 6.56363 26.6941C7.54307 27.0993 9.11691 27.4206 9.68734 27.8833C9.70058 27.8945 9.76556 27.9025 9.80285 27.9128C11.4898 28.3561 13.1841 28.7984 14.8588 29.2444C15.5699 29.4341 16.0765 29.7228 16.9621 29.806C18.5816 29.9587 18.7356 30.4356 20.4298 30.5327C21.0555 30.8267 22.2046 30.9991 23.2671 31.1949C23.8952 31.3109 24.4126 31.458 24.9937 31.5873C25.6591 31.7342 26.2499 31.9155 27.0296 32.0151C29.199 32.2918 31.3888 32.5702 33.6845 32.7799C36.3689 33.0255 39.1582 33.2101 41.9304 33.4015C43.5175 33.5108 45.1527 33.5889 46.7806 33.6635C47.671 33.7046 48.5951 33.6993 49.4939 33.7324C51.9136 33.8206 54.3201 33.9827 56.7434 33.9966C60.3387 34.0169 63.9447 33.9405 67.5434 33.8937C69.2532 33.8715 70.9607 33.8273 72.6669 33.7844C73.6981 33.7586 74.7232 33.6826 75.7471 33.6863C78.9777 33.6991 82.0315 33.4741 85.1648 33.3542C86.8553 33.2897 88.4521 33.1075 90.2291 33.1434C90.5359 33.1501 90.9065 33.1094 91.176 33.0672C93.6426 32.677 96.4245 32.6261 99.2679 32.6717C102.511 32.7231 105.359 32.5273 107.76 32.0145C108.7 31.8134 109.646 31.6143 110.542 31.4046C111.226 31.2444 111.834 31.0664 112.495 30.9006C112.764 30.8328 113.06 30.7685 113.382 30.7146C115.159 30.412 116.979 30.1244 118.71 29.8087C119.417 29.6797 119.978 29.5014 120.533 29.3334C121.695 28.981 122.799 28.6181 123.946 28.2632C124.731 28.0221 125.808 27.8221 125.816 27.4758C125.816 27.4094 126.161 27.3407 126.356 27.2748C126.751 27.1432 127.215 27.0203 127.541 26.8804C128.36 26.528 129.025 26.1559 129.919 25.8143C131.036 25.386 132.5 25.0025 132.89 24.4874C132.919 24.4496 133.061 24.4168 133.14 24.3809C133.79 24.0855 134.567 23.8005 135.057 23.4909C135.71 23.0798 136.167 22.6513 136.656 22.2263C136.783 22.1125 136.747 21.9871 136.747 21.8675C136.747 21.7229 136.599 21.5733 136.704 21.4342C137.065 20.955 136.676 20.4583 137.467 19.9869C137.674 19.862 137.468 19.699 137.446 19.5536C137.433 19.4515 137.368 19.3491 137.395 19.2474C137.467 18.9698 137.626 18.6928 137.65 18.416C137.717 17.7908 137.71 17.1648 137.758 16.5404C137.811 15.8849 137.836 15.2285 137.986 14.5744C138.127 13.955 137.196 13.3802 136.525 12.8103L136.525 12.8103ZM23.8515 27.2828C23.1223 27.2912 22.7939 27.1668 22.5195 27.06C21.1382 26.5283 19.4008 26.043 18.2672 25.3819C19.8386 25.4976 21.0792 25.5758 22.4053 25.5068C22.6387 25.494 23.3365 25.6586 23.28 25.6915C22.7157 26.0127 23.9634 26.2577 23.8684 26.5559C23.795 26.7837 23.8515 27.0137 23.8515 27.2829L23.8515 27.2828ZM31.0566 21.9978C31.0277 22.1015 30.4249 22.1955 30.023 22.3115C29.3395 22.1669 29.0051 22.1007 29.5525 21.8924C30.0892 21.6885 30.0723 21.4076 30.3154 21.162C30.4357 21.0419 30.6018 20.9237 30.7486 20.8046C30.8653 20.8091 30.9868 20.8138 31.1035 20.8183C31.1035 21.2115 31.1745 21.6067 31.0566 21.9977L31.0566 21.9978ZM36.8081 8.58541C37.1895 8.18826 38.3169 7.85171 40.1748 7.63982C39.1364 7.93185 38.0944 8.22387 36.8081 8.58541ZM45.6975 24.7482C46.3653 24.522 46.926 24.3327 47.6118 24.0996C47.6864 24.472 47.1052 24.6689 45.6975 24.7482ZM50.8942 22.771C51.2323 22.6394 51.4705 22.5482 51.7052 22.4567C51.7316 22.6775 51.7316 22.6775 50.8942 22.771ZM53.7037 7.51672C53.2658 7.67302 52.9914 7.83573 53.3765 8.00232C54.0635 8.30129 53.2056 8.47984 52.5017 8.66925C51.769 8.86671 50.875 8.80469 49.7355 8.74072C50.2998 8.43257 50.7306 8.14778 51.3298 7.883C52.0144 7.57706 52.7773 7.27698 53.646 6.99771C54.084 6.85782 54.8348 6.77049 55.4448 6.65869C55.5411 6.68288 55.6349 6.7068 55.73 6.73044C55.0562 6.9941 54.4173 7.26081 53.7037 7.51669L53.7037 7.51672ZM75.457 32.407C75.1056 32.4326 74.7555 32.4584 74.1647 32.5018C74.3235 32.3989 74.3909 32.2929 74.5112 32.2896C74.8229 32.2813 75.1562 32.3174 75.4847 32.3363C75.4762 32.36 75.4678 32.3836 75.457 32.407L75.457 32.407ZM70.957 16.4664C70.9955 16.3763 70.9329 16.2753 71.0918 16.1977C73.0025 15.2596 74.9492 14.3248 77.0466 13.312C77.0249 13.8034 73.0145 15.9093 70.9568 16.4664L70.957 16.4664ZM77.3341 24.5125C77.2378 24.5014 77.1404 24.4897 77.0465 24.4786C77.4641 24.233 77.8419 23.9821 78.3183 23.7421C78.5975 23.6011 78.8586 23.6078 80.0847 23.7604C79.0981 24.0299 78.2173 24.2713 77.3341 24.5124V24.5125ZM79.7526 17.2346C79.7526 16.8472 80.2291 16.6984 81.6429 16.7295C80.9005 16.9275 80.3578 17.073 79.7526 17.2346ZM113.201 8.59965C112.425 8.40997 111.319 8.26007 111.872 7.86011C112.482 8.1157 113.005 8.33375 113.526 8.55151C113.419 8.56737 113.31 8.5835 113.201 8.59963V8.59965ZM124.2 21.5983C123.471 21.5233 122.891 21.4643 122.292 21.4034C122.635 21.1578 122.915 20.9573 123.198 20.7568C123.461 20.5685 123.727 20.3807 124.014 20.1758C124.79 20.5671 124.822 20.7793 124.2 21.5983V21.5983ZM124.265 20.035C122.992 19.7041 123.005 19.6821 124.691 19.5567C124.524 19.7441 124.407 19.8754 124.265 20.035Z" fill="#42AB49" fill-opacity="0.9"/>
</svg>
