<svg width="225" height="153" viewBox="0 0 225 153" fill="none" xmlns="http://www.w3.org/2000/svg">
<path d="M10.0465 0.500433L7.54698 0.453884L7.45388 5.45302L9.95345 5.49957L10.0465 0.500433ZM224 6.98529V9.48529L224.047 4.48573L224 6.98529ZM10 6.98529V4.48529L9.93794 9.48452L10 6.98529ZM224 12.299V14.799L224.062 9.79979L224 12.299ZM10 12.299V9.79902L9.9457 14.7984L10 12.299ZM224 16.9485V19.4485L224.054 14.4491L224 16.9485ZM10 16.9485V14.4485L9.95733 19.4482L10 16.9485ZM224 20.6017L224.027 23.1016L224.043 18.1021L224 20.6017ZM10 22.9265L9.97284 20.4266L9.95345 25.426L10 22.9265ZM224 26.9118L224.074 29.4107L224.047 24.4122L224 26.9118ZM10 33.2218L9.92632 30.7229L10 35.7218V33.2218ZM211.654 33.2218V35.7218L211.732 30.723L211.654 33.2218ZM10 26.9118L10.0782 24.413L9.83976 29.4066L10 26.9118ZM211.654 39.864V42.364L211.814 37.3691L211.654 39.864ZM10 39.864V37.364H0.866788L8.72677 42.0154L10 39.864ZM22.3462 47.1703L21.0729 49.3218L21.674 49.6775L22.3725 49.6702L22.3462 47.1703ZM211.654 45.1777L211.68 47.6775L211.687 42.6779L211.654 45.1777ZM10 42.5208L10.0329 40.021L9.89715 45.0187L10 42.5208ZM211.654 50.8235V53.3235L211.757 48.3256L211.654 50.8235ZM22.3462 50.8235V48.3235L22.2804 53.3226L22.3462 50.8235ZM211.654 55.8051L211.689 58.3049L211.72 53.306L211.654 55.8051ZM22.3111 55.9622L19.8113 55.9973L19.8815 60.9968L22.3812 60.9617L22.3111 55.9622ZM117 30.0668L117.074 32.5657L117 30.0668ZM9.95345 5.49957L223.953 9.48486L224.047 4.48573L10.0465 0.500433L9.95345 5.49957ZM224 4.48529H10V9.48529H224V4.48529ZM9.93794 9.48452L223.938 14.7982L224.062 9.79979L10.0621 4.48606L9.93794 9.48452ZM224 9.79902H10V14.799H224V9.79902ZM9.9457 14.7984L223.946 19.4479L224.054 14.4491L10.0543 9.79961L9.9457 14.7984ZM224 14.4485H10V19.4485H224V14.4485ZM9.95733 19.4482L223.957 23.1013L224.043 18.1021L10.0427 14.4489L9.95733 19.4482ZM223.973 18.1019L9.97284 20.4266L10.0272 25.4263L224.027 23.1016L223.973 18.1019ZM9.95345 25.426L223.953 29.4113L224.047 24.4122L10.0465 20.4269L9.95345 25.426ZM10 35.7218H211.654V30.7218H10V35.7218ZM211.732 30.723L10.0782 24.413L9.92181 29.4105L211.576 35.7206L211.732 30.723ZM9.83976 29.4066L211.494 42.3588L211.814 37.3691L10.1602 24.4169L9.83976 29.4066ZM8.72677 42.0154L21.0729 49.3218L23.6194 45.0188L11.2732 37.7125L8.72677 42.0154ZM22.3725 49.6702L211.68 47.6775L211.628 42.6778L22.3198 44.6705L22.3725 49.6702ZM211.687 42.6779L10.0329 40.021L9.96706 45.0206L211.621 47.6775L211.687 42.6779ZM9.89715 45.0187L211.551 53.3214L211.757 48.3256L10.1028 40.0229L9.89715 45.0187ZM211.654 48.3235H22.3462V53.3235H211.654V48.3235ZM22.2804 53.3226L211.588 58.3043L211.72 53.306L22.4119 48.3244L22.2804 53.3226ZM211.619 53.3054L22.3111 55.9622L22.3812 60.9617L211.689 58.3049L211.619 53.3054ZM223.926 24.4128L116.926 27.5679L117.074 32.5657L224.074 29.4107L223.926 24.4128ZM116.926 27.5679L9.92632 30.7229L10.0737 35.7207L117.074 32.5657L116.926 27.5679ZM211.654 37.364H110.827V42.364H211.654V37.364ZM110.827 37.364H10V42.364H110.827V37.364Z" fill="#6A9EDA" fill-opacity="0.5"/>
<path d="M10.0465 50.3223L7.54698 50.2757L7.45388 55.2749L9.95345 55.3214L10.0465 50.3223ZM224 56.8071V59.3071L224.047 54.3076L224 56.8071ZM10 56.8071V54.3071L9.93794 59.3064L10 56.8071ZM224 62.1209V64.6209L224.062 59.6216L224 62.1209ZM10 62.1209V59.6209L9.9457 64.6203L10 62.1209ZM224 66.7704V69.2704L224.054 64.271L224 66.7704ZM10 66.7704V64.2704L9.95733 69.27L10 66.7704ZM224 70.4236L224.027 72.9234L224.043 67.9239L224 70.4236ZM10 72.7483L9.97284 70.2485L9.95345 75.2479L10 72.7483ZM224 76.7336L224.074 79.2325L224.047 74.234L224 76.7336ZM10 83.0437L9.92632 80.5447L10 85.5437V83.0437ZM211.654 83.0437V85.5437L211.732 80.5449L211.654 83.0437ZM10 76.7336L10.0782 74.2348L9.83976 79.2285L10 76.7336ZM211.654 89.6858V92.1858L211.814 87.191L211.654 89.6858ZM10 89.6858V87.1858H0.866789L8.72677 91.8373L10 89.6858ZM22.3462 96.9922L21.0729 99.1437L21.674 99.4994L22.3725 99.492L22.3462 96.9922ZM211.654 94.9995L211.68 97.4994L211.687 92.4998L211.654 94.9995ZM10 92.3427L10.0329 89.8429L9.89715 94.8406L10 92.3427ZM211.654 100.645V103.145L211.757 98.1475L211.654 100.645ZM22.3462 100.645V98.1454L22.2804 103.145L22.3462 100.645ZM211.654 105.627L211.689 108.127L211.72 103.128L211.654 105.627ZM22.3111 105.784L19.8113 105.819L19.8815 110.819L22.3812 110.784L22.3111 105.784ZM117 79.8886L117.074 82.3875L117 79.8886ZM9.95345 55.3214L223.953 59.3067L224.047 54.3076L10.0465 50.3223L9.95345 55.3214ZM224 54.3071H10V59.3071H224V54.3071ZM9.93794 59.3064L223.938 64.6201L224.062 59.6216L10.0621 54.3079L9.93794 59.3064ZM224 59.6209H10V64.6209H224V59.6209ZM9.9457 64.6203L223.946 69.2698L224.054 64.271L10.0543 59.6215L9.9457 64.6203ZM224 64.2704H10V69.2704H224V64.2704ZM9.95733 69.27L223.957 72.9232L224.043 67.9239L10.0427 64.2707L9.95733 69.27ZM223.973 67.9237L9.97284 70.2485L10.0272 75.2482L224.027 72.9234L223.973 67.9237ZM9.95345 75.2479L223.953 79.2332L224.047 74.234L10.0465 70.2488L9.95345 75.2479ZM10 85.5437H211.654V80.5437H10V85.5437ZM211.732 80.5449L10.0782 74.2348L9.92181 79.2324L211.576 85.5424L211.732 80.5449ZM9.83976 79.2285L211.494 92.1807L211.814 87.191L10.1602 74.2388L9.83976 79.2285ZM8.72677 91.8373L21.0729 99.1437L23.6194 94.8407L11.2732 87.5343L8.72677 91.8373ZM22.3725 99.492L211.68 97.4994L211.628 92.4997L22.3198 94.4923L22.3725 99.492ZM211.687 92.4998L10.0329 89.8429L9.96706 94.8425L211.621 97.4993L211.687 92.4998ZM9.89715 94.8406L211.551 103.143L211.757 98.1475L10.1028 89.8448L9.89715 94.8406ZM211.654 98.1454H22.3462V103.145H211.654V98.1454ZM22.2804 103.145L211.588 108.126L211.72 103.128L22.4119 98.1462L22.2804 103.145ZM211.619 103.127L22.3111 105.784L22.3812 110.784L211.689 108.127L211.619 103.127ZM223.926 74.2347L116.926 77.3897L117.074 82.3875L224.074 79.2325L223.926 74.2347ZM116.926 77.3897L9.92632 80.5447L10.0737 85.5426L117.074 82.3875L116.926 77.3897ZM211.654 87.1858H110.827V92.1858H211.654V87.1858ZM110.827 87.1858H10V92.1858H110.827V87.1858Z" fill="#6A9EDA" fill-opacity="0.5"/>
<path d="M10.0465 42.2166L7.54698 42.1701L7.45388 47.1692L9.95345 47.2158L10.0465 42.2166ZM224 48.7015V51.2015L224.047 46.2019L224 48.7015ZM10 48.7015V46.2015L9.93794 51.2007L10 48.7015ZM224 54.0152V56.5152L224.062 51.516L224 54.0152ZM10 54.0152V51.5152L9.9457 56.5146L10 54.0152ZM224 58.6647V61.1647L224.054 56.1653L224 58.6647ZM10 58.6647V56.1647L9.95733 61.1643L10 58.6647ZM224 62.3179L224.027 64.8177L224.043 59.8183L224 62.3179ZM10 64.6427L9.97284 62.1428L9.95345 67.1422L10 64.6427ZM224 68.6279L224.074 71.1269L224.047 66.1284L224 68.6279ZM10 74.938L9.92632 72.4391L10 77.438V74.938ZM211.654 74.938V77.438L211.732 72.4392L211.654 74.938ZM10 68.6279L10.0782 66.1292L9.83976 71.1228L10 68.6279ZM211.654 81.5801V84.0801L211.814 79.0853L211.654 81.5801ZM10 81.5801V79.0801H0.866789L8.72677 83.7316L10 81.5801ZM22.3462 88.8865L21.0729 91.038L21.674 91.3937L22.3725 91.3864L22.3462 88.8865ZM211.654 86.8939L211.68 89.3937L211.687 84.3941L211.654 86.8939ZM10 84.237L10.0329 81.7372L9.89715 86.7349L10 84.237ZM211.654 92.5397V95.0397L211.757 90.0418L211.654 92.5397ZM22.3462 92.5397V90.0397L22.2804 95.0388L22.3462 92.5397ZM211.654 97.5213L211.689 100.021L211.72 95.0222L211.654 97.5213ZM22.3111 97.6784L19.8113 97.7135L19.8815 102.713L22.3812 102.678L22.3111 97.6784ZM117 71.783L117.074 74.2819L117 71.783ZM9.95345 47.2158L223.953 51.201L224.047 46.2019L10.0465 42.2166L9.95345 47.2158ZM224 46.2015H10V51.2015H224V46.2015ZM9.93794 51.2007L223.938 56.5144L224.062 51.516L10.0621 46.2022L9.93794 51.2007ZM224 51.5152H10V56.5152H224V51.5152ZM9.9457 56.5146L223.946 61.1641L224.054 56.1653L10.0543 51.5158L9.9457 56.5146ZM224 56.1647H10V61.1647H224V56.1647ZM9.95733 61.1643L223.957 64.8175L224.043 59.8183L10.0427 56.1651L9.95733 61.1643ZM223.973 59.818L9.97284 62.1428L10.0272 67.1425L224.027 64.8177L223.973 59.818ZM9.95345 67.1422L223.953 71.1275L224.047 66.1284L10.0465 62.1431L9.95345 67.1422ZM10 77.438H211.654V72.438H10V77.438ZM211.732 72.4392L10.0782 66.1292L9.92181 71.1267L211.576 77.4368L211.732 72.4392ZM9.83976 71.1228L211.494 84.075L211.814 79.0853L10.1602 66.1331L9.83976 71.1228ZM8.72677 83.7316L21.0729 91.038L23.6194 86.735L11.2732 79.4287L8.72677 83.7316ZM22.3725 91.3864L211.68 89.3937L211.628 84.394L22.3198 86.3867L22.3725 91.3864ZM211.687 84.3941L10.0329 81.7372L9.96706 86.7368L211.621 89.3937L211.687 84.3941ZM9.89715 86.7349L211.551 95.0376L211.757 90.0418L10.1028 81.7391L9.89715 86.7349ZM211.654 90.0397H22.3462V95.0397H211.654V90.0397ZM22.2804 95.0388L211.588 100.02L211.72 95.0222L22.4119 90.0406L22.2804 95.0388ZM211.619 95.0216L22.3111 97.6784L22.3812 102.678L211.689 100.021L211.619 95.0216ZM223.926 66.129L116.926 69.2841L117.074 74.2819L224.074 71.1269L223.926 66.129ZM116.926 69.2841L9.92632 72.4391L10.0737 77.4369L117.074 74.2819L116.926 69.2841ZM211.654 79.0801H110.827V84.0801H211.654V79.0801ZM110.827 79.0801H10V84.0801H110.827V79.0801Z" fill="#6A9EDA" fill-opacity="0.5"/>
<path d="M10.0465 92.0384L7.54698 91.9919L7.45388 96.991L9.95345 97.0375L10.0465 92.0384ZM224 98.5233V101.023L224.047 96.0237L224 98.5233ZM10 98.5233V96.0233L9.93794 101.023L10 98.5233ZM224 103.837V106.337L224.062 101.338L224 103.837ZM10 103.837V101.337L9.9457 106.336L10 103.837ZM224 108.487V110.987L224.054 105.987L224 108.487ZM10 108.487V105.987L9.95733 110.986L10 108.487ZM224 112.14L224.027 114.64L224.043 109.64L224 112.14ZM10 114.464L9.97284 111.965L9.95345 116.964L10 114.464ZM224 118.45L224.074 120.949L224.047 115.95L224 118.45ZM10 124.76L9.92632 122.261L10 127.26V124.76ZM211.654 124.76V127.26L211.732 122.261L211.654 124.76ZM10 118.45L10.0782 115.951L9.83976 120.945L10 118.45ZM211.654 131.402V133.902L211.814 128.907L211.654 131.402ZM10 131.402V128.902H0.866788L8.72677 133.553L10 131.402ZM22.3462 138.708L21.0729 140.86L21.674 141.216L22.3725 141.208L22.3462 138.708ZM211.654 136.716L211.68 139.216L211.687 134.216L211.654 136.716ZM10 134.059L10.0329 131.559L9.89715 136.557L10 134.059ZM211.654 142.361V144.861L211.757 139.864L211.654 142.361ZM22.3462 142.361V139.861L22.2804 144.861L22.3462 142.361ZM211.654 147.343L211.689 149.843L211.72 144.844L211.654 147.343ZM22.3111 147.5L19.8113 147.535L19.8815 152.535L22.3812 152.5L22.3111 147.5ZM117 121.605L117.074 124.104L117 121.605ZM9.95345 97.0375L223.953 101.023L224.047 96.0237L10.0465 92.0384L9.95345 97.0375ZM224 96.0233H10V101.023H224V96.0233ZM9.93794 101.023L223.938 106.336L224.062 101.338L10.0621 96.024L9.93794 101.023ZM224 101.337H10V106.337H224V101.337ZM9.9457 106.336L223.946 110.986L224.054 105.987L10.0543 101.338L9.9457 106.336ZM224 105.987H10V110.987H224V105.987ZM9.95733 110.986L223.957 114.639L224.043 109.64L10.0427 105.987L9.95733 110.986ZM223.973 109.64L9.97284 111.965L10.0272 116.964L224.027 114.64L223.973 109.64ZM9.95345 116.964L223.953 120.949L224.047 115.95L10.0465 111.965L9.95345 116.964ZM10 127.26H211.654V122.26H10V127.26ZM211.732 122.261L10.0782 115.951L9.92181 120.949L211.576 127.259L211.732 122.261ZM9.83976 120.945L211.494 133.897L211.814 128.907L10.1602 115.955L9.83976 120.945ZM8.72677 133.553L21.0729 140.86L23.6194 136.557L11.2732 129.25L8.72677 133.553ZM22.3725 141.208L211.68 139.216L211.628 134.216L22.3198 136.208L22.3725 141.208ZM211.687 134.216L10.0329 131.559L9.96706 136.559L211.621 139.215L211.687 134.216ZM9.89715 136.557L211.551 144.859L211.757 139.864L10.1028 131.561L9.89715 136.557ZM211.654 139.861H22.3462V144.861H211.654V139.861ZM22.2804 144.861L211.588 149.842L211.72 144.844L22.4119 139.862L22.2804 144.861ZM211.619 144.843L22.3111 147.5L22.3812 152.5L211.689 149.843L211.619 144.843ZM223.926 115.951L116.926 119.106L117.074 124.104L224.074 120.949L223.926 115.951ZM116.926 119.106L9.92632 122.261L10.0737 127.259L117.074 124.104L116.926 119.106ZM211.654 128.902H110.827V133.902H211.654V128.902ZM110.827 128.902H10V133.902H110.827V128.902Z" fill="#6A9EDA" fill-opacity="0.5"/>
<path d="M10.0454 3.98657L7.54586 3.94113L7.45497 8.9403L9.95455 8.98575L10.0454 3.98657ZM224 10.3769V12.8769L224.045 7.87735L224 10.3769ZM10 10.3769V7.87694L9.93941 12.8762L10 10.3769ZM224 15.5646V18.0646L224.061 13.0654L224 15.5646ZM10 15.5646V13.0646L9.94698 18.0641L10 15.5646ZM224 20.1039V22.6039L224.053 17.6045L224 20.1039ZM10 20.1039V17.6039L9.95834 22.6035L10 20.1039ZM224 23.6704L224.027 26.1703L224.042 21.1708L224 23.6704ZM10 25.9401L9.97349 23.4402L9.95455 28.4396L10 25.9401ZM224 29.8308L224.072 32.3298L224.045 27.3312L224 29.8308ZM10 35.9912L9.92806 33.4923L10 38.4912V35.9912ZM211.654 35.9912V38.4912L211.73 33.4924L211.654 35.9912ZM10 29.8308L10.0763 27.332L9.84354 32.3259L10 29.8308ZM211.654 42.4759V44.9759L211.81 39.9808L211.654 42.4759ZM10 42.4759V39.9759H0.675584L8.74934 44.6405L10 42.4759ZM22.3462 49.609L21.0955 51.7736L21.6878 52.1159L22.3718 52.1088L22.3462 49.609ZM211.654 47.6636L211.68 50.1634L211.686 45.1638L211.654 47.6636ZM10 45.0697L10.0322 42.5699L9.89959 47.5677L10 45.0697ZM211.654 53.1755V55.6755L211.754 50.6775L211.654 53.1755ZM22.3462 53.1755V50.6755L22.2819 55.6747L22.3462 53.1755ZM211.654 58.039L211.688 60.5387L211.718 55.5398L211.654 58.039ZM22.3119 58.1331L19.8121 58.1673L19.8806 63.1669L22.3804 63.1326L22.3119 58.1331ZM117 32.911L117.072 35.41L117 32.911ZM9.95455 8.98575L223.955 12.8765L224.045 7.87735L10.0454 3.98657L9.95455 8.98575ZM224 7.87694H10V12.8769H224V7.87694ZM9.93941 12.8762L223.939 18.0639L224.061 13.0654L10.0606 7.87767L9.93941 12.8762ZM224 13.0646H10V18.0646H224V13.0646ZM9.94698 18.0641L223.947 22.6033L224.053 17.6045L10.053 13.0652L9.94698 18.0641ZM224 17.6039H10V22.6039H224V17.6039ZM9.95834 22.6035L223.958 26.1701L224.042 21.1708L10.0417 17.6042L9.95834 22.6035ZM223.973 21.1706L9.97349 23.4402L10.0265 28.4399L224.027 26.1703L223.973 21.1706ZM9.95455 28.4396L223.955 32.3304L224.045 27.3312L10.0454 23.4405L9.95455 28.4396ZM10 38.4912H211.654V33.4912H10V38.4912ZM211.73 33.4924L10.0763 27.332L9.92366 32.3297L211.577 38.4901L211.73 33.4924ZM9.84354 32.3259L211.497 44.971L211.81 39.9808L10.1565 27.3357L9.84354 32.3259ZM8.74934 44.6405L21.0955 51.7736L23.5968 47.4443L11.2507 40.3112L8.74934 44.6405ZM22.3718 52.1088L211.68 50.1634L211.628 45.1637L22.3205 47.1091L22.3718 52.1088ZM211.686 45.1638L10.0322 42.5699L9.96785 47.5695L211.622 50.1634L211.686 45.1638ZM9.89959 47.5677L211.553 55.6735L211.754 50.6775L10.1004 42.5717L9.89959 47.5677ZM211.654 50.6755H22.3462V55.6755H211.654V50.6755ZM22.2819 55.6747L211.59 60.5382L211.718 55.5398L22.4104 50.6763L22.2819 55.6747ZM211.62 55.5392L22.3119 58.1331L22.3804 63.1326L211.688 60.5387L211.62 55.5392ZM223.928 27.3319L116.928 30.4121L117.072 35.41L224.072 32.3298L223.928 27.3319ZM116.928 30.4121L9.92806 33.4923L10.0719 38.4902L117.072 35.41L116.928 30.4121ZM211.654 39.9759H110.827V44.9759H211.654V39.9759ZM110.827 39.9759H10V44.9759H110.827V39.9759Z" fill="#6A9EDA" fill-opacity="0.5"/>
<path d="M10.0454 52.6269L7.54586 52.5814L7.45497 57.5806L9.95455 57.6261L10.0454 52.6269ZM224 59.0172V61.5172L224.045 56.5177L224 59.0172ZM10 59.0172V56.5172L9.93941 61.5165L10 59.0172ZM224 64.205V66.705L224.061 61.7057L224 64.205ZM10 64.205V61.705L9.94698 66.7044L10 64.205ZM224 68.7442V71.2442L224.053 66.2448L224 68.7442ZM10 68.7442V66.2442L9.95834 71.2438L10 68.7442ZM224 72.3107L224.027 74.8106L224.042 69.8111L224 72.3107ZM10 74.5804L9.97349 72.0805L9.95455 77.0799L10 74.5804ZM224 78.4711L224.072 80.9701L224.045 75.9716L224 78.4711ZM10 84.6315L9.92806 82.1326L10 87.1315V84.6315ZM211.654 84.6315V87.1315L211.73 82.1327L211.654 84.6315ZM10 78.4711L10.0763 75.9723L9.84354 80.9662L10 78.4711ZM211.654 91.1162V93.6162L211.81 88.6211L211.654 91.1162ZM10 91.1162V88.6162H0.675584L8.74934 93.2809L10 91.1162ZM22.3462 98.2493L21.0955 100.414L21.6878 100.756L22.3718 100.749L22.3462 98.2493ZM211.654 96.3039L211.68 98.8037L211.686 93.8041L211.654 96.3039ZM10 93.71L10.0322 91.2102L9.89959 96.208L10 93.71ZM211.654 101.816V104.316L211.754 99.3178L211.654 101.816ZM22.3462 101.816V99.3158L22.2819 104.315L22.3462 101.816ZM211.654 106.679L211.688 109.179L211.718 104.18L211.654 106.679ZM22.3119 106.773L19.8121 106.808L19.8806 111.807L22.3804 111.773L22.3119 106.773ZM117 81.5513L117.072 84.0503L117 81.5513ZM9.95455 57.6261L223.955 61.5168L224.045 56.5177L10.0454 52.6269L9.95455 57.6261ZM224 56.5172H10V61.5172H224V56.5172ZM9.93941 61.5165L223.939 66.7042L224.061 61.7057L10.0606 56.518L9.93941 61.5165ZM224 61.705H10V66.705H224V61.705ZM9.94698 66.7044L223.947 71.2436L224.053 66.2448L10.053 61.7055L9.94698 66.7044ZM224 66.2442H10V71.2442H224V66.2442ZM9.95834 71.2438L223.958 74.8104L224.042 69.8111L10.0417 66.2445L9.95834 71.2438ZM223.973 69.8109L9.97349 72.0805L10.0265 77.0802L224.027 74.8106L223.973 69.8109ZM9.95455 77.0799L223.955 80.9707L224.045 75.9716L10.0454 72.0808L9.95455 77.0799ZM10 87.1315H211.654V82.1315H10V87.1315ZM211.73 82.1327L10.0763 75.9723L9.92366 80.97L211.577 87.1304L211.73 82.1327ZM9.84354 80.9662L211.497 93.6113L211.81 88.6211L10.1565 75.976L9.84354 80.9662ZM8.74934 93.2809L21.0955 100.414L23.5968 96.0846L11.2507 88.9515L8.74934 93.2809ZM22.3718 100.749L211.68 98.8037L211.628 93.804L22.3205 95.7494L22.3718 100.749ZM211.686 93.8041L10.0322 91.2102L9.96785 96.2098L211.622 98.8037L211.686 93.8041ZM9.89959 96.208L211.553 104.314L211.754 99.3178L10.1004 91.212L9.89959 96.208ZM211.654 99.3158H22.3462V104.316H211.654V99.3158ZM22.2819 104.315L211.59 109.178L211.718 104.18L22.4104 99.3166L22.2819 104.315ZM211.62 104.18L22.3119 106.773L22.3804 111.773L211.688 109.179L211.62 104.18ZM223.928 75.9722L116.928 79.0524L117.072 84.0503L224.072 80.9701L223.928 75.9722ZM116.928 79.0524L9.92806 82.1326L10.0719 87.1305L117.072 84.0503L116.928 79.0524ZM211.654 88.6162H110.827V93.6162H211.654V88.6162ZM110.827 88.6162H10V93.6162H110.827V88.6162Z" fill="#6A9EDA" fill-opacity="0.5"/>
<path d="M10.0291 0.500169L7.52924 0.471096L7.4711 5.47076L9.97093 5.49983L10.0291 0.500169ZM224 5.48884V7.98884L224.029 2.98901L224 5.48884ZM10 5.48884V2.98884L9.96124 7.98854L10 5.48884ZM224 8.80729V11.3073L224.039 6.30759L224 8.80729ZM10 8.80729V6.30729L9.96608 11.3071L10 8.80729ZM224 11.7109V14.2109L224.034 9.21117L224 11.7109ZM10 11.7109V9.21094L9.97335 14.2108L10 11.7109ZM224 13.9924L224.017 16.4923L224.027 11.4925L224 13.9924ZM10 15.4442L9.98304 12.9443L9.97093 17.944L10 15.4442ZM224 17.933L224.046 20.4326L224.029 15.4332L224 17.933ZM10 21.8737L9.95397 19.3741L10 24.3737V21.8737ZM211.654 21.8737V24.3737L211.703 19.3742L211.654 21.8737ZM10 17.933L10.0488 15.4335L9.8998 20.431L10 17.933ZM211.654 26.0218V28.5218L211.754 23.5238L211.654 26.0218ZM10 26.0218V23.5218L9.13335 28.3667L10 26.0218ZM22.3462 30.5846L21.4795 32.9296L21.9069 33.0876L22.3626 33.0846L22.3462 30.5846ZM211.654 29.3402L211.67 31.8402L211.674 26.8403L211.654 29.3402ZM10 27.681L10.0206 25.1811L9.93574 30.1802L10 27.681ZM211.654 32.8661V35.3661L211.718 30.3669L211.654 32.8661ZM22.3462 32.8661V30.3661L22.3051 35.3657L22.3462 32.8661ZM211.654 35.9771L211.676 38.477L211.695 33.4774L211.654 35.9771ZM22.3242 35.1364L19.8243 35.1583L19.8682 40.1582L22.3681 40.1362L22.3242 35.1364ZM117 19.9034L117.046 22.4029L117 19.9034ZM9.97093 5.49983L223.971 7.98867L224.029 2.98901L10.0291 0.500169L9.97093 5.49983ZM224 2.98884H10V7.98884H224V2.98884ZM9.96124 7.98854L223.961 11.307L224.039 6.30759L10.0388 2.98914L9.96124 7.98854ZM224 6.30729H10V11.3073H224V6.30729ZM9.96608 11.3071L223.966 14.2107L224.034 9.21117L10.0339 6.30752L9.96608 11.3071ZM224 9.21094H10V14.2109H224V9.21094ZM9.97335 14.2108L223.973 16.4922L224.027 11.4925L10.0267 9.21108L9.97335 14.2108ZM223.983 11.4924L9.98304 12.9443L10.017 17.9441L224.017 16.4923L223.983 11.4924ZM9.97093 17.944L223.971 20.4329L224.029 15.4332L10.0291 12.9444L9.97093 17.944ZM10 24.3737H211.654V19.3737H10V24.3737ZM211.703 19.3742L10.0488 15.4335L9.95116 20.4326L211.605 24.3732L211.703 19.3742ZM9.8998 20.431L211.554 28.5197L211.754 23.5238L10.1002 15.435L9.8998 20.431ZM9.13335 28.3667L21.4795 32.9296L23.2128 28.2397L10.8667 23.6768L9.13335 28.3667ZM22.3626 33.0846L211.67 31.8402L211.637 26.8403L22.3297 28.0847L22.3626 33.0846ZM211.674 26.8403L10.0206 25.1811L9.97943 30.1809L211.633 31.8401L211.674 26.8403ZM9.93574 30.1802L211.59 35.3652L211.718 30.3669L10.0643 25.1818L9.93574 30.1802ZM211.654 30.3661H22.3462V35.3661H211.654V30.3661ZM22.3051 35.3657L211.613 38.4768L211.695 33.4774L22.3872 30.3664L22.3051 35.3657ZM211.632 33.4772L22.3242 35.1364L22.3681 40.1362L211.676 38.477L211.632 33.4772ZM223.954 15.4335L116.954 17.4038L117.046 22.4029L224.046 20.4326L223.954 15.4335ZM116.954 17.4038L9.95397 19.3741L10.046 24.3733L117.046 22.4029L116.954 17.4038ZM211.654 23.5218H110.827V28.5218H211.654V23.5218ZM110.827 23.5218H10V28.5218H110.827V23.5218Z" fill="#6A9EDA" fill-opacity="0.5"/>
<path d="M10.0291 31.6142L7.52924 31.5851L7.4711 36.5848L9.97093 36.6139L10.0291 31.6142ZM224 36.6029V39.1029L224.029 34.1031L224 36.6029ZM10 36.6029V34.1029L9.96124 39.1026L10 36.6029ZM224 39.9213V42.4213L224.039 37.4216L224 39.9213ZM10 39.9213V37.4213L9.96608 42.4211L10 39.9213ZM224 42.825V45.325L224.034 40.3252L224 42.825ZM10 42.825V40.325L9.97335 45.3248L10 42.825ZM224 45.1064L224.017 47.6064L224.027 42.6066L224 45.1064ZM10 46.5582L9.98304 44.0583L9.97093 49.0581L10 46.5582ZM224 49.0471L224.046 51.5467L224.029 46.5472L224 49.0471ZM10 52.9877L9.95397 50.4882L10 55.4877V52.9877ZM211.654 52.9877V55.4877L211.703 50.4882L211.654 52.9877ZM10 49.0471L10.0488 46.5476L9.8998 51.5451L10 49.0471ZM211.654 57.1358V59.6358L211.754 54.6378L211.654 57.1358ZM10 57.1358V54.6358L9.13335 59.4808L10 57.1358ZM22.3462 61.6987L21.4795 64.0436L21.9069 64.2016L22.3626 64.1986L22.3462 61.6987ZM211.654 60.4543L211.67 62.9542L211.674 57.9543L211.654 60.4543ZM10 58.795L10.0206 56.2951L9.93574 61.2942L10 58.795ZM211.654 63.9801V66.4801L211.718 61.4809L211.654 63.9801ZM22.3462 63.9801V61.4801L22.3051 66.4798L22.3462 63.9801ZM211.654 67.0912L211.676 69.5911L211.695 64.5915L211.654 67.0912ZM22.3242 66.2505L19.8243 66.2724L19.8682 71.2722L22.3681 71.2503L22.3242 66.2505ZM117 51.0174L117.046 53.517L117 51.0174ZM9.97093 36.6139L223.971 39.1027L224.029 34.1031L10.0291 31.6142L9.97093 36.6139ZM224 34.1029H10V39.1029H224V34.1029ZM9.96124 39.1026L223.961 42.421L224.039 37.4216L10.0388 34.1032L9.96124 39.1026ZM224 37.4213H10V42.4213H224V37.4213ZM9.96608 42.4211L223.966 45.3247L224.034 40.3252L10.0339 37.4216L9.96608 42.4211ZM224 40.325H10V45.325H224V40.325ZM9.97335 45.3248L223.973 47.6063L224.027 42.6066L10.0267 40.3251L9.97335 45.3248ZM223.983 42.6065L9.98304 44.0583L10.017 49.0582L224.017 47.6064L223.983 42.6065ZM9.97093 49.0581L223.971 51.5469L224.029 46.5472L10.0291 44.0584L9.97093 49.0581ZM10 55.4877H211.654V50.4877H10V55.4877ZM211.703 50.4882L10.0488 46.5476L9.95116 51.5466L211.605 55.4873L211.703 50.4882ZM9.8998 51.5451L211.554 59.6338L211.754 54.6378L10.1002 46.5491L9.8998 51.5451ZM9.13335 59.4808L21.4795 64.0436L23.2128 59.3537L10.8667 54.7908L9.13335 59.4808ZM22.3626 64.1986L211.67 62.9542L211.637 57.9543L22.3297 59.1987L22.3626 64.1986ZM211.674 57.9543L10.0206 56.2951L9.97943 61.2949L211.633 62.9542L211.674 57.9543ZM9.93574 61.2942L211.59 66.4793L211.718 61.4809L10.0643 56.2959L9.93574 61.2942ZM211.654 61.4801H22.3462V66.4801H211.654V61.4801ZM22.3051 66.4798L211.613 69.5908L211.695 64.5915L22.3872 61.4804L22.3051 66.4798ZM211.632 64.5912L22.3242 66.2505L22.3681 71.2503L211.676 69.5911L211.632 64.5912ZM223.954 46.5475L116.954 48.5178L117.046 53.517L224.046 51.5467L223.954 46.5475ZM116.954 48.5178L9.95397 50.4882L10.046 55.4873L117.046 53.517L116.954 48.5178ZM211.654 54.6358H110.827V59.6358H211.654V54.6358ZM110.827 54.6358H10V59.6358H110.827V54.6358Z" fill="#6A9EDA" fill-opacity="0.5"/>
<path d="M10.0291 26.5522L7.52924 26.5231L7.4711 31.5228L9.97093 31.5518L10.0291 26.5522ZM224 31.5408V34.0408L224.029 29.041L224 31.5408ZM10 31.5408V29.0408L9.96124 34.0405L10 31.5408ZM224 34.8593V37.3593L224.039 32.3596L224 34.8593ZM10 34.8593V32.3593L9.96608 37.3591L10 34.8593ZM224 37.7629V40.2629L224.034 35.2632L224 37.7629ZM10 37.7629V35.2629L9.97335 40.2628L10 37.7629ZM224 40.0444L224.017 42.5443L224.027 37.5445L224 40.0444ZM10 41.4962L9.98304 38.9963L9.97093 43.996L10 41.4962ZM224 43.985L224.046 46.4846L224.029 41.4852L224 43.985ZM10 47.9257L9.95397 45.4261L10 50.4257V47.9257ZM211.654 47.9257V50.4257L211.703 45.4262L211.654 47.9257ZM10 43.985L10.0488 41.4855L9.8998 46.483L10 43.985ZM211.654 52.0738V54.5738L211.754 49.5758L211.654 52.0738ZM10 52.0738V49.5738L9.13335 54.4187L10 52.0738ZM22.3462 56.6366L21.4795 58.9816L21.9069 59.1396L22.3626 59.1366L22.3462 56.6366ZM211.654 55.3922L211.67 57.8922L211.674 52.8923L211.654 55.3922ZM10 53.733L10.0206 51.2331L9.93574 56.2322L10 53.733ZM211.654 58.9181V61.4181L211.718 56.4189L211.654 58.9181ZM22.3462 58.9181V56.4181L22.3051 61.4177L22.3462 58.9181ZM211.654 62.0291L211.676 64.529L211.695 59.5295L211.654 62.0291ZM22.3242 61.1884L19.8243 61.2104L19.8682 66.2102L22.3681 66.1883L22.3242 61.1884ZM117 45.9554L117.046 48.4549L117 45.9554ZM9.97093 31.5518L223.971 34.0407L224.029 29.041L10.0291 26.5522L9.97093 31.5518ZM224 29.0408H10V34.0408H224V29.0408ZM9.96124 34.0405L223.961 37.359L224.039 32.3596L10.0388 29.0411L9.96124 34.0405ZM224 32.3593H10V37.3593H224V32.3593ZM9.96608 37.3591L223.966 40.2627L224.034 35.2632L10.0339 32.3595L9.96608 37.3591ZM224 35.2629H10V40.2629H224V35.2629ZM9.97335 40.2628L223.973 42.5442L224.027 37.5445L10.0267 35.2631L9.97335 40.2628ZM223.983 37.5444L9.98304 38.9963L10.017 43.9961L224.017 42.5443L223.983 37.5444ZM9.97093 43.996L223.971 46.4849L224.029 41.4852L10.0291 38.9964L9.97093 43.996ZM10 50.4257H211.654V45.4257H10V50.4257ZM211.703 45.4262L10.0488 41.4855L9.95116 46.4846L211.605 50.4252L211.703 45.4262ZM9.8998 46.483L211.554 54.5718L211.754 49.5758L10.1002 41.487L9.8998 46.483ZM9.13335 54.4187L21.4795 58.9816L23.2128 54.2917L10.8667 49.7288L9.13335 54.4187ZM22.3626 59.1366L211.67 57.8922L211.637 52.8923L22.3297 54.1367L22.3626 59.1366ZM211.674 52.8923L10.0206 51.2331L9.97943 56.2329L211.633 57.8921L211.674 52.8923ZM9.93574 56.2322L211.59 61.4172L211.718 56.4189L10.0643 51.2338L9.93574 56.2322ZM211.654 56.4181H22.3462V61.4181H211.654V56.4181ZM22.3051 61.4177L211.613 64.5288L211.695 59.5295L22.3872 56.4184L22.3051 61.4177ZM211.632 59.5292L22.3242 61.1884L22.3681 66.1883L211.676 64.529L211.632 59.5292ZM223.954 41.4855L116.954 43.4558L117.046 48.4549L224.046 46.4846L223.954 41.4855ZM116.954 43.4558L9.95397 45.4261L10.046 50.4253L117.046 48.4549L116.954 43.4558ZM211.654 49.5738H110.827V54.5738H211.654V49.5738ZM110.827 49.5738H10V54.5738H110.827V49.5738Z" fill="#6A9EDA" fill-opacity="0.5"/>
<path d="M10.0291 57.6662L7.52924 57.6371L7.4711 62.6368L9.97093 62.6658L10.0291 57.6662ZM224 62.6548V65.1548L224.029 60.155L224 62.6548ZM10 62.6548V60.1548L9.96124 65.1545L10 62.6548ZM224 65.9733V68.4733L224.039 63.4736L224 65.9733ZM10 65.9733V63.4733L9.96608 68.4731L10 65.9733ZM224 68.8769V71.3769L224.034 66.3772L224 68.8769ZM10 68.8769V66.3769L9.97335 71.3768L10 68.8769ZM224 71.1584L224.017 73.6583L224.027 68.6585L224 71.1584ZM10 72.6102L9.98304 70.1103L9.97093 75.11L10 72.6102ZM224 75.099L224.046 77.5986L224.029 72.5992L224 75.099ZM10 79.0397L9.95397 76.5401L10 81.5397V79.0397ZM211.654 79.0397V81.5397L211.703 76.5402L211.654 79.0397ZM10 75.099L10.0488 72.5995L9.8998 77.597L10 75.099ZM211.654 83.1878V85.6878L211.754 80.6898L211.654 83.1878ZM10 83.1878V80.6878L9.13335 85.5327L10 83.1878ZM22.3462 87.7506L21.4795 90.0956L21.9069 90.2536L22.3626 90.2506L22.3462 87.7506ZM211.654 86.5062L211.67 89.0062L211.674 84.0063L211.654 86.5062ZM10 84.847L10.0206 82.3471L9.93574 87.3462L10 84.847ZM211.654 90.0321V92.5321L211.718 87.5329L211.654 90.0321ZM22.3462 90.0321V87.5321L22.3051 92.5317L22.3462 90.0321ZM211.654 93.1431L211.676 95.643L211.695 90.6435L211.654 93.1431ZM22.3242 92.3024L19.8243 92.3244L19.8682 97.3242L22.3681 97.3022L22.3242 92.3024ZM117 77.0694L117.046 79.5689L117 77.0694ZM9.97093 62.6658L223.971 65.1547L224.029 60.155L10.0291 57.6662L9.97093 62.6658ZM224 60.1548H10V65.1548H224V60.1548ZM9.96124 65.1545L223.961 68.473L224.039 63.4736L10.0388 60.1551L9.96124 65.1545ZM224 63.4733H10V68.4733H224V63.4733ZM9.96608 68.4731L223.966 71.3767L224.034 66.3772L10.0339 63.4735L9.96608 68.4731ZM224 66.3769H10V71.3769H224V66.3769ZM9.97335 71.3768L223.973 73.6582L224.027 68.6585L10.0267 66.3771L9.97335 71.3768ZM223.983 68.6584L9.98304 70.1103L10.017 75.1101L224.017 73.6583L223.983 68.6584ZM9.97093 75.11L223.971 77.5989L224.029 72.5992L10.0291 70.1104L9.97093 75.11ZM10 81.5397H211.654V76.5397H10V81.5397ZM211.703 76.5402L10.0488 72.5995L9.95116 77.5986L211.605 81.5392L211.703 76.5402ZM9.8998 77.597L211.554 85.6858L211.754 80.6898L10.1002 72.601L9.8998 77.597ZM9.13335 85.5327L21.4795 90.0956L23.2128 85.4057L10.8667 80.8428L9.13335 85.5327ZM22.3626 90.2506L211.67 89.0062L211.637 84.0063L22.3297 85.2507L22.3626 90.2506ZM211.674 84.0063L10.0206 82.3471L9.97943 87.3469L211.633 89.0061L211.674 84.0063ZM9.93574 87.3462L211.59 92.5312L211.718 87.5329L10.0643 82.3478L9.93574 87.3462ZM211.654 87.5321H22.3462V92.5321H211.654V87.5321ZM22.3051 92.5317L211.613 95.6428L211.695 90.6435L22.3872 87.5324L22.3051 92.5317ZM211.632 90.6432L22.3242 92.3024L22.3681 97.3022L211.676 95.643L211.632 90.6432ZM223.954 72.5995L116.954 74.5698L117.046 79.5689L224.046 77.5986L223.954 72.5995ZM116.954 74.5698L9.95397 76.5401L10.046 81.5393L117.046 79.5689L116.954 74.5698ZM211.654 80.6878H110.827V85.6878H211.654V80.6878ZM110.827 80.6878H10V85.6878H110.827V80.6878Z" fill="#6A9EDA" fill-opacity="0.5"/>
<path d="M10.0454 44.7135L7.54586 44.668L7.45497 49.6672L9.95455 49.7126L10.0454 44.7135ZM224 51.1038V53.6038L224.045 48.6042L224 51.1038ZM10 51.1038V48.6038L9.93941 53.6031L10 51.1038ZM224 56.2915V58.7915L224.061 53.7923L224 56.2915ZM10 56.2915V53.7915L9.94698 58.791L10 56.2915ZM224 60.8308V63.3308L224.053 58.3313L224 60.8308ZM10 60.8308V58.3308L9.95834 63.3304L10 60.8308ZM224 64.3973L224.027 66.8972L224.042 61.8977L224 64.3973ZM10 66.6669L9.97349 64.1671L9.95455 69.1665L10 66.6669ZM224 70.5577L224.072 73.0567L224.045 68.0581L224 70.5577ZM10 76.7181L9.92806 74.2192L10 79.2181V76.7181ZM211.654 76.7181V79.2181L211.73 74.2193L211.654 76.7181ZM10 70.5577L10.0763 68.0589L9.84354 73.0528L10 70.5577ZM211.654 83.2027V85.7027L211.81 80.7076L211.654 83.2027ZM10 83.2027V80.7027H0.675582L8.74934 85.3674L10 83.2027ZM22.3462 90.3358L21.0955 92.5005L21.6878 92.8427L22.3718 92.8357L22.3462 90.3358ZM211.654 88.3904L211.68 90.8903L211.686 85.8907L211.654 88.3904ZM10 85.7966L10.0322 83.2968L9.89959 88.2946L10 85.7966ZM211.654 93.9024V96.4024L211.754 91.4044L211.654 93.9024ZM22.3462 93.9024V91.4024L22.2819 96.4016L22.3462 93.9024ZM211.654 98.7659L211.688 101.266L211.718 96.2667L211.654 98.7659ZM22.3119 98.86L19.8121 98.8942L19.8806 103.894L22.3804 103.859L22.3119 98.86ZM117 73.6379L117.072 76.1369L117 73.6379ZM9.95455 49.7126L223.955 53.6034L224.045 48.6042L10.0454 44.7135L9.95455 49.7126ZM224 48.6038H10V53.6038H224V48.6038ZM9.93941 53.6031L223.939 58.7908L224.061 53.7923L10.0606 48.6046L9.93941 53.6031ZM224 53.7915H10V58.7915H224V53.7915ZM9.94698 58.791L223.947 63.3302L224.053 58.3313L10.053 53.7921L9.94698 58.791ZM224 58.3308H10V63.3308H224V58.3308ZM9.95834 63.3304L223.958 66.897L224.042 61.8977L10.0417 58.3311L9.95834 63.3304ZM223.973 61.8975L9.97349 64.1671L10.0265 69.1668L224.027 66.8972L223.973 61.8975ZM9.95455 69.1665L223.955 73.0573L224.045 68.0581L10.0454 64.1673L9.95455 69.1665ZM10 79.2181H211.654V74.2181H10V79.2181ZM211.73 74.2193L10.0763 68.0589L9.92366 73.0565L211.577 79.2169L211.73 74.2193ZM9.84354 73.0528L211.497 85.6978L211.81 80.7076L10.1565 68.0626L9.84354 73.0528ZM8.74934 85.3674L21.0955 92.5005L23.5968 88.1712L11.2507 81.0381L8.74934 85.3674ZM22.3718 92.8357L211.68 90.8903L211.628 85.8906L22.3205 87.836L22.3718 92.8357ZM211.686 85.8907L10.0322 83.2968L9.96785 88.2964L211.622 90.8902L211.686 85.8907ZM9.89959 88.2946L211.553 96.4004L211.754 91.4044L10.1004 83.2986L9.89959 88.2946ZM211.654 91.4024H22.3462V96.4024H211.654V91.4024ZM22.2819 96.4016L211.59 101.265L211.718 96.2667L22.4104 91.4032L22.2819 96.4016ZM211.62 96.2661L22.3119 98.86L22.3804 103.859L211.688 101.266L211.62 96.2661ZM223.928 68.0588L116.928 71.139L117.072 76.1369L224.072 73.0567L223.928 68.0588ZM116.928 71.139L9.92806 74.2192L10.0719 79.2171L117.072 76.1369L116.928 71.139ZM211.654 80.7027H110.827V85.7027H211.654V80.7027ZM110.827 80.7027H10V85.7027H110.827V80.7027Z" fill="#6A9EDA" fill-opacity="0.5"/>
<path d="M10.0454 93.3537L7.54586 93.3082L7.45497 98.3074L9.95455 98.3529L10.0454 93.3537ZM224 99.7441V102.244L224.045 97.2445L224 99.7441ZM10 99.7441V97.2441L9.93941 102.243L10 99.7441ZM224 104.932V107.432L224.061 102.432L224 104.932ZM10 104.932V102.432L9.94698 107.431L10 104.932ZM224 109.471V111.971L224.053 106.972L224 109.471ZM10 109.471V106.971L9.95834 111.971L10 109.471ZM224 113.038L224.027 115.537L224.042 110.538L224 113.038ZM10 115.307L9.97349 112.807L9.95455 117.807L10 115.307ZM224 119.198L224.072 121.697L224.045 116.698L224 119.198ZM10 125.358L9.92806 122.859L10 127.858V125.358ZM211.654 125.358V127.858L211.73 122.86L211.654 125.358ZM10 119.198L10.0763 116.699L9.84354 121.693L10 119.198ZM211.654 131.843V134.343L211.81 129.348L211.654 131.843ZM10 131.843V129.343H0.675586L8.74934 134.008L10 131.843ZM22.3462 138.976L21.0955 141.141L21.6878 141.483L22.3718 141.476L22.3462 138.976ZM211.654 137.031L211.68 139.531L211.686 134.531L211.654 137.031ZM10 134.437L10.0322 131.937L9.89959 136.935L10 134.437ZM211.654 142.543V145.043L211.754 140.045L211.654 142.543ZM22.3462 142.543V140.043L22.2819 145.042L22.3462 142.543ZM211.654 147.406L211.688 149.906L211.718 144.907L211.654 147.406ZM22.3119 147.5L19.8121 147.534L19.8806 152.534L22.3804 152.5L22.3119 147.5ZM117 122.278L117.072 124.777L117 122.278ZM9.95455 98.3529L223.955 102.244L224.045 97.2445L10.0454 93.3537L9.95455 98.3529ZM224 97.2441H10V102.244H224V97.2441ZM9.93941 102.243L223.939 107.431L224.061 102.432L10.0606 97.2448L9.93941 102.243ZM224 102.432H10V107.432H224V102.432ZM9.94698 107.431L223.947 111.97L224.053 106.972L10.053 102.432L9.94698 107.431ZM224 106.971H10V111.971H224V106.971ZM9.95834 111.971L223.958 115.537L224.042 110.538L10.0417 106.971L9.95834 111.971ZM223.973 110.538L9.97349 112.807L10.0265 117.807L224.027 115.537L223.973 110.538ZM9.95455 117.807L223.955 121.698L224.045 116.698L10.0454 112.808L9.95455 117.807ZM10 127.858H211.654V122.858H10V127.858ZM211.73 122.86L10.0763 116.699L9.92366 121.697L211.577 127.857L211.73 122.86ZM9.84354 121.693L211.497 134.338L211.81 129.348L10.1565 116.703L9.84354 121.693ZM8.74934 134.008L21.0955 141.141L23.5968 136.811L11.2507 129.678L8.74934 134.008ZM22.3718 141.476L211.68 139.531L211.628 134.531L22.3205 136.476L22.3718 141.476ZM211.686 134.531L10.0322 131.937L9.96785 136.937L211.622 139.53L211.686 134.531ZM9.89959 136.935L211.553 145.041L211.754 140.045L10.1004 131.939L9.89959 136.935ZM211.654 140.043H22.3462V145.043H211.654V140.043ZM22.2819 145.042L211.59 149.905L211.718 144.907L22.4104 140.043L22.2819 145.042ZM211.62 144.906L22.3119 147.5L22.3804 152.5L211.688 149.906L211.62 144.906ZM223.928 116.699L116.928 119.779L117.072 124.777L224.072 121.697L223.928 116.699ZM116.928 119.779L9.92806 122.859L10.0719 127.857L117.072 124.777L116.928 119.779ZM211.654 129.343H110.827V134.343H211.654V129.343ZM110.827 129.343H10V134.343H110.827V129.343Z" fill="#6A9EDA" fill-opacity="0.5"/>
<path d="M10.0291 55.6978L7.52924 55.6687L7.4711 60.6684L9.97093 60.6975L10.0291 55.6978ZM224 60.6865V63.1865L224.029 58.1866L224 60.6865ZM10 60.6865V58.1865L9.96124 63.1862L10 60.6865ZM224 64.0049V66.5049L224.039 61.5052L224 64.0049ZM10 64.0049V61.5049L9.96608 66.5047L10 64.0049ZM224 66.9086V69.4086L224.034 64.4088L224 66.9086ZM10 66.9086V64.4086L9.97335 69.4084L10 66.9086ZM224 69.19L224.017 71.6899L224.027 66.6901L224 69.19ZM10 70.6418L9.98304 68.1419L9.97093 73.1417L10 70.6418ZM224 73.1307L224.046 75.6302L224.029 70.6308L224 73.1307ZM10 77.0713L9.95397 74.5717L10 79.5713V77.0713ZM211.654 77.0713V79.5713L211.703 74.5718L211.654 77.0713ZM10 73.1307L10.0488 70.6311L9.8998 75.6287L10 73.1307ZM211.654 81.2194V83.7194L211.754 78.7214L211.654 81.2194ZM10 81.2194V78.7194L9.13335 83.5644L10 81.2194ZM22.3462 85.7823L21.4795 88.1272L21.9069 88.2852L22.3626 88.2822L22.3462 85.7823ZM211.654 84.5378L211.67 87.0378L211.674 82.0379L211.654 84.5378ZM10 82.8786L10.0206 80.3787L9.93574 85.3778L10 82.8786ZM211.654 88.0637V90.5637L211.718 85.5645L211.654 88.0637ZM22.3462 88.0637V85.5637L22.3051 90.5634L22.3462 88.0637ZM211.654 91.1747L211.676 93.6746L211.695 88.6751L211.654 91.1747ZM22.3242 90.3341L19.8243 90.356L19.8682 95.3558L22.3681 95.3339L22.3242 90.3341ZM117 75.101L117.046 77.6006L117 75.101ZM9.97093 60.6975L223.971 63.1863L224.029 58.1866L10.0291 55.6978L9.97093 60.6975ZM224 58.1865H10V63.1865H224V58.1865ZM9.96124 63.1862L223.961 66.5046L224.039 61.5052L10.0388 58.1868L9.96124 63.1862ZM224 61.5049H10V66.5049H224V61.5049ZM9.96608 66.5047L223.966 69.4083L224.034 64.4088L10.0339 61.5052L9.96608 66.5047ZM224 64.4086H10V69.4086H224V64.4086ZM9.97335 69.4084L223.973 71.6899L224.027 66.6901L10.0267 64.4087L9.97335 69.4084ZM223.983 66.6901L9.98304 68.1419L10.017 73.1418L224.017 71.6899L223.983 66.6901ZM9.97093 73.1417L223.971 75.6305L224.029 70.6308L10.0291 68.142L9.97093 73.1417ZM10 79.5713H211.654V74.5713H10V79.5713ZM211.703 74.5718L10.0488 70.6311L9.95116 75.6302L211.605 79.5708L211.703 74.5718ZM9.8998 75.6287L211.554 83.7174L211.754 78.7214L10.1002 70.6327L9.8998 75.6287ZM9.13335 83.5644L21.4795 88.1272L23.2128 83.4373L10.8667 78.8744L9.13335 83.5644ZM22.3626 88.2822L211.67 87.0378L211.637 82.0379L22.3297 83.2823L22.3626 88.2822ZM211.674 82.0379L10.0206 80.3787L9.97943 85.3785L211.633 87.0378L211.674 82.0379ZM9.93574 85.3778L211.59 90.5629L211.718 85.5645L10.0643 80.3794L9.93574 85.3778ZM211.654 85.5637H22.3462V90.5637H211.654V85.5637ZM22.3051 90.5634L211.613 93.6744L211.695 88.6751L22.3872 85.564L22.3051 90.5634ZM211.632 88.6748L22.3242 90.3341L22.3681 95.3339L211.676 93.6746L211.632 88.6748ZM223.954 70.6311L116.954 72.6014L117.046 77.6006L224.046 75.6302L223.954 70.6311ZM116.954 72.6014L9.95397 74.5717L10.046 79.5709L117.046 77.6006L116.954 72.6014ZM211.654 78.7194H110.827V83.7194H211.654V78.7194ZM110.827 78.7194H10V83.7194H110.827V78.7194Z" fill="#6A9EDA" fill-opacity="0.5"/>
<path d="M10.0291 86.8118L7.52924 86.7828L7.4711 91.7824L9.97093 91.8115L10.0291 86.8118ZM224 91.8005V94.3005L224.029 89.3007L224 91.8005ZM10 91.8005V89.3005L9.96124 94.3002L10 91.8005ZM224 95.119V97.619L224.039 92.6193L224 95.119ZM10 95.119V92.619L9.96608 97.6187L10 95.119ZM224 98.0226V100.523L224.034 95.5228L224 98.0226ZM10 98.0226V95.5226L9.97335 100.522L10 98.0226ZM224 100.304L224.017 102.804L224.027 97.8042L224 100.304ZM10 101.756L9.98304 99.2559L9.97093 104.256L10 101.756ZM224 104.245L224.046 106.744L224.029 101.745L224 104.245ZM10 108.185L9.95397 105.686L10 110.685V108.185ZM211.654 108.185V110.685L211.703 105.686L211.654 108.185ZM10 104.245L10.0488 101.745L9.8998 106.743L10 104.245ZM211.654 112.333V114.833L211.754 109.835L211.654 112.333ZM10 112.333V109.833L9.13335 114.678L10 112.333ZM22.3462 116.896L21.4795 119.241L21.9069 119.399L22.3626 119.396L22.3462 116.896ZM211.654 115.652L211.67 118.152L211.674 113.152L211.654 115.652ZM10 113.993L10.0206 111.493L9.93574 116.492L10 113.993ZM211.654 119.178V121.678L211.718 116.679L211.654 119.178ZM22.3462 119.178V116.678L22.3051 121.677L22.3462 119.178ZM211.654 122.289L211.676 124.789L211.695 119.789L211.654 122.289ZM22.3242 121.448L19.8243 121.47L19.8682 126.47L22.3681 126.448L22.3242 121.448ZM117 106.215L117.046 108.715L117 106.215ZM9.97093 91.8115L223.971 94.3003L224.029 89.3007L10.0291 86.8118L9.97093 91.8115ZM224 89.3005H10V94.3005H224V89.3005ZM9.96124 94.3002L223.961 97.6187L224.039 92.6193L10.0388 89.3008L9.96124 94.3002ZM224 92.619H10V97.619H224V92.619ZM9.96608 97.6187L223.966 100.522L224.034 95.5228L10.0339 92.6192L9.96608 97.6187ZM224 95.5226H10V100.523H224V95.5226ZM9.97335 100.522L223.973 102.804L224.027 97.8042L10.0267 95.5227L9.97335 100.522ZM223.983 97.8041L9.98304 99.2559L10.017 104.256L224.017 102.804L223.983 97.8041ZM9.97093 104.256L223.971 106.745L224.029 101.745L10.0291 99.256L9.97093 104.256ZM10 110.685H211.654V105.685H10V110.685ZM211.703 105.686L10.0488 101.745L9.95116 106.744L211.605 110.685L211.703 105.686ZM9.8998 106.743L211.554 114.831L211.754 109.835L10.1002 101.747L9.8998 106.743ZM9.13335 114.678L21.4795 119.241L23.2128 114.551L10.8667 109.988L9.13335 114.678ZM22.3626 119.396L211.67 118.152L211.637 113.152L22.3297 114.396L22.3626 119.396ZM211.674 113.152L10.0206 111.493L9.97943 116.493L211.633 118.152L211.674 113.152ZM9.93574 116.492L211.59 121.677L211.718 116.679L10.0643 111.493L9.93574 116.492ZM211.654 116.678H22.3462V121.678H211.654V116.678ZM22.3051 121.677L211.613 124.788L211.695 119.789L22.3872 116.678L22.3051 121.677ZM211.632 119.789L22.3242 121.448L22.3681 126.448L211.676 124.789L211.632 119.789ZM223.954 101.745L116.954 103.715L117.046 108.715L224.046 106.744L223.954 101.745ZM116.954 103.715L9.95397 105.686L10.046 110.685L117.046 108.715L116.954 103.715ZM211.654 109.833H110.827V114.833H211.654V109.833ZM110.827 109.833H10V114.833H110.827V109.833Z" fill="#6A9EDA" fill-opacity="0.5"/>
<path d="M10.0291 81.7498L7.52924 81.7207L7.4711 86.7204L9.97093 86.7495L10.0291 81.7498ZM224 86.7385V89.2385L224.029 84.2386L224 86.7385ZM10 86.7385V84.2385L9.96124 89.2382L10 86.7385ZM224 90.0569V92.5569L224.039 87.5572L224 90.0569ZM10 90.0569V87.5569L9.96608 92.5567L10 90.0569ZM224 92.9606V95.4606L224.034 90.4608L224 92.9606ZM10 92.9606V90.4606L9.97335 95.4604L10 92.9606ZM224 95.242L224.017 97.7419L224.027 92.7421L224 95.242ZM10 96.6938L9.98304 94.1939L9.97093 99.1937L10 96.6938ZM224 99.1827L224.046 101.682L224.029 96.6828L224 99.1827ZM10 103.123L9.95397 100.624L10 105.623V103.123ZM211.654 103.123V105.623L211.703 100.624L211.654 103.123ZM10 99.1827L10.0488 96.6831L9.8998 101.681L10 99.1827ZM211.654 107.271V109.771L211.754 104.773L211.654 107.271ZM10 107.271V104.771L9.13335 109.616L10 107.271ZM22.3462 111.834L21.4795 114.179L21.9069 114.337L22.3626 114.334L22.3462 111.834ZM211.654 110.59L211.67 113.09L211.674 108.09L211.654 110.59ZM10 108.931L10.0206 106.431L9.93574 111.43L10 108.931ZM211.654 114.116V116.616L211.718 111.617L211.654 114.116ZM22.3462 114.116V111.616L22.3051 116.615L22.3462 114.116ZM211.654 117.227L211.676 119.727L211.695 114.727L211.654 117.227ZM22.3242 116.386L19.8243 116.408L19.8682 121.408L22.3681 121.386L22.3242 116.386ZM117 101.153L117.046 103.653L117 101.153ZM9.97093 86.7495L223.971 89.2383L224.029 84.2386L10.0291 81.7498L9.97093 86.7495ZM224 84.2385H10V89.2385H224V84.2385ZM9.96124 89.2382L223.961 92.5566L224.039 87.5572L10.0388 84.2388L9.96124 89.2382ZM224 87.5569H10V92.5569H224V87.5569ZM9.96608 92.5567L223.966 95.4603L224.034 90.4608L10.0339 87.5572L9.96608 92.5567ZM224 90.4606H10V95.4606H224V90.4606ZM9.97335 95.4604L223.973 97.7419L224.027 92.7421L10.0267 90.4607L9.97335 95.4604ZM223.983 92.7421L9.98304 94.1939L10.017 99.1938L224.017 97.7419L223.983 92.7421ZM9.97093 99.1937L223.971 101.682L224.029 96.6828L10.0291 94.194L9.97093 99.1937ZM10 105.623H211.654V100.623H10V105.623ZM211.703 100.624L10.0488 96.6831L9.95116 101.682L211.605 105.623L211.703 100.624ZM9.8998 101.681L211.554 109.769L211.754 104.773L10.1002 96.6847L9.8998 101.681ZM9.13335 109.616L21.4795 114.179L23.2128 109.489L10.8667 104.926L9.13335 109.616ZM22.3626 114.334L211.67 113.09L211.637 108.09L22.3297 109.334L22.3626 114.334ZM211.674 108.09L10.0206 106.431L9.97943 111.431L211.633 113.09L211.674 108.09ZM9.93574 111.43L211.59 116.615L211.718 111.617L10.0643 106.431L9.93574 111.43ZM211.654 111.616H22.3462V116.616H211.654V111.616ZM22.3051 116.615L211.613 119.726L211.695 114.727L22.3872 111.616L22.3051 116.615ZM211.632 114.727L22.3242 116.386L22.3681 121.386L211.676 119.727L211.632 114.727ZM223.954 96.6831L116.954 98.6534L117.046 103.653L224.046 101.682L223.954 96.6831ZM116.954 98.6534L9.95397 100.624L10.046 105.623L117.046 103.653L116.954 98.6534ZM211.654 104.771H110.827V109.771H211.654V104.771ZM110.827 104.771H10V109.771H110.827V104.771Z" fill="#6A9EDA" fill-opacity="0.5"/>
<path d="M10.0291 112.864L7.52924 112.835L7.4711 117.834L9.97093 117.863L10.0291 112.864ZM224 117.852V120.352L224.029 115.353L224 117.852ZM10 117.852V115.352L9.96124 120.352L10 117.852ZM224 121.171V123.671L224.039 118.671L224 121.171ZM10 121.171V118.671L9.96608 123.671L10 121.171ZM224 124.075V126.575L224.034 121.575L224 124.075ZM10 124.075V121.575L9.97335 126.574L10 124.075ZM224 126.356L224.017 128.856L224.027 123.856L224 126.356ZM10 127.808L9.98304 125.308L9.97093 130.308L10 127.808ZM224 130.297L224.046 132.796L224.029 127.797L224 130.297ZM10 134.237L9.95397 131.738L10 136.737V134.237ZM211.654 134.237V136.737L211.703 131.738L211.654 134.237ZM10 130.297L10.0488 127.797L9.8998 132.795L10 130.297ZM211.654 138.385V140.885L211.754 135.887L211.654 138.385ZM10 138.385V135.885L9.13335 140.73L10 138.385ZM22.3462 142.948L21.4795 145.293L21.9069 145.451L22.3626 145.448L22.3462 142.948ZM211.654 141.704L211.67 144.204L211.674 139.204L211.654 141.704ZM10 140.045L10.0206 137.545L9.93574 142.544L10 140.045ZM211.654 145.23V147.73L211.718 142.731L211.654 145.23ZM22.3462 145.23V142.73L22.3051 147.729L22.3462 145.23ZM211.654 148.341L211.676 150.841L211.695 145.841L211.654 148.341ZM22.3242 147.5L19.8243 147.522L19.8682 152.522L22.3681 152.5L22.3242 147.5ZM117 132.267L117.046 134.767L117 132.267ZM9.97093 117.863L223.971 120.352L224.029 115.353L10.0291 112.864L9.97093 117.863ZM224 115.352H10V120.352H224V115.352ZM9.96124 120.352L223.961 123.671L224.039 118.671L10.0388 115.353L9.96124 120.352ZM224 118.671H10V123.671H224V118.671ZM9.96608 123.671L223.966 126.574L224.034 121.575L10.0339 118.671L9.96608 123.671ZM224 121.575H10V126.575H224V121.575ZM9.97335 126.574L223.973 128.856L224.027 123.856L10.0267 121.575L9.97335 126.574ZM223.983 123.856L9.98304 125.308L10.017 130.308L224.017 128.856L223.983 123.856ZM9.97093 130.308L223.971 132.797L224.029 127.797L10.0291 125.308L9.97093 130.308ZM10 136.737H211.654V131.737H10V136.737ZM211.703 131.738L10.0488 127.797L9.95116 132.796L211.605 136.737L211.703 131.738ZM9.8998 132.795L211.554 140.883L211.754 135.887L10.1002 127.799L9.8998 132.795ZM9.13335 140.73L21.4795 145.293L23.2128 140.603L10.8667 136.04L9.13335 140.73ZM22.3626 145.448L211.67 144.204L211.637 139.204L22.3297 140.448L22.3626 145.448ZM211.674 139.204L10.0206 137.545L9.97943 142.545L211.633 144.204L211.674 139.204ZM9.93574 142.544L211.59 147.729L211.718 142.731L10.0643 137.545L9.93574 142.544ZM211.654 142.73H22.3462V147.73H211.654V142.73ZM22.3051 147.729L211.613 150.84L211.695 145.841L22.3872 142.73L22.3051 147.729ZM211.632 145.841L22.3242 147.5L22.3681 152.5L211.676 150.841L211.632 145.841ZM223.954 127.797L116.954 129.767L117.046 134.767L224.046 132.796L223.954 127.797ZM116.954 129.767L9.95397 131.738L10.046 136.737L117.046 134.767L116.954 129.767ZM211.654 135.885H110.827V140.885H211.654V135.885ZM110.827 135.885H10V140.885H110.827V135.885Z" fill="#6A9EDA" fill-opacity="0.5"/>
</svg>
