<svg width="143" height="20" viewBox="0 0 143 20" fill="none" xmlns="http://www.w3.org/2000/svg">
<path fill-rule="evenodd" clip-rule="evenodd" d="M141.472 7.53548C140.013 6.83121 138.447 6.12806 136.323 5.44992C135.985 5.34178 135.757 5.22693 135.36 5.12321C134.563 4.91445 133.685 4.7111 132.842 4.50546C131.856 4.26545 130.951 4.01909 129.867 3.78677C128.568 3.50816 127.126 3.24085 125.725 2.97092C125.563 2.94 125.304 2.91743 125.071 2.89419C124.068 2.79244 123.421 2.66532 123.384 2.53706C122.204 2.41338 121.056 2.34549 120.58 2.22998C120.006 2.09191 119.088 2.03579 118.274 1.95138C117.922 1.91506 117.512 1.88806 117.143 1.85404C115.217 1.6762 113.297 1.49772 111.372 1.31955C110.398 1.36928 110.338 1.21026 109.591 1.18638C108.816 1.16102 108.149 1.07725 107.434 1.01918C106.543 0.946864 105.715 0.845109 104.742 0.807641C100.74 0.651239 96.9295 0.416641 92.7641 0.324539C90.1507 0.266299 87.6086 0.157014 85.0225 0.0788127C83.8106 0.0424936 82.4914 -0.0229466 81.3544 0.00813783C79.2285 0.0665415 77.1165 0.0874821 74.9655 0.0904263C73.3235 0.0922259 71.675 0.112185 70.0344 0.104659C67.8001 0.0943527 65.5709 0.0526342 63.3365 0.0483791C61.015 0.0441256 58.6946 0.0451072 56.4453 0.164206C54.5725 0.263348 52.6064 0.357418 50.6201 0.389809C47.2201 0.445432 44.1728 0.617049 41.1967 0.812728C39.3127 0.936571 37.061 0.922993 35.3677 1.10802C35.1482 1.13224 34.6719 1.11408 34.3178 1.11899C33.5012 1.12978 32.5199 1.10884 31.9015 1.16168C30.7444 1.26017 29.7756 1.39907 28.7694 1.52684C28.4054 1.5733 28.1971 1.64054 27.8543 1.69142C26.6187 1.87629 24.9941 2.0147 24.0575 2.23605C23.7396 2.3113 23.484 2.39605 23.0476 2.45822C21.4454 2.68529 20.2734 2.94672 19.1551 3.21585C18.589 3.3518 17.7125 3.46665 17.1838 3.6044C16.0916 3.88906 15.1391 4.1837 14.1179 4.47377C13.9446 4.52351 13.7501 4.57389 13.4907 4.6161C12.9396 4.70641 12.2801 4.78641 11.7838 4.88113C11.2838 4.97634 11.0457 5.09741 10.4846 5.18444C8.65924 5.4678 8.20791 5.81497 7.875 6.15982C7.58573 6.46019 6.93614 6.74402 6.0035 7.01399C5.18683 7.25072 4.34647 7.48206 3.82655 7.73594C3.1807 8.05136 2.30044 8.35797 1.60094 8.67174C1.31791 8.79886 1.22937 8.93415 1.09847 9.067C0.682029 9.48385 -0.393987 9.89416 0.406474 10.3244C0.509961 10.3817 0.300495 10.4489 0.234414 10.5117C0.153369 10.5891 -0.00123736 10.6663 7.47186e-06 10.7437C0.00748861 11.2203 0.0486318 11.6972 0.0872855 12.1739C0.0922728 12.2506 -0.0598403 12.3383 0.169576 12.4028C0.825412 12.5884 0.79924 12.7802 0.845362 12.9767C0.895236 13.1877 1.0461 13.4017 1.35156 13.609C1.76925 13.8935 2.35027 14.174 2.9101 14.4545C3.38017 14.6899 3.78537 14.93 4.47236 15.1549C5.06212 15.3469 6.01844 15.52 6.80145 15.7024C7.81637 15.9408 9.44723 16.1297 10.0383 16.402C10.0521 16.4085 10.1194 16.4133 10.158 16.4193C11.9061 16.6801 13.6618 16.9402 15.3972 17.2026C16.1341 17.3142 16.659 17.484 17.5766 17.5329C19.2549 17.6227 19.4145 17.9033 21.1701 17.9604C21.8184 18.1333 23.0091 18.2348 24.1101 18.3499C24.7609 18.4182 25.2971 18.5047 25.8993 18.5808C26.5888 18.6672 27.201 18.7738 28.0089 18.8324C30.257 18.9952 32.5261 19.1589 34.905 19.2823C37.6866 19.4267 40.577 19.5354 43.4497 19.6479C45.0942 19.7122 46.7887 19.7582 48.4756 19.802C49.3982 19.8262 50.3558 19.8231 51.2872 19.8426C53.7946 19.8945 56.2882 19.9898 58.7993 19.998C62.5249 20.01 66.2616 19.965 69.9907 19.9375C71.7624 19.9244 73.5317 19.8984 75.2997 19.8732C76.3683 19.858 77.4306 19.8133 78.4916 19.8154C81.8393 19.823 85.0037 19.6906 88.2505 19.6201C90.0023 19.5822 91.6568 19.475 93.4982 19.4961C93.8162 19.5 94.2002 19.4761 94.4795 19.4513C97.0355 19.2217 99.9181 19.1918 102.865 19.2186C106.225 19.2489 109.176 19.1337 111.665 18.8321C112.638 18.7138 113.618 18.5966 114.547 18.4733C115.255 18.379 115.886 18.2743 116.571 18.1768C116.85 18.1369 117.157 18.0991 117.49 18.0674C119.331 17.8894 121.218 17.7202 123.011 17.5345C123.744 17.4586 124.325 17.3538 124.9 17.2549C126.104 17.0477 127.249 16.8342 128.437 16.6254C129.25 16.4836 130.366 16.366 130.374 16.1623C130.374 16.1232 130.732 16.0827 130.934 16.044C131.343 15.9666 131.825 15.8943 132.162 15.812C133.01 15.6047 133.7 15.3858 134.626 15.1849C135.783 14.933 137.301 14.7074 137.705 14.4044C137.735 14.3821 137.882 14.3628 137.964 14.3417C138.637 14.168 139.443 14.0003 139.95 13.8182C140.627 13.5764 141.101 13.3243 141.607 13.0743C141.739 13.0074 141.702 12.9336 141.702 12.8632C141.702 12.7782 141.549 12.6901 141.657 12.6083C142.031 12.3265 141.628 12.0343 142.448 11.757C142.662 11.6835 142.449 11.5877 142.426 11.5021C142.413 11.4421 142.345 11.3819 142.373 11.322C142.448 11.1587 142.612 10.9958 142.637 10.833C142.707 10.4652 142.699 10.0969 142.749 9.72964C142.804 9.34404 142.83 8.95794 142.985 8.57317C143.132 8.20884 142.167 7.87069 141.471 7.53547L141.472 7.53548ZM24.7157 16.0487C23.9601 16.0536 23.6197 15.9805 23.3355 15.9177C21.9041 15.6049 20.1037 15.3194 18.9291 14.9305C20.5574 14.9986 21.8429 15.0446 23.217 15.004C23.4589 14.9965 24.1821 15.0933 24.1235 15.1126C23.5387 15.3016 24.8317 15.4457 24.7332 15.6211C24.6571 15.7551 24.7157 15.8904 24.7157 16.0488L24.7157 16.0487ZM32.1818 12.9399C32.1519 13.0009 31.5272 13.0562 31.1108 13.1244C30.4026 13.0393 30.056 13.0004 30.6233 12.8779C31.1794 12.7579 31.1619 12.5927 31.4138 12.4482C31.5385 12.3776 31.7105 12.308 31.8626 12.238C31.9836 12.2406 32.1095 12.2434 32.2304 12.246C32.2304 12.4774 32.304 12.7098 32.1818 12.9398L32.1818 12.9399ZM38.1417 5.05024C38.537 4.81662 39.7052 4.61865 41.6304 4.49401C40.5544 4.66579 39.4747 4.83757 38.1417 5.05024ZM47.3532 14.5577C48.0452 14.4247 48.6262 14.3133 49.3368 14.1762C49.4142 14.3953 48.812 14.5111 47.3532 14.5577ZM52.7382 13.3947C53.0886 13.3173 53.3354 13.2637 53.5785 13.2098C53.606 13.3397 53.606 13.3397 52.7382 13.3947ZM55.6495 4.4216C55.1957 4.51354 54.9114 4.60925 55.3104 4.70724C56.0223 4.88311 55.1333 4.98814 54.404 5.09956C53.6446 5.21571 52.7183 5.17923 51.5375 5.1416C52.1222 4.96033 52.5686 4.79281 53.1896 4.63706C53.899 4.4571 54.6895 4.28057 55.5897 4.1163C56.0435 4.03401 56.8216 3.98264 57.4537 3.91688C57.5534 3.93111 57.6507 3.94518 57.7492 3.95908C57.051 4.11417 56.3889 4.27107 55.6495 4.42158L55.6495 4.4216ZM78.1909 19.0629C77.8269 19.078 77.464 19.0932 76.8518 19.1187C77.0164 19.0582 77.0862 18.9958 77.2109 18.9939C77.5338 18.989 77.8792 19.0102 78.2196 19.0214C78.2109 19.0353 78.2022 19.0492 78.1909 19.0629L78.1909 19.0629ZM73.5279 9.6861C73.5678 9.63309 73.503 9.5737 73.6675 9.52806C75.6475 8.97623 77.6647 8.42637 79.8381 7.83056C79.8157 8.11964 75.6599 9.3584 73.5277 9.68612L73.5279 9.6861ZM80.1361 14.4191C80.0363 14.4126 79.9353 14.4057 79.8381 14.3992C80.2707 14.2547 80.6622 14.1071 81.156 13.9659C81.4452 13.883 81.7158 13.8869 82.9863 13.9767C81.9639 14.1353 81.0512 14.2773 80.1361 14.4191V14.4191ZM82.6422 10.138C82.6422 9.9101 83.136 9.82258 84.601 9.8409C83.8317 9.95738 83.2693 10.0429 82.6422 10.138ZM117.303 5.05862C116.499 4.94704 115.353 4.85886 115.925 4.62359C116.557 4.77394 117.1 4.9022 117.639 5.0303C117.529 5.03963 117.415 5.04912 117.303 5.0586V5.05862ZM128.7 12.7049C127.945 12.6607 127.344 12.6261 126.723 12.5902C127.078 12.4458 127.368 12.3278 127.661 12.2099C127.935 12.0991 128.21 11.9887 128.507 11.8681C129.311 12.0983 129.345 12.2231 128.7 12.7049V12.7049ZM128.767 11.7853C127.448 11.5906 127.462 11.5777 129.209 11.5039C129.035 11.6142 128.915 11.6914 128.767 11.7853Z" fill="#B2DAFA"/>
</svg>
