<svg width="94" height="20" viewBox="0 0 94 20" fill="none" xmlns="http://www.w3.org/2000/svg">
<path fill-rule="evenodd" clip-rule="evenodd" d="M92.9953 7.53548C92.0364 6.83121 91.0069 6.12806 89.6112 5.44992C89.3891 5.34178 89.2391 5.22693 88.9776 5.12321C88.4539 4.91445 87.8769 4.7111 87.3229 4.50546C86.6746 4.26545 86.0795 4.01909 85.3673 3.78677C84.5133 3.50816 83.565 3.24085 82.6445 2.97092C82.538 2.94 82.3675 2.91743 82.2142 2.89419C81.5553 2.79244 81.1299 2.66532 81.1053 2.53706C80.33 2.41338 79.5751 2.34549 79.262 2.22998C78.885 2.09191 78.2818 2.03579 77.7466 1.95138C77.5155 1.91506 77.2458 1.88806 77.0032 1.85404C75.737 1.6762 74.4747 1.49772 73.2093 1.31955C72.5692 1.36928 72.5299 1.21026 72.039 1.18638C71.5292 1.16102 71.0907 1.07725 70.6211 1.01918C70.0351 0.946864 69.4909 0.845109 68.8516 0.807641C66.2207 0.651239 63.7159 0.416641 60.9778 0.324539C59.2599 0.266299 57.5889 0.157014 55.8889 0.0788127C55.0923 0.0424936 54.2251 -0.0229466 53.4777 0.00813783C52.0803 0.0665415 50.692 0.0874821 49.278 0.0904263C48.1986 0.0922259 47.115 0.112185 46.0366 0.104659C44.5679 0.0943527 43.1025 0.0526342 41.6338 0.0483791C40.1077 0.0441256 38.5825 0.0451072 37.1039 0.164206C35.8728 0.263348 34.5804 0.357418 33.2747 0.389809C31.0398 0.445432 29.0367 0.617049 27.0803 0.812728C25.8419 0.936571 24.3618 0.922993 23.2487 1.10802C23.1044 1.13224 22.7913 1.11408 22.5586 1.11899C22.0217 1.12978 21.3767 1.10884 20.9702 1.16168C20.2096 1.26017 19.5728 1.39907 18.9114 1.52684C18.6721 1.5733 18.5352 1.64054 18.3098 1.69142C17.4976 1.87629 16.4297 2.0147 15.814 2.23605C15.605 2.3113 15.437 2.39605 15.1502 2.45822C14.097 2.68529 13.3266 2.94672 12.5915 3.21585C12.2194 3.3518 11.6432 3.46665 11.2957 3.6044C10.5777 3.88906 9.95155 4.1837 9.28028 4.47377C9.16636 4.52351 9.03851 4.57389 8.86804 4.6161C8.50577 4.70641 8.0722 4.78641 7.746 4.88113C7.41735 4.97634 7.2608 5.09741 6.89199 5.18444C5.69209 5.4678 5.39541 5.81497 5.17657 6.15982C4.98643 6.46019 4.55942 6.74402 3.94636 7.01399C3.40952 7.25072 2.85712 7.48206 2.51535 7.73594C2.09081 8.05136 1.51218 8.35797 1.05237 8.67174C0.866319 8.79886 0.808119 8.93415 0.722074 9.067C0.448327 9.48385 -0.258984 9.89416 0.267193 10.3244C0.335219 10.3817 0.197528 10.4489 0.15409 10.5117C0.100816 10.5891 -0.000813371 10.6663 4.91157e-06 10.7437C0.00492258 11.2203 0.0319678 11.6972 0.0573765 12.1739C0.0606549 12.2506 -0.0393356 12.3383 0.11147 12.4028C0.542579 12.5884 0.525374 12.7802 0.555693 12.9767C0.588477 13.1877 0.687646 13.4017 0.888438 13.609C1.163 13.8935 1.54493 14.174 1.91293 14.4545C2.22193 14.6899 2.48829 14.93 2.93987 15.1549C3.32755 15.3469 3.95618 15.52 4.47088 15.7024C5.13803 15.9408 6.21007 16.1297 6.59863 16.402C6.60764 16.4085 6.6519 16.4133 6.67731 16.4193C7.82639 16.6801 8.98046 16.9402 10.1212 17.2026C10.6056 17.3142 10.9507 17.484 11.5539 17.5329C12.657 17.6227 12.7619 17.9033 13.916 17.9604C14.3422 18.1333 15.1249 18.2348 15.8486 18.3499C16.2764 18.4182 16.6288 18.5047 17.0247 18.5808C17.4779 18.6672 17.8803 18.7738 18.4115 18.8324C19.8892 18.9952 21.3808 19.1589 22.9445 19.2823C24.773 19.4267 26.673 19.5354 28.5613 19.6479C29.6423 19.7122 30.7562 19.7582 31.8651 19.802C32.4716 19.8262 33.101 19.8231 33.7133 19.8426C35.3615 19.8945 37.0007 19.9898 38.6513 19.998C41.1003 20.01 43.5566 19.965 46.0078 19.9375C47.1725 19.9244 48.3356 19.8984 49.4977 19.8732C50.2001 19.858 50.8984 19.8133 51.5959 19.8154C53.7964 19.823 55.8765 19.6906 58.0108 19.6201C59.1623 19.5822 60.25 19.475 61.4604 19.4961C61.6694 19.5 61.9218 19.4761 62.1054 19.4513C63.7856 19.2217 65.6805 19.1918 67.6173 19.2186C69.826 19.2489 71.766 19.1337 73.4019 18.8321C74.042 18.7138 74.6862 18.5966 75.2968 18.4733C75.7623 18.379 76.177 18.2743 76.627 18.1768C76.8106 18.1369 77.0122 18.0991 77.231 18.0674C78.4415 17.8894 79.6817 17.7202 80.8602 17.5345C81.3421 17.4586 81.7241 17.3538 82.1019 17.2549C82.8936 17.0477 83.646 16.8342 84.4271 16.6254C84.9615 16.4836 85.695 16.366 85.7007 16.1623C85.7007 16.1232 85.9359 16.0827 86.0687 16.044C86.3375 15.9666 86.6539 15.8943 86.876 15.812C87.4333 15.6047 87.8866 15.3858 88.4956 15.1849C89.2561 14.933 90.2536 14.7074 90.5191 14.4044C90.5388 14.3821 90.6355 14.3628 90.6896 14.3417C91.1322 14.168 91.6616 14.0003 91.9952 13.8182C92.4403 13.5764 92.7517 13.3243 93.0845 13.0743C93.1713 13.0074 93.1468 12.9336 93.1468 12.8632C93.1468 12.7782 93.0459 12.6901 93.1172 12.6083C93.3631 12.3265 93.0984 12.0343 93.6369 11.757C93.7779 11.6835 93.6377 11.5877 93.6229 11.5021C93.6139 11.4421 93.5697 11.3819 93.5877 11.322C93.6369 11.1587 93.7451 10.9958 93.7615 10.833C93.8074 10.4652 93.8024 10.0969 93.8352 9.72964C93.8713 9.34404 93.8885 8.95794 93.9901 8.57317C94.0868 8.20884 93.4525 7.87069 92.9951 7.53547L92.9953 7.53548ZM16.2467 16.0487C15.75 16.0536 15.5263 15.9805 15.3394 15.9177C14.3985 15.6049 13.215 15.3194 12.4429 14.9305C13.5133 14.9986 14.3583 15.0446 15.2615 15.004C15.4205 14.9965 15.8959 15.0933 15.8574 15.1126C15.473 15.3016 16.3229 15.4457 16.2582 15.6211C16.2082 15.7551 16.2467 15.8904 16.2467 16.0488L16.2467 16.0487ZM21.1545 12.9399C21.1348 13.0009 20.7242 13.0562 20.4504 13.1244C19.9849 13.0393 19.7571 13.0004 20.13 12.8779C20.4955 12.7579 20.4841 12.5927 20.6496 12.4482C20.7316 12.3776 20.8447 12.308 20.9447 12.238C21.0242 12.2406 21.1069 12.2434 21.1864 12.246C21.1864 12.4774 21.2348 12.7098 21.1545 12.9398L21.1545 12.9399ZM25.0722 5.05024C25.332 4.81662 26.0999 4.61865 27.3655 4.49401C26.6581 4.66579 25.9484 4.83757 25.0722 5.05024ZM31.1273 14.5577C31.5821 14.4247 31.9641 14.3133 32.4312 14.1762C32.482 14.3953 32.0862 14.5111 31.1273 14.5577ZM34.6671 13.3947C34.8974 13.3173 35.0596 13.2637 35.2195 13.2098C35.2375 13.3397 35.2375 13.3397 34.6671 13.3947ZM36.5808 4.4216C36.2825 4.51354 36.0956 4.60925 36.3579 4.70724C36.8259 4.88311 36.2415 4.98814 35.762 5.09956C35.2629 5.21571 34.654 5.17923 33.8778 5.1416C34.2622 4.96033 34.5556 4.79281 34.9638 4.63706C35.4301 4.4571 35.9497 4.28057 36.5415 4.1163C36.8398 4.03401 37.3512 3.98264 37.7668 3.91688C37.8323 3.93111 37.8962 3.94518 37.961 3.95908C37.502 4.11417 37.0668 4.27107 36.5808 4.42158L36.5808 4.4216ZM51.3982 19.0629C51.1589 19.078 50.9204 19.0932 50.518 19.1187C50.6262 19.0582 50.6721 18.9958 50.754 18.9939C50.9663 18.989 51.1933 19.0102 51.4171 19.0214C51.4114 19.0353 51.4056 19.0492 51.3982 19.0629L51.3982 19.0629ZM48.333 9.6861C48.3593 9.63309 48.3166 9.5737 48.4248 9.52806C49.7263 8.97623 51.0523 8.42637 52.481 7.83056C52.4662 8.11964 49.7345 9.3584 48.3329 9.68612L48.333 9.6861ZM52.6768 14.4191C52.6113 14.4126 52.5449 14.4057 52.481 14.3992C52.7654 14.2547 53.0227 14.1071 53.3473 13.9659C53.5374 13.883 53.7153 13.8869 54.5504 13.9767C53.8784 14.1353 53.2784 14.2773 52.6768 14.4191V14.4191ZM54.3242 10.138C54.3242 9.9101 54.6488 9.82258 55.6118 9.8409C55.1061 9.95738 54.7365 10.0429 54.3242 10.138ZM77.1082 5.05862C76.5795 4.94704 75.8263 4.85886 76.2025 4.62359C76.618 4.77394 76.9746 4.9022 77.3295 5.0303C77.2565 5.03963 77.1819 5.04912 77.1082 5.0586V5.05862ZM84.6001 12.7049C84.1034 12.6607 83.7083 12.6261 83.3002 12.5902C83.5338 12.4458 83.7247 12.3278 83.9173 12.2099C84.0968 12.0991 84.278 11.9887 84.473 11.8681C85.0017 12.0983 85.0238 12.2231 84.6001 12.7049V12.7049ZM84.6443 11.7853C83.7772 11.5906 83.7862 11.5777 84.9345 11.5039C84.8205 11.6142 84.741 11.6914 84.6443 11.7853Z" fill="#B2DAFA"/>
</svg>
