<svg width="298" height="20" viewBox="0 0 298 20" fill="none" xmlns="http://www.w3.org/2000/svg">
<path d="M5.33669 0.415625C5.18275 0.642326 4.87486 2.26701 4.72092 4.00505L4.46435 7.17885H2.25783C1.02629 7.17885 0 7.32998 0 7.55668C0 7.7456 1.02629 7.93452 2.30915 7.93452H4.61829V10.0882C4.61829 11.2972 4.31041 12.5441 3.95121 12.8841C3.59201 13.262 3.38675 14.4333 3.48938 15.9824L3.69463 18.5139H7.23533H10.776V15.7179C10.776 13.9043 10.5708 12.8464 10.1602 12.7708C9.85236 12.6952 9.49316 11.5995 9.33921 10.2771L9.13396 7.93452H14.7785H20.4231L20.6284 9.63477C20.731 10.5794 20.6284 11.7884 20.3718 12.3552C20.1665 12.9597 20.1665 14.5466 20.3205 15.9446L20.6797 18.5139H24.1691H27.7098V15.8312C27.7098 13.9799 27.5045 12.9975 26.94 12.6197C26.4269 12.2418 26.1703 11.2972 26.1703 9.97482V7.93452H31.8149H37.5108L37.2029 13.2242L36.895 18.5516L40.641 18.4383L44.3869 18.3249L44.5409 15.7179C44.6435 13.6398 44.5409 12.9975 43.8738 12.7708C43.3093 12.5063 43.1041 11.8262 43.1041 10.2015V7.93452H48.7486H54.3932V10.126C54.3932 11.335 54.188 12.4685 53.9314 12.6952C53.6748 12.8841 53.5722 14.2821 53.7261 15.7557L54.034 18.5139H57.5234H61.0641L61.1667 17.267C61.3207 14.9244 60.9615 13.1108 60.2431 12.5819C59.7812 12.2418 59.5247 11.2595 59.5247 9.97482V7.93452H65.1692H70.8651L70.7112 13.1108L70.5573 18.3249L74.3032 18.4383L77.9978 18.5516V15.7179C77.9978 14.1688 77.7926 12.8464 77.536 12.7708C77.3307 12.6952 77.0229 11.5995 76.8689 10.3527L76.561 8.04787L79.8452 7.82117C81.6412 7.7456 84.1556 7.7456 85.4384 7.85895L87.8502 8.04787L87.491 13.262L87.0805 18.5139H91.0317H94.9316V15.7179C94.9316 14.1688 94.7263 12.8464 94.4184 12.7708C94.1619 12.6952 93.7513 11.5995 93.5974 10.3149L93.2382 7.9723L95.0855 7.7456C96.9328 7.48112 104.014 7.67003 104.373 7.9723C104.887 8.38792 105.194 12.8464 104.681 12.8464C104.373 12.8464 104.168 13.9421 104.168 15.6801V18.5139H108.017H111.865V15.9068C111.865 14.0554 111.66 13.1864 111.096 12.8464C110.582 12.5441 110.326 11.6751 110.326 10.2015V8.04787L113.353 7.78338C115.047 7.63225 117.613 7.63225 118.998 7.78338L121.615 8.04787V10.3527C121.615 11.6373 121.358 12.8841 121.102 13.0731C120.743 13.3375 120.691 14.3955 120.897 15.9824L121.256 18.5139H125.002H128.799V15.869C128.799 13.8287 128.594 13.1486 128.029 12.9975C127.465 12.8086 127.26 12.1663 127.26 10.3527C127.26 8.31235 127.414 7.93452 128.183 7.89673C129.774 7.78338 132.596 7.78338 135.624 7.85895L138.549 7.93452V10.3527C138.549 11.7129 138.344 12.9219 138.036 13.0353C137.779 13.1486 137.522 14.4333 137.522 15.9068V18.5139H141.371H145.22L145.322 17.267C145.476 14.8867 145.22 13.0353 144.707 12.9219C144.45 12.8464 144.193 11.6751 144.193 10.3527V7.93452H149.838H155.483V10.3527C155.483 11.7129 155.226 12.9219 154.969 13.0353C154.405 13.2998 154.251 18.5139 154.867 18.5516C155.072 18.5516 156.765 18.5894 158.715 18.6272L162.153 18.7406V15.7935C162.153 14.0932 161.948 12.8464 161.64 12.8464C161.332 12.8464 161.127 11.7884 161.127 10.3904V7.93452H166.772H172.416V10.3904C172.416 11.8262 172.211 12.8464 171.903 12.8464C171.544 12.8464 171.39 13.9421 171.493 15.7557L171.647 18.7028L175.393 18.7406H179.087V16.0202C179.087 14.5088 178.882 13.1486 178.574 13.0353C178.317 12.9219 178.061 11.7129 178.061 10.3527V7.93452H183.705H189.35V10.2771C189.35 11.7884 189.093 12.8086 188.58 13.2242C188.016 13.6776 187.913 14.3955 188.17 16.3224L188.478 18.8539L192.121 18.7783L195.764 18.7028L195.918 15.9446C196.021 14.2443 195.867 13.2242 195.508 13.2242C195.2 13.2242 194.995 12.1663 194.995 10.5794V7.93452H200.639H206.284V10.1637C206.284 11.6751 206.027 12.6197 205.514 12.9975C204.898 13.4509 204.744 14.2066 204.847 16.1335L205.001 18.7028L208.747 18.7406H212.441V16.0579C212.441 14.5844 212.236 13.2242 211.98 12.9975C211.723 12.8086 211.672 11.5995 211.774 10.2771L212.031 7.93452H217.624H223.217V10.1637C223.217 11.6751 222.961 12.5441 222.448 12.8464C221.883 13.1864 221.678 14.0932 221.678 16.0957V18.8917H225.527H229.375V16.0957C229.375 14.5466 229.221 13.1864 228.965 13.1108C228.759 12.9975 228.708 11.8262 228.862 10.5038L229.119 8.12343L234.712 8.01008L240.254 7.89673L240.049 10.3904C239.946 11.9396 239.587 12.9975 239.074 13.2998C238.509 13.6776 238.355 14.3955 238.509 16.3224L238.714 18.8917H242.204H245.642L246.001 17.4559C246.412 15.529 246.412 13.8287 245.898 13.3753C245.283 12.8464 245.796 8.31235 246.463 8.27457C247.335 8.199 249.593 8.199 253.801 8.27457L257.444 8.31235L256.982 10.6549C256.726 12.0529 256.264 13.1486 255.802 13.3375C255.238 13.5642 255.032 14.3199 255.032 16.2469C255.032 17.6826 255.186 18.8917 255.443 18.9673C255.648 19.0428 257.393 19.0428 259.343 18.9673L262.883 18.8161L262.576 14.8867C262.422 12.733 262.422 10.3904 262.576 9.63477L262.883 8.31235H268.477H274.121L273.762 10.466C273.608 11.6751 273.095 12.8464 272.685 13.0731C272.171 13.3753 271.966 14.3199 271.966 16.3224V19.1562L275.199 19.0806C276.944 19.0806 278.688 18.9295 279.048 18.7406C279.766 18.4383 279.92 13.7532 279.201 13.4509C278.945 13.3375 278.791 12.9219 278.894 12.5441C278.996 12.204 279.253 11.1083 279.407 10.0882L279.715 8.31235H285.154H290.593L290.234 10.6549C290.08 12.0907 289.618 13.1864 289.156 13.4509C288.592 13.7532 288.387 14.6222 288.387 16.5869V19.3073L292.133 19.194L295.827 19.0806L295.879 14.0176C295.981 9.59698 296.084 8.8791 296.905 8.4257C297.726 7.9723 297.726 7.89673 296.956 7.25442C296.392 6.80102 296.084 5.89421 296.084 4.5718C296.084 1.47356 294.442 0.0755749 292.902 1.88918C292.543 2.30479 292.081 2.64484 291.927 2.64484C291.722 2.64484 291.466 2.30479 291.312 1.88918C290.593 -0.188908 287.72 2.11588 287.155 5.21411L286.847 6.98993L283.307 7.10328L279.766 7.21663L279.561 4.38288C279.355 0.680109 278.586 0.0755749 276.533 1.88918L275.045 3.17381V2.19144C275.045 -0.717876 271.71 1.43578 271.196 4.68515L270.837 6.76323L268.169 6.98993C263.345 7.44333 263.243 7.36777 262.986 4.23175C262.832 2.72041 262.627 1.32243 262.473 1.09573C261.806 0.302275 260.574 0.869026 259.651 2.34258L258.676 3.96726V2.60706C258.624 1.85139 258.317 1.02016 257.906 0.793459C256.828 0.113358 255.648 1.62469 254.93 4.49623C254.263 7.0655 254.827 6.8388 248.567 6.95215L246.412 6.98993L246.104 3.96726C245.898 2.30479 245.539 0.793459 245.231 0.566759C244.359 -0.0755577 242.768 1.77583 242.358 3.8917L241.999 5.85643L241.588 3.4383C241.383 2.11588 241.024 0.869026 240.716 0.642326C239.895 0.0377922 238.509 2.11588 238.253 4.49623L237.945 6.72545L235.841 6.87658C234.712 6.91437 232.659 6.91437 231.376 6.80102L229.067 6.6121L228.913 4.15618C228.811 1.20908 228.503 0.377842 227.631 0.377842C226.656 0.377842 225.886 1.88918 225.424 4.60958L225.065 6.98993L224.654 3.81613C224.449 2.07809 224.141 0.566759 223.987 0.415625C223.166 -0.151125 221.781 2.00253 221.421 4.3451L221.062 6.80102H216.547H212.031L211.826 3.96726C211.723 2.41814 211.415 0.982376 211.056 0.717892C210.132 0.0377922 208.952 1.73804 208.439 4.53401L208.028 6.98993L207.618 4.3451C207.105 0.566759 207.105 0.642326 206.489 0.491192C205.771 0.302275 204.744 2.00253 204.744 3.36273C204.744 3.96726 204.59 4.98741 204.436 5.62973L204.129 6.80102H199.562H194.995V4.60958C194.995 -0.604527 192.942 -0.566742 192.172 4.64736C191.71 7.70782 190.684 7.25442 190.376 3.8917C190.222 2.41814 189.914 1.05794 189.709 0.906809C189.093 0.453409 188.324 1.51134 188.324 2.83376C188.324 3.4383 188.17 4.60958 188.016 5.36525L187.657 6.80102H183.192H178.728L178.369 3.77835C177.804 -0.793442 176.367 -0.528959 175.7 4.30731C175.187 7.82117 174.212 7.63225 173.75 3.8917C173.596 2.30479 173.237 0.831242 172.981 0.642326C172.314 0.151142 171.39 2.75819 171.39 4.98741V6.80102H166.259H161.127V4.04283C161.127 0.831242 160.46 -0.377825 159.639 1.24686C159.331 1.85139 159.075 3.32495 159.075 4.5718C159.075 6.68766 159.023 6.80102 157.792 6.80102C156.509 6.80102 156.509 6.76323 156.509 3.81613C156.509 0.944593 155.944 -0.302259 155.277 0.982376C155.123 1.32243 154.969 2.75819 154.969 4.19396V6.80102H149.581H144.193V3.55165C144.193 1.13351 144.039 0.340059 143.578 0.453409C143.167 0.566759 142.808 1.70026 142.654 3.62721C142.449 6.30983 142.295 6.6121 141.32 6.72545C139.986 6.87658 139.575 6.00756 139.575 2.72041C139.575 -0.755659 138.6 -0.113342 138.446 3.47608L138.292 6.6121L132.802 6.72545L127.311 6.8388L127.157 3.51386C126.952 -0.831226 126.028 -0.831226 125.823 3.47608C125.669 6.72545 125.669 6.80102 124.437 6.80102C123.308 6.80102 123.154 6.64988 123.154 5.32746C123.154 3.09825 122.539 0.377842 122.077 0.377842C121.82 0.377842 121.615 1.02016 121.615 1.85139C121.615 2.64484 121.461 4.08061 121.307 5.06298L120.948 6.80102H115.663H110.326V3.58943C110.326 1.81361 110.121 0.377842 109.864 0.377842C109.094 0.377842 108.786 1.47356 108.786 4.23175C108.786 6.72545 108.735 6.8388 107.658 6.72545C106.683 6.64988 106.477 6.34762 106.323 5.10076C105.913 -0.264475 104.681 -1.39798 104.681 3.55165C104.681 6.08313 104.527 6.76323 103.86 6.95215C102.834 7.25442 98.3183 7.25442 95.9065 6.95215L94.0592 6.72545L93.7 3.8917C93.5461 2.34258 93.2382 0.869026 93.0329 0.642326C92.4685 -0.0755577 91.904 1.54913 91.904 4.23175C91.8527 6.46097 91.7501 6.80102 90.8777 6.80102C90.0567 6.80102 89.8515 6.34762 89.4923 3.77835C89.2357 2.07809 88.8252 0.680109 88.5173 0.642326C88.2094 0.604542 87.9528 1.85139 87.8502 3.665C87.7476 5.66751 87.491 6.80102 87.0805 6.91437C86.7213 7.02772 84.4634 7.0655 82.103 7.02772L77.7413 6.98993L77.3821 4.15618C76.9202 0.944593 76.715 0.377842 75.9453 0.377842C75.6374 0.377842 75.4321 1.62469 75.4321 3.58943C75.4321 6.42318 75.3295 6.80102 74.5085 6.80102C73.7387 6.80102 73.4822 6.27205 73.0717 3.77835C72.7638 2.11588 72.3533 0.642326 72.148 0.491192C71.4296 -0.037775 71.0704 0.944593 70.8138 3.8917L70.5573 6.98993L65.8876 7.10328L61.218 7.21663L60.8588 5.78086C60.7049 4.98741 60.5509 3.77835 60.5509 3.09825C60.5509 1.70026 59.6786 0.264492 59.0628 0.566759C58.8063 0.642326 58.4471 2.11588 58.2931 3.77835C58.0879 5.44081 57.7287 6.80102 57.5234 6.80102C57.2668 6.80102 56.9589 5.55416 56.805 4.00505C56.4458 0.793459 56.0866 7.62939e-06 55.1116 7.62939e-06C54.5985 7.62939e-06 54.3932 0.869026 54.2906 3.47608L54.1367 6.98993L49.8262 7.10328C44.9001 7.21663 44.6435 7.10328 44.6435 4.53401C44.6435 2.30479 43.7198 7.62939e-06 42.8988 7.62939e-06C42.1804 7.62939e-06 41.616 2.19144 41.5133 5.44081C41.462 6.95215 41.3594 7.17885 41.0515 6.42318C40.8462 5.89421 40.641 4.87406 40.5897 4.15618C40.487 2.19144 39.5634 7.62939e-06 38.7937 7.62939e-06C37.8187 7.62939e-06 37.4595 1.20908 37.4595 4.42066V7.17885H32.5846H27.7098L27.6584 4.60958C27.6071 1.54913 27.1453 0.188925 26.1703 0.188925C25.5546 0.188925 25.298 0.982376 25.0414 3.55165C24.8362 5.40303 24.5283 6.98993 24.4256 7.0655C24.323 7.17885 24.0664 6.08313 23.8612 4.64736C23.4507 1.39799 22.9375 0.188925 22.0139 0.188925C21.552 0.188925 21.2441 0.680109 21.1928 1.70026C21.0902 2.53149 20.8849 4.1184 20.731 5.17633L20.4744 7.17885H16.1127H11.8023L11.751 4.98741C11.751 2.41814 10.8273 0.188925 9.74973 0.188925C9.18527 0.188925 8.82607 0.906809 8.41556 2.64484C7.95373 4.49623 7.79978 4.76071 7.74847 3.74056C7.69715 2.15366 6.7735 7.62939e-06 6.15772 7.62939e-06C5.90115 7.62939e-06 5.54195 0.188925 5.33669 0.415625ZM10.1089 5.932C10.0063 6.72545 9.90367 6.08313 9.90367 4.53401C9.90367 2.9849 10.0063 2.34258 10.1089 3.09825C10.2116 3.8917 10.2116 5.17633 10.1089 5.932ZM244.77 4.3451C244.77 6.34762 244.616 6.80102 243.948 6.80102C243.23 6.80102 243.179 6.49875 243.487 4.60958C243.846 2.53149 244.102 1.88918 244.564 1.88918C244.667 1.88918 244.77 2.9849 244.77 4.3451ZM257.342 5.932C257.188 6.42318 256.777 6.80102 256.367 6.80102C255.802 6.80102 255.802 6.3854 256.161 4.7985C256.418 3.74056 256.777 2.56928 256.982 2.26701C257.393 1.54913 257.752 4.76071 257.342 5.932ZM261.498 6.64988C261.344 6.95215 260.882 7.0655 260.42 6.95215C259.856 6.76323 259.753 6.3854 260.01 5.13855C260.164 4.30731 260.574 3.17381 260.882 2.64484C261.344 1.81361 261.447 1.92696 261.601 3.92948C261.703 5.13855 261.652 6.3854 261.498 6.64988ZM274.019 4.3451C274.019 6.46097 273.916 6.80102 273.095 6.80102C272.223 6.80102 272.171 6.57432 272.531 4.76071C272.89 2.79598 273.3 1.88918 273.813 1.88918C273.916 1.88918 274.019 2.9849 274.019 4.3451ZM278.227 6.30983C278.073 6.87658 277.662 7.17885 276.995 7.17885C276.071 7.17885 275.969 7.02772 276.328 5.40303C276.533 4.45845 276.944 3.2116 277.252 2.68263C277.765 1.73804 277.816 1.81361 278.124 3.58943C278.329 4.60958 278.329 5.85643 278.227 6.30983ZM210.235 5.74308C210.132 6.42318 210.03 5.89421 210.03 4.53401C210.03 3.17381 210.132 2.64484 210.235 3.28716C210.338 3.96726 210.338 5.10076 210.235 5.74308ZM227.836 4.53401C227.836 5.78086 227.631 6.80102 227.323 6.80102C227.015 6.80102 226.809 5.78086 226.809 4.53401C226.809 3.28716 227.015 2.26701 227.323 2.26701C227.631 2.26701 227.836 3.28716 227.836 4.53401ZM239.946 6.72545C239.279 7.17885 239.176 6.49875 239.535 4.3451L239.895 2.07809L240.049 4.30731C240.151 5.51638 240.1 6.6121 239.946 6.72545ZM290.439 4.53401C290.439 6.53653 290.337 6.80102 289.413 6.80102C288.233 6.80102 288.079 5.89421 288.951 3.665C289.721 1.58691 290.439 1.96474 290.439 4.53401ZM294.75 2.87154C294.904 3.2116 295.058 4.30731 295.058 5.32746C295.058 7.17885 295.006 7.21663 293.672 7.10328C292.389 6.98993 292.235 6.8388 292.389 5.85643C292.595 4.26953 293.518 2.26701 294.031 2.26701C294.237 2.26701 294.596 2.53149 294.75 2.87154ZM223.064 5.74308C222.961 6.42318 222.858 5.96978 222.858 4.72293C222.858 3.47608 222.961 2.90933 223.064 3.47608C223.166 4.04283 223.166 5.06298 223.064 5.74308ZM6.51692 6.49875C6.4143 6.98993 6.31167 6.6121 6.31167 5.66751C6.31167 4.72293 6.4143 4.3451 6.51692 4.7985C6.61955 5.28968 6.61955 6.04535 6.51692 6.49875ZM39.3581 6.12091C39.2555 6.6121 39.1529 6.30983 39.1529 5.4786C39.1015 4.64736 39.2042 4.26953 39.3581 4.60958C39.4607 4.98741 39.4607 5.66751 39.3581 6.12091ZM206.13 6.12091C206.027 6.6121 205.925 6.30983 205.925 5.4786C205.873 4.64736 205.976 4.26953 206.13 4.60958C206.232 4.98741 206.232 5.66751 206.13 6.12091ZM193.814 6.30983C193.66 6.68766 193.558 6.46097 193.558 5.85643C193.558 5.21411 193.66 4.94963 193.814 5.17633C193.917 5.44081 193.917 5.96978 193.814 6.30983ZM8.10767 10.2771C8.00504 12.1663 7.79978 12.6574 7.08138 12.7708C6.26035 12.8841 6.15772 12.5819 6.15772 10.4282C6.15772 8.16122 6.26035 7.93452 7.18401 7.93452C8.15898 7.93452 8.26161 8.12343 8.10767 10.2771ZM25.144 10.3527C25.144 12.393 24.9901 12.7708 24.1691 12.9597C22.6296 13.262 22.0652 12.5063 22.0652 10.126C22.0652 7.93452 22.0652 7.93452 23.6046 7.93452H25.144V10.3527ZM41.462 10.2771C41.3081 12.4307 41.2054 12.6574 40.1791 12.7708C39.0502 12.8841 38.9989 12.7708 38.9989 10.4282C38.9989 8.01008 39.0502 7.93452 40.2818 7.93452C41.5646 7.93452 41.616 7.9723 41.462 10.2771ZM58.4984 10.3904C58.4984 12.7708 58.4471 12.8464 57.2155 12.8464C56.0866 12.8464 55.9327 12.6952 55.9327 11.5617C55.9327 10.8816 55.7787 9.74812 55.6248 9.1058C55.3169 8.01008 55.3682 7.93452 56.9076 7.93452H58.4984V10.3904ZM75.4321 10.3904V12.8464H73.8927H72.3533V10.3904V7.93452H73.8927H75.4321V10.3904ZM92.3659 10.3527C92.3659 12.5063 92.2632 12.7708 91.2369 12.9597C89.5436 13.2998 89.287 12.9975 89.287 10.3527V7.93452H90.8264H92.3659V10.3527ZM109.3 10.3527C109.3 12.6197 109.197 12.7708 108.068 12.9219C106.477 13.1486 106.221 12.6952 106.221 9.97482C106.221 7.9723 106.221 7.93452 107.76 7.93452H109.3V10.3527ZM125.72 10.3527C125.72 12.4307 125.566 12.7708 124.694 12.9597C123.411 13.1864 123.36 13.1486 122.949 10.2771L122.59 7.93452H124.181H125.72V10.3527ZM143.167 9.52142C143.167 12.0151 142.705 12.8464 141.371 12.8464C140.396 12.8464 140.191 12.5819 139.883 11.1083C139.318 8.04787 139.37 7.93452 141.371 7.93452C143.167 7.93452 143.167 7.9723 143.167 9.52142ZM160.101 10.2015C160.101 12.3174 159.998 12.5063 158.767 12.8464C158.048 13.0731 157.227 13.1486 156.971 12.9975C156.714 12.8841 156.509 11.7129 156.509 10.3527V7.93452H158.305H160.101V10.2015ZM176.932 10.466C176.778 12.9597 176.727 13.0353 175.393 13.1486L173.956 13.262V10.6171V7.93452H175.495H177.086L176.932 10.466ZM193.968 9.71033C193.968 12.5819 193.558 13.2242 191.864 13.2242H190.376V10.5794V7.93452H192.172H193.968V9.71033ZM210.492 8.31235C210.594 8.53905 210.543 9.67255 210.389 10.8816C210.132 12.8841 210.03 13.0353 208.747 13.1486C207.413 13.262 207.31 13.1864 207.31 11.7884C207.31 9.03023 207.823 7.93452 209.106 7.93452C209.773 7.93452 210.389 8.12343 210.492 8.31235ZM227.836 8.57683C227.836 8.95467 227.682 10.1637 227.528 11.2217C227.22 13.1108 227.117 13.2242 225.732 13.2242C224.09 13.2242 223.987 12.8841 224.552 9.67255C224.86 8.04787 225.013 7.93452 226.348 7.93452C227.425 7.93452 227.836 8.12343 227.836 8.57683ZM244.513 8.35013C244.718 8.53905 244.718 9.71033 244.513 10.9572C244.205 13.0353 244.102 13.1486 242.614 13.2998L241.075 13.4887L241.331 11.0328C241.588 8.69018 242.101 7.9723 243.589 7.93452C243.897 7.93452 244.359 8.12343 244.513 8.35013ZM261.087 10.6549C260.882 11.9396 260.626 12.9975 260.523 13.0731C260.472 13.1108 259.907 13.262 259.291 13.3753C257.957 13.6776 257.855 13.2242 258.419 10.0504C258.727 8.46348 258.881 8.31235 260.164 8.31235H261.549L261.087 10.6549ZM277.97 10.6171C277.816 11.864 277.611 12.9597 277.508 13.0353C277.405 13.1108 276.738 13.262 275.969 13.4131L274.532 13.6776L274.84 11.864C275.353 8.50127 275.456 8.31235 276.944 8.31235C278.278 8.31235 278.278 8.31235 277.97 10.6171ZM294.801 10.466C294.391 12.9597 293.877 13.602 292.287 13.602C291.209 13.602 291.158 13.4887 291.517 11.5995C291.722 10.5416 291.927 9.3325 291.927 8.95467C291.979 8.50127 292.389 8.31235 293.569 8.31235H295.16L294.801 10.466Z" fill="black"/>
</svg>
