<svg width="19" height="19" viewBox="0 0 19 19" fill="none" xmlns="http://www.w3.org/2000/svg">
<circle cx="9.5" cy="9.5" r="9.5" fill="white"/>
<path d="M9.5 1C7.81886 1 6.17547 1.49852 4.77766 2.43251C3.37984 3.3665 2.29037 4.69402 1.64703 6.24719C1.00368 7.80036 0.835355 9.50943 1.16333 11.1583C1.4913 12.8071 2.30085 14.3217 3.4896 15.5104C4.67834 16.6992 6.1929 17.5087 7.84174 17.8367C9.49057 18.1646 11.1996 17.9963 12.7528 17.353C14.306 16.7096 15.6335 15.6202 16.5675 14.2223C17.5015 12.8245 18 11.1811 18 9.5C17.9976 7.24641 17.1013 5.08582 15.5077 3.49228C13.9142 1.89875 11.7536 1.00244 9.5 1V1ZM9.5 15.875C8.23915 15.875 7.00661 15.5011 5.95824 14.8006C4.90988 14.1001 4.09278 13.1045 3.61027 11.9396C3.12776 10.7747 3.00152 9.49293 3.2475 8.2563C3.49348 7.01967 4.10064 5.88375 4.9922 4.99219C5.88376 4.10063 7.01967 3.49347 8.2563 3.24749C9.49293 3.00151 10.7747 3.12776 11.9396 3.61027C13.1045 4.09278 14.1001 4.90988 14.8006 5.95824C15.5011 7.0066 15.875 8.23914 15.875 9.5C15.8731 11.1902 15.2009 12.8106 14.0057 14.0057C12.8106 15.2009 11.1902 15.8731 9.5 15.875ZM13.0417 9.5C13.0417 9.78179 12.9297 10.052 12.7305 10.2513C12.5312 10.4506 12.261 10.5625 11.9792 10.5625H10.5625V11.9792C10.5625 12.261 10.4506 12.5312 10.2513 12.7305C10.052 12.9297 9.7818 13.0417 9.5 13.0417C9.21821 13.0417 8.94796 12.9297 8.7487 12.7305C8.54945 12.5312 8.4375 12.261 8.4375 11.9792V10.5625H7.02084C6.73904 10.5625 6.46879 10.4506 6.26954 10.2513C6.07028 10.052 5.95834 9.78179 5.95834 9.5C5.95834 9.21821 6.07028 8.94796 6.26954 8.7487C6.46879 8.54944 6.73904 8.4375 7.02084 8.4375H8.4375V7.02083C8.4375 6.73904 8.54945 6.46879 8.7487 6.26953C8.94796 6.07027 9.21821 5.95833 9.5 5.95833C9.7818 5.95833 10.052 6.07027 10.2513 6.26953C10.4506 6.46879 10.5625 6.73904 10.5625 7.02083V8.4375H11.9792C12.261 8.4375 12.5312 8.54944 12.7305 8.7487C12.9297 8.94796 13.0417 9.21821 13.0417 9.5Z" fill="#D3D3D3"/>
<path d="M1.7 8.49998C1.69999 8.66567 1.8343 8.79999 1.99998 8.8C2.16567 8.80001 2.29999 8.6657 2.3 8.50002L1.7 8.49998ZM3.71219 5.21213C3.82934 5.09497 3.82934 4.90503 3.71219 4.78787C3.59503 4.67071 3.40508 4.67071 3.28792 4.78787L3.71219 5.21213ZM2 8.5C2.3 8.50002 2.3 8.50009 2.3 8.50015C2.3 8.50017 2.3 8.50023 2.3 8.50026C2.3 8.50033 2.3 8.50038 2.3 8.50042C2.3 8.5005 2.3 8.50051 2.3 8.50047C2.3 8.50038 2.3 8.50006 2.30001 8.4995C2.30001 8.49838 2.30004 8.49633 2.30008 8.49338C2.30018 8.48747 2.30038 8.47796 2.30081 8.46509C2.30167 8.43933 2.30344 8.40016 2.30706 8.34951C2.31431 8.24811 2.32894 8.1013 2.35844 7.92433C2.41768 7.56898 2.53559 7.09975 2.76838 6.63416L2.23173 6.36584C1.96452 6.90025 1.8324 7.43102 1.76661 7.82567C1.7336 8.0237 1.71697 8.18939 1.70858 8.30674C1.70439 8.36546 1.70224 8.41223 1.70115 8.44507C1.7006 8.46149 1.70031 8.47444 1.70016 8.48367C1.70009 8.48829 1.70005 8.49198 1.70002 8.4947C1.70001 8.49607 1.70001 8.49719 1.7 8.49807C1.7 8.49851 1.7 8.49889 1.7 8.49921C1.7 8.49937 1.7 8.49952 1.7 8.49964C1.7 8.49971 1.7 8.49979 1.7 8.49983C1.7 8.49991 1.7 8.49998 2 8.5ZM2.76838 6.63416C3.00946 6.15202 3.24961 5.79226 3.42755 5.555C3.51651 5.43639 3.58986 5.34848 3.63989 5.2913C3.6649 5.26271 3.68408 5.24182 3.69645 5.22862C3.70264 5.22202 3.70713 5.21735 3.70979 5.2146C3.71112 5.21322 3.712 5.21233 3.7124 5.21192C3.7126 5.21171 3.71269 5.21163 3.71265 5.21166C3.71263 5.21168 3.71259 5.21173 3.71251 5.21181C3.71247 5.21185 3.71242 5.21189 3.71237 5.21195C3.71234 5.21197 3.7123 5.21202 3.71228 5.21203C3.71224 5.21208 3.71219 5.21213 3.50005 5C3.28792 4.78787 3.28787 4.78792 3.28781 4.78798C3.28779 4.788 3.28773 4.78806 3.28769 4.7881C3.28761 4.78818 3.28752 4.78828 3.28742 4.78838C3.28722 4.78857 3.28699 4.78881 3.28673 4.78907C3.28621 4.78959 3.28557 4.79024 3.28481 4.79101C3.28329 4.79255 3.2813 4.79459 3.27884 4.79712C3.27394 4.80218 3.26719 4.80923 3.25873 4.81826C3.24181 4.83631 3.21802 4.86229 3.18834 4.8962C3.129 4.96402 3.0461 5.06361 2.94755 5.195C2.7505 5.45774 2.49065 5.84798 2.23173 6.36584L2.76838 6.63416Z" fill="white" fill-opacity="0.9"/>
</svg>
