<svg width="154" height="153" viewBox="0 0 154 153" fill="none" xmlns="http://www.w3.org/2000/svg">
<path d="M7.06822 0.500931L4.56915 0.432715L4.43271 5.43085L6.93178 5.49907L7.06822 0.500931ZM153 6.98529V9.48529L153.068 4.48622L153 6.98529ZM7 6.98529V4.48529L6.90907 9.48364L7 6.98529ZM153 12.299V14.799L153.091 9.80067L153 12.299ZM7 12.299V9.79902L6.92043 14.7977L7 12.299ZM153 16.9485V19.4485L153.08 14.4498L153 16.9485ZM7 16.9485V14.4485L6.93747 19.4477L7 16.9485ZM153 20.6017L153.04 23.1014L153.063 18.1025L153 20.6017ZM7 22.9265L6.9602 20.4268L6.93178 25.4255L7 22.9265ZM153 26.9118L153.108 29.4094L153.068 24.4127L153 26.9118ZM7 33.2218L6.89205 30.7241L7 35.7218V33.2218ZM144.577 33.2218V35.7218L144.691 30.7244L144.577 33.2218ZM7 26.9118L7.11454 24.4144L6.76567 29.4007L7 26.9118ZM144.577 39.864V42.364L144.811 37.375L144.577 39.864ZM7 39.864V37.364H0.302601L5.36186 41.7525L7 39.864ZM15.4231 47.1703L13.7849 49.0588L14.5065 49.6848L15.4616 49.67L15.4231 47.1703ZM144.577 45.1777L144.615 47.6774L144.625 42.6781L144.577 45.1777ZM7 42.5208L7.04827 40.0213L6.8494 45.0163L7 42.5208ZM144.577 50.8235V53.3235L144.728 48.328L144.577 50.8235ZM15.4231 50.8235V48.3235L15.3267 53.3216L15.4231 50.8235ZM144.577 55.8051L144.628 58.3046L144.673 53.307L144.577 55.8051ZM15.3717 55.9625L12.8722 56.0139L12.975 61.0129L15.4745 60.9615L15.3717 55.9625ZM80 30.0668L80.1079 32.5644L80 30.0668ZM6.93178 5.49907L152.932 9.48436L153.068 4.48622L7.06822 0.500931L6.93178 5.49907ZM153 4.48529H7V9.48529H153V4.48529ZM6.90907 9.48364L152.909 14.7974L153.091 9.80067L7.09093 4.48695L6.90907 9.48364ZM153 9.79902H7V14.799H153V9.79902ZM6.92043 14.7977L152.92 19.4473L153.08 14.4498L7.07957 9.80028L6.92043 14.7977ZM153 14.4485H7V19.4485H153V14.4485ZM6.93747 19.4477L152.937 23.1009L153.063 18.1025L7.06253 14.4493L6.93747 19.4477ZM152.96 18.102L6.9602 20.4268L7.0398 25.4261L153.04 23.1014L152.96 18.102ZM6.93178 25.4255L152.932 29.4108L153.068 24.4127L7.06822 20.4274L6.93178 25.4255ZM7 35.7218H144.577V30.7218H7V35.7218ZM144.691 30.7244L7.11454 24.4144L6.88546 29.4091L144.462 35.7192L144.691 30.7244ZM6.76567 29.4007L144.343 42.3529L144.811 37.375L7.23433 24.4228L6.76567 29.4007ZM5.36186 41.7525L13.7849 49.0588L17.0612 45.2818L8.63814 37.9754L5.36186 41.7525ZM15.4616 49.67L144.615 47.6774L144.538 42.678L15.3845 44.6706L15.4616 49.67ZM144.625 42.6781L7.04827 40.0213L6.95173 45.0203L144.529 47.6772L144.625 42.6781ZM6.8494 45.0163L144.426 53.319L144.728 48.328L7.1506 40.0254L6.8494 45.0163ZM144.577 48.3235H15.4231V53.3235H144.577V48.3235ZM15.3267 53.3216L144.481 58.3033L144.673 53.307L15.5194 48.3254L15.3267 53.3216ZM144.525 53.3056L15.3717 55.9625L15.4745 60.9615L144.628 58.3046L144.525 53.3056ZM152.892 24.4141L79.8921 27.5691L80.1079 32.5644L153.108 29.4094L152.892 24.4141ZM79.8921 27.5691L6.89205 30.7241L7.10795 35.7195L80.1079 32.5644L79.8921 27.5691ZM144.577 37.364H75.7885V42.364H144.577V37.364ZM75.7885 37.364H7V42.364H75.7885V37.364Z" fill="#6A9EDA" fill-opacity="0.5"/>
<path d="M7.06822 50.3228L4.56915 50.2546L4.43271 55.2527L6.93178 55.3209L7.06822 50.3228ZM153 56.8071V59.3071L153.068 54.3081L153 56.8071ZM7 56.8071V54.3071L6.90907 59.3055L7 56.8071ZM153 62.1209V64.6209L153.091 59.6225L153 62.1209ZM7 62.1209V59.6209L6.92043 64.6196L7 62.1209ZM153 66.7704V69.2704L153.08 64.2716L153 66.7704ZM7 66.7704V64.2704L6.93747 69.2696L7 66.7704ZM153 70.4236L153.04 72.9232L153.063 67.9243L153 70.4236ZM7 72.7483L6.9602 70.2486L6.93178 75.2474L7 72.7483ZM153 76.7336L153.108 79.2313L153.068 74.2345L153 76.7336ZM7 83.0437L6.89205 80.546L7 85.5437V83.0437ZM144.577 83.0437V85.5437L144.691 80.5463L144.577 83.0437ZM7 76.7336L7.11454 74.2362L6.76567 79.2226L7 76.7336ZM144.577 89.6858V92.1858L144.811 87.1968L144.577 89.6858ZM7 89.6858V87.1858H0.302602L5.36186 91.5743L7 89.6858ZM15.4231 96.9922L13.7849 98.8807L14.5065 99.5066L15.4616 99.4919L15.4231 96.9922ZM144.577 94.9995L144.615 97.4992L144.625 92.5L144.577 94.9995ZM7 92.3427L7.04827 89.8431L6.8494 94.8381L7 92.3427ZM144.577 100.645V103.145L144.728 98.1499L144.577 100.645ZM15.4231 100.645V98.1454L15.3267 103.144L15.4231 100.645ZM144.577 105.627L144.628 108.126L144.673 103.129L144.577 105.627ZM15.3717 105.784L12.8722 105.836L12.975 110.835L15.4745 110.783L15.3717 105.784ZM80 79.8886L80.1079 82.3863L80 79.8886ZM6.93178 55.3209L152.932 59.3062L153.068 54.3081L7.06822 50.3228L6.93178 55.3209ZM153 54.3071H7V59.3071H153V54.3071ZM6.90907 59.3055L152.909 64.6192L153.091 59.6225L7.09093 54.3088L6.90907 59.3055ZM153 59.6209H7V64.6209H153V59.6209ZM6.92043 64.6196L152.92 69.2691L153.08 64.2716L7.07957 59.6221L6.92043 64.6196ZM153 64.2704H7V69.2704H153V64.2704ZM6.93747 69.2696L152.937 72.9228L153.063 67.9243L7.06253 64.2712L6.93747 69.2696ZM152.96 67.9239L6.9602 70.2486L7.0398 75.248L153.04 72.9232L152.96 67.9239ZM6.93178 75.2474L152.932 79.2327L153.068 74.2345L7.06822 70.2492L6.93178 75.2474ZM7 85.5437H144.577V80.5437H7V85.5437ZM144.691 80.5463L7.11454 74.2362L6.88546 79.231L144.462 85.541L144.691 80.5463ZM6.76567 79.2226L144.343 92.1748L144.811 87.1968L7.23433 74.2446L6.76567 79.2226ZM5.36186 91.5743L13.7849 98.8807L17.0612 95.1037L8.63814 87.7973L5.36186 91.5743ZM15.4616 99.4919L144.615 97.4992L144.538 92.4998L15.3845 94.4925L15.4616 99.4919ZM144.625 92.5L7.04827 89.8431L6.95173 94.8422L144.529 97.4991L144.625 92.5ZM6.8494 94.8381L144.426 103.141L144.728 98.1499L7.1506 89.8472L6.8494 94.8381ZM144.577 98.1454H15.4231V103.145H144.577V98.1454ZM15.3267 103.144L144.481 108.125L144.673 103.129L15.5194 98.1472L15.3267 103.144ZM144.525 103.128L15.3717 105.784L15.4745 110.783L144.628 108.126L144.525 103.128ZM152.892 74.2359L79.8921 77.391L80.1079 82.3863L153.108 79.2313L152.892 74.2359ZM79.8921 77.391L6.89205 80.546L7.10795 85.5413L80.1079 82.3863L79.8921 77.391ZM144.577 87.1858H75.7885V92.1858H144.577V87.1858ZM75.7885 87.1858H7V92.1858H75.7885V87.1858Z" fill="#6A9EDA" fill-opacity="0.5"/>
<path d="M7.06822 42.2171L4.56915 42.1489L4.43271 47.147L6.93178 47.2153L7.06822 42.2171ZM153 48.7015V51.2015L153.068 46.2024L153 48.7015ZM7 48.7015V46.2015L6.90907 51.1998L7 48.7015ZM153 54.0152V56.5152L153.091 51.5169L153 54.0152ZM7 54.0152V51.5152L6.92043 56.5139L7 54.0152ZM153 58.6647V61.1647L153.08 56.166L153 58.6647ZM7 58.6647V56.1647L6.93747 61.1639L7 58.6647ZM153 62.3179L153.04 64.8176L153.063 59.8187L153 62.3179ZM7 64.6427L6.9602 62.143L6.93178 67.1417L7 64.6427ZM153 68.6279L153.108 71.1256L153.068 66.1289L153 68.6279ZM7 74.938L6.89205 72.4403L7 77.438V74.938ZM144.577 74.938V77.438L144.691 72.4406L144.577 74.938ZM7 68.6279L7.11454 66.1306L6.76567 71.1169L7 68.6279ZM144.577 81.5801V84.0801L144.811 79.0912L144.577 81.5801ZM7 81.5801V79.0801H0.302602L5.36186 83.4687L7 81.5801ZM15.4231 88.8865L13.7849 90.775L14.5065 91.401L15.4616 91.3862L15.4231 88.8865ZM144.577 86.8939L144.615 89.3936L144.625 84.3943L144.577 86.8939ZM7 84.237L7.04827 81.7375L6.8494 86.7325L7 84.237ZM144.577 92.5397V95.0397L144.728 90.0442L144.577 92.5397ZM15.4231 92.5397V90.0397L15.3267 95.0378L15.4231 92.5397ZM144.577 97.5213L144.628 100.021L144.673 95.0232L144.577 97.5213ZM15.3717 97.6787L12.8722 97.7301L12.975 102.729L15.4745 102.678L15.3717 97.6787ZM80 71.783L80.1079 74.2806L80 71.783ZM6.93178 47.2153L152.932 51.2005L153.068 46.2024L7.06822 42.2171L6.93178 47.2153ZM153 46.2015H7V51.2015H153V46.2015ZM6.90907 51.1998L152.909 56.5135L153.091 51.5169L7.09093 46.2031L6.90907 51.1998ZM153 51.5152H7V56.5152H153V51.5152ZM6.92043 56.5139L152.92 61.1634L153.08 56.166L7.07957 51.5165L6.92043 56.5139ZM153 56.1647H7V61.1647H153V56.1647ZM6.93747 61.1639L152.937 64.8171L153.063 59.8187L7.06253 56.1655L6.93747 61.1639ZM152.96 59.8182L6.9602 62.143L7.0398 67.1423L153.04 64.8176L152.96 59.8182ZM6.93178 67.1417L152.932 71.127L153.068 66.1289L7.06822 62.1436L6.93178 67.1417ZM7 77.438H144.577V72.438H7V77.438ZM144.691 72.4406L7.11454 66.1306L6.88546 71.1253L144.462 77.4354L144.691 72.4406ZM6.76567 71.1169L144.343 84.0691L144.811 79.0912L7.23433 66.1389L6.76567 71.1169ZM5.36186 83.4687L13.7849 90.775L17.0612 86.998L8.63814 79.6916L5.36186 83.4687ZM15.4616 91.3862L144.615 89.3936L144.538 84.3942L15.3845 86.3868L15.4616 91.3862ZM144.625 84.3943L7.04827 81.7375L6.95173 86.7365L144.529 89.3934L144.625 84.3943ZM6.8494 86.7325L144.426 95.0352L144.728 90.0442L7.1506 81.7415L6.8494 86.7325ZM144.577 90.0397H15.4231V95.0397H144.577V90.0397ZM15.3267 95.0378L144.481 100.019L144.673 95.0232L15.5194 90.0416L15.3267 95.0378ZM144.525 95.0218L15.3717 97.6787L15.4745 102.678L144.628 100.021L144.525 95.0218ZM152.892 66.1303L79.8921 69.2853L80.1079 74.2806L153.108 71.1256L152.892 66.1303ZM79.8921 69.2853L6.89205 72.4403L7.10795 77.4357L80.1079 74.2806L79.8921 69.2853ZM144.577 79.0801H75.7885V84.0801H144.577V79.0801ZM75.7885 79.0801H7V84.0801H75.7885V79.0801Z" fill="#6A9EDA" fill-opacity="0.5"/>
<path d="M7.06822 92.0389L4.56915 91.9707L4.43271 96.9688L6.93178 97.037L7.06822 92.0389ZM153 98.5233V101.023L153.068 96.0242L153 98.5233ZM7 98.5233V96.0233L6.90907 101.022L7 98.5233ZM153 103.837V106.337L153.091 101.339L153 103.837ZM7 103.837V101.337L6.92043 106.336L7 103.837ZM153 108.487V110.987L153.08 105.988L153 108.487ZM7 108.487V105.987L6.93747 110.986L7 108.487ZM153 112.14L153.04 114.639L153.063 109.64L153 112.14ZM7 114.464L6.9602 111.965L6.93178 116.964L7 114.464ZM153 118.45L153.108 120.947L153.068 115.951L153 118.45ZM7 124.76L6.89205 122.262L7 127.26V124.76ZM144.577 124.76V127.26L144.691 122.262L144.577 124.76ZM7 118.45L7.11454 115.952L6.76567 120.939L7 118.45ZM144.577 131.402V133.902L144.811 128.913L144.577 131.402ZM7 131.402V128.902H0.302601L5.36186 133.29L7 131.402ZM15.4231 138.708L13.7849 140.597L14.5065 141.223L15.4616 141.208L15.4231 138.708ZM144.577 136.716L144.615 139.215L144.625 134.216L144.577 136.716ZM7 134.059L7.04827 131.559L6.8494 136.554L7 134.059ZM144.577 142.361V144.861L144.728 139.866L144.577 142.361ZM15.4231 142.361V139.861L15.3267 144.86L15.4231 142.361ZM144.577 147.343L144.628 149.843L144.673 144.845L144.577 147.343ZM15.3717 147.5L12.8722 147.552L12.975 152.551L15.4745 152.499L15.3717 147.5ZM80 121.605L80.1079 124.102L80 121.605ZM6.93178 97.037L152.932 101.022L153.068 96.0242L7.06822 92.0389L6.93178 97.037ZM153 96.0233H7V101.023H153V96.0233ZM6.90907 101.022L152.909 106.335L153.091 101.339L7.09093 96.0249L6.90907 101.022ZM153 101.337H7V106.337H153V101.337ZM6.92043 106.336L152.92 110.985L153.08 105.988L7.07957 101.338L6.92043 106.336ZM153 105.987H7V110.987H153V105.987ZM6.93747 110.986L152.937 114.639L153.063 109.64L7.06253 105.987L6.93747 110.986ZM152.96 109.64L6.9602 111.965L7.0398 116.964L153.04 114.639L152.96 109.64ZM6.93178 116.964L152.932 120.949L153.068 115.951L7.06822 111.965L6.93178 116.964ZM7 127.26H144.577V122.26H7V127.26ZM144.691 122.262L7.11454 115.952L6.88546 120.947L144.462 127.257L144.691 122.262ZM6.76567 120.939L144.343 133.891L144.811 128.913L7.23433 115.961L6.76567 120.939ZM5.36186 133.29L13.7849 140.597L17.0612 136.82L8.63814 129.513L5.36186 133.29ZM15.4616 141.208L144.615 139.215L144.538 134.216L15.3845 136.209L15.4616 141.208ZM144.625 134.216L7.04827 131.559L6.95173 136.558L144.529 139.215L144.625 134.216ZM6.8494 136.554L144.426 144.857L144.728 139.866L7.1506 131.563L6.8494 136.554ZM144.577 139.861H15.4231V144.861H144.577V139.861ZM15.3267 144.86L144.481 149.841L144.673 144.845L15.5194 139.863L15.3267 144.86ZM144.525 144.844L15.3717 147.5L15.4745 152.499L144.628 149.843L144.525 144.844ZM152.892 115.952L79.8921 119.107L80.1079 124.102L153.108 120.947L152.892 115.952ZM79.8921 119.107L6.89205 122.262L7.10795 127.257L80.1079 124.102L79.8921 119.107ZM144.577 128.902H75.7885V133.902H144.577V128.902ZM75.7885 128.902H7V133.902H75.7885V128.902Z" fill="#6A9EDA" fill-opacity="0.5"/>
<path d="M7.0666 3.98706L4.56749 3.92046L4.43429 8.91868L6.9334 8.98528L7.0666 3.98706ZM153 10.3769V12.8769L153.067 7.87783L153 10.3769ZM7 10.3769V7.87695L6.91123 12.8754L7 10.3769ZM153 15.5647V18.0647L153.089 13.0662L153 15.5647ZM7 15.5647V13.0647L6.92231 18.0634L7 15.5647ZM153 20.1039V22.6039L153.078 17.6051L153 20.1039ZM7 20.1039V17.6039L6.93895 22.6032L7 20.1039ZM153 23.6704L153.039 26.1701L153.061 21.1712L153 23.6704ZM7 25.9401L6.96114 23.4404L6.9334 28.4392L7 25.9401ZM153 29.8308L153.105 32.3286L153.067 27.3317L153 29.8308ZM7 35.9912L6.89461 33.4935L7 38.4912V35.9912ZM144.577 35.9912V38.4912L144.689 33.4937L144.577 35.9912ZM7 29.8308L7.11183 27.3333L6.77118 32.3204L7 29.8308ZM144.577 42.4759V44.9759L144.806 39.9864L144.577 42.4759ZM7 42.4759V39.9759H0.179432L5.38437 44.3837L7 42.4759ZM15.4231 49.609L13.8074 51.5168L14.5231 52.1228L15.4607 52.1087L15.4231 49.609ZM144.577 47.6636L144.615 50.1633L144.624 45.164L144.577 47.6636ZM7 45.0697L7.04713 42.5702L6.85296 47.5654L7 45.0697ZM144.577 53.1755V55.6755L144.724 50.6798L144.577 53.1755ZM15.4231 53.1755V50.6755L15.329 55.6737L15.4231 53.1755ZM144.577 58.039L144.627 60.5385L144.671 55.5408L144.577 58.039ZM15.3729 58.1334L12.8734 58.1836L12.9738 63.1825L15.4733 63.1323L15.3729 58.1334ZM80 32.911L80.1054 35.4088L80 32.911ZM6.9334 8.98528L152.933 12.8761L153.067 7.87783L7.0666 3.98706L6.9334 8.98528ZM153 7.87695H7V12.8769H153V7.87695ZM6.91123 12.8754L152.911 18.0631L153.089 13.0662L7.08877 7.87852L6.91123 12.8754ZM153 13.0647H7V18.0647H153V13.0647ZM6.92231 18.0634L152.922 22.6027L153.078 17.6051L7.07769 13.0659L6.92231 18.0634ZM153 17.6039H7V22.6039H153V17.6039ZM6.93895 22.6032L152.939 26.1697L153.061 21.1712L7.06105 17.6046L6.93895 22.6032ZM152.961 21.1707L6.96114 23.4404L7.03886 28.4398L153.039 26.1701L152.961 21.1707ZM6.9334 28.4392L152.933 32.33L153.067 27.3317L7.0666 23.441L6.9334 28.4392ZM7 38.4912H144.577V33.4912H7V38.4912ZM144.689 33.4937L7.11183 27.3333L6.88817 32.3283L144.465 38.4887L144.689 33.4937ZM6.77118 32.3204L144.348 44.9654L144.806 39.9864L7.22882 27.3413L6.77118 32.3204ZM5.38437 44.3837L13.8074 51.5168L17.0387 47.7012L8.61563 40.5681L5.38437 44.3837ZM15.4607 52.1087L144.615 50.1633L144.539 45.1639L15.3854 47.1093L15.4607 52.1087ZM144.624 45.164L7.04713 42.5702L6.95287 47.5693L144.53 50.1631L144.624 45.164ZM6.85296 47.5654L144.43 55.6712L144.724 50.6798L7.14704 42.5741L6.85296 47.5654ZM144.577 50.6755H15.4231V55.6755H144.577V50.6755ZM15.329 55.6737L144.483 60.5372L144.671 55.5408L15.5172 50.6773L15.329 55.6737ZM144.527 55.5395L15.3729 58.1334L15.4733 63.1323L144.627 60.5385L144.527 55.5395ZM152.895 27.3331L79.8946 30.4133L80.1054 35.4088L153.105 32.3286L152.895 27.3331ZM79.8946 30.4133L6.89461 33.4935L7.10539 38.489L80.1054 35.4088L79.8946 30.4133ZM144.577 39.9759H75.7885V44.9759H144.577V39.9759ZM75.7885 39.9759H7V44.9759H75.7885V39.9759Z" fill="#6A9EDA" fill-opacity="0.5"/>
<path d="M7.0666 52.6274L4.56749 52.5608L4.43429 57.559L6.9334 57.6256L7.0666 52.6274ZM153 59.0172V61.5172L153.067 56.5181L153 59.0172ZM7 59.0172V56.5172L6.91123 61.5157L7 59.0172ZM153 64.205V66.705L153.089 61.7065L153 64.205ZM7 64.205V61.705L6.92231 66.7037L7 64.205ZM153 68.7442V71.2442L153.078 66.2454L153 68.7442ZM7 68.7442V66.2442L6.93895 71.2434L7 68.7442ZM153 72.3107L153.039 74.8104L153.061 69.8115L153 72.3107ZM7 74.5804L6.96114 72.0807L6.9334 77.0795L7 74.5804ZM153 78.4711L153.105 80.9689L153.067 75.972L153 78.4711ZM7 84.6315L6.89461 82.1338L7 87.1315V84.6315ZM144.577 84.6315V87.1315L144.689 82.134L144.577 84.6315ZM7 78.4711L7.11183 75.9736L6.77118 80.9606L7 78.4711ZM144.577 91.1162V93.6162L144.806 88.6267L144.577 91.1162ZM7 91.1162V88.6162H0.179432L5.38437 93.024L7 91.1162ZM15.4231 98.2493L13.8074 100.157L14.5231 100.763L15.4607 100.749L15.4231 98.2493ZM144.577 96.3039L144.615 98.8036L144.624 93.8043L144.577 96.3039ZM7 93.71L7.04713 91.2105L6.85296 96.2057L7 93.71ZM144.577 101.816V104.316L144.724 99.3201L144.577 101.816ZM15.4231 101.816V99.3158L15.329 104.314L15.4231 101.816ZM144.577 106.679L144.627 109.179L144.671 104.181L144.577 106.679ZM15.3729 106.774L12.8734 106.824L12.9738 111.823L15.4733 111.773L15.3729 106.774ZM80 81.5513L80.1054 84.0491L80 81.5513ZM6.9334 57.6256L152.933 61.5164L153.067 56.5181L7.0666 52.6274L6.9334 57.6256ZM153 56.5172H7V61.5172H153V56.5172ZM6.91123 61.5157L152.911 66.7034L153.089 61.7065L7.08877 56.5188L6.91123 61.5157ZM153 61.705H7V66.705H153V61.705ZM6.92231 66.7037L152.922 71.243L153.078 66.2454L7.07769 61.7062L6.92231 66.7037ZM153 66.2442H7V71.2442H153V66.2442ZM6.93895 71.2434L152.939 74.81L153.061 69.8115L7.06105 66.2449L6.93895 71.2434ZM152.961 69.811L6.96114 72.0807L7.03886 77.0801L153.039 74.8104L152.961 69.811ZM6.9334 77.0795L152.933 80.9703L153.067 75.972L7.0666 72.0812L6.9334 77.0795ZM7 87.1315H144.577V82.1315H7V87.1315ZM144.689 82.134L7.11183 75.9736L6.88817 80.9686L144.465 87.129L144.689 82.134ZM6.77118 80.9606L144.348 93.6057L144.806 88.6267L7.22882 75.9816L6.77118 80.9606ZM5.38437 93.024L13.8074 100.157L17.0387 96.3415L8.61563 89.2084L5.38437 93.024ZM15.4607 100.749L144.615 98.8036L144.539 93.8042L15.3854 95.7496L15.4607 100.749ZM144.624 93.8043L7.04713 91.2105L6.95287 96.2096L144.53 98.8034L144.624 93.8043ZM6.85296 96.2057L144.43 104.311L144.724 99.3201L7.14704 91.2144L6.85296 96.2057ZM144.577 99.3158H15.4231V104.316H144.577V99.3158ZM15.329 104.314L144.483 109.178L144.671 104.181L15.5172 99.3176L15.329 104.314ZM144.527 104.18L15.3729 106.774L15.4733 111.773L144.627 109.179L144.527 104.18ZM152.895 75.9734L79.8946 79.0536L80.1054 84.0491L153.105 80.9689L152.895 75.9734ZM79.8946 79.0536L6.89461 82.1338L7.10539 87.1293L80.1054 84.0491L79.8946 79.0536ZM144.577 88.6162H75.7885V93.6162H144.577V88.6162ZM75.7885 88.6162H7V93.6162H75.7885V88.6162Z" fill="#6A9EDA" fill-opacity="0.5"/>
<path d="M7.04261 0.500363L4.54297 0.457752L4.45775 5.45703L6.95739 5.49964L7.04261 0.500363ZM153 5.48884V7.98884L153.043 2.9892L153 5.48884ZM7 5.48884V2.98884L6.94319 7.98819L7 5.48884ZM153 8.80729V11.3073L153.057 6.30794L153 8.80729ZM7 8.80729V6.30729L6.95029 11.3068L7 8.80729ZM153 11.7109V14.2109L153.05 9.21143L153 11.7109ZM7 11.7109V9.21094L6.96094 14.2106L7 11.7109ZM153 13.9924L153.025 16.4922L153.039 11.4927L153 13.9924ZM7 15.4442L6.97514 12.9443L6.95739 17.9438L7 15.4442ZM153 17.933L153.067 20.4321L153.043 15.4334L153 17.933ZM7 21.8737L6.93255 19.3746L7 24.3737V21.8737ZM144.577 21.8737V24.3737L144.648 19.3747L144.577 21.8737ZM7 17.933L7.07158 15.4341L6.85327 20.4287L7 17.933ZM144.577 26.0218V28.5218L144.724 23.5261L144.577 26.0218ZM7 26.0218V23.5218L5.80922 28.2199L7 26.0218ZM15.4231 30.5846L14.2323 32.7828L14.8007 33.0907L15.4472 33.0845L15.4231 30.5846ZM144.577 29.3402L144.601 31.8401L144.607 26.8404L144.577 29.3402ZM7 27.681L7.03015 25.1812L6.90585 30.1792L7 27.681ZM144.577 32.8661V35.3661L144.671 30.3678L144.577 32.8661ZM15.4231 32.8661V30.3661L15.3629 35.3653L15.4231 32.8661ZM144.577 35.9771L144.609 38.4769L144.637 33.4778L144.577 35.9771ZM15.391 35.1365L12.8912 35.1687L12.9554 40.1682L15.4552 40.1361L15.391 35.1365ZM80 19.9034L80.0675 22.4025L80 19.9034ZM6.95739 5.49964L152.957 7.98848L153.043 2.9892L7.04261 0.500363L6.95739 5.49964ZM153 2.98884H7V7.98884H153V2.98884ZM6.94319 7.98819L152.943 11.3066L153.057 6.30794L7.05681 2.98948L6.94319 7.98819ZM153 6.30729H7V11.3073H153V6.30729ZM6.95029 11.3068L152.95 14.2104L153.05 9.21143L7.04971 6.30778L6.95029 11.3068ZM153 9.21094H7V14.2109H153V9.21094ZM6.96094 14.2106L152.961 16.4921L153.039 11.4927L7.03906 9.21124L6.96094 14.2106ZM152.975 11.4925L6.97514 12.9443L7.02486 17.9441L153.025 16.4922L152.975 11.4925ZM6.95739 17.9438L152.957 20.4327L153.043 15.4334L7.04261 12.9446L6.95739 17.9438ZM7 24.3737H144.577V19.3737H7V24.3737ZM144.648 19.3747L7.07158 15.4341L6.92842 20.432L144.505 24.3727L144.648 19.3747ZM6.85327 20.4287L144.43 28.5174L144.724 23.5261L7.14673 15.4373L6.85327 20.4287ZM5.80922 28.2199L14.2323 32.7828L16.6139 28.3864L8.19078 23.8236L5.80922 28.2199ZM15.4472 33.0845L144.601 31.8401L144.553 26.8403L15.399 28.0847L15.4472 33.0845ZM144.607 26.8404L7.03015 25.1812L6.96985 30.1808L144.547 31.84L144.607 26.8404ZM6.90585 30.1792L144.483 35.3643L144.671 30.3678L7.09415 25.1828L6.90585 30.1792ZM144.577 30.3661H15.4231V35.3661H144.577V30.3661ZM15.3629 35.3653L144.517 38.4764L144.637 33.4778L15.4833 30.3668L15.3629 35.3653ZM144.545 33.4773L15.391 35.1365L15.4552 40.1361L144.609 38.4769L144.545 33.4773ZM152.933 15.4339L79.9325 17.4043L80.0675 22.4025L153.067 20.4321L152.933 15.4339ZM79.9325 17.4043L6.93255 19.3746L7.06745 24.3728L80.0675 22.4025L79.9325 17.4043ZM144.577 23.5218H75.7885V28.5218H144.577V23.5218ZM75.7885 23.5218H7V28.5218H75.7885V23.5218Z" fill="#6A9EDA" fill-opacity="0.5"/>
<path d="M7.04261 31.6144L4.54297 31.5718L4.45775 36.5711L6.95739 36.6137L7.04261 31.6144ZM153 36.6029V39.1029L153.043 34.1032L153 36.6029ZM7 36.6029V34.1029L6.94319 39.1022L7 36.6029ZM153 39.9213V42.4213L153.057 37.422L153 39.9213ZM7 39.9213V37.4213L6.95029 42.4208L7 39.9213ZM153 42.825V45.325L153.05 40.3255L153 42.825ZM7 42.825V40.325L6.96094 45.3247L7 42.825ZM153 45.1064L153.025 47.6063L153.039 42.6067L153 45.1064ZM7 46.5582L6.97514 44.0584L6.95739 49.0579L7 46.5582ZM153 49.0471L153.067 51.5462L153.043 46.5474L153 49.0471ZM7 52.9877L6.93255 50.4886L7 55.4877V52.9877ZM144.577 52.9877V55.4877L144.648 50.4888L144.577 52.9877ZM7 49.0471L7.07158 46.5481L6.85327 51.5428L7 49.0471ZM144.577 57.1358V59.6358L144.724 54.6401L144.577 57.1358ZM7 57.1358V54.6358L5.80922 59.334L7 57.1358ZM15.4231 61.6987L14.2323 63.8969L14.8007 64.2048L15.4472 64.1986L15.4231 61.6987ZM144.577 60.4543L144.601 62.9541L144.607 57.9544L144.577 60.4543ZM7 58.795L7.03015 56.2952L6.90585 61.2933L7 58.795ZM144.577 63.9801V66.4801L144.671 61.4819L144.577 63.9801ZM15.4231 63.9801V61.4801L15.3629 66.4794L15.4231 63.9801ZM144.577 67.0912L144.609 69.5909L144.637 64.5919L144.577 67.0912ZM15.391 66.2506L12.8912 66.2827L12.9554 71.2823L15.4552 71.2502L15.391 66.2506ZM80 51.0174L80.0675 53.5165L80 51.0174ZM6.95739 36.6137L152.957 39.1025L153.043 34.1032L7.04261 31.6144L6.95739 36.6137ZM153 34.1029H7V39.1029H153V34.1029ZM6.94319 39.1022L152.943 42.4207L153.057 37.422L7.05681 34.1035L6.94319 39.1022ZM153 37.4213H7V42.4213H153V37.4213ZM6.95029 42.4208L152.95 45.3245L153.05 40.3255L7.04971 37.4218L6.95029 42.4208ZM153 40.325H7V45.325H153V40.325ZM6.96094 45.3247L152.961 47.6061L153.039 42.6067L7.03906 40.3253L6.96094 45.3247ZM152.975 42.6065L6.97514 44.0584L7.02486 49.0581L153.025 47.6063L152.975 42.6065ZM6.95739 49.0579L152.957 51.5467L153.043 46.5474L7.04261 44.0586L6.95739 49.0579ZM7 55.4877H144.577V50.4877H7V55.4877ZM144.648 50.4888L7.07158 46.5481L6.92842 51.5461L144.505 55.4867L144.648 50.4888ZM6.85327 51.5428L144.43 59.6315L144.724 54.6401L7.14673 46.5514L6.85327 51.5428ZM5.80922 59.334L14.2323 63.8969L16.6139 59.5005L8.19078 54.9376L5.80922 59.334ZM15.4472 64.1986L144.601 62.9541L144.553 57.9544L15.399 59.1988L15.4472 64.1986ZM144.607 57.9544L7.03015 56.2952L6.96985 61.2948L144.547 62.9541L144.607 57.9544ZM6.90585 61.2933L144.483 66.4783L144.671 61.4819L7.09415 56.2968L6.90585 61.2933ZM144.577 61.4801H15.4231V66.4801H144.577V61.4801ZM15.3629 66.4794L144.517 69.5904L144.637 64.5919L15.4833 61.4808L15.3629 66.4794ZM144.545 64.5914L15.391 66.2506L15.4552 71.2502L144.609 69.5909L144.545 64.5914ZM152.933 46.548L79.9325 48.5183L80.0675 53.5165L153.067 51.5462L152.933 46.548ZM79.9325 48.5183L6.93255 50.4886L7.06745 55.4868L80.0675 53.5165L79.9325 48.5183ZM144.577 54.6358H75.7885V59.6358H144.577V54.6358ZM75.7885 54.6358H7V59.6358H75.7885V54.6358Z" fill="#6A9EDA" fill-opacity="0.5"/>
<path d="M7.04261 26.5524L4.54297 26.5098L4.45775 31.509L6.95739 31.5516L7.04261 26.5524ZM153 31.5408V34.0408L153.043 29.0412L153 31.5408ZM7 31.5408V29.0408L6.94319 34.0402L7 31.5408ZM153 34.8593V37.3593L153.057 32.3599L153 34.8593ZM7 34.8593V32.3593L6.95029 37.3588L7 34.8593ZM153 37.7629V40.2629L153.05 35.2634L153 37.7629ZM7 37.7629V35.2629L6.96094 40.2626L7 37.7629ZM153 40.0444L153.025 42.5443L153.039 37.5447L153 40.0444ZM7 41.4962L6.97514 38.9963L6.95739 43.9958L7 41.4962ZM153 43.985L153.067 46.4841L153.043 41.4854L153 43.985ZM7 47.9257L6.93255 45.4266L7 50.4257V47.9257ZM144.577 47.9257V50.4257L144.648 45.4267L144.577 47.9257ZM7 43.985L7.07158 41.4861L6.85327 46.4807L7 43.985ZM144.577 52.0738V54.5738L144.724 49.5781L144.577 52.0738ZM7 52.0738V49.5738L5.80922 54.272L7 52.0738ZM15.4231 56.6366L14.2323 58.8348L14.8007 59.1427L15.4472 59.1365L15.4231 56.6366ZM144.577 55.3922L144.601 57.8921L144.607 52.8924L144.577 55.3922ZM7 53.733L7.03015 51.2332L6.90585 56.2312L7 53.733ZM144.577 58.9181V61.4181L144.671 56.4198L144.577 58.9181ZM15.4231 58.9181V56.4181L15.3629 61.4173L15.4231 58.9181ZM144.577 62.0291L144.609 64.5289L144.637 59.5298L144.577 62.0291ZM15.391 61.1886L12.8912 61.2207L12.9554 66.2203L15.4552 66.1881L15.391 61.1886ZM80 45.9554L80.0675 48.4545L80 45.9554ZM6.95739 31.5516L152.957 34.0405L153.043 29.0412L7.04261 26.5524L6.95739 31.5516ZM153 29.0408H7V34.0408H153V29.0408ZM6.94319 34.0402L152.943 37.3586L153.057 32.3599L7.05681 29.0415L6.94319 34.0402ZM153 32.3593H7V37.3593H153V32.3593ZM6.95029 37.3588L152.95 40.2624L153.05 35.2634L7.04971 32.3598L6.95029 37.3588ZM153 35.2629H7V40.2629H153V35.2629ZM6.96094 40.2626L152.961 42.5441L153.039 37.5447L7.03906 35.2632L6.96094 40.2626ZM152.975 37.5445L6.97514 38.9963L7.02486 43.9961L153.025 42.5443L152.975 37.5445ZM6.95739 43.9958L152.957 46.4847L153.043 41.4854L7.04261 38.9966L6.95739 43.9958ZM7 50.4257H144.577V45.4257H7V50.4257ZM144.648 45.4267L7.07158 41.4861L6.92842 46.484L144.505 50.4247L144.648 45.4267ZM6.85327 46.4807L144.43 54.5695L144.724 49.5781L7.14673 41.4893L6.85327 46.4807ZM5.80922 54.272L14.2323 58.8348L16.6139 54.4384L8.19078 49.8756L5.80922 54.272ZM15.4472 59.1365L144.601 57.8921L144.553 52.8923L15.399 54.1368L15.4472 59.1365ZM144.607 52.8924L7.03015 51.2332L6.96985 56.2328L144.547 57.892L144.607 52.8924ZM6.90585 56.2312L144.483 61.4163L144.671 56.4198L7.09415 51.2348L6.90585 56.2312ZM144.577 56.4181H15.4231V61.4181H144.577V56.4181ZM15.3629 61.4173L144.517 64.5284L144.637 59.5298L15.4833 56.4188L15.3629 61.4173ZM144.545 59.5293L15.391 61.1886L15.4552 66.1881L144.609 64.5289L144.545 59.5293ZM152.933 41.4859L79.9325 43.4563L80.0675 48.4545L153.067 46.4841L152.933 41.4859ZM79.9325 43.4563L6.93255 45.4266L7.06745 50.4248L80.0675 48.4545L79.9325 43.4563ZM144.577 49.5738H75.7885V54.5738H144.577V49.5738ZM75.7885 49.5738H7V54.5738H75.7885V49.5738Z" fill="#6A9EDA" fill-opacity="0.5"/>
<path d="M7.04261 57.6664L4.54297 57.6238L4.45775 62.623L6.95739 62.6656L7.04261 57.6664ZM153 62.6548V65.1548L153.043 60.1552L153 62.6548ZM7 62.6548V60.1548L6.94319 65.1542L7 62.6548ZM153 65.9733V68.4733L153.057 63.4739L153 65.9733ZM7 65.9733V63.4733L6.95029 68.4728L7 65.9733ZM153 68.8769V71.3769L153.05 66.3774L153 68.8769ZM7 68.8769V66.3769L6.96094 71.3766L7 68.8769ZM153 71.1584L153.025 73.6582L153.039 68.6587L153 71.1584ZM7 72.6102L6.97514 70.1103L6.95739 75.1098L7 72.6102ZM153 75.099L153.067 77.5981L153.043 72.5994L153 75.099ZM7 79.0397L6.93255 76.5406L7 81.5397V79.0397ZM144.577 79.0397V81.5397L144.648 76.5407L144.577 79.0397ZM7 75.099L7.07158 72.6001L6.85327 77.5947L7 75.099ZM144.577 83.1878V85.6878L144.724 80.6921L144.577 83.1878ZM7 83.1878V80.6878L5.80922 85.386L7 83.1878ZM15.4231 87.7506L14.2323 89.9488L14.8007 90.2567L15.4472 90.2505L15.4231 87.7506ZM144.577 86.5062L144.601 89.0061L144.607 84.0064L144.577 86.5062ZM7 84.847L7.03015 82.3472L6.90585 87.3452L7 84.847ZM144.577 90.0321V92.5321L144.671 87.5338L144.577 90.0321ZM15.4231 90.0321V87.5321L15.3629 92.5313L15.4231 90.0321ZM144.577 93.1431L144.609 95.6429L144.637 90.6438L144.577 93.1431ZM15.391 92.3026L12.8912 92.3347L12.9554 97.3343L15.4552 97.3021L15.391 92.3026ZM80 77.0694L80.0675 79.5685L80 77.0694ZM6.95739 62.6656L152.957 65.1545L153.043 60.1552L7.04261 57.6664L6.95739 62.6656ZM153 60.1548H7V65.1548H153V60.1548ZM6.94319 65.1542L152.943 68.4726L153.057 63.4739L7.05681 60.1555L6.94319 65.1542ZM153 63.4733H7V68.4733H153V63.4733ZM6.95029 68.4728L152.95 71.3764L153.05 66.3774L7.04971 63.4738L6.95029 68.4728ZM153 66.3769H7V71.3769H153V66.3769ZM6.96094 71.3766L152.961 73.6581L153.039 68.6587L7.03906 66.3772L6.96094 71.3766ZM152.975 68.6585L6.97514 70.1103L7.02486 75.1101L153.025 73.6582L152.975 68.6585ZM6.95739 75.1098L152.957 77.5987L153.043 72.5994L7.04261 70.1106L6.95739 75.1098ZM7 81.5397H144.577V76.5397H7V81.5397ZM144.648 76.5407L7.07158 72.6001L6.92842 77.598L144.505 81.5387L144.648 76.5407ZM6.85327 77.5947L144.43 85.6835L144.724 80.6921L7.14673 72.6033L6.85327 77.5947ZM5.80922 85.386L14.2323 89.9488L16.6139 85.5524L8.19078 80.9896L5.80922 85.386ZM15.4472 90.2505L144.601 89.0061L144.553 84.0063L15.399 85.2507L15.4472 90.2505ZM144.607 84.0064L7.03015 82.3472L6.96985 87.3468L144.547 89.006L144.607 84.0064ZM6.90585 87.3452L144.483 92.5303L144.671 87.5338L7.09415 82.3488L6.90585 87.3452ZM144.577 87.5321H15.4231V92.5321H144.577V87.5321ZM15.3629 92.5313L144.517 95.6424L144.637 90.6438L15.4833 87.5328L15.3629 92.5313ZM144.545 90.6433L15.391 92.3026L15.4552 97.3021L144.609 95.6429L144.545 90.6433ZM152.933 72.5999L79.9325 74.5703L80.0675 79.5685L153.067 77.5981L152.933 72.5999ZM79.9325 74.5703L6.93255 76.5406L7.06745 81.5388L80.0675 79.5685L79.9325 74.5703ZM144.577 80.6878H75.7885V85.6878H144.577V80.6878ZM75.7885 80.6878H7V85.6878H75.7885V80.6878Z" fill="#6A9EDA" fill-opacity="0.5"/>
<path d="M7.0666 44.7139L4.56749 44.6473L4.43429 49.6456L6.9334 49.7122L7.0666 44.7139ZM153 51.1038V53.6038L153.067 48.6047L153 51.1038ZM7 51.1038V48.6038L6.91123 53.6022L7 51.1038ZM153 56.2915V58.7915L153.089 53.7931L153 56.2915ZM7 56.2915V53.7915L6.92231 58.7903L7 56.2915ZM153 60.8308V63.3308L153.078 58.332L153 60.8308ZM7 60.8308V58.3308L6.93895 63.33L7 60.8308ZM153 64.3973L153.039 66.897L153.061 61.8981L153 64.3973ZM7 66.6669L6.96114 64.1672L6.9334 69.166L7 66.6669ZM153 70.5577L153.105 73.0555L153.067 68.0586L153 70.5577ZM7 76.7181L6.89461 74.2203L7 79.2181V76.7181ZM144.577 76.7181V79.2181L144.689 74.2206L144.577 76.7181ZM7 70.5577L7.11183 68.0602L6.77118 73.0472L7 70.5577ZM144.577 83.2027V85.7027L144.806 80.7132L144.577 83.2027ZM7 83.2027V80.7027H0.179431L5.38437 85.1106L7 83.2027ZM15.4231 90.3358L13.8074 92.2437L14.5231 92.8497L15.4607 92.8356L15.4231 90.3358ZM144.577 88.3904L144.615 90.8902L144.624 85.8909L144.577 88.3904ZM7 85.7966L7.04713 83.297L6.85296 88.2923L7 85.7966ZM144.577 93.9024V96.4024L144.724 91.4067L144.577 93.9024ZM15.4231 93.9024V91.4024L15.329 96.4006L15.4231 93.9024ZM144.577 98.7659L144.627 101.265L144.671 96.2676L144.577 98.7659ZM15.3729 98.8602L12.8734 98.9104L12.9738 103.909L15.4733 103.859L15.3729 98.8602ZM80 73.6379L80.1054 76.1357L80 73.6379ZM6.9334 49.7122L152.933 53.6029L153.067 48.6047L7.0666 44.7139L6.9334 49.7122ZM153 48.6038H7V53.6038H153V48.6038ZM6.91123 53.6022L152.911 58.79L153.089 53.7931L7.08877 48.6054L6.91123 53.6022ZM153 53.7915H7V58.7915H153V53.7915ZM6.92231 58.7903L152.922 63.3296L153.078 58.332L7.07769 53.7927L6.92231 58.7903ZM153 58.3308H7V63.3308H153V58.3308ZM6.93895 63.33L152.939 66.8966L153.061 61.8981L7.06105 58.3315L6.93895 63.33ZM152.961 61.8976L6.96114 64.1672L7.03886 69.1666L153.039 66.897L152.961 61.8976ZM6.9334 69.166L152.933 73.0568L153.067 68.0586L7.0666 64.1678L6.9334 69.166ZM7 79.2181H144.577V74.2181H7V79.2181ZM144.689 74.2206L7.11183 68.0602L6.88817 73.0552L144.465 79.2156L144.689 74.2206ZM6.77118 73.0472L144.348 85.6923L144.806 80.7132L7.22882 68.0682L6.77118 73.0472ZM5.38437 85.1106L13.8074 92.2437L17.0387 88.428L8.61563 81.2949L5.38437 85.1106ZM15.4607 92.8356L144.615 90.8902L144.539 85.8907L15.3854 87.8361L15.4607 92.8356ZM144.624 85.8909L7.04713 83.297L6.95287 88.2962L144.53 90.89L144.624 85.8909ZM6.85296 88.2923L144.43 96.3981L144.724 91.4067L7.14704 83.3009L6.85296 88.2923ZM144.577 91.4024H15.4231V96.4024H144.577V91.4024ZM15.329 96.4006L144.483 101.264L144.671 96.2676L15.5172 91.4042L15.329 96.4006ZM144.527 96.2664L15.3729 98.8602L15.4733 103.859L144.627 101.265L144.527 96.2664ZM152.895 68.0599L79.8946 71.1401L80.1054 76.1357L153.105 73.0555L152.895 68.0599ZM79.8946 71.1401L6.89461 74.2203L7.10539 79.2159L80.1054 76.1357L79.8946 71.1401ZM144.577 80.7027H75.7885V85.7027H144.577V80.7027ZM75.7885 80.7027H7V85.7027H75.7885V80.7027Z" fill="#6A9EDA" fill-opacity="0.5"/>
<path d="M7.0666 93.3542L4.56749 93.2876L4.43429 98.2858L6.9334 98.3524L7.0666 93.3542ZM153 99.7441V102.244L153.067 97.2449L153 99.7441ZM7 99.7441V97.2441L6.91123 102.242L7 99.7441ZM153 104.932V107.432L153.089 102.433L153 104.932ZM7 104.932V102.432L6.92231 107.431L7 104.932ZM153 109.471V111.971L153.078 106.972L153 109.471ZM7 109.471V106.971L6.93895 111.97L7 109.471ZM153 113.038L153.039 115.537L153.061 110.538L153 113.038ZM7 115.307L6.96114 112.807L6.9334 117.806L7 115.307ZM153 119.198L153.105 121.696L153.067 116.699L153 119.198ZM7 125.358L6.89461 122.861L7 127.858V125.358ZM144.577 125.358V127.858L144.689 122.861L144.577 125.358ZM7 119.198L7.11183 116.7L6.77118 121.687L7 119.198ZM144.577 131.843V134.343L144.806 129.353L144.577 131.843ZM7 131.843V129.343H0.179434L5.38437 133.751L7 131.843ZM15.4231 138.976L13.8074 140.884L14.5231 141.49L15.4607 141.476L15.4231 138.976ZM144.577 137.031L144.615 139.53L144.624 134.531L144.577 137.031ZM7 134.437L7.04713 131.937L6.85296 136.933L7 134.437ZM144.577 142.543V145.043L144.724 140.047L144.577 142.543ZM15.4231 142.543V140.043L15.329 145.041L15.4231 142.543ZM144.577 147.406L144.627 149.906L144.671 144.908L144.577 147.406ZM15.3729 147.5L12.8734 147.551L12.9738 152.55L15.4733 152.499L15.3729 147.5ZM80 122.278L80.1054 124.776L80 122.278ZM6.9334 98.3524L152.933 102.243L153.067 97.2449L7.0666 93.3542L6.9334 98.3524ZM153 97.2441H7V102.244H153V97.2441ZM6.91123 102.242L152.911 107.43L153.089 102.433L7.08877 97.2456L6.91123 102.242ZM153 102.432H7V107.432H153V102.432ZM6.92231 107.431L152.922 111.97L153.078 106.972L7.07769 102.433L6.92231 107.431ZM153 106.971H7V111.971H153V106.971ZM6.93895 111.97L152.939 115.537L153.061 110.538L7.06105 106.972L6.93895 111.97ZM152.961 110.538L6.96114 112.807L7.03886 117.807L153.039 115.537L152.961 110.538ZM6.9334 117.806L152.933 121.697L153.067 116.699L7.0666 112.808L6.9334 117.806ZM7 127.858H144.577V122.858H7V127.858ZM144.689 122.861L7.11183 116.7L6.88817 121.695L144.465 127.856L144.689 122.861ZM6.77118 121.687L144.348 134.332L144.806 129.353L7.22882 116.708L6.77118 121.687ZM5.38437 133.751L13.8074 140.884L17.0387 137.068L8.61563 129.935L5.38437 133.751ZM15.4607 141.476L144.615 139.53L144.539 134.531L15.3854 136.476L15.4607 141.476ZM144.624 134.531L7.04713 131.937L6.95287 136.936L144.53 139.53L144.624 134.531ZM6.85296 136.933L144.43 145.038L144.724 140.047L7.14704 131.941L6.85296 136.933ZM144.577 140.043H15.4231V145.043H144.577V140.043ZM15.329 145.041L144.483 149.904L144.671 144.908L15.5172 140.044L15.329 145.041ZM144.527 144.907L15.3729 147.5L15.4733 152.499L144.627 149.906L144.527 144.907ZM152.895 116.7L79.8946 119.78L80.1054 124.776L153.105 121.696L152.895 116.7ZM79.8946 119.78L6.89461 122.861L7.10539 127.856L80.1054 124.776L79.8946 119.78ZM144.577 129.343H75.7885V134.343H144.577V129.343ZM75.7885 129.343H7V134.343H75.7885V129.343Z" fill="#6A9EDA" fill-opacity="0.5"/>
<path d="M7.04261 55.698L4.54297 55.6554L4.45775 60.6547L6.95739 60.6973L7.04261 55.698ZM153 60.6865V63.1865L153.043 58.1868L153 60.6865ZM7 60.6865V58.1865L6.94319 63.1858L7 60.6865ZM153 64.0049V66.5049L153.057 61.5056L153 64.0049ZM7 64.0049V61.5049L6.95029 66.5044L7 64.0049ZM153 66.9086V69.4086L153.05 64.4091L153 66.9086ZM7 66.9086V64.4086L6.96094 69.4083L7 66.9086ZM153 69.19L153.025 71.6899L153.039 66.6903L153 69.19ZM7 70.6418L6.97514 68.1419L6.95739 73.1415L7 70.6418ZM153 73.1307L153.067 75.6298L153.043 70.631L153 73.1307ZM7 77.0713L6.93255 74.5722L7 79.5713V77.0713ZM144.577 77.0713V79.5713L144.648 74.5723L144.577 77.0713ZM7 73.1307L7.07158 70.6317L6.85327 75.6264L7 73.1307ZM144.577 81.2194V83.7194L144.724 78.7237L144.577 81.2194ZM7 81.2194V78.7194L5.80922 83.4176L7 81.2194ZM15.4231 85.7823L14.2323 87.9804L14.8007 88.2884L15.4472 88.2821L15.4231 85.7823ZM144.577 84.5378L144.601 87.0377L144.607 82.038L144.577 84.5378ZM7 82.8786L7.03015 80.3788L6.90585 85.3768L7 82.8786ZM144.577 88.0637V90.5637L144.671 85.5655L144.577 88.0637ZM15.4231 88.0637V85.5637L15.3629 90.563L15.4231 88.0637ZM144.577 91.1747L144.609 93.6745L144.637 88.6755L144.577 91.1747ZM15.391 90.3342L12.8912 90.3663L12.9554 95.3659L15.4552 95.3338L15.391 90.3342ZM80 75.101L80.0675 77.6001L80 75.101ZM6.95739 60.6973L152.957 63.1861L153.043 58.1868L7.04261 55.698L6.95739 60.6973ZM153 58.1865H7V63.1865H153V58.1865ZM6.94319 63.1858L152.943 66.5043L153.057 61.5056L7.05681 58.1871L6.94319 63.1858ZM153 61.5049H7V66.5049H153V61.5049ZM6.95029 66.5044L152.95 69.4081L153.05 64.4091L7.04971 61.5054L6.95029 66.5044ZM153 64.4086H7V69.4086H153V64.4086ZM6.96094 69.4083L152.961 71.6897L153.039 66.6903L7.03906 64.4089L6.96094 69.4083ZM152.975 66.6901L6.97514 68.1419L7.02486 73.1417L153.025 71.6899L152.975 66.6901ZM6.95739 73.1415L152.957 75.6303L153.043 70.631L7.04261 68.1422L6.95739 73.1415ZM7 79.5713H144.577V74.5713H7V79.5713ZM144.648 74.5723L7.07158 70.6317L6.92842 75.6296L144.505 79.5703L144.648 74.5723ZM6.85327 75.6264L144.43 83.7151L144.724 78.7237L7.14673 70.635L6.85327 75.6264ZM5.80922 83.4176L14.2323 87.9804L16.6139 83.5841L8.19078 79.0212L5.80922 83.4176ZM15.4472 88.2821L144.601 87.0377L144.553 82.038L15.399 83.2824L15.4472 88.2821ZM144.607 82.038L7.03015 80.3788L6.96985 85.3784L144.547 87.0377L144.607 82.038ZM6.90585 85.3768L144.483 90.5619L144.671 85.5655L7.09415 80.3804L6.90585 85.3768ZM144.577 85.5637H15.4231V90.5637H144.577V85.5637ZM15.3629 90.563L144.517 93.674L144.637 88.6755L15.4833 85.5644L15.3629 90.563ZM144.545 88.6749L15.391 90.3342L15.4552 95.3338L144.609 93.6745L144.545 88.6749ZM152.933 70.6316L79.9325 72.6019L80.0675 77.6001L153.067 75.6298L152.933 70.6316ZM79.9325 72.6019L6.93255 74.5722L7.06745 79.5704L80.0675 77.6001L79.9325 72.6019ZM144.577 78.7194H75.7885V83.7194H144.577V78.7194ZM75.7885 78.7194H7V83.7194H75.7885V78.7194Z" fill="#6A9EDA" fill-opacity="0.5"/>
<path d="M7.04261 86.812L4.54297 86.7694L4.45775 91.7687L6.95739 91.8113L7.04261 86.812ZM153 91.8005V94.3005L153.043 89.3009L153 91.8005ZM7 91.8005V89.3005L6.94319 94.2999L7 91.8005ZM153 95.119V97.619L153.057 92.6196L153 95.119ZM7 95.119V92.619L6.95029 97.6185L7 95.119ZM153 98.0226V100.523L153.05 95.5231L153 98.0226ZM7 98.0226V95.5226L6.96094 100.522L7 98.0226ZM153 100.304L153.025 102.804L153.039 97.8043L153 100.304ZM7 101.756L6.97514 99.256L6.95739 104.255L7 101.756ZM153 104.245L153.067 106.744L153.043 101.745L153 104.245ZM7 108.185L6.93255 105.686L7 110.685V108.185ZM144.577 108.185V110.685L144.648 105.686L144.577 108.185ZM7 104.245L7.07158 101.746L6.85327 106.74L7 104.245ZM144.577 112.333V114.833L144.724 109.838L144.577 112.333ZM7 112.333V109.833L5.80922 114.532L7 112.333ZM15.4231 116.896L14.2323 119.094L14.8007 119.402L15.4472 119.396L15.4231 116.896ZM144.577 115.652L144.601 118.152L144.607 113.152L144.577 115.652ZM7 113.993L7.03015 111.493L6.90585 116.491L7 113.993ZM144.577 119.178V121.678L144.671 116.68L144.577 119.178ZM15.4231 119.178V116.678L15.3629 121.677L15.4231 119.178ZM144.577 122.289L144.609 124.789L144.637 119.79L144.577 122.289ZM15.391 121.448L12.8912 121.48L12.9554 126.48L15.4552 126.448L15.391 121.448ZM80 106.215L80.0675 108.714L80 106.215ZM6.95739 91.8113L152.957 94.3001L153.043 89.3009L7.04261 86.812L6.95739 91.8113ZM153 89.3005H7V94.3005H153V89.3005ZM6.94319 94.2999L152.943 97.6183L153.057 92.6196L7.05681 89.3011L6.94319 94.2999ZM153 92.619H7V97.619H153V92.619ZM6.95029 97.6185L152.95 100.522L153.05 95.5231L7.04971 92.6194L6.95029 97.6185ZM153 95.5226H7V100.523H153V95.5226ZM6.96094 100.522L152.961 102.804L153.039 97.8043L7.03906 95.5229L6.96094 100.522ZM152.975 97.8042L6.97514 99.256L7.02486 104.256L153.025 102.804L152.975 97.8042ZM6.95739 104.255L152.957 106.744L153.043 101.745L7.04261 99.2562L6.95739 104.255ZM7 110.685H144.577V105.685H7V110.685ZM144.648 105.686L7.07158 101.746L6.92842 106.744L144.505 110.684L144.648 105.686ZM6.85327 106.74L144.43 114.829L144.724 109.838L7.14673 101.749L6.85327 106.74ZM5.80922 114.532L14.2323 119.094L16.6139 114.698L8.19078 110.135L5.80922 114.532ZM15.4472 119.396L144.601 118.152L144.553 113.152L15.399 114.396L15.4472 119.396ZM144.607 113.152L7.03015 111.493L6.96985 116.492L144.547 118.152L144.607 113.152ZM6.90585 116.491L144.483 121.676L144.671 116.68L7.09415 111.494L6.90585 116.491ZM144.577 116.678H15.4231V121.678H144.577V116.678ZM15.3629 121.677L144.517 124.788L144.637 119.79L15.4833 116.678L15.3629 121.677ZM144.545 119.789L15.391 121.448L15.4552 126.448L144.609 124.789L144.545 119.789ZM152.933 101.746L79.9325 103.716L80.0675 108.714L153.067 106.744L152.933 101.746ZM79.9325 103.716L6.93255 105.686L7.06745 110.684L80.0675 108.714L79.9325 103.716ZM144.577 109.833H75.7885V114.833H144.577V109.833ZM75.7885 109.833H7V114.833H75.7885V109.833Z" fill="#6A9EDA" fill-opacity="0.5"/>
<path d="M7.04261 81.75L4.54297 81.7074L4.45775 86.7067L6.95739 86.7493L7.04261 81.75ZM153 86.7385V89.2385L153.043 84.2388L153 86.7385ZM7 86.7385V84.2385L6.94319 89.2378L7 86.7385ZM153 90.0569V92.5569L153.057 87.5576L153 90.0569ZM7 90.0569V87.5569L6.95029 92.5564L7 90.0569ZM153 92.9606V95.4606L153.05 90.4611L153 92.9606ZM7 92.9606V90.4606L6.96094 95.4603L7 92.9606ZM153 95.242L153.025 97.7419L153.039 92.7423L153 95.242ZM7 96.6938L6.97514 94.1939L6.95739 99.1935L7 96.6938ZM153 99.1827L153.067 101.682L153.043 96.683L153 99.1827ZM7 103.123L6.93255 100.624L7 105.623V103.123ZM144.577 103.123V105.623L144.648 100.624L144.577 103.123ZM7 99.1827L7.07158 96.6837L6.85327 101.678L7 99.1827ZM144.577 107.271V109.771L144.724 104.776L144.577 107.271ZM7 107.271V104.771L5.80922 109.47L7 107.271ZM15.4231 111.834L14.2323 114.032L14.8007 114.34L15.4472 114.334L15.4231 111.834ZM144.577 110.59L144.601 113.09L144.607 108.09L144.577 110.59ZM7 108.931L7.03015 106.431L6.90585 111.429L7 108.931ZM144.577 114.116V116.616L144.671 111.617L144.577 114.116ZM15.4231 114.116V111.616L15.3629 116.615L15.4231 114.116ZM144.577 117.227L144.609 119.727L144.637 114.727L144.577 117.227ZM15.391 116.386L12.8912 116.418L12.9554 121.418L15.4552 121.386L15.391 116.386ZM80 101.153L80.0675 103.652L80 101.153ZM6.95739 86.7493L152.957 89.2381L153.043 84.2388L7.04261 81.75L6.95739 86.7493ZM153 84.2385H7V89.2385H153V84.2385ZM6.94319 89.2378L152.943 92.5563L153.057 87.5576L7.05681 84.2391L6.94319 89.2378ZM153 87.5569H7V92.5569H153V87.5569ZM6.95029 92.5564L152.95 95.4601L153.05 90.4611L7.04971 87.5574L6.95029 92.5564ZM153 90.4606H7V95.4606H153V90.4606ZM6.96094 95.4603L152.961 97.7417L153.039 92.7423L7.03906 90.4609L6.96094 95.4603ZM152.975 92.7421L6.97514 94.1939L7.02486 99.1937L153.025 97.7419L152.975 92.7421ZM6.95739 99.1935L152.957 101.682L153.043 96.683L7.04261 94.1942L6.95739 99.1935ZM7 105.623H144.577V100.623H7V105.623ZM144.648 100.624L7.07158 96.6837L6.92842 101.682L144.505 105.622L144.648 100.624ZM6.85327 101.678L144.43 109.767L144.724 104.776L7.14673 96.687L6.85327 101.678ZM5.80922 109.47L14.2323 114.032L16.6139 109.636L8.19078 105.073L5.80922 109.47ZM15.4472 114.334L144.601 113.09L144.553 108.09L15.399 109.334L15.4472 114.334ZM144.607 108.09L7.03015 106.431L6.96985 111.43L144.547 113.09L144.607 108.09ZM6.90585 111.429L144.483 116.614L144.671 111.617L7.09415 106.432L6.90585 111.429ZM144.577 111.616H15.4231V116.616H144.577V111.616ZM15.3629 116.615L144.517 119.726L144.637 114.727L15.4833 111.616L15.3629 116.615ZM144.545 114.727L15.391 116.386L15.4552 121.386L144.609 119.727L144.545 114.727ZM152.933 96.6836L79.9325 98.6539L80.0675 103.652L153.067 101.682L152.933 96.6836ZM79.9325 98.6539L6.93255 100.624L7.06745 105.622L80.0675 103.652L79.9325 98.6539ZM144.577 104.771H75.7885V109.771H144.577V104.771ZM75.7885 104.771H7V109.771H75.7885V104.771Z" fill="#6A9EDA" fill-opacity="0.5"/>
<path d="M7.04261 112.864L4.54297 112.821L4.45775 117.821L6.95739 117.863L7.04261 112.864ZM153 117.852V120.352L153.043 115.353L153 117.852ZM7 117.852V115.352L6.94319 120.352L7 117.852ZM153 121.171V123.671L153.057 118.672L153 121.171ZM7 121.171V118.671L6.95029 123.67L7 121.171ZM153 124.075V126.575L153.05 121.575L153 124.075ZM7 124.075V121.575L6.96094 126.574L7 124.075ZM153 126.356L153.025 128.856L153.039 123.856L153 126.356ZM7 127.808L6.97514 125.308L6.95739 130.307L7 127.808ZM153 130.297L153.067 132.796L153.043 127.797L153 130.297ZM7 134.237L6.93255 131.738L7 136.737V134.237ZM144.577 134.237V136.737L144.648 131.738L144.577 134.237ZM7 130.297L7.07158 127.798L6.85327 132.792L7 130.297ZM144.577 138.385V140.885L144.724 135.89L144.577 138.385ZM7 138.385V135.885L5.80922 140.584L7 138.385ZM15.4231 142.948L14.2323 145.146L14.8007 145.454L15.4472 145.448L15.4231 142.948ZM144.577 141.704L144.601 144.204L144.607 139.204L144.577 141.704ZM7 140.045L7.03015 137.545L6.90585 142.543L7 140.045ZM144.577 145.23V147.73L144.671 142.731L144.577 145.23ZM15.4231 145.23V142.73L15.3629 147.729L15.4231 145.23ZM144.577 148.341L144.609 150.841L144.637 145.841L144.577 148.341ZM15.391 147.5L12.8912 147.532L12.9554 152.532L15.4552 152.5L15.391 147.5ZM80 132.267L80.0675 134.766L80 132.267ZM6.95739 117.863L152.957 120.352L153.043 115.353L7.04261 112.864L6.95739 117.863ZM153 115.352H7V120.352H153V115.352ZM6.94319 120.352L152.943 123.67L153.057 118.672L7.05681 115.353L6.94319 120.352ZM153 118.671H7V123.671H153V118.671ZM6.95029 123.67L152.95 126.574L153.05 121.575L7.04971 118.671L6.95029 123.67ZM153 121.575H7V126.575H153V121.575ZM6.96094 126.574L152.961 128.856L153.039 123.856L7.03906 121.575L6.96094 126.574ZM152.975 123.856L6.97514 125.308L7.02486 130.308L153.025 128.856L152.975 123.856ZM6.95739 130.307L152.957 132.796L153.043 127.797L7.04261 125.308L6.95739 130.307ZM7 136.737H144.577V131.737H7V136.737ZM144.648 131.738L7.07158 127.798L6.92842 132.796L144.505 136.736L144.648 131.738ZM6.85327 132.792L144.43 140.881L144.724 135.89L7.14673 127.801L6.85327 132.792ZM5.80922 140.584L14.2323 145.146L16.6139 140.75L8.19078 136.187L5.80922 140.584ZM15.4472 145.448L144.601 144.204L144.553 139.204L15.399 140.448L15.4472 145.448ZM144.607 139.204L7.03015 137.545L6.96985 142.544L144.547 144.204L144.607 139.204ZM6.90585 142.543L144.483 147.728L144.671 142.731L7.09415 137.546L6.90585 142.543ZM144.577 142.73H15.4231V147.73H144.577V142.73ZM15.3629 147.729L144.517 150.84L144.637 145.841L15.4833 142.73L15.3629 147.729ZM144.545 145.841L15.391 147.5L15.4552 152.5L144.609 150.841L144.545 145.841ZM152.933 127.798L79.9325 129.768L80.0675 134.766L153.067 132.796L152.933 127.798ZM79.9325 129.768L6.93255 131.738L7.06745 136.736L80.0675 134.766L79.9325 129.768ZM144.577 135.885H75.7885V140.885H144.577V135.885ZM75.7885 135.885H7V140.885H75.7885V135.885Z" fill="#6A9EDA" fill-opacity="0.5"/>
</svg>
