<svg width="33" height="48" viewBox="0 0 33 48" fill="none" xmlns="http://www.w3.org/2000/svg">
<path d="M28.3451 40.6791C28.2613 42.6695 28.0532 44.1928 27.7453 45.0923C27.7399 45.0962 27.7344 45.1001 27.7288 45.1041C27.5445 45.2361 27.255 45.4159 26.8682 45.5749C26.111 45.8862 24.9424 46.1355 23.3734 45.7323C21.6296 45.284 20.3195 44.6147 19.4568 44.0687C19.0255 43.7958 18.7072 43.5545 18.504 43.3886C18.4025 43.3057 18.33 43.2419 18.2868 43.2027C18.2652 43.1831 18.2509 43.1697 18.244 43.1632C18.2427 43.1619 18.2416 43.1608 18.2408 43.1601L17.2228 42.1449L16.1821 43.1127C16.1802 43.1142 16.1779 43.1161 16.1752 43.1183C16.1543 43.1352 16.1077 43.1716 16.0313 43.2253C15.8785 43.3328 15.6063 43.5095 15.1821 43.7372C14.3328 44.193 12.8779 44.8511 10.5579 45.5666C8.42636 46.2241 7.33254 45.9349 6.85408 45.7039C6.60032 45.5813 6.45306 45.4443 6.37941 45.3622C6.36641 45.3477 6.35556 45.3348 6.34674 45.3238C5.9591 44.2831 5.67381 42.5879 5.4946 40.4822C5.31212 38.338 5.25 35.916 5.25 33.625C5.25 31.3379 5.31185 29.2024 5.37382 27.6375C5.39111 27.2011 5.40838 26.8095 5.4243 26.4718L27.6564 26.0272C27.6954 26.4081 27.7401 26.8591 27.7878 27.3668C27.9428 29.0174 28.1284 31.2611 28.252 33.6403C28.3759 36.0246 28.436 38.5191 28.3451 40.6791ZM16.1878 43.108C16.1884 43.1074 16.1883 43.1075 16.1874 43.1082L16.1878 43.108Z" fill="white" stroke="white" stroke-width="3"/>
<path d="M31.5 16C31.5 23.965 24.8281 30.5 16.5 30.5C8.17188 30.5 1.5 23.965 1.5 16C1.5 8.03505 8.17188 1.5 16.5 1.5C24.8281 1.5 31.5 8.03505 31.5 16Z" fill="white" stroke="white" stroke-width="3"/>
<path d="M2 19L7 8L16.5 2.5L25.5 6L30 12.5V19L27 28V41.5L24 45L16.5 40.5L8.5 45L7 41.5L7.5 27L2 19Z" fill="#AAAAAA"/>
<path d="M24.0082 42.2917C23.8177 42.3816 23.6047 42.4171 23.3943 42.3942C23.1835 42.3714 22.9834 42.2908 22.818 42.1615C22.8178 42.1614 22.8176 42.1612 22.8173 42.161L16.6667 37.4522L10.5168 42.1619L24.0082 42.2917ZM24.0082 42.2917C24.2003 42.2066 24.3636 42.0697 24.4778 41.8967C24.5923 41.7233 24.6523 41.5213 24.65 41.315V28.9837V28.7281L24.4268 28.8527C22.0721 30.1677 19.394 30.8609 16.6666 30.8609C13.9393 30.8609 11.2612 30.1677 8.90644 28.8527L8.6833 28.7281V28.9837L8.6833 41.3159L8.6833 41.3165C8.68413 41.5225 8.7457 41.7235 8.86022 41.8965C8.9747 42.0694 9.13723 42.207 9.32842 42.2943C9.51957 42.3816 9.73216 42.4153 9.94193 42.392C10.1516 42.3687 10.3509 42.2893 10.5166 42.162L24.0082 42.2917ZM5.06663 25.9034V25.8448L5.02692 25.8017C3.36586 23.9997 2.18741 21.8394 1.59221 19.5065C0.997026 17.1736 1.00273 14.7375 1.60883 12.4072C2.21495 10.0769 3.40351 7.92158 5.073 6.12669C6.74253 4.33176 8.84311 2.95092 11.1946 2.10341C13.5461 1.25588 16.0777 0.967183 18.5718 1.26228C21.066 1.55738 23.4475 2.42738 25.5118 3.79708C27.5761 5.16676 29.2613 6.99502 30.4231 9.12429C31.5849 11.2535 32.1888 13.6204 32.1833 16.0215L32.3333 16.0218L32.1833 16.0218C32.1827 19.6241 30.8044 23.1028 28.3066 25.8015L28.2667 25.8446V25.9034V41.3158C28.266 42.1682 28.0137 43.0036 27.5383 43.7259C27.0629 44.4482 26.3832 45.0284 25.577 45.3987C24.7707 45.769 23.8711 45.9141 22.9819 45.817C22.0926 45.7199 21.2508 45.3846 20.5531 44.8504L20.553 44.8504L16.7578 41.9463L16.6666 41.8765L16.5754 41.9463L12.7802 44.8542C12.0822 45.3885 11.24 45.7239 10.3505 45.8209C9.4609 45.9178 8.56099 45.7724 7.75457 45.4016C6.94819 45.0309 6.26864 44.4502 5.79345 43.7273C5.31832 43.0045 5.06662 42.1686 5.06663 41.3159V25.9034ZM4.76663 16.0217V16.0218C4.76663 18.2765 5.46546 20.4798 6.77389 22.3534C8.08226 24.2268 9.94118 25.686 12.1148 26.5474C14.2885 27.4088 16.6799 27.6341 18.987 27.195C21.2941 26.7559 23.4142 25.672 25.0789 24.0794C26.7436 22.4867 27.878 20.4566 28.3377 18.2456C28.7974 16.0344 28.5614 13.7426 27.6599 11.6602C26.7584 9.57788 25.2322 7.79918 23.2754 6.54824C21.3186 5.29733 19.0188 4.63003 16.6666 4.63003V4.78003L16.6665 4.63003C13.5135 4.63304 10.4893 5.83266 8.25787 7.96759C6.02621 10.1027 4.76979 12.9992 4.76663 16.0217Z" fill="black" stroke="black" stroke-width="0.3"/>
<path d="M2.51495 15.1213C2.58192 15.3892 2.85339 15.5521 3.12129 15.4851C3.38919 15.4181 3.55206 15.1466 3.48509 14.8787L2.51495 15.1213ZM8.62128 5.98507C8.88917 5.9181 9.05206 5.64663 8.98508 5.37873C8.91811 5.11084 8.64664 4.94795 8.37874 5.01493L8.62128 5.98507ZM3.00002 15C3.48509 14.8787 3.48517 14.8791 3.48524 14.8794C3.48526 14.8794 3.48534 14.8797 3.48538 14.8799C3.48547 14.8803 3.48556 14.8806 3.48563 14.8809C3.48578 14.8816 3.4859 14.8821 3.48599 14.8824C3.48617 14.8832 3.48624 14.8835 3.48619 14.8833C3.4861 14.8829 3.48558 14.8806 3.48473 14.8764C3.48302 14.8681 3.47996 14.8522 3.47626 14.8288C3.46885 14.7822 3.45889 14.7058 3.4521 14.6006C3.43853 14.3904 3.43758 14.0639 3.49562 13.6286C3.61153 12.7593 3.96406 11.4457 4.93412 9.74807L4.06588 9.25193C3.03594 11.0543 2.63848 12.4907 2.50439 13.4964C2.43744 13.9986 2.43649 14.3909 2.45418 14.665C2.46301 14.802 2.47649 14.9092 2.48862 14.9856C2.49469 15.0238 2.50041 15.0543 2.50505 15.077C2.50737 15.0883 2.50942 15.0977 2.5111 15.1051C2.51194 15.1088 2.51269 15.112 2.51333 15.1147C2.51365 15.116 2.51395 15.1172 2.51422 15.1183C2.51436 15.1189 2.51448 15.1194 2.5146 15.1199C2.51467 15.1202 2.51475 15.1205 2.51478 15.1206C2.51486 15.121 2.51495 15.1213 3.00002 15ZM4.93412 9.74807C5.90283 8.05284 6.85861 7.10604 7.55 6.5875C7.89634 6.32775 8.17874 6.17364 8.36681 6.08632C8.46094 6.04261 8.53171 6.01552 8.57534 6.00025C8.59716 5.99261 8.61221 5.98793 8.62002 5.9856C8.62393 5.98443 8.62603 5.98385 8.62626 5.98379C8.62637 5.98376 8.62602 5.98386 8.62519 5.98407C8.62478 5.98418 8.62424 5.98432 8.62359 5.98449C8.62327 5.98457 8.62291 5.98466 8.62252 5.98476C8.62233 5.98481 8.62202 5.98489 8.62192 5.98491C8.6216 5.98499 8.62128 5.98507 8.50001 5.5C8.37874 5.01493 8.3784 5.01501 8.37805 5.0151C8.37792 5.01513 8.37757 5.01522 8.37731 5.01529C8.3768 5.01542 8.37627 5.01555 8.3757 5.0157C8.37456 5.01599 8.3733 5.01632 8.37192 5.01668C8.36915 5.0174 8.3659 5.01827 8.36217 5.01929C8.35471 5.02134 8.34533 5.02399 8.3341 5.02734C8.31163 5.03405 8.28176 5.04352 8.24499 5.05639C8.17143 5.08214 8.07033 5.12145 7.9457 5.17931C7.69627 5.29511 7.35367 5.48475 6.95001 5.7875C6.14139 6.39396 5.09717 7.44716 4.06588 9.25193L4.93412 9.74807Z" fill="white" fill-opacity="0.9"/>
</svg>
