<svg width="42" height="42" viewBox="0 0 42 42" fill="none" xmlns="http://www.w3.org/2000/svg">
<path d="M24.6033 27.5H24.1834L24.1108 27.9136C24.0421 28.3047 24.0005 28.7 23.9863 29.0969L23.986 29.1058V29.1148V34.9847C23.9545 35.5189 24.0361 36.0537 24.2256 36.5542C24.4171 37.0598 24.7143 37.5187 25.0974 37.9002C25.4804 38.2817 25.9405 38.5771 26.4469 38.7666C26.9478 38.954 27.4826 39.0335 28.0162 39H32.75V41.5H9.25V39H13.9845C14.5173 39.0319 15.051 38.9511 15.5506 38.7627C16.0553 38.5724 16.5137 38.2767 16.8952 37.8952C17.2767 37.5137 17.5724 37.0553 17.7627 36.5506C17.9511 36.051 18.0319 35.5174 18 34.9845V29.1148V29.1064L17.9997 29.098C17.9864 28.7003 17.9447 28.3042 17.875 27.9124L17.8017 27.5H17.3827H15.75C10.0234 27.5 6.2154 25.9923 3.84595 23.906C1.47816 21.8211 0.500189 19.1186 0.5 16.6257C0.503984 15.3011 0.975352 14.0203 1.83107 13.0091C2.68694 11.9977 3.87235 11.3208 5.17839 11.0979L5.82979 10.9867L5.54568 10.39C4.90577 9.04622 4.41822 7.63503 4.09213 6.1828C3.95267 5.50062 3.96713 4.7959 4.13447 4.11998C4.30217 3.44262 4.61916 2.81132 5.06226 2.27224L5.06414 2.26994C5.51397 1.71599 6.08192 1.26958 6.72646 0.963344C7.371 0.657113 8.07583 0.498806 8.78941 0.5H8.79025L33.2097 0.5L33.2106 0.499999C33.9242 0.498806 34.629 0.657113 35.2735 0.963344C35.9181 1.26957 36.486 1.71599 36.9358 2.26994L36.9377 2.27224C37.3808 2.81132 37.6978 3.44262 37.8655 4.11998C38.0329 4.79592 38.0473 5.50067 37.9079 6.18288C37.5824 7.63479 37.0937 9.04525 36.4513 10.3874L36.1652 10.985L36.8184 11.0962C38.1253 11.3185 39.3117 11.9953 40.1682 13.0071C41.0248 14.0189 41.4964 15.3007 41.5 16.6263C41.4997 19.1191 40.5217 21.8213 38.154 23.906C35.7846 25.9923 31.9766 27.5 26.25 27.5H24.6033ZM35.0578 13.5H34.7738L34.6283 13.7439C32.5439 17.2394 29.8866 20.3596 26.7677 22.9741C26.3226 23.3314 25.9242 23.7434 25.5821 24.2003L24.9831 25H25.9823C30.5672 25 33.8136 23.9683 35.9271 22.3912C38.0497 20.8073 39 18.692 39 16.625C39 15.7962 38.6708 15.0013 38.0847 14.4153C37.4987 13.8292 36.7038 13.5 35.875 13.5H35.0578ZM7.36668 13.7443L7.2213 13.5H6.937H6.125C5.2962 13.5 4.50134 13.8292 3.91529 14.4153C3.32924 15.0013 3 15.7962 3 16.625C3 18.6914 3.94618 20.8067 6.06561 22.391C8.1757 23.9683 11.4189 25 16.0037 25H17.0059L16.4032 24.1993C16.0604 23.7438 15.6625 23.3324 15.2188 22.9745C12.1015 20.3607 9.44699 17.2403 7.36668 13.7443Z" fill="#FFD702" fill-opacity="0.75" stroke="black"/>
<path d="M6.54042 7.69695C6.64919 7.95077 6.94313 8.06835 7.19695 7.95958C7.45076 7.8508 7.56835 7.55687 7.45957 7.30305L6.54042 7.69695ZM11 3C11.2761 3 11.5 2.77614 11.5 2.5C11.5 2.22386 11.2761 2 11 2L11 3ZM7 7.5C7.45957 7.30305 7.45963 7.30319 7.45969 7.30331C7.4597 7.30335 7.45975 7.30346 7.45978 7.30353C7.45983 7.30366 7.45988 7.30376 7.45991 7.30383C7.45997 7.30397 7.45998 7.30399 7.45994 7.3039C7.45986 7.30371 7.45958 7.30305 7.45911 7.30194C7.45818 7.29971 7.4565 7.29564 7.45415 7.28982C7.44944 7.27817 7.44205 7.25952 7.43259 7.23446C7.41365 7.18431 7.38652 7.10882 7.35603 7.01278C7.29482 6.81993 7.22139 6.54839 7.17263 6.23551C7.07303 5.59636 7.08712 4.8554 7.43416 4.24807L6.56592 3.75193C6.05583 4.6446 6.06989 5.65364 6.18455 6.38948C6.24293 6.7641 6.3302 7.08632 6.4029 7.31534C6.43938 7.43024 6.47251 7.52272 6.49709 7.5878C6.50939 7.62037 6.51958 7.64615 6.52701 7.66453C6.53072 7.67372 6.53375 7.68107 6.53601 7.6865C6.53714 7.68921 6.53808 7.69144 6.53882 7.69319C6.53919 7.69406 6.53951 7.69481 6.53977 7.69544C6.53991 7.69575 6.54003 7.69604 6.54014 7.69629C6.54019 7.69641 6.54026 7.69658 6.54029 7.69664C6.54035 7.6968 6.54042 7.69695 7 7.5ZM7.43416 4.24807C7.58315 3.98733 7.8487 3.76372 8.21312 3.57858C8.5755 3.39446 9.00264 3.26536 9.4242 3.17683C9.84327 3.08882 10.2402 3.04431 10.5335 3.022C10.6796 3.01088 10.7985 3.00537 10.88 3.00265C10.9207 3.00129 10.9519 3.00063 10.9724 3.0003C10.9826 3.00014 10.9901 3.00007 10.9948 3.00003C10.9971 3.00001 10.9987 3.00001 10.9996 3C11 3 11.0003 3 11.0004 3C11.0004 3 11.0004 3 11.0003 3C11.0003 3 11.0002 3 11.0002 3C11.0001 3 11 3 11 2.5C11 2 10.9999 2 10.9997 2C10.9997 2 10.9995 2 10.9994 2C10.9991 2 10.9988 2 10.9985 2C10.9978 2 10.9969 2.00001 10.9958 2.00001C10.9937 2.00002 10.9908 2.00003 10.9871 2.00006C10.9798 2.00012 10.9696 2.00022 10.9566 2.00043C10.9306 2.00084 10.8935 2.00164 10.8466 2.00321C10.7528 2.00634 10.6196 2.01256 10.4576 2.02488C10.1349 2.04944 9.69247 2.09868 9.21869 2.19817C8.7474 2.29714 8.22812 2.44929 7.76016 2.68705C7.29422 2.92377 6.84549 3.26267 6.56592 3.75193L7.43416 4.24807Z" fill="white" fill-opacity="0.9"/>
</svg>
