<svg width="146" height="166" viewBox="0 0 146 166" fill="none" xmlns="http://www.w3.org/2000/svg">
<path d="M5.14883 60.3605L2.65327 60.2117L2.3556 65.2028L4.85117 65.3517L5.14883 60.3605ZM50 65.5399V68.0399L50.1488 63.0443L50 65.5399ZM5 65.5399V63.0399L4.80183 68.032L5 65.5399ZM50 69.1183V71.6183L50.1982 66.6261L50 69.1183ZM5 69.1183V66.6183L4.82647 71.6122L5 69.1183ZM50 72.2493V74.7493L50.1735 69.7554L50 72.2493ZM5 72.2493V69.7493L4.86353 74.7456L5 72.2493ZM50 74.7095L50.0869 77.2079L50.1365 72.2132L50 74.7095ZM5 76.275L4.91308 73.7765L4.85117 78.7706L5 76.275ZM50 78.9588L50.235 81.4477L50.1488 76.4632L50 78.9588ZM5 83.2081L4.76497 80.7192L5 85.7081V83.2081ZM47.4038 83.2081V85.7081L47.6531 80.7206L47.4038 83.2081ZM5 78.9588L5.24928 76.4712L4.49631 81.4075L5 78.9588ZM47.4038 87.6811V90.1811L47.9075 85.2323L47.4038 87.6811ZM5 87.6811V85.1811H0.854216L2.78892 88.8477L5 87.6811ZM7.59615 92.6013L5.38507 93.768L6.11568 95.1526L7.68038 95.0999L7.59615 92.6013ZM47.4038 91.2594L47.4881 93.758L47.5092 88.7616L47.4038 91.2594ZM5 89.4702L5.10539 86.9725L4.67319 91.9488L5 89.4702ZM47.4038 95.0614V97.5614L47.7307 92.5829L47.4038 95.0614ZM7.59615 95.0614V92.5614L7.38621 97.5526L7.59615 95.0614ZM47.4038 98.4162L47.5161 100.914L47.6138 95.925L47.4038 98.4162ZM7.4839 97.7079L4.98642 97.8201L5.21093 102.815L7.70841 102.703L7.4839 97.7079ZM27.5 81.0834L27.735 83.5724L27.5 81.0834ZM4.85117 65.3517L49.8512 68.0355L50.1488 63.0443L5.14883 60.3605L4.85117 65.3517ZM50 63.0399H5V68.0399H50V63.0399ZM4.80183 68.032L49.8018 71.6104L50.1982 66.6261L5.19817 63.0478L4.80183 68.032ZM50 66.6183H5V71.6183H50V66.6183ZM4.82647 71.6122L49.8265 74.7433L50.1735 69.7554L5.17353 66.6243L4.82647 71.6122ZM50 69.7493H5V74.7493H50V69.7493ZM4.86353 74.7456L49.8635 77.2057L50.1365 72.2132L5.13647 69.7531L4.86353 74.7456ZM49.9131 72.211L4.91308 73.7765L5.08692 78.7735L50.0869 77.2079L49.9131 72.211ZM4.85117 78.7706L49.8512 81.4543L50.1488 76.4632L5.14883 73.7794L4.85117 78.7706ZM5 85.7081H47.4038V80.7081H5V85.7081ZM47.6531 80.7206L5.24928 76.4712L4.75072 81.4463L47.1546 85.6956L47.6531 80.7206ZM4.49631 81.4075L46.9002 90.1298L47.9075 85.2323L5.50369 76.51L4.49631 81.4075ZM2.78892 88.8477L5.38507 93.768L9.80724 91.4346L7.21108 86.5144L2.78892 88.8477ZM7.68038 95.0999L47.4881 93.758L47.3196 88.7608L7.51193 90.1027L7.68038 95.0999ZM47.5092 88.7616L5.10539 86.9725L4.89461 91.968L47.2985 93.7572L47.5092 88.7616ZM4.67319 91.9488L47.077 97.54L47.7307 92.5829L5.32681 86.9917L4.67319 91.9488ZM47.4038 92.5614H7.59615V97.5614H47.4038V92.5614ZM7.38621 97.5526L47.1939 100.907L47.6138 95.925L7.80609 92.5703L7.38621 97.5526ZM47.2916 95.9187L7.4839 97.7079L7.70841 102.703L47.5161 100.914L47.2916 95.9187ZM49.765 76.4698L27.265 78.5945L27.735 83.5724L50.235 81.4477L49.765 76.4698ZM27.265 78.5945L4.76497 80.7192L5.23503 85.697L27.735 83.5724L27.265 78.5945ZM47.4038 85.1811H26.2019V90.1811H47.4038V85.1811ZM26.2019 85.1811H5V90.1811H26.2019V85.1811Z" fill="#A5EEA0" fill-opacity="0.9"/>
<path d="M5.14883 93.9116L2.65327 93.7627L2.3556 98.7539L4.85117 98.9027L5.14883 93.9116ZM50 99.0909V101.591L50.1488 96.5953L50 99.0909ZM5 99.0909V96.5909L4.80183 101.583L5 99.0909ZM50 102.669V105.169L50.1982 100.177L50 102.669ZM5 102.669V100.169L4.82647 105.163L5 102.669ZM50 105.8V108.3L50.1735 103.306L50 105.8ZM5 105.8V103.3L4.86353 108.297L5 105.8ZM50 108.26L50.0869 110.759L50.1365 105.764L50 108.26ZM5 109.826L4.91308 107.328L4.85117 112.322L5 109.826ZM50 112.51L50.235 114.999L50.1488 110.014L50 112.51ZM5 116.759L4.76497 114.27L5 119.259V116.759ZM47.4038 116.759V119.259L47.6531 114.272L47.4038 116.759ZM5 112.51L5.24928 110.022L4.49631 114.959L5 112.51ZM47.4038 121.232V123.732L47.9075 118.783L47.4038 121.232ZM5 121.232V118.732H0.854216L2.78892 122.399L5 121.232ZM7.59615 126.152L5.38507 127.319L6.11568 128.704L7.68038 128.651L7.59615 126.152ZM47.4038 124.81L47.4881 127.309L47.5092 122.313L47.4038 124.81ZM5 123.021L5.10539 120.523L4.67319 125.5L5 123.021ZM47.4038 128.612V131.112L47.7307 126.134L47.4038 128.612ZM7.59615 128.612V126.112L7.38621 131.104L7.59615 128.612ZM47.4038 131.967L47.5161 134.465L47.6138 129.476L47.4038 131.967ZM7.4839 131.259L4.98642 131.371L5.21093 136.366L7.70841 136.254L7.4839 131.259ZM27.5 114.634L27.735 117.123L27.5 114.634ZM4.85117 98.9027L49.8512 101.586L50.1488 96.5953L5.14883 93.9116L4.85117 98.9027ZM50 96.5909H5V101.591H50V96.5909ZM4.80183 101.583L49.8018 105.161L50.1982 100.177L5.19817 96.5988L4.80183 101.583ZM50 100.169H5V105.169H50V100.169ZM4.82647 105.163L49.8265 108.294L50.1735 103.306L5.17353 100.175L4.82647 105.163ZM50 103.3H5V108.3H50V103.3ZM4.86353 108.297L49.8635 110.757L50.1365 105.764L5.13647 103.304L4.86353 108.297ZM49.9131 105.762L4.91308 107.328L5.08692 112.325L50.0869 110.759L49.9131 105.762ZM4.85117 112.322L49.8512 115.005L50.1488 110.014L5.14883 107.33L4.85117 112.322ZM5 119.259H47.4038V114.259H5V119.259ZM47.6531 114.272L5.24928 110.022L4.75072 114.997L47.1546 119.247L47.6531 114.272ZM4.49631 114.959L46.9002 123.681L47.9075 118.783L5.50369 110.061L4.49631 114.959ZM2.78892 122.399L5.38507 127.319L9.80724 124.986L7.21108 120.065L2.78892 122.399ZM7.68038 128.651L47.4881 127.309L47.3196 122.312L7.51193 123.654L7.68038 128.651ZM47.5092 122.313L5.10539 120.523L4.89461 125.519L47.2985 127.308L47.5092 122.313ZM4.67319 125.5L47.077 131.091L47.7307 126.134L5.32681 120.543L4.67319 125.5ZM47.4038 126.112H7.59615V131.112H47.4038V126.112ZM7.38621 131.104L47.1939 134.458L47.6138 129.476L7.80609 126.121L7.38621 131.104ZM47.2916 129.47L7.4839 131.259L7.70841 136.254L47.5161 134.465L47.2916 129.47ZM49.765 110.021L27.265 112.146L27.735 117.123L50.235 114.999L49.765 110.021ZM27.265 112.146L4.76497 114.27L5.23503 119.248L27.735 117.123L27.265 112.146ZM47.4038 118.732H26.2019V123.732H47.4038V118.732ZM26.2019 118.732H5V123.732H26.2019V118.732Z" fill="#A5EEA0" fill-opacity="0.9"/>
<path d="M5.14883 88.4531L2.65327 88.3042L2.3556 93.2954L4.85117 93.4442L5.14883 88.4531ZM50 93.6324V96.1324L50.1488 91.1369L50 93.6324ZM5 93.6324V91.1324L4.80183 96.1245L5 93.6324ZM50 97.2108V99.7108L50.1982 94.7187L50 97.2108ZM5 97.2108V94.7108L4.82647 99.7048L5 97.2108ZM50 100.342V102.842L50.1735 97.8479L50 100.342ZM5 100.342V97.8419L4.86353 102.838L5 100.342ZM50 102.802L50.0869 105.3L50.1365 100.306L50 102.802ZM5 104.368L4.91308 101.869L4.85117 106.863L5 104.368ZM50 107.051L50.235 109.54L50.1488 104.556L50 107.051ZM5 111.301L4.76497 108.812L5 113.801V111.301ZM47.4038 111.301V113.801L47.6531 108.813L47.4038 111.301ZM5 107.051L5.24928 104.564L4.49631 109.5L5 107.051ZM47.4038 115.774V118.274L47.9075 113.325L47.4038 115.774ZM5 115.774V113.274H0.854216L2.78892 116.94L5 115.774ZM7.59615 120.694L5.38507 121.861L6.11568 123.245L7.68038 123.192L7.59615 120.694ZM47.4038 119.352L47.4881 121.851L47.5092 116.854L47.4038 119.352ZM5 117.563L5.10539 115.065L4.67319 120.041L5 117.563ZM47.4038 123.154V125.654L47.7307 120.675L47.4038 123.154ZM7.59615 123.154V120.654L7.38621 125.645L7.59615 123.154ZM47.4038 126.509L47.5161 129.006L47.6138 124.018L47.4038 126.509ZM7.4839 125.8L4.98642 125.913L5.21093 130.908L7.70841 130.795L7.4839 125.8ZM27.5 109.176L27.735 111.665L27.5 109.176ZM4.85117 93.4442L49.8512 96.128L50.1488 91.1369L5.14883 88.4531L4.85117 93.4442ZM50 91.1324H5V96.1324H50V91.1324ZM4.80183 96.1245L49.8018 99.7029L50.1982 94.7187L5.19817 91.1403L4.80183 96.1245ZM50 94.7108H5V99.7108H50V94.7108ZM4.82647 99.7048L49.8265 102.836L50.1735 97.8479L5.17353 94.7168L4.82647 99.7048ZM50 97.8419H5V102.842H50V97.8419ZM4.86353 102.838L49.8635 105.298L50.1365 100.306L5.13647 97.8456L4.86353 102.838ZM49.9131 100.304L4.91308 101.869L5.08692 106.866L50.0869 105.3L49.9131 100.304ZM4.85117 106.863L49.8512 109.547L50.1488 104.556L5.14883 101.872L4.85117 106.863ZM5 113.801H47.4038V108.801H5V113.801ZM47.6531 108.813L5.24928 104.564L4.75072 109.539L47.1546 113.788L47.6531 108.813ZM4.49631 109.5L46.9002 118.222L47.9075 113.325L5.50369 104.603L4.49631 109.5ZM2.78892 116.94L5.38507 121.861L9.80724 119.527L7.21108 114.607L2.78892 116.94ZM7.68038 123.192L47.4881 121.851L47.3196 116.853L7.51193 118.195L7.68038 123.192ZM47.5092 116.854L5.10539 115.065L4.89461 120.061L47.2985 121.85L47.5092 116.854ZM4.67319 120.041L47.077 125.633L47.7307 120.675L5.32681 115.084L4.67319 120.041ZM47.4038 120.654H7.59615V125.654H47.4038V120.654ZM7.38621 125.645L47.1939 129L47.6138 124.018L7.80609 120.663L7.38621 125.645ZM47.2916 124.011L7.4839 125.8L7.70841 130.795L47.5161 129.006L47.2916 124.011ZM49.765 104.562L27.265 106.687L27.735 111.665L50.235 109.54L49.765 104.562ZM27.265 106.687L4.76497 108.812L5.23503 113.79L27.735 111.665L27.265 106.687ZM47.4038 113.274H26.2019V118.274H47.4038V113.274ZM26.2019 113.274H5V118.274H26.2019V113.274Z" fill="#A5EEA0" fill-opacity="0.9"/>
<path d="M5.14883 122.004L2.65327 121.855L2.3556 126.846L4.85117 126.995L5.14883 122.004ZM50 127.183V129.683L50.1488 124.688L50 127.183ZM5 127.183V124.683L4.80183 129.676L5 127.183ZM50 130.762V133.262L50.1982 128.27L50 130.762ZM5 130.762V128.262L4.82647 133.256L5 130.762ZM50 133.893V136.393L50.1735 131.399L50 133.893ZM5 133.893V131.393L4.86353 136.389L5 133.893ZM50 136.353L50.0869 138.852L50.1365 133.857L50 136.353ZM5 137.919L4.91308 135.42L4.85117 140.414L5 137.919ZM50 140.602L50.235 143.091L50.1488 138.107L50 140.602ZM5 144.852L4.76497 142.363L5 147.352V144.852ZM47.4038 144.852V147.352L47.6531 142.364L47.4038 144.852ZM5 140.602L5.24928 138.115L4.49631 143.051L5 140.602ZM47.4038 149.325V151.825L47.9075 146.876L47.4038 149.325ZM5 149.325V146.825H0.854216L2.78892 150.491L5 149.325ZM7.59615 154.245L5.38507 155.412L6.11568 156.796L7.68038 156.743L7.59615 154.245ZM47.4038 152.903L47.4881 155.402L47.5092 150.405L47.4038 152.903ZM5 151.114L5.10539 148.616L4.67319 153.592L5 151.114ZM47.4038 156.705V159.205L47.7307 154.226L47.4038 156.705ZM7.59615 156.705V154.205L7.38621 159.196L7.59615 156.705ZM47.4038 160.06L47.5161 162.557L47.6138 157.569L47.4038 160.06ZM7.4839 159.351L4.98642 159.464L5.21093 164.459L7.70841 164.346L7.4839 159.351ZM27.5 142.727L27.735 145.216L27.5 142.727ZM4.85117 126.995L49.8512 129.679L50.1488 124.688L5.14883 122.004L4.85117 126.995ZM50 124.683H5V129.683H50V124.683ZM4.80183 129.676L49.8018 133.254L50.1982 128.27L5.19817 124.691L4.80183 129.676ZM50 128.262H5V133.262H50V128.262ZM4.82647 133.256L49.8265 136.387L50.1735 131.399L5.17353 128.268L4.82647 133.256ZM50 131.393H5V136.393H50V131.393ZM4.86353 136.389L49.8635 138.849L50.1365 133.857L5.13647 131.397L4.86353 136.389ZM49.9131 133.855L4.91308 135.42L5.08692 140.417L50.0869 138.852L49.9131 133.855ZM4.85117 140.414L49.8512 143.098L50.1488 138.107L5.14883 135.423L4.85117 140.414ZM5 147.352H47.4038V142.352H5V147.352ZM47.6531 142.364L5.24928 138.115L4.75072 143.09L47.1546 147.339L47.6531 142.364ZM4.49631 143.051L46.9002 151.773L47.9075 146.876L5.50369 138.154L4.49631 143.051ZM2.78892 150.491L5.38507 155.412L9.80724 153.078L7.21108 148.158L2.78892 150.491ZM7.68038 156.743L47.4881 155.402L47.3196 150.404L7.51193 151.746L7.68038 156.743ZM47.5092 150.405L5.10539 148.616L4.89461 153.612L47.2985 155.401L47.5092 150.405ZM4.67319 153.592L47.077 159.184L47.7307 154.226L5.32681 148.635L4.67319 153.592ZM47.4038 154.205H7.59615V159.205H47.4038V154.205ZM7.38621 159.196L47.1939 162.551L47.6138 157.569L7.80609 154.214L7.38621 159.196ZM47.2916 157.562L7.4839 159.351L7.70841 164.346L47.5161 162.557L47.2916 157.562ZM49.765 138.113L27.265 140.238L27.735 145.216L50.235 143.091L49.765 138.113ZM27.265 140.238L4.76497 142.363L5.23503 147.341L27.735 145.216L27.265 140.238ZM47.4038 146.825H26.2019V151.825H47.4038V146.825ZM26.2019 146.825H5V151.825H26.2019V146.825Z" fill="#A5EEA0" fill-opacity="0.9"/>
<path d="M55.2453 0.512061L52.7573 0.266788L52.2668 5.24267L54.7547 5.48794L55.2453 0.512061ZM99 7.33773V9.83773L99.2453 4.84979L99 7.33773ZM55 7.33773V4.83773L54.6742 9.81641L55 7.33773ZM99 13.1214V15.6214L99.3258 10.6427L99 13.1214ZM55 13.1214V10.6214L54.7143 15.605L55 13.1214ZM99 18.1821V20.6821L99.2857 15.6984L99 18.1821ZM55 18.1821V15.6821L54.775 20.6719L55 18.1821ZM99 22.1583L99.1435 24.6542L99.225 19.6685L99 22.1583ZM55 24.6887L54.8565 22.1928L54.7547 27.1766L55 24.6887ZM99 29.0264L99.3856 31.4965L99.2453 26.5385L99 29.0264ZM55 35.8945L54.6144 33.4244L55 38.3945V35.8945ZM96.4615 35.8945V38.3945L96.8701 33.4281L96.4615 35.8945ZM55 29.0264L55.4086 26.56L54.1952 31.3933L55 29.0264ZM96.4615 43.124V45.624L97.2663 40.7571L96.4615 43.124ZM55 43.124V40.624H51.5777L52.6184 43.8843L55 43.124ZM57.5385 51.0765L55.1569 51.8368L55.7453 53.6803L57.6776 53.5727L57.5385 51.0765ZM96.4615 48.9077L96.6006 51.4038L96.6355 46.4137L96.4615 48.9077ZM55 46.0159L55.1739 43.5219L54.4676 48.4585L55 46.0159ZM96.4615 55.0528V57.5528L96.9939 52.6101L96.4615 55.0528ZM57.5385 55.0528V52.5528L57.1935 57.5289L57.5385 55.0528ZM96.4615 60.475L96.6468 62.9681L96.8065 57.9989L96.4615 60.475ZM57.3532 60.8737L54.8601 61.0589L55.2306 66.0452L57.7237 65.8599L57.3532 60.8737ZM77 32.4604L77.3856 34.9305L77 32.4604ZM54.7547 5.48794L98.7547 9.82567L99.2453 4.84979L55.2453 0.512061L54.7547 5.48794ZM99 4.83773H55V9.83773H99V4.83773ZM54.6742 9.81641L98.6742 15.6001L99.3258 10.6427L55.3258 4.85906L54.6742 9.81641ZM99 10.6214H55V15.6214H99V10.6214ZM54.7143 15.605L98.7143 20.6657L99.2857 15.6984L55.2857 10.6378L54.7143 15.605ZM99 15.6821H55V20.6821H99V15.6821ZM54.775 20.6719L98.775 24.6482L99.225 19.6685L55.225 15.6922L54.775 20.6719ZM98.8565 19.6624L54.8565 22.1928L55.1435 27.1845L99.1435 24.6542L98.8565 19.6624ZM54.7547 27.1766L98.7547 31.5143L99.2453 26.5385L55.2453 22.2007L54.7547 27.1766ZM55 38.3945H96.4615V33.3945H55V38.3945ZM96.8701 33.4281L55.4086 26.56L54.5914 31.4928L96.053 38.3609L96.8701 33.4281ZM54.1952 31.3933L95.6567 45.491L97.2663 40.7571L55.8048 26.6595L54.1952 31.3933ZM52.6184 43.8843L55.1569 51.8368L59.9201 50.3163L57.3816 42.3638L52.6184 43.8843ZM57.6776 53.5727L96.6006 51.4038L96.3225 46.4115L57.3994 48.5804L57.6776 53.5727ZM96.6355 46.4137L55.1739 43.5219L54.8261 48.5098L96.2876 51.4016L96.6355 46.4137ZM54.4676 48.4585L95.9291 57.4955L96.9939 52.6101L55.5324 43.5732L54.4676 48.4585ZM96.4615 52.5528H57.5385V57.5528H96.4615V52.5528ZM57.1935 57.5289L96.1166 62.9511L96.8065 57.9989L57.8834 52.5767L57.1935 57.5289ZM96.2763 57.9818L57.3532 60.8737L57.7237 65.8599L96.6468 62.9681L96.2763 57.9818ZM98.6144 26.5563L76.6144 29.9904L77.3856 34.9305L99.3856 31.4965L98.6144 26.5563ZM76.6144 29.9904L54.6144 33.4244L55.3856 38.3646L77.3856 34.9305L76.6144 29.9904ZM96.4615 40.624H75.7308V45.624H96.4615V40.624ZM75.7308 40.624H55V45.624H75.7308V40.624Z" fill="#A5EEA0" fill-opacity="0.9"/>
<path d="M55.2453 54.7398L52.7573 54.4946L52.2668 59.4704L54.7547 59.7157L55.2453 54.7398ZM99 61.5655V64.0655L99.2453 59.0776L99 61.5655ZM55 61.5655V59.0655L54.6742 64.0442L55 61.5655ZM99 67.3492V69.8492L99.3258 64.8705L99 67.3492ZM55 67.3492V64.8492L54.7143 69.8328L55 67.3492ZM99 72.4099V74.9099L99.2857 69.9262L99 72.4099ZM55 72.4099V69.9099L54.775 74.8997L55 72.4099ZM99 76.3861L99.1435 78.882L99.225 73.8963L99 76.3861ZM55 78.9165L54.8565 76.4206L54.7547 81.4044L55 78.9165ZM99 83.2542L99.3856 85.7243L99.2453 80.7662L99 83.2542ZM55 90.1223L54.6144 87.6522L55 92.6223V90.1223ZM96.4615 90.1223V92.6223L96.8701 87.6559L96.4615 90.1223ZM55 83.2542L55.4086 80.7878L54.1952 85.6211L55 83.2542ZM96.4615 97.3518V99.8518L97.2663 94.9849L96.4615 97.3518ZM55 97.3518V94.8518H51.5777L52.6184 98.112L55 97.3518ZM57.5385 105.304L55.1569 106.065L55.7453 107.908L57.6776 107.8L57.5385 105.304ZM96.4615 103.135L96.6006 105.632L96.6355 100.642L96.4615 103.135ZM55 100.244L55.1739 97.7497L54.4676 102.686L55 100.244ZM96.4615 109.281V111.781L96.9939 106.838L96.4615 109.281ZM57.5385 109.281V106.781L57.1935 111.757L57.5385 109.281ZM96.4615 114.703L96.6468 117.196L96.8065 112.227L96.4615 114.703ZM57.3532 115.101L54.8601 115.287L55.2306 120.273L57.7237 120.088L57.3532 115.101ZM77 86.6882L77.3856 89.1583L77 86.6882ZM54.7547 59.7157L98.7547 64.0535L99.2453 59.0776L55.2453 54.7398L54.7547 59.7157ZM99 59.0655H55V64.0655H99V59.0655ZM54.6742 64.0442L98.6742 69.8278L99.3258 64.8705L55.3258 59.0868L54.6742 64.0442ZM99 64.8492H55V69.8492H99V64.8492ZM54.7143 69.8328L98.7143 74.8935L99.2857 69.9262L55.2857 64.8655L54.7143 69.8328ZM99 69.9099H55V74.9099H99V69.9099ZM54.775 74.8997L98.775 78.876L99.225 73.8963L55.225 69.92L54.775 74.8997ZM98.8565 73.8902L54.8565 76.4206L55.1435 81.4123L99.1435 78.882L98.8565 73.8902ZM54.7547 81.4044L98.7547 85.7421L99.2453 80.7662L55.2453 76.4285L54.7547 81.4044ZM55 92.6223H96.4615V87.6223H55V92.6223ZM96.8701 87.6559L55.4086 80.7878L54.5914 85.7206L96.053 92.5887L96.8701 87.6559ZM54.1952 85.6211L95.6567 99.7187L97.2663 94.9849L55.8048 80.8873L54.1952 85.6211ZM52.6184 98.112L55.1569 106.065L59.9201 104.544L57.3816 96.5916L52.6184 98.112ZM57.6776 107.8L96.6006 105.632L96.3225 100.639L57.3994 102.808L57.6776 107.8ZM96.6355 100.642L55.1739 97.7497L54.8261 102.738L96.2876 105.629L96.6355 100.642ZM54.4676 102.686L95.9291 111.723L96.9939 106.838L55.5324 97.801L54.4676 102.686ZM96.4615 106.781H57.5385V111.781H96.4615V106.781ZM57.1935 111.757L96.1166 117.179L96.8065 112.227L57.8834 106.804L57.1935 111.757ZM96.2763 112.21L57.3532 115.101L57.7237 120.088L96.6468 117.196L96.2763 112.21ZM98.6144 80.7841L76.6144 84.2181L77.3856 89.1583L99.3856 85.7243L98.6144 80.7841ZM76.6144 84.2181L54.6144 87.6522L55.3856 92.5924L77.3856 89.1583L76.6144 84.2181ZM96.4615 94.8518H75.7308V99.8518H96.4615V94.8518ZM75.7308 94.8518H55V99.8518H75.7308V94.8518Z" fill="#A5EEA0" fill-opacity="0.9"/>
<path d="M55.2453 45.9175L52.7573 45.6722L52.2668 50.6481L54.7547 50.8934L55.2453 45.9175ZM99 52.7432V55.2432L99.2453 50.2552L99 52.7432ZM55 52.7432V50.2432L54.6742 55.2218L55 52.7432ZM99 58.5268V61.0268L99.3258 56.0481L99 58.5268ZM55 58.5268V56.0268L54.7143 61.0104L55 58.5268ZM99 63.5875V66.0875L99.2857 61.1039L99 63.5875ZM55 63.5875V61.0875L54.775 66.0773L55 63.5875ZM99 67.5637L99.1435 70.0596L99.225 65.0739L99 67.5637ZM55 70.0941L54.8565 67.5982L54.7547 72.582L55 70.0941ZM99 74.4318L99.3856 76.9019L99.2453 71.9439L99 74.4318ZM55 81.2999L54.6144 78.8298L55 83.7999V81.2999ZM96.4615 81.2999V83.7999L96.8701 78.8335L96.4615 81.2999ZM55 74.4318L55.4086 71.9654L54.1952 76.7987L55 74.4318ZM96.4615 88.5295V91.0295L97.2663 86.1625L96.4615 88.5295ZM55 88.5295V86.0295H51.5777L52.6184 89.2897L55 88.5295ZM57.5385 96.482L55.1569 97.2422L55.7453 99.0858L57.6776 98.9781L57.5385 96.482ZM96.4615 94.3131L96.6006 96.8092L96.6355 91.8192L96.4615 94.3131ZM55 91.4213L55.1739 88.9273L54.4676 93.8639L55 91.4213ZM96.4615 100.458V102.958L96.9939 98.0156L96.4615 100.458ZM57.5385 100.458V97.9582L57.1935 102.934L57.5385 100.458ZM96.4615 105.88L96.6468 108.374L96.8065 103.404L96.4615 105.88ZM57.3532 106.279L54.8601 106.464L55.2306 111.451L57.7237 111.265L57.3532 106.279ZM77 77.8659L77.3856 80.336L77 77.8659ZM54.7547 50.8934L98.7547 55.2311L99.2453 50.2552L55.2453 45.9175L54.7547 50.8934ZM99 50.2432H55V55.2432H99V50.2432ZM54.6742 55.2218L98.6742 61.0055L99.3258 56.0481L55.3258 50.2645L54.6742 55.2218ZM99 56.0268H55V61.0268H99V56.0268ZM54.7143 61.0104L98.7143 66.0711L99.2857 61.1039L55.2857 56.0432L54.7143 61.0104ZM99 61.0875H55V66.0875H99V61.0875ZM54.775 66.0773L98.775 70.0536L99.225 65.0739L55.225 61.0976L54.775 66.0773ZM98.8565 65.0679L54.8565 67.5982L55.1435 72.59L99.1435 70.0596L98.8565 65.0679ZM54.7547 72.582L98.7547 76.9198L99.2453 71.9439L55.2453 67.6062L54.7547 72.582ZM55 83.7999H96.4615V78.7999H55V83.7999ZM96.8701 78.8335L55.4086 71.9654L54.5914 76.8982L96.053 83.7663L96.8701 78.8335ZM54.1952 76.7987L95.6567 90.8964L97.2663 86.1625L55.8048 72.0649L54.1952 76.7987ZM52.6184 89.2897L55.1569 97.2422L59.9201 95.7218L57.3816 87.7692L52.6184 89.2897ZM57.6776 98.9781L96.6006 96.8092L96.3225 91.817L57.3994 93.9858L57.6776 98.9781ZM96.6355 91.8192L55.1739 88.9273L54.8261 93.9152L96.2876 96.807L96.6355 91.8192ZM54.4676 93.8639L95.9291 102.901L96.9939 98.0156L55.5324 88.9786L54.4676 93.8639ZM96.4615 97.9582H57.5385V102.958H96.4615V97.9582ZM57.1935 102.934L96.1166 108.356L96.8065 103.404L57.8834 97.9821L57.1935 102.934ZM96.2763 103.387L57.3532 106.279L57.7237 111.265L96.6468 108.374L96.2763 103.387ZM98.6144 71.9617L76.6144 75.3958L77.3856 80.336L99.3856 76.9019L98.6144 71.9617ZM76.6144 75.3958L54.6144 78.8298L55.3856 83.77L77.3856 80.336L76.6144 75.3958ZM96.4615 86.0295H75.7308V91.0295H96.4615V86.0295ZM75.7308 86.0295H55V91.0295H75.7308V86.0295Z" fill="#A5EEA0" fill-opacity="0.9"/>
<path d="M55.2453 100.145L52.7573 99.9L52.2668 104.876L54.7547 105.121L55.2453 100.145ZM99 106.971V109.471L99.2453 104.483L99 106.971ZM55 106.971V104.471L54.6742 109.45L55 106.971ZM99 112.755V115.255L99.3258 110.276L99 112.755ZM55 112.755V110.255L54.7143 115.238L55 112.755ZM99 117.815V120.315L99.2857 115.332L99 117.815ZM55 117.815V115.315L54.775 120.305L55 117.815ZM99 121.792L99.1435 124.287L99.225 119.302L99 121.792ZM55 124.322L54.8565 121.826L54.7547 126.81L55 124.322ZM99 128.66L99.3856 131.13L99.2453 126.172L99 128.66ZM55 135.528L54.6144 133.058L55 138.028V135.528ZM96.4615 135.528V138.028L96.8701 133.061L96.4615 135.528ZM55 128.66L55.4086 126.193L54.1952 131.026L55 128.66ZM96.4615 142.757V145.257L97.2663 140.39L96.4615 142.757ZM55 142.757V140.257H51.5777L52.6184 143.517L55 142.757ZM57.5385 150.71L55.1569 151.47L55.7453 153.314L57.6776 153.206L57.5385 150.71ZM96.4615 148.541L96.6006 151.037L96.6355 146.047L96.4615 148.541ZM55 145.649L55.1739 143.155L54.4676 148.092L55 145.649ZM96.4615 154.686V157.186L96.9939 152.243L96.4615 154.686ZM57.5385 154.686V152.186L57.1935 157.162L57.5385 154.686ZM96.4615 160.108L96.6468 162.601L96.8065 157.632L96.4615 160.108ZM57.3532 160.507L54.8601 160.692L55.2306 165.678L57.7237 165.493L57.3532 160.507ZM77 132.094L77.3856 134.564L77 132.094ZM54.7547 105.121L98.7547 109.459L99.2453 104.483L55.2453 100.145L54.7547 105.121ZM99 104.471H55V109.471H99V104.471ZM54.6742 109.45L98.6742 115.233L99.3258 110.276L55.3258 104.492L54.6742 109.45ZM99 110.255H55V115.255H99V110.255ZM54.7143 115.238L98.7143 120.299L99.2857 115.332L55.2857 110.271L54.7143 115.238ZM99 115.315H55V120.315H99V115.315ZM54.775 120.305L98.775 124.281L99.225 119.302L55.225 115.325L54.775 120.305ZM98.8565 119.296L54.8565 121.826L55.1435 126.818L99.1435 124.287L98.8565 119.296ZM54.7547 126.81L98.7547 131.148L99.2453 126.172L55.2453 121.834L54.7547 126.81ZM55 138.028H96.4615V133.028H55V138.028ZM96.8701 133.061L55.4086 126.193L54.5914 131.126L96.053 137.994L96.8701 133.061ZM54.1952 131.026L95.6567 145.124L97.2663 140.39L55.8048 126.293L54.1952 131.026ZM52.6184 143.517L55.1569 151.47L59.9201 149.95L57.3816 141.997L52.6184 143.517ZM57.6776 153.206L96.6006 151.037L96.3225 146.045L57.3994 148.214L57.6776 153.206ZM96.6355 146.047L55.1739 143.155L54.8261 148.143L96.2876 151.035L96.6355 146.047ZM54.4676 148.092L95.9291 157.129L96.9939 152.243L55.5324 143.206L54.4676 148.092ZM96.4615 152.186H57.5385V157.186H96.4615V152.186ZM57.1935 157.162L96.1166 162.584L96.8065 157.632L57.8834 152.21L57.1935 157.162ZM96.2763 157.615L57.3532 160.507L57.7237 165.493L96.6468 162.601L96.2763 157.615ZM98.6144 126.189L76.6144 129.624L77.3856 134.564L99.3856 131.13L98.6144 126.189ZM76.6144 129.624L54.6144 133.058L55.3856 137.998L77.3856 134.564L76.6144 129.624ZM96.4615 140.257H75.7308V145.257H96.4615V140.257ZM75.7308 140.257H55V145.257H75.7308V140.257Z" fill="#A5EEA0" fill-opacity="0.9"/>
<path d="M105.109 91.4376L102.612 91.3285L102.393 96.3237L104.891 96.4329L105.109 91.4376ZM145 95.6828V98.1828L145.109 93.1852L145 95.6828ZM105 95.6828V93.1828L104.855 98.1786L105 95.6828ZM145 98.0129V100.513L145.145 95.5172L145 98.0129ZM105 98.0129V95.5129L104.873 100.51L105 98.0129ZM145 100.052V102.552L145.127 97.555L145 100.052ZM105 100.052V97.5518L104.9 102.55L105 100.052ZM145 101.654L145.064 104.153L145.1 99.1557L145 101.654ZM105 102.673L104.936 100.174L104.891 105.171L105 102.673ZM145 104.421L145.173 106.915L145.109 101.923L145 104.421ZM105 107.188L104.827 104.694L105 109.688V107.188ZM142.692 107.188V109.688L142.875 104.694L142.692 107.188ZM105 104.421L105.183 101.927L104.627 106.893L105 104.421ZM142.692 110.1V112.6L143.065 107.628L142.692 110.1ZM105 110.1V107.6H100.118L102.971 111.561L105 110.1ZM107.308 113.304L105.279 114.765L106.05 115.836L107.369 115.803L107.308 113.304ZM142.692 112.43L142.754 114.93L142.77 109.932L142.692 112.43ZM105 111.265L105.077 108.767L104.76 113.754L105 111.265ZM142.692 114.906V117.406L142.933 112.418L142.692 114.906ZM107.308 114.906V112.406L107.154 117.401L107.308 114.906ZM142.692 117.091L142.775 119.589L142.846 114.595L142.692 117.091ZM107.225 115.757L104.727 115.839L104.891 120.837L107.39 120.754L107.225 115.757ZM125 105.804L125.173 108.298L125 105.804ZM104.891 96.4329L144.891 98.1804L145.109 93.1852L105.109 91.4376L104.891 96.4329ZM145 93.1828H105V98.1828H145V93.1828ZM104.855 98.1786L144.855 100.509L145.145 95.5172L105.145 93.187L104.855 98.1786ZM145 95.5129H105V100.513H145V95.5129ZM104.873 100.51L144.873 102.549L145.127 97.555L105.127 95.5162L104.873 100.51ZM145 97.5518H105V102.552H145V97.5518ZM104.9 102.55L144.9 104.152L145.1 99.1557L105.1 97.5538L104.9 102.55ZM144.936 99.1545L104.936 100.174L105.064 105.172L145.064 104.153L144.936 99.1545ZM104.891 105.171L144.891 106.918L145.109 101.923L105.109 100.176L104.891 105.171ZM105 109.688H142.692V104.688H105V109.688ZM142.875 104.694L105.183 101.927L104.817 106.914L142.509 109.681L142.875 104.694ZM104.627 106.893L142.32 112.572L143.065 107.628L105.373 101.949L104.627 106.893ZM102.971 111.561L105.279 114.765L109.336 111.843L107.029 108.639L102.971 111.561ZM107.369 115.803L142.754 114.93L142.631 109.931L107.246 110.805L107.369 115.803ZM142.77 109.932L105.077 108.767L104.923 113.764L142.615 114.929L142.77 109.932ZM104.76 113.754L142.452 117.395L142.933 112.418L105.24 108.777L104.76 113.754ZM142.692 112.406H107.308V117.406H142.692V112.406ZM107.154 117.401L142.538 119.586L142.846 114.595L107.462 112.411L107.154 117.401ZM142.61 114.592L107.225 115.757L107.39 120.754L142.775 119.589L142.61 114.592ZM144.827 101.927L124.827 103.31L125.173 108.298L145.173 106.915L144.827 101.927ZM124.827 103.31L104.827 104.694L105.173 109.682L125.173 108.298L124.827 103.31ZM142.692 107.6H123.846V112.6H142.692V107.6ZM123.846 107.6H105V112.6H123.846V107.6Z" fill="#A5EEA0" fill-opacity="0.9"/>
<path d="M105.109 113.285L102.612 113.176L102.393 118.171L104.891 118.28L105.109 113.285ZM145 117.53V120.03L145.109 115.032L145 117.53ZM105 117.53V115.03L104.855 120.026L105 117.53ZM145 119.86V122.36L145.145 117.364L145 119.86ZM105 119.86V117.36L104.873 122.357L105 119.86ZM145 121.899V124.399L145.127 119.402L145 121.899ZM105 121.899V119.399L104.9 124.397L105 121.899ZM145 123.501L145.064 126L145.1 121.003L145 123.501ZM105 124.52L104.936 122.021L104.891 127.018L105 124.52ZM145 126.268L145.173 128.762L145.109 123.77L145 126.268ZM105 129.035L104.827 126.541L105 131.535V129.035ZM142.692 129.035V131.535L142.875 126.542L142.692 129.035ZM105 126.268L105.183 123.775L104.627 128.74L105 126.268ZM142.692 131.948V134.448L143.065 129.475L142.692 131.948ZM105 131.948V129.448H100.118L102.971 133.409L105 131.948ZM107.308 135.151L105.279 136.613L106.05 137.683L107.369 137.651L107.308 135.151ZM142.692 134.278L142.754 136.777L142.77 131.779L142.692 134.278ZM105 133.113L105.077 130.614L104.76 135.601L105 133.113ZM142.692 136.753V139.253L142.933 134.265L142.692 136.753ZM107.308 136.753V134.253L107.154 139.249L107.308 136.753ZM142.692 138.938L142.775 141.436L142.846 136.443L142.692 138.938ZM107.225 137.604L104.727 137.686L104.891 142.684L107.39 142.602L107.225 137.604ZM125 127.651L125.173 130.145L125 127.651ZM104.891 118.28L144.891 120.028L145.109 115.032L105.109 113.285L104.891 118.28ZM145 115.03H105V120.03H145V115.03ZM104.855 120.026L144.855 122.356L145.145 117.364L105.145 115.034L104.855 120.026ZM145 117.36H105V122.36H145V117.36ZM104.873 122.357L144.873 124.396L145.127 119.402L105.127 117.363L104.873 122.357ZM145 119.399H105V124.399H145V119.399ZM104.9 124.397L144.9 125.999L145.1 121.003L105.1 119.401L104.9 124.397ZM144.936 121.002L104.936 122.021L105.064 127.02L145.064 126L144.936 121.002ZM104.891 127.018L144.891 128.766L145.109 123.77L105.109 122.023L104.891 127.018ZM105 131.535H142.692V126.535H105V131.535ZM142.875 126.542L105.183 123.775L104.817 128.761L142.509 131.528L142.875 126.542ZM104.627 128.74L142.32 134.42L143.065 129.475L105.373 123.796L104.627 128.74ZM102.971 133.409L105.279 136.613L109.336 133.69L107.029 130.486L102.971 133.409ZM107.369 137.651L142.754 136.777L142.631 131.778L107.246 132.652L107.369 137.651ZM142.77 131.779L105.077 130.614L104.923 135.611L142.615 136.776L142.77 131.779ZM104.76 135.601L142.452 139.242L142.933 134.265L105.24 130.624L104.76 135.601ZM142.692 134.253H107.308V139.253H142.692V134.253ZM107.154 139.249L142.538 141.433L142.846 136.443L107.462 134.258L107.154 139.249ZM142.61 136.439L107.225 137.604L107.39 142.602L142.775 141.436L142.61 136.439ZM144.827 123.774L124.827 125.157L125.173 130.145L145.173 128.762L144.827 123.774ZM124.827 125.157L104.827 126.541L105.173 131.529L125.173 130.145L124.827 125.157ZM142.692 129.448H123.846V134.448H142.692V129.448ZM123.846 129.448H105V134.448H123.846V129.448Z" fill="#A5EEA0" fill-opacity="0.9"/>
<path d="M105.109 109.73L102.612 109.621L102.393 114.617L104.891 114.726L105.109 109.73ZM145 113.976V116.476L145.109 111.478L145 113.976ZM105 113.976V111.476L104.855 116.471L105 113.976ZM145 116.306V118.806L145.145 113.81L145 116.306ZM105 116.306V113.806L104.873 118.802L105 116.306ZM145 118.345V120.845L145.127 115.848L145 118.345ZM105 118.345V115.845L104.9 120.843L105 118.345ZM145 119.947L145.064 122.446L145.1 117.449L145 119.947ZM105 120.966L104.936 118.467L104.891 123.464L105 120.966ZM145 122.714L145.173 125.208L145.109 120.216L145 122.714ZM105 125.481L104.827 122.986L105 127.981V125.481ZM142.692 125.481V127.981L142.875 122.987L142.692 125.481ZM105 122.714L105.183 120.22L104.627 125.186L105 122.714ZM142.692 128.393V130.893L143.065 125.921L142.692 128.393ZM105 128.393V125.893H100.118L102.971 129.854L105 128.393ZM107.308 131.597L105.279 133.058L106.05 134.129L107.369 134.096L107.308 131.597ZM142.692 130.723L142.754 133.222L142.77 128.224L142.692 130.723ZM105 129.558L105.077 127.059L104.76 132.047L105 129.558ZM142.692 133.199V135.699L142.933 130.711L142.692 133.199ZM107.308 133.199V130.699L107.154 135.694L107.308 133.199ZM142.692 135.383L142.775 137.882L142.846 132.888L142.692 135.383ZM107.225 134.05L104.727 134.132L104.891 139.129L107.39 139.047L107.225 134.05ZM125 124.097L125.173 126.591L125 124.097ZM104.891 114.726L144.891 116.473L145.109 111.478L105.109 109.73L104.891 114.726ZM145 111.476H105V116.476H145V111.476ZM104.855 116.471L144.855 118.802L145.145 113.81L105.145 111.48L104.855 116.471ZM145 113.806H105V118.806H145V113.806ZM104.873 118.802L144.873 120.841L145.127 115.848L105.127 113.809L104.873 118.802ZM145 115.845H105V120.845H145V115.845ZM104.9 120.843L144.9 122.445L145.1 117.449L105.1 115.847L104.9 120.843ZM144.936 117.447L104.936 118.467L105.064 123.465L145.064 122.446L144.936 117.447ZM104.891 123.464L144.891 125.211L145.109 120.216L105.109 118.468L104.891 123.464ZM105 127.981H142.692V122.981H105V127.981ZM142.875 122.987L105.183 120.22L104.817 125.207L142.509 127.974L142.875 122.987ZM104.627 125.186L142.32 130.865L143.065 125.921L105.373 120.241L104.627 125.186ZM102.971 129.854L105.279 133.058L109.336 130.136L107.029 126.932L102.971 129.854ZM107.369 134.096L142.754 133.222L142.631 128.224L107.246 129.098L107.369 134.096ZM142.77 128.224L105.077 127.059L104.923 132.057L142.615 133.222L142.77 128.224ZM104.76 132.047L142.452 135.687L142.933 130.711L105.24 127.07L104.76 132.047ZM142.692 130.699H107.308V135.699H142.692V130.699ZM107.154 135.694L142.538 137.879L142.846 132.888L107.462 130.704L107.154 135.694ZM142.61 132.885L107.225 134.05L107.39 139.047L142.775 137.882L142.61 132.885ZM144.827 120.219L124.827 121.603L125.173 126.591L145.173 125.208L144.827 120.219ZM124.827 121.603L104.827 122.986L105.173 127.975L125.173 126.591L124.827 121.603ZM142.692 125.893H123.846V130.893H142.692V125.893ZM123.846 125.893H105V130.893H123.846V125.893Z" fill="#A5EEA0" fill-opacity="0.9"/>
<path d="M105.109 131.578L102.612 131.468L102.393 136.464L104.891 136.573L105.109 131.578ZM145 135.823V138.323L145.109 133.325L145 135.823ZM105 135.823V133.323L104.855 138.319L105 135.823ZM145 138.153V140.653L145.145 135.657L145 138.153ZM105 138.153V135.653L104.873 140.65L105 138.153ZM145 140.192V142.692L145.127 137.695L145 140.192ZM105 140.192V137.692L104.9 142.69L105 140.192ZM145 141.794L145.064 144.293L145.1 139.296L145 141.794ZM105 142.813L104.936 140.314L104.891 145.311L105 142.813ZM145 144.561L145.173 147.055L145.109 142.063L145 144.561ZM105 147.328L104.827 144.834L105 149.828V147.328ZM142.692 147.328V149.828L142.875 144.834L142.692 147.328ZM105 144.561L105.183 142.067L104.627 147.033L105 144.561ZM142.692 150.24V152.74L143.065 147.768L142.692 150.24ZM105 150.24V147.74H100.118L102.971 151.701L105 150.24ZM107.308 153.444L105.279 154.905L106.05 155.976L107.369 155.943L107.308 153.444ZM142.692 152.57L142.754 155.07L142.77 150.072L142.692 152.57ZM105 151.405L105.077 148.907L104.76 153.894L105 151.405ZM142.692 155.046V157.546L142.933 152.558L142.692 155.046ZM107.308 155.046V152.546L107.154 157.541L107.308 155.046ZM142.692 157.231L142.775 159.729L142.846 154.735L142.692 157.231ZM107.225 155.897L104.727 155.979L104.891 160.977L107.39 160.894L107.225 155.897ZM125 145.944L125.173 148.438L125 145.944ZM104.891 136.573L144.891 138.32L145.109 133.325L105.109 131.578L104.891 136.573ZM145 133.323H105V138.323H145V133.323ZM104.855 138.319L144.855 140.649L145.145 135.657L105.145 133.327L104.855 138.319ZM145 135.653H105V140.653H145V135.653ZM104.873 140.65L144.873 142.689L145.127 137.695L105.127 135.656L104.873 140.65ZM145 137.692H105V142.692H145V137.692ZM104.9 142.69L144.9 144.292L145.1 139.296L105.1 137.694L104.9 142.69ZM144.936 139.294L104.936 140.314L105.064 145.312L145.064 144.293L144.936 139.294ZM104.891 145.311L144.891 147.058L145.109 142.063L105.109 140.315L104.891 145.311ZM105 149.828H142.692V144.828H105V149.828ZM142.875 144.834L105.183 142.067L104.817 147.054L142.509 149.821L142.875 144.834ZM104.627 147.033L142.32 152.712L143.065 147.768L105.373 142.089L104.627 147.033ZM102.971 151.701L105.279 154.905L109.336 151.983L107.029 148.779L102.971 151.701ZM107.369 155.943L142.754 155.07L142.631 150.071L107.246 150.945L107.369 155.943ZM142.77 150.072L105.077 148.907L104.923 153.904L142.615 155.069L142.77 150.072ZM104.76 153.894L142.452 157.535L142.933 152.558L105.24 148.917L104.76 153.894ZM142.692 152.546H107.308V157.546H142.692V152.546ZM107.154 157.541L142.538 159.726L142.846 154.735L107.462 152.551L107.154 157.541ZM142.61 154.732L107.225 155.897L107.39 160.894L142.775 159.729L142.61 154.732ZM144.827 142.067L124.827 143.45L125.173 148.438L145.173 147.055L144.827 142.067ZM124.827 143.45L104.827 144.834L105.173 149.822L125.173 148.438L124.827 143.45ZM142.692 147.74H123.846V152.74H142.692V147.74ZM123.846 147.74H105V152.74H123.846V147.74Z" fill="#A5EEA0" fill-opacity="0.9"/>
</svg>
