<svg width="33" height="48" viewBox="0 0 33 48" fill="none" xmlns="http://www.w3.org/2000/svg">
<path d="M6.37941 45.3622C6.36641 45.3477 6.35556 45.3348 6.34674 45.3238C5.9591 44.2831 5.67381 42.5879 5.4946 40.4822C5.31212 38.338 5.25 35.916 5.25 33.625C5.25 31.3379 5.31185 29.2024 5.37382 27.6375C5.39111 27.2011 5.40838 26.8095 5.4243 26.4718L27.6564 26.0272C27.6954 26.4081 27.7401 26.8591 27.7878 27.3668C27.9428 29.0174 28.1284 31.2611 28.252 33.6403C28.3759 36.0246 28.436 38.5191 28.3451 40.6791C28.2613 42.6695 28.0532 44.1928 27.7453 45.0923C27.7399 45.0962 27.7344 45.1001 27.7288 45.1041C27.5445 45.2361 27.255 45.4159 26.8682 45.5749C26.111 45.8862 24.9424 46.1355 23.3734 45.7323C21.6296 45.284 20.3195 44.6147 19.4568 44.0687C19.0255 43.7958 18.7072 43.5545 18.504 43.3886C18.4025 43.3057 18.33 43.2419 18.2868 43.2027C18.2652 43.1831 18.2509 43.1697 18.244 43.1632C18.2427 43.1619 18.2416 43.1608 18.2408 43.1601L17.2228 42.1449L16.1821 43.1127C16.1802 43.1142 16.1779 43.1161 16.1752 43.1183C16.1543 43.1352 16.1077 43.1716 16.0313 43.2253C15.8785 43.3328 15.6063 43.5095 15.1821 43.7372C14.3328 44.193 12.8779 44.8511 10.5579 45.5666C8.42636 46.2241 7.33254 45.9349 6.85408 45.7039C6.60032 45.5813 6.45306 45.4443 6.37941 45.3622Z" fill="white" stroke="white" stroke-width="3"/>
<path d="M31.5 16C31.5 23.965 24.8281 30.5 16.5 30.5C8.17188 30.5 1.5 23.965 1.5 16C1.5 8.03505 8.17188 1.5 16.5 1.5C24.8281 1.5 31.5 8.03505 31.5 16Z" fill="white" stroke="white" stroke-width="3"/>
<path d="M2 19L7 8L16.5 2.5L25.5 6L30 12.5V19L27 28V41.5L24 45L16.5 40.5L8.5 45L7 41.5L7.5 27L2 19Z" fill="#D25914"/>
<path d="M32.3333 16.0218C32.3389 13.5952 31.7285 11.2036 30.5548 9.05245C29.381 6.9013 27.6789 5.05497 25.5947 3.67209C23.5106 2.28922 21.1066 1.41114 18.5895 1.11332C16.0723 0.815499 13.5172 1.10683 11.1437 1.96229C8.77022 2.81775 6.64929 4.21176 4.96317 6.02453C3.27705 7.8373 2.07615 10.0146 1.46366 12.3694C0.851178 14.7243 0.845415 17.1861 1.44687 19.5436C2.04833 21.901 3.23902 24.0834 4.91663 25.9034V41.3159C4.91662 42.1983 5.17711 43.0628 5.66811 43.8097C6.15911 44.5567 6.86064 45.1557 7.69191 45.5379C8.52318 45.9201 9.45038 46.0699 10.3667 45.97C11.2831 45.8701 12.1513 45.5246 12.8714 44.9733L16.6666 42.0654L20.4619 44.9695C21.1817 45.5206 22.0496 45.8661 22.9656 45.9661C23.8816 46.0662 24.8085 45.9167 25.6396 45.535C26.4707 45.1532 27.1723 44.5547 27.6636 43.8083C28.1549 43.062 28.4159 42.198 28.4167 41.3159V25.9034C30.9396 23.1776 32.3327 19.6628 32.3333 16.0218ZM16.6666 4.78003C18.9906 4.78003 21.2623 5.43935 23.1946 6.67462C25.1269 7.90988 26.6329 9.66562 27.5222 11.7198C28.4116 13.774 28.6443 16.0343 28.1909 18.215C27.7375 20.3957 26.6184 22.3988 24.9752 23.971C23.3319 25.5432 21.2382 26.6139 18.959 27.0477C16.6797 27.4814 14.3171 27.2588 12.1701 26.4079C10.0231 25.5571 8.18797 24.1162 6.89687 22.2675C5.60576 20.4188 4.91663 18.2453 4.91663 16.0218C4.91974 13.0412 6.15869 10.1836 8.36157 8.07597C10.5644 5.96836 13.5513 4.78301 16.6666 4.78003ZM23.9458 42.1553C23.7801 42.2339 23.5942 42.2651 23.4105 42.2451C23.2267 42.2252 23.0529 42.155 22.9098 42.0429L16.6666 37.2633L10.4254 42.0429C10.2817 42.1533 10.1084 42.2226 9.92537 42.2429C9.74234 42.2633 9.55702 42.2338 9.39073 42.1578C9.22443 42.0819 9.0839 41.9626 8.98529 41.8137C8.88669 41.6648 8.83401 41.4922 8.8333 41.3159V28.9837C11.2107 30.3113 13.9139 31.0109 16.6666 31.0109C19.4193 31.0109 22.1226 30.3113 24.5 28.9837V41.3159C24.5022 41.4921 24.451 41.6651 24.3526 41.8141C24.2543 41.963 24.113 42.0815 23.9458 42.1553Z" fill="black"/>
<path d="M2.57049 15.6213C2.63746 15.8892 2.90893 16.0521 3.17683 15.9851C3.44473 15.9181 3.60761 15.6466 3.54063 15.3787L2.57049 15.6213ZM8.67682 6.48507C8.94472 6.4181 9.1076 6.14663 9.04062 5.87873C8.97365 5.61084 8.70218 5.44795 8.43428 5.51493L8.67682 6.48507ZM3.05556 15.5C3.54063 15.3787 3.54071 15.3791 3.54078 15.3794C3.54081 15.3794 3.54088 15.3797 3.54093 15.3799C3.54102 15.3803 3.5411 15.3806 3.54117 15.3809C3.54133 15.3816 3.54144 15.3821 3.54153 15.3824C3.54172 15.3832 3.54178 15.3835 3.54173 15.3833C3.54164 15.3829 3.54113 15.3806 3.54027 15.3764C3.53856 15.3681 3.5355 15.3522 3.5318 15.3288C3.5244 15.2822 3.51443 15.2058 3.50764 15.1006C3.49408 14.8904 3.49312 14.5639 3.55116 14.1286C3.66707 13.2593 4.0196 11.9457 4.98966 10.2481L4.12142 9.75193C3.09148 11.5543 2.69402 12.9907 2.55994 13.9964C2.49298 14.4986 2.49203 14.8909 2.50972 15.165C2.51856 15.302 2.53203 15.4092 2.54416 15.4856C2.55023 15.5238 2.55595 15.5543 2.56059 15.577C2.56291 15.5883 2.56496 15.5977 2.56664 15.6051C2.56748 15.6088 2.56823 15.612 2.56887 15.6147C2.5692 15.616 2.56949 15.6172 2.56976 15.6183C2.5699 15.6189 2.57003 15.6194 2.57015 15.6199C2.57021 15.6202 2.57029 15.6205 2.57032 15.6206C2.57041 15.621 2.57049 15.6213 3.05556 15.5ZM4.98966 10.2481C5.95837 8.55284 6.91415 7.60604 7.60555 7.0875C7.95188 6.82775 8.23428 6.67364 8.42236 6.58632C8.51648 6.54261 8.58725 6.51552 8.63088 6.50025C8.6527 6.49261 8.66776 6.48793 8.67557 6.4856C8.67947 6.48443 8.68157 6.48385 8.6818 6.48379C8.68191 6.48376 8.68156 6.48386 8.68073 6.48407C8.68032 6.48418 8.67979 6.48432 8.67913 6.48449C8.67881 6.48457 8.67845 6.48466 8.67807 6.48476C8.67787 6.48481 8.67756 6.48489 8.67747 6.48491C8.67715 6.48499 8.67682 6.48507 8.55555 6C8.43428 5.51493 8.43394 5.51501 8.43359 5.5151C8.43347 5.51513 8.43311 5.51522 8.43285 5.51529C8.43235 5.51542 8.43181 5.51555 8.43124 5.5157C8.4301 5.51599 8.42884 5.51632 8.42746 5.51668C8.42469 5.5174 8.42144 5.51827 8.41771 5.51929C8.41025 5.52134 8.40087 5.52399 8.38964 5.52734C8.36718 5.53405 8.33731 5.54352 8.30053 5.55639C8.22697 5.58214 8.12587 5.62145 8.00125 5.67931C7.75182 5.79511 7.40922 5.98475 7.00555 6.2875C6.19694 6.89396 5.15272 7.94716 4.12142 9.75193L4.98966 10.2481Z" fill="white" fill-opacity="0.9"/>
</svg>
