<svg width="37" height="36" viewBox="0 0 37 36" fill="none" xmlns="http://www.w3.org/2000/svg">
<ellipse cx="18.5" cy="18" rx="18.5" ry="18" fill="white"/>
<path d="M2.97385 18.0382C2.96281 9.61493 9.94363 2.77736 18.5659 2.76606C27.1883 2.75476 34.187 9.574 34.198 17.9973C34.2091 26.4205 27.2282 33.2581 18.6059 33.2694C9.98361 33.2807 2.98489 26.4615 2.97385 18.0382Z" fill="white"/>
<path d="M35.8995 17.9949C35.9003 22.4317 34.0822 26.6896 30.8413 29.8337C27.6001 32.9782 23.2006 34.7516 18.6077 34.7625C15.1816 34.7669 11.8319 33.7882 8.98204 31.951C6.13226 30.1138 3.91086 27.501 2.59744 24.4439C1.28408 21.387 0.93722 18.0222 1.60035 14.7748C2.2635 11.5274 3.90716 8.54189 6.32486 6.19636C8.74264 3.85075 11.8259 2.2506 15.1851 1.59948C18.5444 0.948358 22.0276 1.27578 25.1939 2.54002C28.3602 3.80424 31.0665 5.94807 32.9716 8.69915C34.8765 11.4501 35.8951 14.685 35.8995 17.9949ZM5.16317 18.0353L5.16317 18.0356C5.17204 21.4837 6.59397 24.7858 9.11427 27.2181C11.6343 29.6501 15.0467 31.0142 18.6026 31.0138L18.6029 31.0138C21.2559 31.0103 23.8489 30.2457 26.0541 28.8159C28.2595 27.3859 29.9784 25.3545 30.9922 22.9776C32.0061 20.6005 32.2689 17.9855 31.747 15.4635C31.2251 12.9416 29.9423 10.6273 28.0622 8.81282C26.1821 6.9984 23.7891 5.7651 21.1863 5.26768C18.5835 4.77025 15.8865 5.03077 13.4362 6.0166C10.9857 7.00245 8.89106 8.66978 7.41799 10.809C5.94484 12.9483 5.1598 15.4631 5.16317 18.0353Z" fill="#0743B7" stroke="black" stroke-width="0.5"/>
<path d="M17.2243 23.0823L17.2666 23.1238L17.2734 23.126C17.4443 23.292 17.5812 23.4871 17.6774 23.7013C17.7808 23.9314 17.8351 24.1789 17.8374 24.4292C17.8397 24.6795 17.7899 24.9279 17.6908 25.1597C17.5916 25.3915 17.4451 25.6022 17.2593 25.779C17.0736 25.9558 16.8525 26.0951 16.609 26.1882C16.3656 26.2812 16.105 26.326 15.8428 26.3196C15.5807 26.3132 15.3229 26.2559 15.0846 26.1512C14.8464 26.0465 14.633 25.8968 14.4568 25.7113L14.4569 25.7112L14.4507 25.705L9.98521 21.322C9.98499 21.3218 9.98476 21.3216 9.98453 21.3214C9.09944 20.4379 8.60523 19.2579 8.60362 18.0308C8.60201 16.8038 9.09313 15.6225 9.9759 14.7367C9.97613 14.7365 9.97635 14.7362 9.97658 14.736L14.4262 10.3427L14.4263 10.3428L14.4323 10.3365C14.608 10.1505 14.821 10.0002 15.0589 9.8949C15.2969 9.7896 15.5546 9.73158 15.8167 9.72453C16.0788 9.71748 16.3395 9.76155 16.5832 9.85395C16.8269 9.94635 17.0484 10.0851 17.2346 10.2614C17.4208 10.4377 17.5679 10.6481 17.6677 10.8796C17.7674 11.1111 17.8178 11.3594 17.8162 11.6097C17.8146 11.86 17.7609 12.1077 17.6582 12.338C17.5554 12.5684 17.4055 12.777 17.217 12.9511L17.2169 12.951L17.211 12.9568L14.4103 15.7207L13.9759 16.1494L14.5862 16.1486L26.6334 16.1328C27.152 16.1322 27.648 16.3309 28.0127 16.6829C28.3772 17.0346 28.5807 17.5102 28.5813 18.0046C28.582 18.499 28.3797 18.9752 28.0162 19.3279C27.6524 19.6808 27.1569 19.8808 26.6383 19.8815L14.5912 19.8973L13.9808 19.8981L14.4164 20.3257L17.2243 23.0823Z" fill="#0743B7" stroke="black" stroke-width="0.5"/>
<path d="M2 16C2 16.5523 2.44771 17 2.99999 17C3.55228 17 4 16.5523 4 16L2 16ZM9.44722 6.89443C9.94119 6.64744 10.1414 6.04676 9.89443 5.55278C9.64744 5.05881 9.04676 4.85858 8.55278 5.10557L9.44722 6.89443ZM3 16C4 16 4 16.0005 4 16.001C4 16.0011 4 16.0016 4 16.0019C4 16.0025 4 16.003 3.99999 16.0036C3.99999 16.0046 3.99998 16.0056 3.99998 16.0064C3.99996 16.008 3.99995 16.0092 3.99994 16.0098C3.99992 16.0112 3.99991 16.0106 3.99999 16.0082C4.00015 16.0032 4.00062 15.9907 4.0019 15.9706C4.00445 15.9305 4.0102 15.8602 4.02303 15.7608C4.04867 15.5621 4.10268 15.246 4.21624 14.8202C4.44316 13.9692 4.90941 12.6741 5.86826 10.9961L4.13177 10.0039C3.09061 11.8259 2.55686 13.2808 2.28377 14.3048C2.14733 14.8165 2.07633 15.2192 2.03947 15.5048C2.02105 15.6476 2.01118 15.7609 2.00592 15.8439C2.00328 15.8853 2.00181 15.9191 2.00098 15.9452C2.00057 15.9582 2.00033 15.9693 2.00018 15.9785C2.00011 15.983 2.00007 15.9871 2.00004 15.9907C2.00002 15.9925 2.00001 15.9942 2.00001 15.9957C2.00001 15.9965 2 15.9972 2 15.9979C2 15.9983 2 15.9988 2 15.999C2 15.9995 2 16 3 16ZM5.86826 10.9961C6.81644 9.33682 7.75125 8.29293 8.42573 7.67465C8.76353 7.365 9.03765 7.16062 9.21776 7.03841C9.30785 6.97728 9.37454 6.93662 9.41403 6.91358C9.43378 6.90206 9.44673 6.89494 9.45242 6.89187C9.45527 6.89033 9.45629 6.88981 9.45545 6.89025C9.45502 6.89047 9.45413 6.89093 9.45276 6.89163C9.45208 6.89198 9.45127 6.89239 9.45035 6.89285C9.44989 6.89309 9.44939 6.89333 9.44887 6.8936C9.44861 6.89373 9.4482 6.89393 9.44807 6.894C9.44765 6.89421 9.44722 6.89443 9 6C8.55278 5.10557 8.55234 5.1058 8.55189 5.10602C8.55173 5.1061 8.55127 5.10633 8.55094 5.1065C8.5503 5.10682 8.54963 5.10716 8.54892 5.10752C8.54751 5.10823 8.54598 5.109 8.54433 5.10985C8.54102 5.11153 8.53723 5.11348 8.53296 5.1157C8.52442 5.12014 8.51397 5.12566 8.50168 5.1323C8.47709 5.14558 8.44513 5.16337 8.40628 5.18603C8.32859 5.23135 8.2234 5.29616 8.09475 5.38346C7.83735 5.55813 7.48648 5.8225 7.07428 6.20035C6.24877 6.95707 5.18359 8.16318 4.13177 10.0039L5.86826 10.9961Z" fill="white" fill-opacity="0.9"/>
</svg>
