<svg width="124" height="259" viewBox="0 0 124 259" fill="none" xmlns="http://www.w3.org/2000/svg">
<path d="M6.14631 0.504285L3.65059 0.357975L3.35798 5.34941L5.85369 5.49572L6.14631 0.504285ZM123 9.85904V12.359L123.146 7.36333L123 9.85904ZM6 9.85904V7.35904L5.80518 12.3514L6 9.85904ZM123 19.0044V21.5044L123.195 16.512L123 19.0044ZM6 19.0044V16.5044L5.82941 21.4986L6 19.0044ZM123 27.0066V29.5066L123.171 24.5125L123 27.0066ZM6 27.0066V24.5066L5.86585 29.503L6 27.0066ZM123 33.2941L123.085 35.7926L123.134 30.7977L123 33.2941ZM6 37.2952L5.91456 34.7967L5.85369 39.7909L6 37.2952ZM123 44.1542L123.231 46.6435L123.146 41.6585L123 44.1542ZM6 55.0144L5.76894 52.5251L6 57.5144V55.0144ZM116.25 55.0144V57.5144L116.495 52.5264L116.25 55.0144ZM6 44.1542L6.24508 41.6663L5.50454 46.6047L6 44.1542ZM116.25 66.4461V68.9461L116.745 63.9957L116.25 66.4461ZM6 66.4461V63.9461H1.82064L3.79728 67.6285L6 66.4461ZM12.75 79.021L10.5473 80.2034L11.2814 81.5711L12.8328 81.5197L12.75 79.021ZM116.25 75.5915L116.333 78.0901L116.354 73.0937L116.25 75.5915ZM6 71.0188L6.1036 68.521L5.67866 73.4981L6 71.0188ZM116.25 85.3085V87.8085L116.571 82.8292L116.25 85.3085ZM12.75 85.3085V82.8085L12.5436 87.8L12.75 85.3085ZM116.25 93.8823L116.36 96.3799L116.456 91.3908L116.25 93.8823ZM12.6397 95.9574L10.1421 96.0678L10.3628 101.063L12.8603 100.953L12.6397 95.9574ZM64.5 49.5843L64.7311 52.0736L64.5 49.5843ZM5.85369 5.49572L122.854 12.3548L123.146 7.36333L6.14631 0.504285L5.85369 5.49572ZM123 7.35904H6V12.359H123V7.35904ZM5.80518 12.3514L122.805 21.4968L123.195 16.512L6.19482 7.36664L5.80518 12.3514ZM123 16.5044H6V21.5044H123V16.5044ZM5.82941 21.4986L122.829 29.5008L123.171 24.5125L6.17059 16.5103L5.82941 21.4986ZM123 24.5066H6V29.5066H123V24.5066ZM5.86585 29.503L122.866 35.7905L123.134 30.7977L6.13415 24.5102L5.86585 29.503ZM122.915 30.7956L5.91456 34.7967L6.08544 39.7937L123.085 35.7926L122.915 30.7956ZM5.85369 39.7909L122.854 46.65L123.146 41.6585L6.14631 34.7995L5.85369 39.7909ZM6 57.5144H116.25V52.5144H6V57.5144ZM116.495 52.5264L6.24508 41.6663L5.75492 46.6422L116.005 57.5024L116.495 52.5264ZM5.50454 46.6047L115.755 68.8965L116.745 63.9957L6.49546 41.7038L5.50454 46.6047ZM3.79728 67.6285L10.5473 80.2034L14.9527 77.8387L8.20272 65.2637L3.79728 67.6285ZM12.8328 81.5197L116.333 78.0901L116.167 73.0929L12.6672 76.5224L12.8328 81.5197ZM116.354 73.0937L6.1036 68.521L5.8964 73.5167L116.146 78.0894L116.354 73.0937ZM5.67866 73.4981L115.929 87.7878L116.571 82.8292L6.32134 68.5396L5.67866 73.4981ZM116.25 82.8085H12.75V87.8085H116.25V82.8085ZM12.5436 87.8L116.044 96.3738L116.456 91.3908L12.9564 82.817L12.5436 87.8ZM116.14 91.3847L12.6397 95.9574L12.8603 100.953L116.36 96.3799L116.14 91.3847ZM122.769 41.6649L64.2689 47.095L64.7311 52.0736L123.231 46.6435L122.769 41.6649ZM64.2689 47.095L5.76894 52.5251L6.23106 57.5037L64.7311 52.0736L64.2689 47.095ZM116.25 63.9461H61.125V68.9461H116.25V63.9461ZM61.125 63.9461H6V68.9461H61.125V63.9461Z" fill="#6A9EDA" fill-opacity="0.5"/>
<path d="M6.14631 86.2521L3.65059 86.1058L3.35798 91.0972L5.85369 91.2435L6.14631 86.2521ZM123 95.6068V98.1068L123.146 93.1111L123 95.6068ZM6 95.6068V93.1068L5.80518 98.0992L6 95.6068ZM123 104.752V107.252L123.195 102.26L123 104.752ZM6 104.752V102.252L5.82941 107.246L6 104.752ZM123 112.754V115.254L123.171 110.26L123 112.754ZM6 112.754V110.254L5.86585 115.251L6 112.754ZM123 119.042L123.085 121.54L123.134 116.546L123 119.042ZM6 123.043L5.91456 120.544L5.85369 125.539L6 123.043ZM123 129.902L123.231 132.391L123.146 127.406L123 129.902ZM6 140.762L5.76894 138.273L6 143.262V140.762ZM116.25 140.762V143.262L116.495 138.274L116.25 140.762ZM6 129.902L6.24508 127.414L5.50454 132.352L6 129.902ZM116.25 152.194V154.694L116.745 149.744L116.25 152.194ZM6 152.194V149.694H1.82064L3.79728 153.376L6 152.194ZM12.75 164.769L10.5473 165.951L11.2814 167.319L12.8328 167.267L12.75 164.769ZM116.25 161.339L116.333 163.838L116.354 158.841L116.25 161.339ZM6 156.767L6.1036 154.269L5.67866 159.246L6 156.767ZM116.25 171.056V173.556L116.571 168.577L116.25 171.056ZM12.75 171.056V168.556L12.5436 173.548L12.75 171.056ZM116.25 179.63L116.36 182.128L116.456 177.139L116.25 179.63ZM12.6397 181.705L10.1421 181.816L10.3628 186.811L12.8603 186.7L12.6397 181.705ZM64.5 135.332L64.7311 137.821L64.5 135.332ZM5.85369 91.2435L122.854 98.1026L123.146 93.1111L6.14631 86.2521L5.85369 91.2435ZM123 93.1068H6V98.1068H123V93.1068ZM5.80518 98.0992L122.805 107.245L123.195 102.26L6.19482 93.1144L5.80518 98.0992ZM123 102.252H6V107.252H123V102.252ZM5.82941 107.246L122.829 115.249L123.171 110.26L6.17059 102.258L5.82941 107.246ZM123 110.254H6V115.254H123V110.254ZM5.86585 115.251L122.866 121.538L123.134 116.546L6.13415 110.258L5.86585 115.251ZM122.915 116.543L5.91456 120.544L6.08544 125.542L123.085 121.54L122.915 116.543ZM5.85369 125.539L122.854 132.398L123.146 127.406L6.14631 120.547L5.85369 125.539ZM6 143.262H116.25V138.262H6V143.262ZM116.495 138.274L6.24508 127.414L5.75492 132.39L116.005 143.25L116.495 138.274ZM5.50454 132.352L115.755 154.644L116.745 149.744L6.49546 127.452L5.50454 132.352ZM3.79728 153.376L10.5473 165.951L14.9527 163.586L8.20272 151.012L3.79728 153.376ZM12.8328 167.267L116.333 163.838L116.167 158.841L12.6672 162.27L12.8328 167.267ZM116.354 158.841L6.1036 154.269L5.8964 159.264L116.146 163.837L116.354 158.841ZM5.67866 159.246L115.929 173.536L116.571 168.577L6.32134 154.287L5.67866 159.246ZM116.25 168.556H12.75V173.556H116.25V168.556ZM12.5436 173.548L116.044 182.122L116.456 177.139L12.9564 168.565L12.5436 173.548ZM116.14 177.133L12.6397 181.705L12.8603 186.7L116.36 182.128L116.14 177.133ZM122.769 127.413L64.2689 132.843L64.7311 137.821L123.231 132.391L122.769 127.413ZM64.2689 132.843L5.76894 138.273L6.23106 143.251L64.7311 137.821L64.2689 132.843ZM116.25 149.694H61.125V154.694H116.25V149.694ZM61.125 149.694H6V154.694H61.125V149.694Z" fill="#6A9EDA" fill-opacity="0.5"/>
<path d="M6.14631 72.3015L3.65059 72.1552L3.35798 77.1467L5.85369 77.293L6.14631 72.3015ZM123 81.6563V84.1563L123.146 79.1606L123 81.6563ZM6 81.6563V79.1563L5.80518 84.1487L6 81.6563ZM123 90.8017V93.3017L123.195 88.3093L123 90.8017ZM6 90.8017V88.3017L5.82941 93.2959L6 90.8017ZM123 98.8039V101.304L123.171 96.3097L123 98.8039ZM6 98.8039V96.3039L5.86585 101.3L6 98.8039ZM123 105.091L123.085 107.59L123.134 102.595L123 105.091ZM6 109.092L5.91456 106.594L5.85369 111.588L6 109.092ZM123 115.951L123.231 118.441L123.146 113.456L123 115.951ZM6 126.812L5.76894 124.322L6 129.312V126.812ZM116.25 126.812V129.312L116.495 124.324L116.25 126.812ZM6 115.951L6.24508 113.464L5.50454 118.402L6 115.951ZM116.25 138.243V140.743L116.745 135.793L116.25 138.243ZM6 138.243V135.743H1.82064L3.79728 139.426L6 138.243ZM12.75 150.818L10.5473 152.001L11.2814 153.368L12.8328 153.317L12.75 150.818ZM116.25 147.389L116.333 149.887L116.354 144.891L116.25 147.389ZM6 142.816L6.1036 140.318L5.67866 145.295L6 142.816ZM116.25 157.106V159.606L116.571 154.626L116.25 157.106ZM12.75 157.106V154.606L12.5436 159.597L12.75 157.106ZM116.25 165.68L116.36 168.177L116.456 163.188L116.25 165.68ZM12.6397 167.755L10.1421 167.865L10.3628 172.86L12.8603 172.75L12.6397 167.755ZM64.5 121.382L64.7311 123.871L64.5 121.382ZM5.85369 77.293L122.854 84.152L123.146 79.1606L6.14631 72.3015L5.85369 77.293ZM123 79.1563H6V84.1563H123V79.1563ZM5.80518 84.1487L122.805 93.2941L123.195 88.3093L6.19482 79.1639L5.80518 84.1487ZM123 88.3017H6V93.3017H123V88.3017ZM5.82941 93.2959L122.829 101.298L123.171 96.3097L6.17059 88.3075L5.82941 93.2959ZM123 96.3039H6V101.304H123V96.3039ZM5.86585 101.3L122.866 107.588L123.134 102.595L6.13415 96.3075L5.86585 101.3ZM122.915 102.593L5.91456 106.594L6.08544 111.591L123.085 107.59L122.915 102.593ZM5.85369 111.588L122.854 118.447L123.146 113.456L6.14631 106.597L5.85369 111.588ZM6 129.312H116.25V124.312H6V129.312ZM116.495 124.324L6.24508 113.464L5.75492 118.439L116.005 129.3L116.495 124.324ZM5.50454 118.402L115.755 140.694L116.745 135.793L6.49546 113.501L5.50454 118.402ZM3.79728 139.426L10.5473 152.001L14.9527 149.636L8.20272 137.061L3.79728 139.426ZM12.8328 153.317L116.333 149.887L116.167 144.89L12.6672 148.32L12.8328 153.317ZM116.354 144.891L6.1036 140.318L5.8964 145.314L116.146 149.887L116.354 144.891ZM5.67866 145.295L115.929 159.585L116.571 154.626L6.32134 140.337L5.67866 145.295ZM116.25 154.606H12.75V159.606H116.25V154.606ZM12.5436 159.597L116.044 168.171L116.456 163.188L12.9564 154.614L12.5436 159.597ZM116.14 163.182L12.6397 167.755L12.8603 172.75L116.36 168.177L116.14 163.182ZM122.769 113.462L64.2689 118.892L64.7311 123.871L123.231 118.441L122.769 113.462ZM64.2689 118.892L5.76894 124.322L6.23106 129.301L64.7311 123.871L64.2689 118.892ZM116.25 135.743H61.125V140.743H116.25V135.743ZM61.125 135.743H6V140.743H61.125V135.743Z" fill="#6A9EDA" fill-opacity="0.5"/>
<path d="M6.14631 158.049L3.65059 157.903L3.35798 162.894L5.85369 163.041L6.14631 158.049ZM123 167.404V169.904L123.146 164.908L123 167.404ZM6 167.404V164.904L5.80518 169.896L6 167.404ZM123 176.549V179.049L123.195 174.057L123 176.549ZM6 176.549V174.049L5.82941 179.044L6 176.549ZM123 184.552V187.052L123.171 182.057L123 184.552ZM6 184.552V182.052L5.86585 187.048L6 184.552ZM123 190.839L123.085 193.338L123.134 188.343L123 190.839ZM6 194.84L5.91456 192.342L5.85369 197.336L6 194.84ZM123 201.699L123.231 204.189L123.146 199.204L123 201.699ZM6 212.559L5.76894 210.07L6 215.059V212.559ZM116.25 212.559V215.059L116.495 210.071L116.25 212.559ZM6 201.699L6.24508 199.211L5.50454 204.15L6 201.699ZM116.25 223.991V226.491L116.745 221.541L116.25 223.991ZM6 223.991V221.491H1.82064L3.79728 225.173L6 223.991ZM12.75 236.566L10.5473 237.748L11.2814 239.116L12.8328 239.065L12.75 236.566ZM116.25 233.136L116.333 235.635L116.354 230.639L116.25 233.136ZM6 228.564L6.1036 226.066L5.67866 231.043L6 228.564ZM116.25 242.853V245.353L116.571 240.374L116.25 242.853ZM12.75 242.853V240.353L12.5436 245.345L12.75 242.853ZM116.25 251.427L116.36 253.925L116.456 248.936L116.25 251.427ZM12.6397 253.502L10.1421 253.613L10.3628 258.608L12.8603 258.498L12.6397 253.502ZM64.5 207.129L64.7311 209.619L64.5 207.129ZM5.85369 163.041L122.854 169.9L123.146 164.908L6.14631 158.049L5.85369 163.041ZM123 164.904H6V169.904H123V164.904ZM5.80518 169.896L122.805 179.042L123.195 174.057L6.19482 164.912L5.80518 169.896ZM123 174.049H6V179.049H123V174.049ZM5.82941 179.044L122.829 187.046L123.171 182.057L6.17059 174.055L5.82941 179.044ZM123 182.052H6V187.052H123V182.052ZM5.86585 187.048L122.866 193.335L123.134 188.343L6.13415 182.055L5.86585 187.048ZM122.915 188.341L5.91456 192.342L6.08544 197.339L123.085 193.338L122.915 188.341ZM5.85369 197.336L122.854 204.195L123.146 199.204L6.14631 192.344L5.85369 197.336ZM6 215.059H116.25V210.059H6V215.059ZM116.495 210.071L6.24508 199.211L5.75492 204.187L116.005 215.047L116.495 210.071ZM5.50454 204.15L115.755 226.442L116.745 221.541L6.49546 199.249L5.50454 204.15ZM3.79728 225.173L10.5473 237.748L14.9527 235.384L8.20272 222.809L3.79728 225.173ZM12.8328 239.065L116.333 235.635L116.167 230.638L12.6672 234.067L12.8328 239.065ZM116.354 230.639L6.1036 226.066L5.8964 231.062L116.146 235.634L116.354 230.639ZM5.67866 231.043L115.929 245.333L116.571 240.374L6.32134 226.085L5.67866 231.043ZM116.25 240.353H12.75V245.353H116.25V240.353ZM12.5436 245.345L116.044 253.919L116.456 248.936L12.9564 240.362L12.5436 245.345ZM116.14 248.93L12.6397 253.502L12.8603 258.498L116.36 253.925L116.14 248.93ZM122.769 199.21L64.2689 204.64L64.7311 209.619L123.231 204.189L122.769 199.21ZM64.2689 204.64L5.76894 210.07L6.23106 215.049L64.7311 209.619L64.2689 204.64ZM116.25 221.491H61.125V226.491H116.25V221.491ZM61.125 221.491H6V226.491H61.125V221.491Z" fill="#6A9EDA" fill-opacity="0.5"/>
<path d="M6.14285 6.50408L3.64694 6.36123L3.36123 11.3531L5.85715 11.4959L6.14285 6.50408ZM123 15.6964V18.1964L123.143 13.2005L123 15.6964ZM6 15.6964V13.1964L5.80977 18.1891L6 15.6964ZM123 24.6249V27.1249L123.19 22.1321L123 24.6249ZM6 24.6249V22.1249L5.83344 27.1193L6 24.6249ZM123 32.4373V34.9373L123.167 29.9429L123 32.4373ZM6 32.4373V29.9373L5.86902 34.9339L6 32.4373ZM123 38.5757L123.083 41.0743L123.131 36.0791L123 38.5757ZM6 42.4819L5.91658 39.9833L5.85715 44.9778L6 42.4819ZM123 49.1783L123.226 51.668L123.143 46.6823L123 49.1783ZM6 59.7808L5.77437 57.291L6 62.2808V59.7808ZM116.25 59.7808V62.2808L116.489 57.2923L116.25 59.7808ZM6 49.1783L6.23932 46.6897L5.51585 51.6309L6 49.1783ZM116.25 70.9415V73.4415L116.734 68.4888L116.25 70.9415ZM6 70.9415V68.4415H1.77248L3.8093 72.146L6 70.9415ZM12.75 83.2182L10.5593 84.4227L11.2981 85.7664L12.8308 85.7169L12.75 83.2182ZM116.25 79.87L116.331 82.3687L116.351 77.372L116.25 79.87ZM6 75.4057L6.10115 72.9078L5.68616 77.8859L6 75.4057ZM116.25 89.3565V91.8565L116.564 86.8763L116.25 89.3565ZM12.75 89.3565V86.8565L12.5485 91.8484L12.75 89.3565ZM116.25 97.727L116.358 100.225L116.452 95.2351L116.25 97.727ZM12.6423 99.6936L10.1446 99.8013L10.3601 104.797L12.8577 104.689L12.6423 99.6936ZM64.5 54.4796L64.7256 56.9693L64.5 54.4796ZM5.85715 11.4959L122.857 18.1923L123.143 13.2005L6.14285 6.50408L5.85715 11.4959ZM123 13.1964H6V18.1964H123V13.1964ZM5.80977 18.1891L122.81 27.1176L123.19 22.1321L6.19023 13.2036L5.80977 18.1891ZM123 22.1249H6V27.1249H123V22.1249ZM5.83344 27.1193L122.833 34.9318L123.167 29.9429L6.16656 22.1304L5.83344 27.1193ZM123 29.9373H6V34.9373H123V29.9373ZM5.86902 34.9339L122.869 41.0722L123.131 36.0791L6.13098 29.9407L5.86902 34.9339ZM122.917 36.077L5.91658 39.9833L6.08342 44.9805L123.083 41.0743L122.917 36.077ZM5.85715 44.9778L122.857 51.6742L123.143 46.6823L6.14285 39.986L5.85715 44.9778ZM6 62.2808H116.25V57.2808H6V62.2808ZM116.489 57.2923L6.23932 46.6897L5.76068 51.6668L116.011 62.2694L116.489 57.2923ZM5.51585 51.6309L115.766 73.3941L116.734 68.4888L6.48415 46.7256L5.51585 51.6309ZM3.8093 72.146L10.5593 84.4227L14.9407 82.0137L8.1907 69.737L3.8093 72.146ZM12.8308 85.7169L116.331 82.3687L116.169 77.3713L12.6692 80.7195L12.8308 85.7169ZM116.351 77.372L6.10115 72.9078L5.89885 77.9037L116.149 82.3679L116.351 77.372ZM5.68616 77.8859L115.936 91.8367L116.564 86.8763L6.31384 72.9255L5.68616 77.8859ZM116.25 86.8565H12.75V91.8565H116.25V86.8565ZM12.5485 91.8484L116.048 100.219L116.452 95.2351L12.9515 86.8646L12.5485 91.8484ZM116.142 95.2293L12.6423 99.6936L12.8577 104.689L116.358 100.225L116.142 95.2293ZM122.774 46.6885L64.2744 51.9898L64.7256 56.9693L123.226 51.668L122.774 46.6885ZM64.2744 51.9898L5.77437 57.291L6.22563 62.2706L64.7256 56.9693L64.2744 51.9898ZM116.25 68.4415H61.125V73.4415H116.25V68.4415ZM61.125 68.4415H6V73.4415H61.125V68.4415Z" fill="#6A9EDA" fill-opacity="0.5"/>
<path d="M6.14285 90.2183L3.64694 90.0755L3.36123 95.0673L5.85715 95.2102L6.14285 90.2183ZM123 99.4106V101.911L123.143 96.9147L123 99.4106ZM6 99.4106V96.9106L5.80977 101.903L6 99.4106ZM123 108.339V110.839L123.19 105.846L123 108.339ZM6 108.339V105.839L5.83344 110.834L6 108.339ZM123 116.152V118.652L123.167 113.657L123 116.152ZM6 116.152V113.652L5.86902 118.648L6 116.152ZM123 122.29L123.083 124.789L123.131 119.793L123 122.29ZM6 126.196L5.91658 123.698L5.85715 128.692L6 126.196ZM123 132.893L123.226 135.382L123.143 130.397L123 132.893ZM6 143.495L5.77437 141.005L6 145.995V143.495ZM116.25 143.495V145.995L116.489 141.007L116.25 143.495ZM6 132.893L6.23932 130.404L5.51585 135.345L6 132.893ZM116.25 154.656V157.156L116.734 152.203L116.25 154.656ZM6 154.656V152.156H1.77248L3.8093 155.86L6 154.656ZM12.75 166.932L10.5593 168.137L11.2981 169.481L12.8308 169.431L12.75 166.932ZM116.25 163.584L116.331 166.083L116.351 161.086L116.25 163.584ZM6 159.12L6.10115 156.622L5.68616 161.6L6 159.12ZM116.25 173.071V175.571L116.564 170.591L116.25 173.071ZM12.75 173.071V170.571L12.5485 175.563L12.75 173.071ZM116.25 181.441L116.358 183.939L116.452 178.949L116.25 181.441ZM12.6423 183.408L10.1446 183.516L10.3601 188.511L12.8577 188.403L12.6423 183.408ZM64.5 138.194L64.7256 140.684L64.5 138.194ZM5.85715 95.2102L122.857 101.907L123.143 96.9147L6.14285 90.2183L5.85715 95.2102ZM123 96.9106H6V101.911H123V96.9106ZM5.80977 101.903L122.81 110.832L123.19 105.846L6.19023 96.9179L5.80977 101.903ZM123 105.839H6V110.839H123V105.839ZM5.83344 110.834L122.833 118.646L123.167 113.657L6.16656 105.845L5.83344 110.834ZM123 113.652H6V118.652H123V113.652ZM5.86902 118.648L122.869 124.786L123.131 119.793L6.13098 113.655L5.86902 118.648ZM122.917 119.791L5.91658 123.698L6.08342 128.695L123.083 124.789L122.917 119.791ZM5.85715 128.692L122.857 135.388L123.143 130.397L6.14285 123.7L5.85715 128.692ZM6 145.995H116.25V140.995H6V145.995ZM116.489 141.007L6.23932 130.404L5.76068 135.381L116.011 145.984L116.489 141.007ZM5.51585 135.345L115.766 157.108L116.734 152.203L6.48415 130.44L5.51585 135.345ZM3.8093 155.86L10.5593 168.137L14.9407 165.728L8.1907 153.451L3.8093 155.86ZM12.8308 169.431L116.331 166.083L116.169 161.086L12.6692 164.434L12.8308 169.431ZM116.351 161.086L6.10115 156.622L5.89885 161.618L116.149 166.082L116.351 161.086ZM5.68616 161.6L115.936 175.551L116.564 170.591L6.31384 156.64L5.68616 161.6ZM116.25 170.571H12.75V175.571H116.25V170.571ZM12.5485 175.563L116.048 183.933L116.452 178.949L12.9515 170.579L12.5485 175.563ZM116.142 178.944L12.6423 183.408L12.8577 188.403L116.358 183.939L116.142 178.944ZM122.774 130.403L64.2744 135.704L64.7256 140.684L123.226 135.382L122.774 130.403ZM64.2744 135.704L5.77437 141.005L6.22563 145.985L64.7256 140.684L64.2744 135.704ZM116.25 152.156H61.125V157.156H116.25V152.156ZM61.125 152.156H6V157.156H61.125V152.156Z" fill="#6A9EDA" fill-opacity="0.5"/>
<path d="M6.09147 0.501674L3.59314 0.410207L3.41021 5.40686L5.90853 5.49833L6.09147 0.501674ZM123 7.28351V9.78351L123.091 4.78519L123 7.28351ZM6 7.28351V4.78351L5.87811 9.78054L6 7.28351ZM123 12.9949V15.4949L123.122 10.4978L123 12.9949ZM6 12.9949V10.4949L5.89331 15.4926L6 12.9949ZM123 17.9923V20.4923L123.107 15.4946L123 17.9923ZM6 17.9923V15.4923L5.91615 20.4909L6 17.9923ZM123 21.9188L123.053 24.4183L123.084 19.4202L123 21.9188ZM6 24.4176L5.94662 21.9181L5.90853 26.9159L6 24.4176ZM123 28.7011L123.145 31.1969L123.091 26.2027L123 28.7011ZM6 35.4833L5.85532 32.9875L6 37.9833V35.4833ZM116.25 35.4833V37.9833L116.404 32.988L116.25 35.4833ZM6 28.7011L6.1535 26.2058L5.68681 31.1814L6 28.7011ZM116.25 42.6225V45.1225L116.563 40.1422L116.25 42.6225ZM6 42.6225V40.1225H0.554583L4.1041 44.2521L6 42.6225ZM12.75 50.4756L10.8541 52.1052L11.6228 52.9994L12.8017 52.9751L12.75 50.4756ZM116.25 48.3338L116.302 50.8333L116.315 45.8347L116.25 48.3338ZM6 45.4782L6.06473 42.979L5.7983 47.97L6 45.4782ZM116.25 54.4021V56.9021L116.452 51.9103L116.25 54.4021ZM12.75 54.4021V51.9021L12.6208 56.8988L12.75 54.4021ZM116.25 59.7565L116.319 62.2556L116.379 57.2599L116.25 59.7565ZM12.681 60.1132L10.182 60.1821L10.3199 65.1802L12.819 65.1113L12.681 60.1132ZM64.5 32.0922L64.6447 34.588L64.5 32.0922ZM5.90853 5.49833L122.909 9.78184L123.091 4.78519L6.09147 0.501674L5.90853 5.49833ZM123 4.78351H6V9.78351H123V4.78351ZM5.87811 9.78054L122.878 15.4919L123.122 10.4978L6.12189 4.78649L5.87811 9.78054ZM123 10.4949H6V15.4949H123V10.4949ZM5.89331 15.4926L122.893 20.49L123.107 15.4946L6.10669 10.4971L5.89331 15.4926ZM123 15.4923H6V20.4923H123V15.4923ZM5.91615 20.4909L122.916 24.4174L123.084 19.4202L6.08385 15.4937L5.91615 20.4909ZM122.947 19.4194L5.94662 21.9181L6.05338 26.917L123.053 24.4183L122.947 19.4194ZM5.90853 26.9159L122.909 31.1994L123.091 26.2027L6.09147 21.9192L5.90853 26.9159ZM6 37.9833H116.25V32.9833H6V37.9833ZM116.404 32.988L6.1535 26.2058L5.8465 31.1964L116.096 37.9786L116.404 32.988ZM5.68681 31.1814L115.937 45.1028L116.563 40.1422L6.31319 26.2208L5.68681 31.1814ZM4.1041 44.2521L10.8541 52.1052L14.6459 48.846L7.8959 40.9929L4.1041 44.2521ZM12.8017 52.9751L116.302 50.8333L116.198 45.8344L12.6983 47.9761L12.8017 52.9751ZM116.315 45.8347L6.06473 42.979L5.93527 47.9773L116.185 50.833L116.315 45.8347ZM5.7983 47.97L116.048 56.894L116.452 51.9103L6.2017 42.9863L5.7983 47.97ZM116.25 51.9021H12.75V56.9021H116.25V51.9021ZM12.6208 56.8988L116.121 62.2532L116.379 57.2599L12.8792 51.9055L12.6208 56.8988ZM116.181 57.2575L12.681 60.1132L12.819 65.1113L116.319 62.2556L116.181 57.2575ZM122.855 26.2053L64.3553 29.5964L64.6447 34.588L123.145 31.1969L122.855 26.2053ZM64.3553 29.5964L5.85532 32.9875L6.14468 37.9791L64.6447 34.588L64.3553 29.5964ZM116.25 40.1225H61.125V45.1225H116.25V40.1225ZM61.125 40.1225H6V45.1225H61.125V40.1225Z" fill="#6A9EDA" fill-opacity="0.5"/>
<path d="M6.09147 54.0517L3.59314 53.9602L3.41021 58.9569L5.90853 59.0483L6.09147 54.0517ZM123 60.8335V63.3335L123.091 58.3352L123 60.8335ZM6 60.8335V58.3335L5.87811 63.3306L6 60.8335ZM123 66.5449V69.0449L123.122 64.0479L123 66.5449ZM6 66.5449V64.0449L5.89331 69.0426L6 66.5449ZM123 71.5423V74.0423L123.107 69.0446L123 71.5423ZM6 71.5423V69.0423L5.91615 74.0409L6 71.5423ZM123 75.4689L123.053 77.9683L123.084 72.9703L123 75.4689ZM6 77.9676L5.94662 75.4681L5.90853 80.4659L6 77.9676ZM123 82.2511L123.145 84.7469L123.091 79.7528L123 82.2511ZM6 89.0333L5.85532 86.5375L6 91.5333V89.0333ZM116.25 89.0333V91.5333L116.404 86.538L116.25 89.0333ZM6 82.2511L6.1535 79.7558L5.68681 84.7314L6 82.2511ZM116.25 96.1725V98.6725L116.563 93.6922L116.25 96.1725ZM6 96.1725V93.6725H0.554583L4.1041 97.8021L6 96.1725ZM12.75 104.026L10.8541 105.655L11.6228 106.549L12.8017 106.525L12.75 104.026ZM116.25 101.884L116.302 104.383L116.315 99.3847L116.25 101.884ZM6 99.0282L6.06473 96.529L5.7983 101.52L6 99.0282ZM116.25 107.952V110.452L116.452 105.46L116.25 107.952ZM12.75 107.952V105.452L12.6208 110.449L12.75 107.952ZM116.25 113.307L116.319 115.806L116.379 110.81L116.25 113.307ZM12.681 113.663L10.182 113.732L10.3199 118.73L12.819 118.661L12.681 113.663ZM64.5 85.6422L64.6447 88.138L64.5 85.6422ZM5.90853 59.0483L122.909 63.3319L123.091 58.3352L6.09147 54.0517L5.90853 59.0483ZM123 58.3335H6V63.3335H123V58.3335ZM5.87811 63.3306L122.878 69.0419L123.122 64.0479L6.12189 58.3365L5.87811 63.3306ZM123 64.0449H6V69.0449H123V64.0449ZM5.89331 69.0426L122.893 74.04L123.107 69.0446L6.10669 64.0472L5.89331 69.0426ZM123 69.0423H6V74.0423H123V69.0423ZM5.91615 74.0409L122.916 77.9675L123.084 72.9703L6.08385 69.0437L5.91615 74.0409ZM122.947 72.9694L5.94662 75.4681L6.05338 80.467L123.053 77.9683L122.947 72.9694ZM5.90853 80.4659L122.909 84.7494L123.091 79.7528L6.09147 75.4692L5.90853 80.4659ZM6 91.5333H116.25V86.5333H6V91.5333ZM116.404 86.538L6.1535 79.7558L5.8465 84.7464L116.096 91.5286L116.404 86.538ZM5.68681 84.7314L115.937 98.6528L116.563 93.6922L6.31319 79.7708L5.68681 84.7314ZM4.1041 97.8021L10.8541 105.655L14.6459 102.396L7.8959 94.5429L4.1041 97.8021ZM12.8017 106.525L116.302 104.383L116.198 99.3844L12.6983 101.526L12.8017 106.525ZM116.315 99.3847L6.06473 96.529L5.93527 101.527L116.185 104.383L116.315 99.3847ZM5.7983 101.52L116.048 110.444L116.452 105.46L6.2017 96.5363L5.7983 101.52ZM116.25 105.452H12.75V110.452H116.25V105.452ZM12.6208 110.449L116.121 115.803L116.379 110.81L12.8792 105.455L12.6208 110.449ZM116.181 110.807L12.681 113.663L12.819 118.661L116.319 115.806L116.181 110.807ZM122.855 79.7553L64.3553 83.1464L64.6447 88.138L123.145 84.7469L122.855 79.7553ZM64.3553 83.1464L5.85532 86.5375L6.14468 91.5291L64.6447 88.138L64.3553 83.1464ZM116.25 93.6725H61.125V98.6725H116.25V93.6725ZM61.125 93.6725H6V98.6725H61.125V93.6725Z" fill="#6A9EDA" fill-opacity="0.5"/>
<path d="M6.09147 45.3395L3.59314 45.248L3.41021 50.2447L5.90853 50.3361L6.09147 45.3395ZM123 52.1213V54.6213L123.091 49.623L123 52.1213ZM6 52.1213V49.6213L5.87811 54.6183L6 52.1213ZM123 57.8327V60.3327L123.122 55.3356L123 57.8327ZM6 57.8327V55.3327L5.89331 60.3304L6 57.8327ZM123 62.8301V65.3301L123.107 60.3324L123 62.8301ZM6 62.8301V60.3301L5.91615 65.3287L6 62.8301ZM123 66.7566L123.053 69.2561L123.084 64.258L123 66.7566ZM6 69.2554L5.94662 66.7559L5.90853 71.7537L6 69.2554ZM123 73.5389L123.145 76.0347L123.091 71.0405L123 73.5389ZM6 80.3211L5.85532 77.8253L6 82.8211V80.3211ZM116.25 80.3211V82.8211L116.404 77.8258L116.25 80.3211ZM6 73.5389L6.1535 71.0436L5.68681 76.0192L6 73.5389ZM116.25 87.4603V89.9603L116.563 84.98L116.25 87.4603ZM6 87.4603V84.9603H0.554583L4.1041 89.0899L6 87.4603ZM12.75 95.3134L10.8541 96.943L11.6228 97.8372L12.8017 97.8129L12.75 95.3134ZM116.25 93.1716L116.302 95.6711L116.315 90.6725L116.25 93.1716ZM6 90.316L6.06473 87.8168L5.7983 92.8078L6 90.316ZM116.25 99.2399V101.74L116.452 96.7481L116.25 99.2399ZM12.75 99.2399V96.7399L12.6208 101.737L12.75 99.2399ZM116.25 104.594L116.319 107.093L116.379 102.098L116.25 104.594ZM12.681 104.951L10.182 105.02L10.3199 110.018L12.819 109.949L12.681 104.951ZM64.5 76.93L64.6447 79.4258L64.5 76.93ZM5.90853 50.3361L122.909 54.6196L123.091 49.623L6.09147 45.3395L5.90853 50.3361ZM123 49.6213H6V54.6213H123V49.6213ZM5.87811 54.6183L122.878 60.3297L123.122 55.3356L6.12189 49.6243L5.87811 54.6183ZM123 55.3327H6V60.3327H123V55.3327ZM5.89331 60.3304L122.893 65.3278L123.107 60.3324L6.10669 55.3349L5.89331 60.3304ZM123 60.3301H6V65.3301H123V60.3301ZM5.91615 65.3287L122.916 69.2552L123.084 64.258L6.08385 60.3315L5.91615 65.3287ZM122.947 64.2572L5.94662 66.7559L6.05338 71.7548L123.053 69.2561L122.947 64.2572ZM5.90853 71.7537L122.909 76.0372L123.091 71.0405L6.09147 66.757L5.90853 71.7537ZM6 82.8211H116.25V77.8211H6V82.8211ZM116.404 77.8258L6.1535 71.0436L5.8465 76.0342L116.096 82.8164L116.404 77.8258ZM5.68681 76.0192L115.937 89.9406L116.563 84.98L6.31319 71.0586L5.68681 76.0192ZM4.1041 89.0899L10.8541 96.943L14.6459 93.6838L7.8959 85.8307L4.1041 89.0899ZM12.8017 97.8129L116.302 95.6711L116.198 90.6722L12.6983 92.8139L12.8017 97.8129ZM116.315 90.6725L6.06473 87.8168L5.93527 92.8151L116.185 95.6708L116.315 90.6725ZM5.7983 92.8078L116.048 101.732L116.452 96.7481L6.2017 87.8241L5.7983 92.8078ZM116.25 96.7399H12.75V101.74H116.25V96.7399ZM12.6208 101.737L116.121 107.091L116.379 102.098L12.8792 96.7433L12.6208 101.737ZM116.181 102.095L12.681 104.951L12.819 109.949L116.319 107.093L116.181 102.095ZM122.855 71.0431L64.3553 74.4342L64.6447 79.4258L123.145 76.0347L122.855 71.0431ZM64.3553 74.4342L5.85532 77.8253L6.14468 82.8169L64.6447 79.4258L64.3553 74.4342ZM116.25 84.9603H61.125V89.9603H116.25V84.9603ZM61.125 84.9603H6V89.9603H61.125V84.9603Z" fill="#6A9EDA" fill-opacity="0.5"/>
<path d="M6.09147 98.8894L3.59314 98.7979L3.41021 103.795L5.90853 103.886L6.09147 98.8894ZM123 105.671V108.171L123.091 103.173L123 105.671ZM6 105.671V103.171L5.87811 108.168L6 105.671ZM123 111.383V113.883L123.122 108.886L123 111.383ZM6 111.383V108.883L5.89331 113.88L6 111.383ZM123 116.38V118.88L123.107 113.882L123 116.38ZM6 116.38V113.88L5.91615 118.879L6 116.38ZM123 120.307L123.053 122.806L123.084 117.808L123 120.307ZM6 122.805L5.94662 120.306L5.90853 125.304L6 122.805ZM123 127.089L123.145 129.585L123.091 124.59L123 127.089ZM6 133.871L5.85532 131.375L6 136.371V133.871ZM116.25 133.871V136.371L116.404 131.376L116.25 133.871ZM6 127.089L6.1535 124.594L5.68681 129.569L6 127.089ZM116.25 141.01V143.51L116.563 138.53L116.25 141.01ZM6 141.01V138.51H0.554583L4.1041 142.64L6 141.01ZM12.75 148.863L10.8541 150.493L11.6228 151.387L12.8017 151.363L12.75 148.863ZM116.25 146.722L116.302 149.221L116.315 144.222L116.25 146.722ZM6 143.866L6.06473 141.367L5.7983 146.358L6 143.866ZM116.25 152.79V155.29L116.452 150.298L116.25 152.79ZM12.75 152.79V150.29L12.6208 155.287L12.75 152.79ZM116.25 158.144L116.319 160.643L116.379 155.648L116.25 158.144ZM12.681 158.501L10.182 158.57L10.3199 163.568L12.819 163.499L12.681 158.501ZM64.5 130.48L64.6447 132.976L64.5 130.48ZM5.90853 103.886L122.909 108.17L123.091 103.173L6.09147 98.8894L5.90853 103.886ZM123 103.171H6V108.171H123V103.171ZM5.87811 108.168L122.878 113.88L123.122 108.886L6.12189 103.174L5.87811 108.168ZM123 108.883H6V113.883H123V108.883ZM5.89331 113.88L122.893 118.878L123.107 113.882L6.10669 108.885L5.89331 113.88ZM123 113.88H6V118.88H123V113.88ZM5.91615 118.879L122.916 122.805L123.084 117.808L6.08385 113.881L5.91615 118.879ZM122.947 117.807L5.94662 120.306L6.05338 125.305L123.053 122.806L122.947 117.807ZM5.90853 125.304L122.909 129.587L123.091 124.59L6.09147 120.307L5.90853 125.304ZM6 136.371H116.25V131.371H6V136.371ZM116.404 131.376L6.1535 124.594L5.8465 129.584L116.096 136.366L116.404 131.376ZM5.68681 129.569L115.937 143.491L116.563 138.53L6.31319 124.609L5.68681 129.569ZM4.1041 142.64L10.8541 150.493L14.6459 147.234L7.8959 139.381L4.1041 142.64ZM12.8017 151.363L116.302 149.221L116.198 144.222L12.6983 146.364L12.8017 151.363ZM116.315 144.222L6.06473 141.367L5.93527 146.365L116.185 149.221L116.315 144.222ZM5.7983 146.358L116.048 155.282L116.452 150.298L6.2017 141.374L5.7983 146.358ZM116.25 150.29H12.75V155.29H116.25V150.29ZM12.6208 155.287L116.121 160.641L116.379 155.648L12.8792 150.293L12.6208 155.287ZM116.181 155.645L12.681 158.501L12.819 163.499L116.319 160.643L116.181 155.645ZM122.855 124.593L64.3553 127.984L64.6447 132.976L123.145 129.585L122.855 124.593ZM64.3553 127.984L5.85532 131.375L6.14468 136.367L64.6447 132.976L64.3553 127.984ZM116.25 138.51H61.125V143.51H116.25V138.51ZM61.125 138.51H6V143.51H61.125V138.51Z" fill="#6A9EDA" fill-opacity="0.5"/>
<path d="M6.14285 76.5986L3.64694 76.4558L3.36123 81.4476L5.85715 81.5905L6.14285 76.5986ZM123 85.7909V88.2909L123.143 83.295L123 85.7909ZM6 85.7909V83.2909L5.80977 88.2837L6 85.7909ZM123 94.7194V97.2194L123.19 92.2267L123 94.7194ZM6 94.7194V92.2194L5.83344 97.2139L6 94.7194ZM123 102.532V105.032L123.167 100.037L123 102.532ZM6 102.532V100.032L5.86902 105.028L6 102.532ZM123 108.67L123.083 111.169L123.131 106.174L123 108.67ZM6 112.576L5.91658 110.078L5.85715 115.072L6 112.576ZM123 119.273L123.226 121.763L123.143 116.777L123 119.273ZM6 129.875L5.77437 127.386L6 132.375V129.875ZM116.25 129.875V132.375L116.489 127.387L116.25 129.875ZM6 119.273L6.23932 116.784L5.51585 121.725L6 119.273ZM116.25 141.036V143.536L116.734 138.583L116.25 141.036ZM6 141.036V138.536H1.77248L3.8093 142.241L6 141.036ZM12.75 153.313L10.5593 154.517L11.2981 155.861L12.8308 155.811L12.75 153.313ZM116.25 149.965L116.331 152.463L116.351 147.467L116.25 149.965ZM6 145.5L6.10115 143.002L5.68616 147.98L6 145.5ZM116.25 159.451V161.951L116.564 156.971L116.25 159.451ZM12.75 159.451V156.951L12.5485 161.943L12.75 159.451ZM116.25 167.822L116.358 170.319L116.452 165.33L116.25 167.822ZM12.6423 169.788L10.1446 169.896L10.3601 174.891L12.8577 174.783L12.6423 169.788ZM64.5 124.574L64.7256 127.064L64.5 124.574ZM5.85715 81.5905L122.857 88.2868L123.143 83.295L6.14285 76.5986L5.85715 81.5905ZM123 83.2909H6V88.2909H123V83.2909ZM5.80977 88.2837L122.81 97.2122L123.19 92.2267L6.19023 83.2982L5.80977 88.2837ZM123 92.2194H6V97.2194H123V92.2194ZM5.83344 97.2139L122.833 105.026L123.167 100.037L6.16656 92.225L5.83344 97.2139ZM123 100.032H6V105.032H123V100.032ZM5.86902 105.028L122.869 111.167L123.131 106.174L6.13098 100.035L5.86902 105.028ZM122.917 106.172L5.91658 110.078L6.08342 115.075L123.083 111.169L122.917 106.172ZM5.85715 115.072L122.857 121.769L123.143 116.777L6.14285 110.081L5.85715 115.072ZM6 132.375H116.25V127.375H6V132.375ZM116.489 127.387L6.23932 116.784L5.76068 121.761L116.011 132.364L116.489 127.387ZM5.51585 121.725L115.766 143.489L116.734 138.583L6.48415 116.82L5.51585 121.725ZM3.8093 142.241L10.5593 154.517L14.9407 152.108L8.1907 139.832L3.8093 142.241ZM12.8308 155.811L116.331 152.463L116.169 147.466L12.6692 150.814L12.8308 155.811ZM116.351 147.467L6.10115 143.002L5.89885 147.998L116.149 152.462L116.351 147.467ZM5.68616 147.98L115.936 161.931L116.564 156.971L6.31384 143.02L5.68616 147.98ZM116.25 156.951H12.75V161.951H116.25V156.951ZM12.5485 161.943L116.048 170.313L116.452 165.33L12.9515 156.959L12.5485 161.943ZM116.142 165.324L12.6423 169.788L12.8577 174.783L116.358 170.319L116.142 165.324ZM122.774 116.783L64.2744 122.084L64.7256 127.064L123.226 121.763L122.774 116.783ZM64.2744 122.084L5.77437 127.386L6.22563 132.365L64.7256 127.064L64.2744 122.084ZM116.25 138.536H61.125V143.536H116.25V138.536ZM61.125 138.536H6V143.536H61.125V138.536Z" fill="#6A9EDA" fill-opacity="0.5"/>
<path d="M6.14285 160.313L3.64694 160.17L3.36123 165.162L5.85715 165.305L6.14285 160.313ZM123 169.505V172.005L123.143 167.009L123 169.505ZM6 169.505V167.005L5.80977 171.998L6 169.505ZM123 178.434V180.934L123.19 175.941L123 178.434ZM6 178.434V175.934L5.83344 180.928L6 178.434ZM123 186.246V188.746L123.167 183.752L123 186.246ZM6 186.246V183.746L5.86902 188.743L6 186.246ZM123 192.384L123.083 194.883L123.131 189.888L123 192.384ZM6 196.291L5.91658 193.792L5.85715 198.787L6 196.291ZM123 202.987L123.226 205.477L123.143 200.491L123 202.987ZM6 213.59L5.77437 211.1L6 216.09V213.59ZM116.25 213.59V216.09L116.489 211.101L116.25 213.59ZM6 202.987L6.23932 200.498L5.51585 205.44L6 202.987ZM116.25 224.75V227.25L116.734 222.298L116.25 224.75ZM6 224.75V222.25H1.77248L3.8093 225.955L6 224.75ZM12.75 237.027L10.5593 238.231L11.2981 239.575L12.8308 239.526L12.75 237.027ZM116.25 233.679L116.331 236.177L116.351 231.181L116.25 233.679ZM6 229.214L6.10115 226.716L5.68616 231.695L6 229.214ZM116.25 243.165V245.665L116.564 240.685L116.25 243.165ZM12.75 243.165V240.665L12.5485 245.657L12.75 243.165ZM116.25 251.536L116.358 254.033L116.452 249.044L116.25 251.536ZM12.6423 253.502L10.1446 253.61L10.3601 258.605L12.8577 258.498L12.6423 253.502ZM64.5 208.288L64.7256 210.778L64.5 208.288ZM5.85715 165.305L122.857 172.001L123.143 167.009L6.14285 160.313L5.85715 165.305ZM123 167.005H6V172.005H123V167.005ZM5.80977 171.998L122.81 180.926L123.19 175.941L6.19023 167.012L5.80977 171.998ZM123 175.934H6V180.934H123V175.934ZM5.83344 180.928L122.833 188.74L123.167 183.752L6.16656 175.939L5.83344 180.928ZM123 183.746H6V188.746H123V183.746ZM5.86902 188.743L122.869 194.881L123.131 189.888L6.13098 183.749L5.86902 188.743ZM122.917 189.886L5.91658 193.792L6.08342 198.789L123.083 194.883L122.917 189.886ZM5.85715 198.787L122.857 205.483L123.143 200.491L6.14285 193.795L5.85715 198.787ZM6 216.09H116.25V211.09H6V216.09ZM116.489 211.101L6.23932 200.498L5.76068 205.475L116.011 216.078L116.489 211.101ZM5.51585 205.44L115.766 227.203L116.734 222.298L6.48415 200.534L5.51585 205.44ZM3.8093 225.955L10.5593 238.231L14.9407 235.822L8.1907 223.546L3.8093 225.955ZM12.8308 239.526L116.331 236.177L116.169 231.18L12.6692 234.528L12.8308 239.526ZM116.351 231.181L6.10115 226.716L5.89885 231.712L116.149 236.177L116.351 231.181ZM5.68616 231.695L115.936 245.645L116.564 240.685L6.31384 226.734L5.68616 231.695ZM116.25 240.665H12.75V245.665H116.25V240.665ZM12.5485 245.657L116.048 254.028L116.452 249.044L12.9515 240.673L12.5485 245.657ZM116.142 249.038L12.6423 253.502L12.8577 258.498L116.358 254.033L116.142 249.038ZM122.774 200.497L64.2744 205.798L64.7256 210.778L123.226 205.477L122.774 200.497ZM64.2744 205.798L5.77437 211.1L6.22563 216.079L64.7256 210.778L64.2744 205.798ZM116.25 222.25H61.125V227.25H116.25V222.25ZM61.125 222.25H6V227.25H61.125V222.25Z" fill="#6A9EDA" fill-opacity="0.5"/>
<path d="M6.09147 95.5017L3.59314 95.4102L3.41021 100.407L5.90853 100.498L6.09147 95.5017ZM123 102.284V104.784L123.091 99.7852L123 102.284ZM6 102.284V99.7835L5.87811 104.781L6 102.284ZM123 107.995V110.495L123.122 105.498L123 107.995ZM6 107.995V105.495L5.89331 110.493L6 107.995ZM123 112.992V115.492L123.107 110.495L123 112.992ZM6 112.992V110.492L5.91615 115.491L6 112.992ZM123 116.919L123.053 119.418L123.084 114.42L123 116.919ZM6 119.418L5.94662 116.918L5.90853 121.916L6 119.418ZM123 123.701L123.145 126.197L123.091 121.203L123 123.701ZM6 130.483L5.85532 127.987L6 132.983V130.483ZM116.25 130.483V132.983L116.404 127.988L116.25 130.483ZM6 123.701L6.1535 121.206L5.68681 126.181L6 123.701ZM116.25 137.622V140.122L116.563 135.142L116.25 137.622ZM6 137.622V135.122H0.554583L4.1041 139.252L6 137.622ZM12.75 145.476L10.8541 147.105L11.6228 147.999L12.8017 147.975L12.75 145.476ZM116.25 143.334L116.302 145.833L116.315 140.835L116.25 143.334ZM6 140.478L6.06473 137.979L5.7983 142.97L6 140.478ZM116.25 149.402V151.902L116.452 146.91L116.25 149.402ZM12.75 149.402V146.902L12.6208 151.899L12.75 149.402ZM116.25 154.757L116.319 157.256L116.379 152.26L116.25 154.757ZM12.681 155.113L10.182 155.182L10.3199 160.18L12.819 160.111L12.681 155.113ZM64.5 127.092L64.6447 129.588L64.5 127.092ZM5.90853 100.498L122.909 104.782L123.091 99.7852L6.09147 95.5017L5.90853 100.498ZM123 99.7835H6V104.784H123V99.7835ZM5.87811 104.781L122.878 110.492L123.122 105.498L6.12189 99.7865L5.87811 104.781ZM123 105.495H6V110.495H123V105.495ZM5.89331 110.493L122.893 115.49L123.107 110.495L6.10669 105.497L5.89331 110.493ZM123 110.492H6V115.492H123V110.492ZM5.91615 115.491L122.916 119.417L123.084 114.42L6.08385 110.494L5.91615 115.491ZM122.947 114.419L5.94662 116.918L6.05338 121.917L123.053 119.418L122.947 114.419ZM5.90853 121.916L122.909 126.199L123.091 121.203L6.09147 116.919L5.90853 121.916ZM6 132.983H116.25V127.983H6V132.983ZM116.404 127.988L6.1535 121.206L5.8465 126.196L116.096 132.979L116.404 127.988ZM5.68681 126.181L115.937 140.103L116.563 135.142L6.31319 121.221L5.68681 126.181ZM4.1041 139.252L10.8541 147.105L14.6459 143.846L7.8959 135.993L4.1041 139.252ZM12.8017 147.975L116.302 145.833L116.198 140.834L12.6983 142.976L12.8017 147.975ZM116.315 140.835L6.06473 137.979L5.93527 142.977L116.185 145.833L116.315 140.835ZM5.7983 142.97L116.048 151.894L116.452 146.91L6.2017 137.986L5.7983 142.97ZM116.25 146.902H12.75V151.902H116.25V146.902ZM12.6208 151.899L116.121 157.253L116.379 152.26L12.8792 146.905L12.6208 151.899ZM116.181 152.257L12.681 155.113L12.819 160.111L116.319 157.256L116.181 152.257ZM122.855 121.205L64.3553 124.596L64.6447 129.588L123.145 126.197L122.855 121.205ZM64.3553 124.596L5.85532 127.987L6.14468 132.979L64.6447 129.588L64.3553 124.596ZM116.25 135.122H61.125V140.122H116.25V135.122ZM61.125 135.122H6V140.122H61.125V135.122Z" fill="#6A9EDA" fill-opacity="0.5"/>
<path d="M6.09147 149.052L3.59314 148.96L3.41021 153.957L5.90853 154.048L6.09147 149.052ZM123 155.834V158.334L123.091 153.335L123 155.834ZM6 155.834V153.334L5.87811 158.331L6 155.834ZM123 161.545V164.045L123.122 159.048L123 161.545ZM6 161.545V159.045L5.89331 164.043L6 161.545ZM123 166.542V169.042L123.107 164.045L123 166.542ZM6 166.542V164.042L5.91615 169.041L6 166.542ZM123 170.469L123.053 172.968L123.084 167.97L123 170.469ZM6 172.968L5.94662 170.468L5.90853 175.466L6 172.968ZM123 177.251L123.145 179.747L123.091 174.753L123 177.251ZM6 184.033L5.85532 181.538L6 186.533V184.033ZM116.25 184.033V186.533L116.404 181.538L116.25 184.033ZM6 177.251L6.1535 174.756L5.68681 179.731L6 177.251ZM116.25 191.173V193.673L116.563 188.692L116.25 191.173ZM6 191.173V188.673H0.554583L4.1041 192.802L6 191.173ZM12.75 199.026L10.8541 200.655L11.6228 201.549L12.8017 201.525L12.75 199.026ZM116.25 196.884L116.302 199.383L116.315 194.385L116.25 196.884ZM6 194.028L6.06473 191.529L5.7983 196.52L6 194.028ZM116.25 202.952V205.452L116.452 200.46L116.25 202.952ZM12.75 202.952V200.452L12.6208 205.449L12.75 202.952ZM116.25 208.307L116.319 210.806L116.379 205.81L116.25 208.307ZM12.681 208.663L10.182 208.732L10.3199 213.73L12.819 213.661L12.681 208.663ZM64.5 180.642L64.6447 183.138L64.5 180.642ZM5.90853 154.048L122.909 158.332L123.091 153.335L6.09147 149.052L5.90853 154.048ZM123 153.334H6V158.334H123V153.334ZM5.87811 158.331L122.878 164.042L123.122 159.048L6.12189 153.337L5.87811 158.331ZM123 159.045H6V164.045H123V159.045ZM5.89331 164.043L122.893 169.04L123.107 164.045L6.10669 159.047L5.89331 164.043ZM123 164.042H6V169.042H123V164.042ZM5.91615 169.041L122.916 172.967L123.084 167.97L6.08385 164.044L5.91615 169.041ZM122.947 167.969L5.94662 170.468L6.05338 175.467L123.053 172.968L122.947 167.969ZM5.90853 175.466L122.909 179.749L123.091 174.753L6.09147 170.469L5.90853 175.466ZM6 186.533H116.25V181.533H6V186.533ZM116.404 181.538L6.1535 174.756L5.8465 179.746L116.096 186.529L116.404 181.538ZM5.68681 179.731L115.937 193.653L116.563 188.692L6.31319 174.771L5.68681 179.731ZM4.1041 192.802L10.8541 200.655L14.6459 197.396L7.8959 189.543L4.1041 192.802ZM12.8017 201.525L116.302 199.383L116.198 194.384L12.6983 196.526L12.8017 201.525ZM116.315 194.385L6.06473 191.529L5.93527 196.527L116.185 199.383L116.315 194.385ZM5.7983 196.52L116.048 205.444L116.452 200.46L6.2017 191.536L5.7983 196.52ZM116.25 200.452H12.75V205.452H116.25V200.452ZM12.6208 205.449L116.121 210.803L116.379 205.81L12.8792 200.455L12.6208 205.449ZM116.181 205.807L12.681 208.663L12.819 213.661L116.319 210.806L116.181 205.807ZM122.855 174.755L64.3553 178.146L64.6447 183.138L123.145 179.747L122.855 174.755ZM64.3553 178.146L5.85532 181.538L6.14468 186.529L64.6447 183.138L64.3553 178.146ZM116.25 188.673H61.125V193.673H116.25V188.673ZM61.125 188.673H6V193.673H61.125V188.673Z" fill="#6A9EDA" fill-opacity="0.5"/>
<path d="M6.09147 140.339L3.59314 140.248L3.41021 145.245L5.90853 145.336L6.09147 140.339ZM123 147.121V149.621L123.091 144.623L123 147.121ZM6 147.121V144.621L5.87811 149.618L6 147.121ZM123 152.833V155.333L123.122 150.336L123 152.833ZM6 152.833V150.333L5.89331 155.33L6 152.833ZM123 157.83V160.33L123.107 155.332L123 157.83ZM6 157.83V155.33L5.91615 160.329L6 157.83ZM123 161.757L123.053 164.256L123.084 159.258L123 161.757ZM6 164.255L5.94662 161.756L5.90853 166.754L6 164.255ZM123 168.539L123.145 171.035L123.091 166.041L123 168.539ZM6 175.321L5.85532 172.825L6 177.821V175.321ZM116.25 175.321V177.821L116.404 172.826L116.25 175.321ZM6 168.539L6.1535 166.044L5.68681 171.019L6 168.539ZM116.25 182.46V184.96L116.563 179.98L116.25 182.46ZM6 182.46V179.96H0.554583L4.1041 184.09L6 182.46ZM12.75 190.313L10.8541 191.943L11.6228 192.837L12.8017 192.813L12.75 190.313ZM116.25 188.172L116.302 190.671L116.315 185.672L116.25 188.172ZM6 185.316L6.06473 182.817L5.7983 187.808L6 185.316ZM116.25 194.24V196.74L116.452 191.748L116.25 194.24ZM12.75 194.24V191.74L12.6208 196.737L12.75 194.24ZM116.25 199.594L116.319 202.093L116.379 197.098L116.25 199.594ZM12.681 199.951L10.182 200.02L10.3199 205.018L12.819 204.949L12.681 199.951ZM64.5 171.93L64.6447 174.426L64.5 171.93ZM5.90853 145.336L122.909 149.62L123.091 144.623L6.09147 140.339L5.90853 145.336ZM123 144.621H6V149.621H123V144.621ZM5.87811 149.618L122.878 155.33L123.122 150.336L6.12189 144.624L5.87811 149.618ZM123 150.333H6V155.333H123V150.333ZM5.89331 155.33L122.893 160.328L123.107 155.332L6.10669 150.335L5.89331 155.33ZM123 155.33H6V160.33H123V155.33ZM5.91615 160.329L122.916 164.255L123.084 159.258L6.08385 155.331L5.91615 160.329ZM122.947 159.257L5.94662 161.756L6.05338 166.755L123.053 164.256L122.947 159.257ZM5.90853 166.754L122.909 171.037L123.091 166.041L6.09147 161.757L5.90853 166.754ZM6 177.821H116.25V172.821H6V177.821ZM116.404 172.826L6.1535 166.044L5.8465 171.034L116.096 177.816L116.404 172.826ZM5.68681 171.019L115.937 184.941L116.563 179.98L6.31319 166.059L5.68681 171.019ZM4.1041 184.09L10.8541 191.943L14.6459 188.684L7.8959 180.831L4.1041 184.09ZM12.8017 192.813L116.302 190.671L116.198 185.672L12.6983 187.814L12.8017 192.813ZM116.315 185.672L6.06473 182.817L5.93527 187.815L116.185 190.671L116.315 185.672ZM5.7983 187.808L116.048 196.732L116.452 191.748L6.2017 182.824L5.7983 187.808ZM116.25 191.74H12.75V196.74H116.25V191.74ZM12.6208 196.737L116.121 202.091L116.379 197.098L12.8792 191.743L12.6208 196.737ZM116.181 197.095L12.681 199.951L12.819 204.949L116.319 202.093L116.181 197.095ZM122.855 166.043L64.3553 169.434L64.6447 174.426L123.145 171.035L122.855 166.043ZM64.3553 169.434L5.85532 172.825L6.14468 177.817L64.6447 174.426L64.3553 169.434ZM116.25 179.96H61.125V184.96H116.25V179.96ZM61.125 179.96H6V184.96H61.125V179.96Z" fill="#6A9EDA" fill-opacity="0.5"/>
<path d="M6.09147 193.889L3.59314 193.798L3.41021 198.795L5.90853 198.886L6.09147 193.889ZM123 200.671V203.171L123.091 198.173L123 200.671ZM6 200.671V198.171L5.87811 203.168L6 200.671ZM123 206.383V208.883L123.122 203.886L123 206.383ZM6 206.383V203.883L5.89331 208.88L6 206.383ZM123 211.38V213.88L123.107 208.882L123 211.38ZM6 211.38V208.88L5.91615 213.879L6 211.38ZM123 215.307L123.053 217.806L123.084 212.808L123 215.307ZM6 217.805L5.94662 215.306L5.90853 220.304L6 217.805ZM123 222.089L123.145 224.585L123.091 219.59L123 222.089ZM6 228.871L5.85532 226.375L6 231.371V228.871ZM116.25 228.871V231.371L116.404 226.376L116.25 228.871ZM6 222.089L6.1535 219.594L5.68681 224.569L6 222.089ZM116.25 236.01V238.51L116.563 233.53L116.25 236.01ZM6 236.01V233.51H0.554583L4.1041 237.64L6 236.01ZM12.75 243.863L10.8541 245.493L11.6228 246.387L12.8017 246.363L12.75 243.863ZM116.25 241.722L116.302 244.221L116.315 239.222L116.25 241.722ZM6 238.866L6.06473 236.367L5.7983 241.358L6 238.866ZM116.25 247.79V250.29L116.452 245.298L116.25 247.79ZM12.75 247.79V245.29L12.6208 250.287L12.75 247.79ZM116.25 253.144L116.319 255.643L116.379 250.648L116.25 253.144ZM12.681 253.501L10.182 253.57L10.3199 258.568L12.819 258.499L12.681 253.501ZM64.5 225.48L64.6447 227.976L64.5 225.48ZM5.90853 198.886L122.909 203.17L123.091 198.173L6.09147 193.889L5.90853 198.886ZM123 198.171H6V203.171H123V198.171ZM5.87811 203.168L122.878 208.88L123.122 203.886L6.12189 198.174L5.87811 203.168ZM123 203.883H6V208.883H123V203.883ZM5.89331 208.88L122.893 213.878L123.107 208.882L6.10669 203.885L5.89331 208.88ZM123 208.88H6V213.88H123V208.88ZM5.91615 213.879L122.916 217.805L123.084 212.808L6.08385 208.881L5.91615 213.879ZM122.947 212.807L5.94662 215.306L6.05338 220.305L123.053 217.806L122.947 212.807ZM5.90853 220.304L122.909 224.587L123.091 219.59L6.09147 215.307L5.90853 220.304ZM6 231.371H116.25V226.371H6V231.371ZM116.404 226.376L6.1535 219.594L5.8465 224.584L116.096 231.366L116.404 226.376ZM5.68681 224.569L115.937 238.491L116.563 233.53L6.31319 219.608L5.68681 224.569ZM4.1041 237.64L10.8541 245.493L14.6459 242.234L7.8959 234.381L4.1041 237.64ZM12.8017 246.363L116.302 244.221L116.198 239.222L12.6983 241.364L12.8017 246.363ZM116.315 239.222L6.06473 236.367L5.93527 241.365L116.185 244.221L116.315 239.222ZM5.7983 241.358L116.048 250.282L116.452 245.298L6.2017 236.374L5.7983 241.358ZM116.25 245.29H12.75V250.29H116.25V245.29ZM12.6208 250.287L116.121 255.641L116.379 250.648L12.8792 245.293L12.6208 250.287ZM116.181 250.645L12.681 253.501L12.819 258.499L116.319 255.643L116.181 250.645ZM122.855 219.593L64.3553 222.984L64.6447 227.976L123.145 224.585L122.855 219.593ZM64.3553 222.984L5.85532 226.375L6.14468 231.367L64.6447 227.976L64.3553 222.984ZM116.25 233.51H61.125V238.51H116.25V233.51ZM61.125 233.51H6V238.51H61.125V233.51Z" fill="#6A9EDA" fill-opacity="0.5"/>
</svg>
