<svg width="127" height="26" viewBox="0 0 127 26" fill="none" xmlns="http://www.w3.org/2000/svg">
<path d="M3.02239 5.16676L0.522494 5.14436L0.477707 10.1442L2.97761 10.1666L3.02239 5.16676ZM126 8.76845V11.2685L126.022 6.26855L126 8.76845ZM3 8.76845V6.26845L2.97014 11.2683L3 8.76845ZM126 10.2375V12.7375L126.03 7.73769L126 10.2375ZM3 10.2375V7.73751L2.97387 12.7374L3 10.2375ZM126 11.5229V14.0229L126.026 9.02308L126 11.5229ZM3 11.5229V9.02294L2.97947 14.0229L3 11.5229ZM126 12.5329L126.013 15.0329L126.021 10.033L126 12.5329ZM3 13.1756L2.98694 10.6757L2.97761 15.6755L3 13.1756ZM126 14.2774L126.035 16.7772L126.022 11.7775L126 14.2774ZM3 16.0219L2.96455 13.5222L3 18.5219V16.0219ZM118.904 16.0219V18.5219L118.941 13.5222L118.904 16.0219ZM3 14.2774L3.03762 11.7777L2.9228 16.7762L3 14.2774ZM118.904 17.8583V20.3583L118.981 15.3595L118.904 17.8583ZM3 17.8583V15.3583L2.31555 20.2628L3 17.8583ZM10.0962 19.8782L9.41171 22.2827L9.75347 22.38L10.1088 22.3782L10.0962 19.8782ZM118.904 19.3273L118.917 21.8273L118.92 16.8274L118.904 19.3273ZM3 18.5928L3.01584 16.0929L2.9505 21.0923L3 18.5928ZM118.904 20.8882V23.3882L118.953 18.3887L118.904 20.8882ZM10.0962 20.8882V18.3882L10.0645 23.388L10.0962 20.8882ZM118.904 22.2655L118.921 24.7654L118.935 19.7657L118.904 22.2655ZM10.0793 20.5L7.57933 20.5169L7.61309 25.5168L10.113 25.4999L10.0793 20.5ZM64.5 15.1497L64.5355 17.6494L64.5 15.1497ZM2.97761 10.1666L125.978 11.2684L126.022 6.26855L3.02239 5.16676L2.97761 10.1666ZM126 6.26845H3V11.2685H126V6.26845ZM2.97014 11.2683L125.97 12.7373L126.03 7.73769L3.02986 6.26863L2.97014 11.2683ZM126 7.73751H3V12.7375H126V7.73751ZM2.97387 12.7374L125.974 14.0228L126.026 9.02308L3.02613 7.73765L2.97387 12.7374ZM126 9.02294H3V14.0229H126V9.02294ZM2.97947 14.0229L125.979 15.0328L126.021 10.033L3.02053 9.02303L2.97947 14.0229ZM125.987 10.033L2.98694 10.6757L3.01306 15.6756L126.013 15.0329L125.987 10.033ZM2.97761 15.6755L125.978 16.7773L126.022 11.7775L3.02239 10.6757L2.97761 15.6755ZM3 18.5219H118.904V13.5219H3V18.5219ZM118.941 13.5222L3.03762 11.7777L2.96238 16.7772L118.866 18.5217L118.941 13.5222ZM2.9228 16.7762L118.827 20.3571L118.981 15.3595L3.0772 11.7786L2.9228 16.7762ZM2.31555 20.2628L9.41171 22.2827L10.7806 17.4738L3.68445 15.4538L2.31555 20.2628ZM10.1088 22.3782L118.917 21.8273L118.891 16.8274L10.0835 17.3783L10.1088 22.3782ZM118.92 16.8274L3.01584 16.0929L2.98416 21.0928L118.888 21.8273L118.92 16.8274ZM2.9505 21.0923L118.854 23.3877L118.953 18.3887L3.0495 16.0933L2.9505 21.0923ZM118.904 18.3882H10.0962V23.3882H118.904V18.3882ZM10.0645 23.388L118.872 24.7653L118.935 19.7657L10.1278 18.3884L10.0645 23.388ZM118.887 19.7655L10.0793 20.5L10.113 25.4999L118.921 24.7654L118.887 19.7655ZM125.965 11.7777L64.4646 12.6499L64.5355 17.6494L126.035 16.7772L125.965 11.7777ZM64.4646 12.6499L2.96455 13.5222L3.03545 18.5217L64.5355 17.6494L64.4646 12.6499ZM118.904 15.3583H60.9519V20.3583H118.904V15.3583ZM60.9519 15.3583H3V20.3583H60.9519V15.3583Z" fill="#FA5F49" fill-opacity="0.5"/>
<path d="M3.02629 0.500138L0.526426 0.473851L0.473851 5.47357L2.97371 5.49986L3.02629 0.500138ZM126 4.29341V6.79341L126.026 1.79355L126 4.29341ZM3 4.29341V1.79341L2.96495 6.79317L3 4.29341ZM126 6.01796V8.51796L126.035 3.51821L126 6.01796ZM3 6.01796V3.51796L2.96933 8.51778L3 6.01796ZM126 7.52695V10.0269L126.031 5.02713L126 7.52695ZM3 7.52695V5.02695L2.9759 10.0268L3 7.52695ZM126 8.71257L126.015 11.2125L126.024 6.21269L126 8.71257ZM3 9.46707L2.98467 6.96711L2.97371 11.9669L3 9.46707ZM126 10.7605L126.042 13.2601L126.026 8.26062L126 10.7605ZM3 12.8084L2.95838 10.3087L3 15.3084V12.8084ZM118.904 12.8084V15.3084L118.948 10.3088L118.904 12.8084ZM3 10.7605L3.04417 8.26087L2.90939 13.2588L3 10.7605ZM118.904 14.9641V17.4641L118.994 12.4657L118.904 14.9641ZM3 14.9641V12.4641L2.20766 17.3352L3 14.9641ZM10.0962 17.3353L9.30382 19.7064L9.69674 19.8377L10.111 19.8353L10.0962 17.3353ZM118.904 16.6886L118.919 19.1886L118.922 14.1887L118.904 16.6886ZM3 15.8263L3.0186 13.3264L2.94189 18.3257L3 15.8263ZM118.904 18.521V21.021L118.962 16.0216L118.904 18.521ZM10.0962 18.521V16.021L10.059 21.0207L10.0962 18.521ZM118.904 20.1377L118.924 22.6376L118.941 17.638L118.904 20.1377ZM10.0763 18.5001L7.57642 18.5199L7.61604 23.5197L10.116 23.4999L10.0763 18.5001ZM64.5 11.7844L64.5416 14.2841L64.5 11.7844ZM2.97371 5.49986L125.974 6.79327L126.026 1.79355L3.02629 0.500138L2.97371 5.49986ZM126 1.79341H3V6.79341H126V1.79341ZM2.96495 6.79317L125.965 8.51772L126.035 3.51821L3.03505 1.79366L2.96495 6.79317ZM126 3.51796H3V8.51796H126V3.51796ZM2.96933 8.51778L125.969 10.0268L126.031 5.02713L3.03067 3.51815L2.96933 8.51778ZM126 5.02695H3V10.0269H126V5.02695ZM2.9759 10.0268L125.976 11.2125L126.024 6.21269L3.0241 5.02706L2.9759 10.0268ZM125.985 6.21262L2.98467 6.96711L3.01533 11.967L126.015 11.2125L125.985 6.21262ZM2.97371 11.9669L125.974 13.2603L126.026 8.26062L3.02629 6.9672L2.97371 11.9669ZM3 15.3084H118.904V10.3084H3V15.3084ZM118.948 10.3088L3.04417 8.26087L2.95583 13.2601L118.86 15.308L118.948 10.3088ZM2.90939 13.2588L118.813 17.4624L118.994 12.4657L3.09061 8.26212L2.90939 13.2588ZM2.20766 17.3352L9.30382 19.7064L10.8885 14.9642L3.79234 12.593L2.20766 17.3352ZM10.111 19.8353L118.919 19.1886L118.889 14.1887L10.0813 14.8354L10.111 19.8353ZM118.922 14.1887L3.0186 13.3264L2.9814 18.3263L118.885 19.1886L118.922 14.1887ZM2.94189 18.3257L118.846 21.0203L118.962 16.0216L3.05811 13.327L2.94189 18.3257ZM118.904 16.021H10.0962V21.021H118.904V16.021ZM10.059 21.0207L118.867 22.6374L118.941 17.638L10.1333 16.0212L10.059 21.0207ZM118.884 17.6378L10.0763 18.5001L10.116 23.4999L118.924 22.6376L118.884 17.6378ZM125.958 8.26083L64.4584 9.28478L64.5416 14.2841L126.042 13.2601L125.958 8.26083ZM64.4584 9.28478L2.95838 10.3087L3.04162 15.308L64.5416 14.2841L64.4584 9.28478ZM118.904 12.4641H60.9519V17.4641H118.904V12.4641ZM60.9519 12.4641H3V17.4641H60.9519V12.4641Z" fill="#FA5F49" fill-opacity="0.5"/>
</svg>
