<svg width="106" height="26" viewBox="0 0 106 26" fill="none" xmlns="http://www.w3.org/2000/svg">
<path d="M3.027 5.16682L0.527149 5.13981L0.473143 10.1395L2.973 10.1665L3.027 5.16682ZM105 8.76847V11.2685L105.027 6.26861L105 8.76847ZM3 8.76847V6.26847L2.964 11.2682L3 8.76847ZM105 10.2375V12.7375L105.036 7.73779L105 10.2375ZM3 10.2375V7.73753L2.9685 12.7373L3 10.2375ZM105 11.523V14.023L105.032 9.02316L105 11.523ZM3 11.523V9.02296L2.97525 14.0228L3 11.523ZM105 12.5329L105.016 15.0329L105.025 10.0331L105 12.5329ZM3 13.1757L2.98425 10.6757L2.973 15.6755L3 13.1757ZM105 14.2775L105.043 16.7771L105.027 11.7776L105 14.2775ZM3 16.022L2.95725 13.5223L3 18.522V16.022ZM99.1154 16.022V18.522L99.1608 13.5224L99.1154 16.022ZM3 14.2775L3.04537 11.7779L2.90693 16.7757L3 14.2775ZM99.1154 17.8583V20.3583L99.2085 15.36L99.1154 17.8583ZM3 17.8583V15.3583L2.18833 20.2229L3 17.8583ZM8.88462 19.8782L8.07295 22.2428L8.47491 22.3808L8.89988 22.3782L8.88462 19.8782ZM99.1154 19.3274L99.1306 21.8273L99.1345 16.8274L99.1154 19.3274ZM3 18.5928L3.0191 16.0929L2.94031 21.0921L3 18.5928ZM99.1154 20.8882V23.3882L99.1751 18.3889L99.1154 20.8882ZM8.88462 20.8882V18.3882L8.84646 23.3879L8.88462 20.8882ZM99.1154 22.2655L99.1357 24.7654L99.1535 19.7658L99.1154 22.2655ZM8.86426 20.5001L6.36435 20.5204L6.40505 25.5203L8.90497 25.4999L8.86426 20.5001ZM54 15.1497L54.0428 17.6493L54 15.1497ZM2.973 10.1665L104.973 11.2683L105.027 6.26861L3.027 5.16682L2.973 10.1665ZM105 6.26847H3V11.2685H105V6.26847ZM2.964 11.2682L104.964 12.7373L105.036 7.73779L3.036 6.26873L2.964 11.2682ZM105 7.73753H3V12.7375H105V7.73753ZM2.9685 12.7373L104.968 14.0228L105.032 9.02316L3.0315 7.73773L2.9685 12.7373ZM105 9.02296H3V14.023H105V9.02296ZM2.97525 14.0228L104.975 15.0328L105.025 10.0331L3.02475 9.02308L2.97525 14.0228ZM104.984 10.033L2.98425 10.6757L3.01575 15.6756L105.016 15.0329L104.984 10.033ZM2.973 15.6755L104.973 16.7773L105.027 11.7776L3.027 10.6758L2.973 15.6755ZM3 18.522H99.1154V13.522H3V18.522ZM99.1608 13.5224L3.04537 11.7779L2.95463 16.777L99.07 18.5216L99.1608 13.5224ZM2.90693 16.7757L99.0223 20.3566L99.2085 15.36L3.09307 11.7792L2.90693 16.7757ZM2.18833 20.2229L8.07295 22.2428L9.69628 17.5137L3.81167 15.4937L2.18833 20.2229ZM8.89988 22.3782L99.1306 21.8273L99.1001 16.8274L8.86935 17.3783L8.89988 22.3782ZM99.1345 16.8274L3.0191 16.0929L2.9809 21.0927L99.0963 21.8273L99.1345 16.8274ZM2.94031 21.0921L99.0557 23.3875L99.1751 18.3889L3.05969 16.0935L2.94031 21.0921ZM99.1154 18.3882H8.88462V23.3882H99.1154V18.3882ZM8.84646 23.3879L99.0772 24.7652L99.1535 19.7658L8.92277 18.3885L8.84646 23.3879ZM99.095 19.7656L8.86426 20.5001L8.90497 25.4999L99.1357 24.7654L99.095 19.7656ZM104.957 11.7778L53.9572 12.6501L54.0428 17.6493L105.043 16.7771L104.957 11.7778ZM53.9572 12.6501L2.95725 13.5223L3.04275 18.5216L54.0428 17.6493L53.9572 12.6501ZM99.1154 15.3583H51.0577V20.3583H99.1154V15.3583ZM51.0577 15.3583H3V20.3583H51.0577V15.3583Z" fill="#A5EEA0" fill-opacity="0.5"/>
<path d="M3.0317 0.500201L0.5319 0.468502L0.468502 5.4681L2.9683 5.4998L3.0317 0.500201ZM105 4.29341V6.79341L105.032 1.79361L105 4.29341ZM3 4.29341V1.79341L2.95774 6.79306L3 4.29341ZM105 6.01796V8.51796L105.042 3.51832L105 6.01796ZM3 6.01796V3.51796L2.96302 8.51769L3 6.01796ZM105 7.52695V10.0269L105.037 5.02722L105 7.52695ZM3 7.52695V5.02695L2.97094 10.0268L3 7.52695ZM105 8.71257L105.018 11.2125L105.029 6.21274L105 8.71257ZM3 9.46707L2.98151 6.96713L2.9683 11.9669L3 9.46707ZM105 10.7605L105.05 13.26L105.032 8.26068L105 10.7605ZM3 12.8084L2.94982 10.3089L3 15.3084V12.8084ZM99.1154 12.8084V15.3084L99.1686 10.309L99.1154 12.8084ZM3 10.7605L3.05325 8.26105L2.89077 13.2581L3 10.7605ZM99.1154 14.9641V17.4641L99.2246 12.4665L99.1154 14.9641ZM3 14.9641V12.4641L2.06561 17.2829L3 14.9641ZM8.88462 17.3353L7.95023 19.6541L8.40848 19.8388L8.90253 19.8353L8.88462 17.3353ZM99.1154 16.6886L99.1333 19.1886L99.1378 14.1887L99.1154 16.6886ZM3 15.8263L3.02243 13.3264L2.92994 18.3254L3 15.8263ZM99.1154 18.521V21.021L99.1854 16.0219L99.1154 18.521ZM8.88462 18.521V16.021L8.83983 21.0206L8.88462 18.521ZM99.1154 20.1377L99.1393 22.6376L99.1602 17.6381L99.1154 20.1377ZM8.86073 18.5001L6.36084 18.524L6.40862 23.5238L8.9085 23.4999L8.86073 18.5001ZM54 11.7844L54.0502 14.2839L54 11.7844ZM2.9683 5.4998L104.968 6.79321L105.032 1.79361L3.0317 0.500201L2.9683 5.4998ZM105 1.79341H3V6.79341H105V1.79341ZM2.95774 6.79306L104.958 8.51761L105.042 3.51832L3.04226 1.79377L2.95774 6.79306ZM105 3.51796H3V8.51796H105V3.51796ZM2.96302 8.51769L104.963 10.0267L105.037 5.02722L3.03698 3.51824L2.96302 8.51769ZM105 5.02695H3V10.0269H105V5.02695ZM2.97094 10.0268L104.971 11.2124L105.029 6.21274L3.02906 5.02712L2.97094 10.0268ZM104.982 6.21264L2.98151 6.96713L3.01849 11.967L105.018 11.2125L104.982 6.21264ZM2.9683 11.9669L104.968 13.2603L105.032 8.26068L3.0317 6.96727L2.9683 11.9669ZM3 15.3084H99.1154V10.3084H3V15.3084ZM99.1686 10.309L3.05325 8.26105L2.94675 13.2599L99.0621 15.3078L99.1686 10.309ZM2.89077 13.2581L99.0061 17.4617L99.2246 12.4665L3.10923 8.26287L2.89077 13.2581ZM2.06561 17.2829L7.95023 19.6541L9.819 15.0165L3.93439 12.6453L2.06561 17.2829ZM8.90253 19.8353L99.1333 19.1886L99.0975 14.1887L8.8667 14.8354L8.90253 19.8353ZM99.1378 14.1887L3.02243 13.3264L2.97757 18.3262L99.093 19.1885L99.1378 14.1887ZM2.92994 18.3254L99.0453 21.02L99.1854 16.0219L3.07006 13.3273L2.92994 18.3254ZM99.1154 16.021H8.88462V21.021H99.1154V16.021ZM8.83983 21.0206L99.0706 22.6373L99.1602 17.6381L8.9294 16.0214L8.83983 21.0206ZM99.0915 17.6378L8.86073 18.5001L8.9085 23.4999L99.1393 22.6376L99.0915 17.6378ZM104.95 8.26098L53.9498 9.28493L54.0502 14.2839L105.05 13.26L104.95 8.26098ZM53.9498 9.28493L2.94982 10.3089L3.05018 15.3079L54.0502 14.2839L53.9498 9.28493ZM99.1154 12.4641H51.0577V17.4641H99.1154V12.4641ZM51.0577 12.4641H3V17.4641H51.0577V12.4641Z" fill="#A5EEA0" fill-opacity="0.5"/>
</svg>
