<svg width="75" height="76" viewBox="0 0 75 76" fill="none" xmlns="http://www.w3.org/2000/svg">
<path d="M37.4999 29.1409L12.5752 3.84154L12.5751 3.84147C10.156 1.38621 6.22124 1.38613 3.80215 3.84152C1.39952 6.28021 1.39915 10.2222 3.80226 12.661L3.80228 12.661L28.7712 37.9999L3.80228 63.339L3.80221 63.3391C1.3993 65.7779 1.39921 69.7199 3.80226 72.1586C6.22133 74.6136 10.156 74.6139 12.5752 72.1585L11.1505 70.7548L12.5752 72.1585L37.4999 46.859L62.4246 72.1584L62.4247 72.1585C64.8439 74.6138 68.7786 74.6139 71.1977 72.1585C73.6006 69.7197 73.6006 65.7777 71.1976 63.339L46.2287 37.9999L71.1977 12.661L71.1978 12.6609C73.6007 10.2222 73.6008 6.28019 71.1978 3.84147C68.7786 1.38621 64.8439 1.38613 62.4248 3.84152L62.4248 3.84154L37.4999 29.1409Z" fill="black" stroke="white" stroke-width="4"/>
<path d="M60.6872 58.3085C60.5169 58.0912 60.5549 57.7769 60.7723 57.6065C60.9896 57.4361 61.3039 57.4742 61.4742 57.6915L60.6872 58.3085ZM68.4378 65.15C68.6311 65.3473 68.6279 65.6638 68.4307 65.8571C68.2335 66.0504 67.9169 66.0472 67.7236 65.85L68.4378 65.15ZM61.0807 58C61.4742 57.6915 61.4742 57.6915 61.4742 57.6915C61.4742 57.6915 61.4742 57.6915 61.4742 57.6915C61.4742 57.6915 61.4742 57.6915 61.4743 57.6916C61.4744 57.6917 61.4746 57.692 61.4748 57.6923C61.4754 57.693 61.4763 57.6941 61.4775 57.6957C61.4799 57.6988 61.4837 57.7036 61.4889 57.7101C61.4992 57.723 61.5148 57.7427 61.5358 57.7688C61.5777 57.8211 61.6407 57.8991 61.7242 58.0008C61.8912 58.2042 62.14 58.5023 62.4652 58.8783C63.1156 59.6305 64.071 60.6942 65.2878 61.9358L64.5736 62.6357C63.3403 61.3773 62.3708 60.2981 61.7087 59.5324C61.3777 59.1495 61.1234 58.8449 60.9513 58.6354C60.8653 58.5306 60.7998 58.4496 60.7556 58.3944C60.7335 58.3668 60.7166 58.3457 60.7052 58.3313C60.6995 58.3241 60.6952 58.3185 60.6922 58.3147C60.6907 58.3128 60.6895 58.3113 60.6887 58.3103C60.6883 58.3098 60.6879 58.3094 60.6877 58.3091C60.6876 58.3089 60.6875 58.3088 60.6874 58.3087C60.6874 58.3086 60.6873 58.3086 60.6873 58.3086C60.6873 58.3085 60.6872 58.3085 61.0807 58ZM65.2878 61.9358C66.5128 63.1858 67.3003 63.9893 67.7816 64.4804C68.0222 64.7259 68.1863 64.8933 68.2902 64.9994C68.3421 65.0524 68.379 65.09 68.403 65.1145C68.4149 65.1267 68.4237 65.1356 68.4294 65.1414C68.4322 65.1443 68.4344 65.1465 68.4358 65.1479C68.4365 65.1486 68.437 65.1492 68.4373 65.1495C68.4375 65.1497 68.4376 65.1498 68.4377 65.1499C68.4378 65.1499 68.4378 65.15 68.4378 65.15C68.4378 65.15 68.4378 65.15 68.4378 65.15C68.4378 65.15 68.4378 65.15 68.0807 65.5C67.7236 65.85 67.7236 65.85 67.7236 65.85C67.7236 65.85 67.7236 65.8499 67.7236 65.8499C67.7236 65.8499 67.7235 65.8499 67.7235 65.8498C67.7234 65.8497 67.7233 65.8496 67.7231 65.8494C67.7228 65.8491 67.7222 65.8486 67.7215 65.8478C67.7201 65.8464 67.718 65.8443 67.7152 65.8413C67.7094 65.8355 67.7007 65.8266 67.6888 65.8144C67.6648 65.79 67.6279 65.7523 67.576 65.6993C67.4721 65.5933 67.308 65.4259 67.0674 65.1803C66.5861 64.6893 65.7986 63.8857 64.5736 62.6357L65.2878 61.9358Z" fill="white" fill-opacity="0.9"/>
<path d="M6.80289 11.307C6.97246 11.4486 7.22471 11.426 7.36631 11.2564C7.50791 11.0868 7.48523 10.8346 7.31567 10.693L6.80289 11.307ZM10.7236 7.26511C10.8833 7.41774 11.1365 7.412 11.2892 7.2523C11.4418 7.09259 11.4361 6.83939 11.2764 6.68675L10.7236 7.26511ZM7.05928 11C7.31567 10.693 7.31581 10.6931 7.31595 10.6932C7.31598 10.6932 7.31611 10.6933 7.31618 10.6934C7.31632 10.6935 7.31643 10.6936 7.3165 10.6937C7.31665 10.6938 7.31667 10.6938 7.31657 10.6937C7.31636 10.6936 7.31566 10.693 7.31447 10.6919C7.3121 10.6899 7.30784 10.6862 7.30186 10.6808C7.28989 10.6701 7.27112 10.6529 7.24704 10.6296C7.19876 10.5829 7.12975 10.5123 7.05159 10.4206C6.89398 10.2356 6.70623 9.97327 6.57285 9.65628C6.4403 9.34124 6.36409 8.97916 6.41693 8.58409C6.46944 8.1914 6.6533 7.73657 7.08755 7.23893L6.48479 6.71294C5.96095 7.31323 5.6999 7.91037 5.62399 8.47805C5.54839 9.04336 5.66022 9.55005 5.83547 9.96654C6.00989 10.3811 6.2497 10.713 6.4427 10.9395C6.53984 11.0535 6.6269 11.1428 6.69087 11.2047C6.7229 11.2357 6.7493 11.2599 6.76846 11.277C6.77805 11.2856 6.78584 11.2924 6.79164 11.2974C6.79454 11.3 6.79695 11.302 6.79883 11.3036C6.79977 11.3044 6.80058 11.3051 6.80126 11.3057C6.8016 11.3059 6.8019 11.3062 6.80218 11.3064C6.80231 11.3065 6.80249 11.3067 6.80256 11.3067C6.80273 11.3069 6.80289 11.307 7.05928 11ZM7.08755 7.23893C7.51579 6.74819 7.94463 6.52393 8.33603 6.44084C8.73275 6.35662 9.12489 6.41047 9.48383 6.53152C9.84368 6.65287 10.1564 6.83732 10.3818 6.99495C10.4936 7.07313 10.5817 7.14307 10.6407 7.19252C10.6702 7.2172 10.6923 7.23665 10.7063 7.2493C10.7134 7.25562 10.7184 7.26023 10.7213 7.26293C10.7227 7.26428 10.7237 7.26516 10.7241 7.26553C10.7243 7.26571 10.7243 7.26577 10.7243 7.2657C10.7242 7.26567 10.7242 7.2656 10.7241 7.2655C10.724 7.26545 10.7239 7.26536 10.7239 7.26533C10.7238 7.26522 10.7236 7.26511 11 6.97593C11.2764 6.68675 11.2762 6.68662 11.2761 6.68648C11.276 6.68642 11.2759 6.68627 11.2757 6.68616C11.2755 6.68593 11.2752 6.68566 11.2749 6.68536C11.2743 6.68476 11.2735 6.68403 11.2726 6.68317C11.2708 6.68145 11.2684 6.6792 11.2654 6.67647C11.2595 6.671 11.2514 6.66355 11.2411 6.65432C11.2206 6.63587 11.1915 6.61029 11.1544 6.57921C11.0803 6.51716 10.9738 6.4327 10.8403 6.33933C10.575 6.15386 10.1936 5.92659 9.73947 5.77346C9.28447 5.62002 8.74292 5.53663 8.1699 5.65828C7.59157 5.78105 7.01463 6.10575 6.48479 6.71294L7.08755 7.23893Z" fill="white" fill-opacity="0.9"/>
</svg>
