<svg width="80" height="63" viewBox="0 0 80 63" fill="none" xmlns="http://www.w3.org/2000/svg">
<path d="M27.5799 61C30.1573 61.0009 32.5918 59.8863 34.3579 57.9646C34.3581 57.9644 34.3583 57.9642 34.3585 57.964L75.2387 13.5539L75.239 13.5536C77.6693 10.9122 77.6693 6.69374 75.239 4.05234L75.2385 4.05187C72.7197 1.31604 68.5626 1.31604 66.0438 4.05187L66.0436 4.0521L27.5799 45.843L13.9564 31.041L13.9562 31.0408C11.4374 28.3049 7.28025 28.3049 4.76144 31.0408L4.76101 31.0412C2.33068 33.6826 2.33068 37.9011 4.76101 40.5425L4.76147 40.543L20.8014 57.964C20.8015 57.9641 20.8016 57.9642 20.8017 57.9643C22.5679 59.8862 25.0024 61.0009 27.5799 61ZM27.5799 61C27.5796 61 27.5793 61 27.579 61L27.5799 59L27.5808 61C27.5805 61 27.5802 61 27.5799 61Z" fill="black" stroke="white" stroke-width="4"/>
<path d="M7.24275 38.9287C7.47954 39.0708 7.78667 38.994 7.92875 38.7572C8.07082 38.5204 7.99404 38.2133 7.75724 38.0712L7.24275 38.9287ZM11.584 34.2774C11.7372 34.5071 12.0476 34.5692 12.2774 34.416C12.5071 34.2628 12.5692 33.9524 12.416 33.7226L11.584 34.2774ZM7.5 38.5C7.75724 38.0712 7.75751 38.0714 7.75777 38.0716C7.75784 38.0716 7.75809 38.0718 7.75824 38.0718C7.75854 38.072 7.7588 38.0722 7.75902 38.0723C7.75947 38.0726 7.75977 38.0728 7.75994 38.0729C7.76027 38.0731 7.76003 38.0729 7.75927 38.0725C7.75774 38.0715 7.7541 38.0692 7.74855 38.0655C7.73744 38.0582 7.71885 38.0455 7.69448 38.0275C7.64554 37.9913 7.57456 37.9347 7.4947 37.8581C7.33333 37.7031 7.14661 37.4769 7.02404 37.1827C6.799 36.6426 6.72441 35.7117 7.88411 34.3201L7.11589 33.6799C5.77558 35.2883 5.70099 36.6074 6.10096 37.5673C6.29088 38.0231 6.57291 38.3594 6.80217 38.5794C6.91762 38.6903 7.02243 38.7743 7.10044 38.8319C7.13954 38.8608 7.17222 38.8832 7.19651 38.8993C7.20867 38.9074 7.21876 38.9138 7.22653 38.9187C7.23042 38.9212 7.23374 38.9232 7.23645 38.9249C7.23781 38.9257 7.23901 38.9265 7.24006 38.9271C7.24059 38.9274 7.24108 38.9277 7.24153 38.928C7.24175 38.9281 7.24206 38.9283 7.24217 38.9284C7.24246 38.9286 7.24275 38.9287 7.5 38.5ZM7.88411 34.3201C8.46316 33.6252 8.97339 33.3253 9.38402 33.2182C9.78939 33.1124 10.1545 33.1797 10.478 33.329C10.8086 33.4816 11.0874 33.7172 11.2889 33.9256C11.3881 34.0282 11.4646 34.1201 11.5153 34.185C11.5406 34.2173 11.5592 34.2426 11.5709 34.2588C11.5767 34.2668 11.5807 34.2726 11.5829 34.2758C11.584 34.2774 11.5846 34.2783 11.5848 34.2786C11.5849 34.2788 11.5849 34.2787 11.5847 34.2785C11.5847 34.2784 11.5846 34.2783 11.5844 34.2781C11.5844 34.278 11.5843 34.2778 11.5842 34.2777C11.5841 34.2776 11.584 34.2774 12 34C12.416 33.7226 12.4159 33.7224 12.4157 33.7222C12.4157 33.7221 12.4155 33.7219 12.4154 33.7217C12.4151 33.7213 12.4148 33.7209 12.4145 33.7204C12.4139 33.7195 12.4131 33.7184 12.4123 33.7171C12.4105 33.7145 12.4082 33.7112 12.4055 33.7072C12.4 33.6992 12.3925 33.6885 12.383 33.6753C12.3641 33.649 12.3373 33.6128 12.303 33.5689C12.2346 33.4815 12.1353 33.3624 12.0079 33.2306C11.7563 32.9703 11.3789 32.6434 10.897 32.421C10.408 32.1953 9.80436 32.0751 9.1316 32.2506C8.46411 32.4247 7.78684 32.8748 7.11589 33.6799L7.88411 34.3201Z" fill="white" fill-opacity="0.9"/>
<path d="M61.6872 13.1915C61.5169 13.4088 61.5549 13.7231 61.7723 13.8935C61.9896 14.0639 62.3039 14.0258 62.4742 13.8085L61.6872 13.1915ZM69.4378 6.34997C69.6311 6.15275 69.6279 5.83618 69.4307 5.6429C69.2335 5.44962 68.9169 5.45281 68.7236 5.65003L69.4378 6.34997ZM62.0807 13.5C62.4742 13.8085 62.4742 13.8085 62.4742 13.8085C62.4742 13.8085 62.4742 13.8085 62.4742 13.8085C62.4742 13.8085 62.4742 13.8085 62.4743 13.8084C62.4744 13.8083 62.4746 13.808 62.4748 13.8077C62.4754 13.807 62.4763 13.8059 62.4775 13.8043C62.4799 13.8012 62.4837 13.7964 62.4889 13.7899C62.4992 13.777 62.5148 13.7573 62.5358 13.7312C62.5777 13.6789 62.6407 13.6009 62.7242 13.4992C62.8912 13.2958 63.14 12.9977 63.4652 12.6217C64.1156 11.8695 65.071 10.8058 66.2878 9.56422L65.5736 8.86428C64.3403 10.1227 63.3708 11.2019 62.7087 11.9676C62.3777 12.3505 62.1234 12.6551 61.9513 12.8646C61.8653 12.9694 61.7998 13.0504 61.7556 13.1056C61.7335 13.1332 61.7166 13.1543 61.7052 13.1687C61.6995 13.1759 61.6952 13.1815 61.6922 13.1853C61.6907 13.1872 61.6895 13.1887 61.6887 13.1897C61.6883 13.1902 61.6879 13.1906 61.6877 13.1909C61.6876 13.1911 61.6875 13.1912 61.6874 13.1913C61.6874 13.1914 61.6873 13.1914 61.6873 13.1914C61.6873 13.1915 61.6872 13.1915 62.0807 13.5ZM66.2878 9.56422C67.5128 8.31423 68.3003 7.51067 68.7816 7.0196C69.0222 6.77407 69.1863 6.60666 69.2902 6.50064C69.3421 6.44762 69.379 6.40996 69.403 6.38554C69.4149 6.37334 69.4237 6.36444 69.4294 6.3586C69.4322 6.35568 69.4344 6.35352 69.4358 6.35209C69.4365 6.35138 69.437 6.35085 69.4373 6.3505C69.4375 6.35032 69.4376 6.35019 69.4377 6.3501C69.4378 6.35006 69.4378 6.35002 69.4378 6.35C69.4378 6.34999 69.4378 6.34998 69.4378 6.34998C69.4378 6.34997 69.4378 6.34997 69.0807 6C68.7236 5.65003 68.7236 5.65003 68.7236 5.65004C68.7236 5.65005 68.7236 5.65005 68.7236 5.65006C68.7236 5.65009 68.7235 5.65012 68.7235 5.65016C68.7234 5.65025 68.7233 5.65038 68.7231 5.65056C68.7228 5.65091 68.7222 5.65144 68.7215 5.65216C68.7201 5.65359 68.718 5.65574 68.7152 5.65866C68.7094 5.66451 68.7007 5.6734 68.6888 5.68561C68.6648 5.71002 68.6279 5.74769 68.576 5.8007C68.4721 5.90673 68.308 6.07413 68.0674 6.31967C67.5861 6.81073 66.7986 7.6143 65.5736 8.86428L66.2878 9.56422Z" fill="white" fill-opacity="0.9"/>
</svg>
