<svg width="123" height="108" viewBox="0 0 123 108" fill="none" xmlns="http://www.w3.org/2000/svg">
<path fill-rule="evenodd" clip-rule="evenodd" d="M121.685 40.6916C120.431 36.8885 119.084 33.0915 117.257 29.4295C116.967 28.8456 116.77 28.2254 116.428 27.6653C115.743 26.538 114.988 25.44 114.263 24.3295C113.415 23.0335 112.636 21.7031 111.704 20.4486C110.587 18.9441 109.346 17.5006 108.141 16.043C108.002 15.876 107.779 15.7541 107.578 15.6286C106.716 15.0792 106.159 14.3927 106.127 13.7001C105.113 13.0322 104.125 12.6656 103.715 12.0419C103.222 11.2963 102.433 10.9933 101.732 10.5374C101.43 10.3413 101.077 10.1955 100.76 10.0118C99.1026 9.0515 97.451 8.08767 95.7952 7.12555C94.9576 7.39411 94.9061 6.5354 94.2638 6.40642C93.5967 6.26949 93.0229 5.81717 92.4084 5.50355C91.6416 5.11306 90.9295 4.56359 90.093 4.36126C86.6505 3.51669 83.3729 2.24986 79.7901 1.75251C77.5423 1.43801 75.3556 0.847874 73.1312 0.425589C72.0888 0.229465 70.9542 -0.123911 69.9762 0.0439443C68.1476 0.359324 66.331 0.472403 64.4808 0.488302C63.0684 0.49802 61.6505 0.605799 60.2394 0.56516C58.3175 0.509505 56.4001 0.284225 54.4783 0.261247C52.4814 0.238278 50.4856 0.243579 48.5508 0.886715C46.94 1.42208 45.2489 1.93006 43.5404 2.10497C40.6159 2.40533 37.9948 3.33207 35.4349 4.38873C33.8145 5.05748 31.8776 4.98416 30.4211 5.98334C30.2324 6.11408 29.8227 6.01602 29.5181 6.04253C28.8157 6.10083 27.9717 5.98775 27.4397 6.2731C26.4445 6.80493 25.6112 7.55497 24.7457 8.24494C24.4326 8.49584 24.2535 8.85891 23.9586 9.13367C22.8958 10.132 21.4984 10.8794 20.6928 12.0747C20.4194 12.481 20.1995 12.9387 19.8241 13.2744C18.4461 14.5006 17.438 15.9123 16.476 17.3656C15.9892 18.0997 15.2352 18.7199 14.7805 19.4637C13.841 21.0009 13.0217 22.592 12.1433 24.1584C11.9943 24.4269 11.827 24.699 11.6039 24.9269C11.1299 25.4146 10.5626 25.8466 10.1357 26.3581C9.70568 26.8723 9.50084 27.526 9.01824 27.996C7.44816 29.5261 7.05995 31.4008 6.7736 33.263C6.52479 34.885 5.96605 36.4177 5.16385 37.8756C4.4614 39.1539 3.73857 40.4031 3.29136 41.7741C2.73585 43.4774 1.9787 45.133 1.37703 46.8274C1.13359 47.5138 1.05743 48.2444 0.944841 48.9618C0.58664 51.2128 -0.338884 53.4284 0.349624 55.7518C0.438638 56.061 0.258468 56.4241 0.201629 56.7633C0.131919 57.1812 -0.0010643 57.5982 6.42685e-06 58.016C0.00644125 60.5895 0.0418302 63.1648 0.0750777 65.7389C0.0793675 66.1533 -0.051471 66.6268 0.145859 66.9749C0.70997 67.9776 0.687458 69.0129 0.72713 70.0739C0.770028 71.2136 0.899793 72.369 1.16253 73.4885C1.5218 75.0248 2.02156 76.5398 2.50309 78.0542C2.90742 79.3255 3.25595 80.6222 3.84685 81.8363C4.35413 82.8734 5.1767 83.8081 5.85019 84.7931C6.72317 86.0802 8.12594 87.1006 8.63437 88.5706C8.64617 88.606 8.70408 88.6316 8.73733 88.6643C10.2409 90.0725 11.751 91.4772 13.2437 92.8941C13.8776 93.4966 14.329 94.4137 15.1184 94.6778C16.5619 95.1628 16.6991 96.6779 18.2092 96.9862C18.7669 97.92 19.7911 98.4677 20.738 99.0897C21.2979 99.458 21.759 99.9254 22.277 100.336C22.8701 100.803 23.3966 101.379 24.0916 101.695C26.0252 102.574 27.977 103.458 30.0232 104.124C32.4158 104.904 34.9019 105.491 37.3728 106.099C38.7873 106.446 40.2448 106.694 41.6958 106.931C42.4894 107.062 43.313 107.045 44.1142 107.15C46.2709 107.43 48.4158 107.945 50.5756 107.989C53.7801 108.054 56.9942 107.811 60.2018 107.662C61.7257 107.592 63.2476 107.451 64.7683 107.315C65.6874 107.233 66.6011 106.992 67.5138 107.003C70.3932 107.044 73.1151 106.329 75.9077 105.949C77.4145 105.744 78.8377 105.165 80.4216 105.279C80.695 105.3 81.0253 105.171 81.2656 105.037C83.4641 103.797 85.9436 103.636 88.4779 103.781C91.3681 103.944 93.9065 103.322 96.0472 101.693C96.8848 101.054 97.7277 100.422 98.5266 99.7557C99.1358 99.2468 99.6784 98.6814 100.267 98.1549C100.507 97.9394 100.771 97.7353 101.058 97.5639C102.642 96.6027 104.264 95.6892 105.806 94.6865C106.437 94.2766 106.937 93.7103 107.431 93.1767C108.467 92.0574 109.452 90.9044 110.474 89.7773C111.173 89.0113 112.133 88.3761 112.14 87.2762C112.14 87.065 112.448 86.8468 112.622 86.6375C112.974 86.2196 113.388 85.8291 113.678 85.3847C114.407 84.2654 115.001 83.0833 115.797 81.9984C116.793 80.638 118.098 79.4198 118.445 77.7835C118.471 77.6634 118.598 77.5591 118.668 77.4452C119.247 76.507 119.94 75.6014 120.377 74.6182C120.959 73.3124 121.367 71.9511 121.802 70.6011C121.916 70.2398 121.884 69.8413 121.884 69.4615C121.884 69.0021 121.752 68.5268 121.845 68.0851C122.167 66.5629 121.82 64.9851 122.525 63.4877C122.709 63.091 122.526 62.5733 122.507 62.1113C122.495 61.7871 122.437 61.462 122.461 61.1387C122.525 60.257 122.666 59.3771 122.688 58.498C122.748 56.5121 122.741 54.5235 122.784 52.5401C122.832 50.4578 122.854 48.3728 122.987 46.2951C123.114 44.3277 122.284 42.5017 121.685 40.6916L121.685 40.6916ZM21.259 86.6631C20.609 86.6896 20.3163 86.2947 20.0718 85.9555C18.8406 84.2663 17.292 82.7248 16.2816 80.6249C17.6823 80.9924 18.7879 81.2406 19.9699 81.0215C20.178 80.9809 20.8 81.5039 20.7496 81.6081C20.2466 82.6285 21.3587 83.4068 21.274 84.354C21.2086 85.0775 21.259 85.8081 21.259 86.6633L21.259 86.6631ZM27.6809 69.8753C27.6551 70.2048 27.1178 70.5034 26.7596 70.8718C26.1505 70.4124 25.8523 70.2021 26.3403 69.5404C26.8186 68.8929 26.8036 68.0006 27.0203 67.2205C27.1275 66.8388 27.2755 66.4634 27.4063 66.0853C27.5104 66.0994 27.6187 66.1144 27.7227 66.1286C27.7227 67.3777 27.786 68.633 27.6809 69.8751L27.6809 69.8753ZM32.8072 27.2713C33.1472 26.0098 34.152 24.9407 35.808 24.2677C34.8825 25.1953 33.9537 26.1229 32.8072 27.2713ZM40.7303 78.6118C41.3256 77.8936 41.8253 77.292 42.4366 76.5516C42.5031 77.7346 41.9851 78.36 40.7303 78.6118ZM45.3622 72.3313C45.6636 71.9135 45.8759 71.6237 46.085 71.3331C46.1086 72.0345 46.1086 72.0345 45.3622 72.3313ZM47.8664 23.8766C47.476 24.3731 47.2315 24.89 47.5747 25.4191C48.1871 26.3688 47.4224 26.936 46.795 27.5376C46.1419 28.1648 45.3451 27.9678 44.3295 27.7646C44.8324 26.7858 45.2164 25.8812 45.7505 25.0401C46.3607 24.0683 47.0406 23.1151 47.8149 22.228C48.2053 21.7837 48.8745 21.5063 49.4182 21.1511C49.504 21.228 49.5876 21.304 49.6724 21.3791C49.0718 22.2165 48.5023 23.0638 47.8664 23.8765L47.8664 23.8766ZM67.2551 102.94C66.942 103.021 66.6299 103.103 66.1033 103.241C66.2449 102.914 66.3049 102.578 66.4122 102.567C66.6899 102.54 66.987 102.655 67.2798 102.715C67.2723 102.79 67.2648 102.866 67.2551 102.94L67.2551 102.94ZM63.2443 52.3049C63.2786 52.0187 63.2228 51.698 63.3644 51.4515C65.0674 48.4716 66.8025 45.5024 68.6719 42.285C68.6526 43.8461 65.0781 50.5353 63.2441 52.305L63.2443 52.3049ZM68.9282 77.8632C68.8424 77.8279 68.7556 77.7908 68.6719 77.7554C69.0441 76.9754 69.3808 76.1785 69.8055 75.416C70.0543 74.9681 70.287 74.9893 71.3798 75.4743C70.5004 76.3304 69.7154 77.0972 68.9282 77.863V77.8632ZM71.0838 54.7452C71.0838 53.5145 71.5086 53.0419 72.7687 53.1408C72.1069 53.7698 71.6233 54.2319 71.0838 54.7452ZM100.897 27.3165C100.205 26.714 99.2195 26.2379 99.7118 24.9674C100.256 25.7793 100.722 26.4719 101.186 27.1636C101.091 27.214 100.993 27.2652 100.897 27.3165V27.3165ZM110.7 68.6065C110.05 68.368 109.533 68.1807 108.999 67.9872C109.305 67.2071 109.555 66.5702 109.807 65.9332C110.042 65.3352 110.279 64.7388 110.534 64.0877C111.226 65.3307 111.255 66.0048 110.7 68.6064V68.6065ZM110.758 63.6407C109.623 62.5894 109.635 62.5196 111.138 62.1212C110.989 62.7166 110.885 63.1336 110.758 63.6407Z" fill="#42AB49" fill-opacity="0.9"/>
</svg>
