<svg width="43" height="43" viewBox="0 0 43 43" fill="none" xmlns="http://www.w3.org/2000/svg">
<circle cx="21.5" cy="21.5" r="21.5" fill="white"/>
<ellipse cx="21.5" cy="21.5" rx="17.3333" ry="17.5" fill="white"/>
<path d="M2.25 21.5001C2.25556 16.3964 4.28547 11.5033 7.89437 7.89437C11.5033 4.28547 16.3964 2.25556 21.5001 2.25C25.3074 2.25003 29.0291 3.37902 32.1947 5.49421C35.3604 7.60943 37.8277 10.6159 39.2847 14.1333C40.7417 17.6508 41.1229 21.5214 40.3801 25.2555C39.6373 28.9896 37.804 32.4196 35.1118 35.1118C32.4196 37.804 28.9896 39.6373 25.2555 40.3801C21.5214 41.1229 17.6508 40.7417 14.1333 39.2847C10.6159 37.8277 7.60943 35.3604 5.49421 32.1947C3.37902 29.0291 2.25003 25.3074 2.25 21.5001ZM36.375 21.5V21.4997C36.3702 17.5562 34.8015 13.7755 32.013 10.987C29.2245 8.19851 25.4438 6.62981 21.5003 6.625H21.5C18.558 6.625 15.6821 7.4974 13.2359 9.13189C10.7897 10.7664 8.88315 13.0895 7.75729 15.8076C6.63144 18.5256 6.33686 21.5165 6.91082 24.402C7.48477 27.2874 8.90148 29.9379 10.9818 32.0182C13.0621 34.0985 15.7126 35.5152 18.598 36.0892C21.4835 36.6631 24.4744 36.3686 27.1924 35.2427C29.9105 34.1169 32.2336 32.2103 33.8681 29.7641C35.5026 27.3179 36.375 24.442 36.375 21.5Z" fill="#0743B7" stroke="black" stroke-width="0.5"/>
<path d="M23.0027 15.7201L22.9605 15.6772L22.953 15.6747C22.7585 15.4802 22.6024 15.2505 22.4929 14.9978C22.3763 14.7285 22.315 14.4384 22.3128 14.1449C22.3106 13.8514 22.3674 13.5604 22.48 13.2894C22.5926 13.0183 22.7586 12.7726 22.9681 12.567C23.1776 12.3615 23.4263 12.2001 23.6995 12.0927C23.9726 11.9852 24.2646 11.9339 24.558 11.9416C24.8515 11.9494 25.1403 12.0161 25.4074 12.1378C25.6745 12.2596 25.9144 12.4338 26.1127 12.6502L26.1126 12.6503L26.1187 12.6565L31.0703 17.6926C31.0705 17.6928 31.0707 17.693 31.0709 17.6932C32.0584 18.7144 32.6104 20.0794 32.6104 21.5C32.6104 22.9206 32.0584 24.2855 31.071 25.3067C31.0708 25.307 31.0705 25.3072 31.0703 25.3074L26.1236 30.3419L26.1234 30.3418L26.1176 30.3482C25.9192 30.5646 25.6794 30.7388 25.4123 30.8605C25.1452 30.9823 24.8563 31.049 24.5629 31.0567C24.2695 31.0645 23.9775 31.0131 23.7043 30.9057C23.4312 30.7982 23.1825 30.6369 22.973 30.4313C22.7635 30.2257 22.5975 29.9801 22.4849 29.709C22.3723 29.4379 22.3154 29.147 22.3177 28.8535C22.3199 28.5599 22.3811 28.2699 22.4978 28.0005C22.6145 27.7312 22.7842 27.4881 22.9968 27.2857L22.9969 27.2858L23.0027 27.2799L26.1162 24.1128L26.5342 23.6875H25.9379H12.5625C11.9823 23.6875 11.4259 23.457 11.0157 23.0468C10.6055 22.6366 10.375 22.0802 10.375 21.5C10.375 20.9198 10.6055 20.3634 11.0157 19.9532C11.4259 19.543 11.9823 19.3125 12.5625 19.3125H25.9379H26.5342L26.1162 18.8872L23.0027 15.7201Z" fill="#0743B7" stroke="black" stroke-width="0.5"/>
<path d="M4.25 18C4.25 18.4142 4.58578 18.75 4.99999 18.75C5.41421 18.75 5.75 18.4142 5.75 18L4.25 18ZM11.3354 8.67082C11.7059 8.48558 11.8561 8.03507 11.6708 7.66459C11.4856 7.2941 11.0351 7.14394 10.6646 7.32918L11.3354 8.67082ZM5 18C5.75 18 5.75 18.0004 5.75 18.0007C5.75 18.0008 5.75 18.0012 5.75 18.0014C5.75 18.0018 5.75 18.0022 5.75 18.0026C5.74999 18.0033 5.74999 18.0039 5.74998 18.0044C5.74998 18.0054 5.74997 18.0059 5.74997 18.0059C5.74997 18.006 5.75 18.0041 5.75012 18.0003C5.75036 17.9927 5.75096 17.9775 5.7524 17.9548C5.75529 17.9093 5.76156 17.8336 5.77509 17.7288C5.80213 17.5192 5.85826 17.1923 5.97468 16.7557C6.20737 15.8832 6.68206 14.5681 7.6512 12.8721L6.34883 12.1279C5.31796 13.9319 4.79265 15.3668 4.52533 16.3693C4.39175 16.8702 4.32288 17.2621 4.28742 17.5368C4.2697 17.6742 4.26034 17.7821 4.25541 17.8597C4.25295 17.8985 4.2516 17.9296 4.25086 17.9531C4.25049 17.9648 4.25028 17.9746 4.25015 17.9824C4.25009 17.9863 4.25005 17.9897 4.25003 17.9927C4.25002 17.9941 4.25001 17.9955 4.25001 17.9967C4.25 17.9973 4.25 17.9979 4.25 17.9984C4.25 17.9987 4.25 17.9991 4.25 17.9992C4.25 17.9996 4.25 18 5 18ZM7.6512 12.8721C8.61233 11.1901 9.56344 10.126 10.2568 9.49036C10.6039 9.17219 10.8876 8.96031 11.0774 8.83154C11.1723 8.76714 11.2438 8.72346 11.2881 8.69764C11.3102 8.68473 11.3255 8.67627 11.3336 8.67192C11.3376 8.66975 11.3398 8.6686 11.3401 8.66843C11.3403 8.66835 11.34 8.66851 11.3392 8.66891C11.3388 8.66911 11.3383 8.66937 11.3377 8.66969C11.3374 8.66984 11.337 8.67002 11.3366 8.67021C11.3364 8.6703 11.3361 8.67046 11.336 8.6705C11.3357 8.67066 11.3354 8.67082 11 8C10.6646 7.32918 10.6643 7.32935 10.6639 7.32952C10.6638 7.32958 10.6634 7.32976 10.6632 7.32988C10.6627 7.33013 10.6622 7.3304 10.6616 7.33068C10.6605 7.33125 10.6592 7.33188 10.6579 7.33257C10.6552 7.33396 10.652 7.33561 10.6483 7.33752C10.6409 7.34135 10.6316 7.34624 10.6205 7.35225C10.5983 7.36425 10.5687 7.3807 10.5323 7.40197C10.4593 7.44451 10.359 7.5063 10.2351 7.59033C9.98739 7.75844 9.64611 8.01531 9.24321 8.38464C8.43658 9.12405 7.38769 10.3099 6.34883 12.1279L7.6512 12.8721Z" fill="white" fill-opacity="0.9"/>
</svg>
