<svg width="177" height="213" viewBox="0 0 177 213" fill="none" xmlns="http://www.w3.org/2000/svg">
<path d="M9.08396 212.499L6.58537 212.583L6.41745 207.585L8.91604 207.501L9.08396 212.499ZM176 204.388V201.888L176.084 206.887L176 204.388ZM9 204.388V206.888L8.8881 201.891L9 204.388ZM176 196.905V194.405L176.112 199.403L176 196.905ZM9 196.905V199.405L8.90206 194.407L9 196.905ZM176 190.358V187.858L176.098 192.856L176 190.358ZM9 190.358V192.858L8.92303 187.859L9 190.358ZM176 185.214L176.049 182.714L176.077 187.713L176 185.214ZM9 181.94L8.951 184.44L8.91604 179.442L9 181.94ZM176 176.328L176.133 173.832L176.084 178.827L176 176.328ZM9 167.443L8.86717 169.939L9 164.943V167.443ZM166.365 167.443V164.943L166.506 169.939L166.365 167.443ZM9 176.328L9.14094 178.824L8.71217 173.845L9 176.328ZM166.365 158.09V155.59L166.653 160.573L166.365 158.09ZM9 158.09V160.59H3.23388L7.17519 156.381L9 158.09ZM18.6346 147.801L16.8098 146.092L17.5701 145.28L18.6821 145.301L18.6346 147.801ZM166.365 150.607L166.413 148.107L166.425 153.106L166.365 150.607ZM9 154.348L9.05942 156.848L8.81477 151.855L9 154.348ZM166.365 142.657V140.157L166.551 145.15L166.365 142.657ZM18.6346 142.657V145.157L18.516 140.16L18.6346 142.657ZM166.365 135.642L166.429 133.143L166.484 138.139L166.365 135.642ZM18.5713 134.4L16.0721 134.336L16.1987 129.338L18.6979 129.401L18.5713 134.4ZM92.5 171.886L92.6328 169.389L92.5 171.886ZM8.91604 207.501L175.916 201.889L176.084 206.887L9.08396 212.499L8.91604 207.501ZM176 206.888H9V201.888H176V206.888ZM8.8881 201.891L175.888 194.408L176.112 199.403L9.1119 206.886L8.8881 201.891ZM176 199.405H9V194.405H176V199.405ZM8.90206 194.407L175.902 187.86L176.098 192.856L9.09794 199.404L8.90206 194.407ZM176 192.858H9V187.858H176V192.858ZM8.92303 187.859L175.923 182.715L176.077 187.713L9.07697 192.857L8.92303 187.859ZM175.951 187.713L8.951 184.44L9.049 179.441L176.049 182.714L175.951 187.713ZM8.91604 179.442L175.916 173.83L176.084 178.827L9.08396 184.439L8.91604 179.442ZM9 164.943H166.365V169.943H9V164.943ZM166.506 169.939L9.14094 178.824L8.85906 173.832L166.224 164.947L166.506 169.939ZM8.71217 173.845L166.078 155.606L166.653 160.573L9.28783 178.812L8.71217 173.845ZM7.17519 156.381L16.8098 146.092L20.4594 149.51L10.8248 159.798L7.17519 156.381ZM18.6821 145.301L166.413 148.107L166.318 153.106L18.5871 150.301L18.6821 145.301ZM166.425 153.106L9.05942 156.848L8.94058 151.849L166.306 148.108L166.425 153.106ZM8.81477 151.855L166.18 140.164L166.551 145.15L9.18523 156.841L8.81477 151.855ZM166.365 145.157H18.6346V140.157H166.365V145.157ZM18.516 140.16L166.247 133.145L166.484 138.139L18.7532 145.154L18.516 140.16ZM166.302 138.141L18.5713 134.4L18.6979 129.401L166.429 133.143L166.302 138.141ZM175.867 178.825L92.3672 174.382L92.6328 169.389L176.133 173.832L175.867 178.825ZM92.3672 174.382L8.86717 169.939L9.13283 164.946L92.6328 169.389L92.3672 174.382ZM166.365 160.59H87.6827V155.59H166.365V160.59ZM87.6827 160.59H9V155.59H87.6827V160.59Z" fill="#A5EEA0" fill-opacity="0.5"/>
<path d="M9.08396 142.341L6.58537 142.425L6.41745 137.428L8.91604 137.344L9.08396 142.341ZM176 134.231V131.731L176.084 136.729L176 134.231ZM9 134.231V136.731L8.8881 131.733L9 134.231ZM176 126.748V124.248L176.112 129.246L176 126.748ZM9 126.748V129.248L8.90206 124.25L9 126.748ZM176 120.201V117.701L176.098 122.699L176 120.201ZM9 120.201V122.701L8.92303 117.702L9 120.201ZM176 115.057L176.049 112.557L176.077 117.555L176 115.057ZM9 111.783L8.951 114.283L8.91604 109.284L9 111.783ZM176 106.171L176.133 103.675L176.084 108.67L176 106.171ZM9 97.2855L8.86717 99.7819L9 94.7855V97.2855ZM166.365 97.2855V94.7855L166.506 99.7815L166.365 97.2855ZM9 106.171L9.14094 108.667L8.71217 103.688L9 106.171ZM166.365 87.9322V85.4322L166.653 90.4156L166.365 87.9322ZM9 87.9322V90.4322H3.23388L7.17519 86.2234L9 87.9322ZM18.6346 77.6437L16.8098 75.9349L17.5701 75.123L18.6821 75.1441L18.6346 77.6437ZM166.365 80.4497L166.413 77.9501L166.425 82.9489L166.365 80.4497ZM9 84.1909L9.05942 86.6902L8.81477 81.6978L9 84.1909ZM166.365 72.4994V69.9994L166.551 74.9925L166.365 72.4994ZM18.6346 72.4994V74.9994L18.516 70.0022L18.6346 72.4994ZM166.365 65.4845L166.429 62.9853L166.484 67.9817L166.365 65.4845ZM18.5713 64.2424L16.0721 64.1791L16.1987 59.1807L18.6979 59.244L18.5713 64.2424ZM92.5 101.728L92.6328 99.2318L92.5 101.728ZM8.91604 137.344L175.916 131.732L176.084 136.729L9.08396 142.341L8.91604 137.344ZM176 136.731H9V131.731H176V136.731ZM8.8881 131.733L175.888 124.251L176.112 129.246L9.1119 136.728L8.8881 131.733ZM176 129.248H9V124.248H176V129.248ZM8.90206 124.25L175.902 117.703L176.098 122.699L9.09794 129.246L8.90206 124.25ZM176 122.701H9V117.701H176V122.701ZM8.92303 117.702L175.923 112.558L176.077 117.555L9.07697 122.7L8.92303 117.702ZM175.951 117.556L8.951 114.283L9.049 109.283L176.049 112.557L175.951 117.556ZM8.91604 109.284L175.916 103.672L176.084 108.67L9.08396 114.282L8.91604 109.284ZM9 94.7855H166.365V99.7855H9V94.7855ZM166.506 99.7815L9.14094 108.667L8.85906 103.675L166.224 94.7895L166.506 99.7815ZM8.71217 103.688L166.078 85.4489L166.653 90.4156L9.28783 108.654L8.71217 103.688ZM7.17519 86.2234L16.8098 75.9349L20.4594 79.3525L10.8248 89.6411L7.17519 86.2234ZM18.6821 75.1441L166.413 77.9501L166.318 82.9492L18.5871 80.1432L18.6821 75.1441ZM166.425 82.9489L9.05942 86.6902L8.94058 81.6917L166.306 77.9504L166.425 82.9489ZM8.81477 81.6978L166.18 70.0063L166.551 74.9925L9.18523 86.6841L8.81477 81.6978ZM166.365 74.9994H18.6346V69.9994H166.365V74.9994ZM18.516 70.0022L166.247 62.9873L166.484 67.9817L18.7532 74.9966L18.516 70.0022ZM166.302 67.9837L18.5713 64.2424L18.6979 59.244L166.429 62.9853L166.302 67.9837ZM175.867 108.668L92.3672 104.225L92.6328 99.2318L176.133 103.675L175.867 108.668ZM92.3672 104.225L8.86717 99.7819L9.13283 94.789L92.6328 99.2318L92.3672 104.225ZM166.365 90.4322H87.6827V85.4322H166.365V90.4322ZM87.6827 90.4322H9V85.4322H87.6827V90.4322Z" fill="#A5EEA0" fill-opacity="0.5"/>
<path d="M9.08396 153.755L6.58537 153.839L6.41745 148.842L8.91604 148.758L9.08396 153.755ZM176 145.645V143.145L176.084 148.143L176 145.645ZM9 145.645V148.145L8.8881 143.147L9 145.645ZM176 138.162V135.662L176.112 140.66L176 138.162ZM9 138.162V140.662L8.90206 135.664L9 138.162ZM176 131.615V129.115L176.098 134.113L176 131.615ZM9 131.615V134.115L8.92303 129.116L9 131.615ZM176 126.471L176.049 123.971L176.077 128.97L176 126.471ZM9 123.197L8.951 125.697L8.91604 120.698L9 123.197ZM176 117.585L176.133 115.089L176.084 120.084L176 117.585ZM9 108.7L8.86717 111.196L9 106.2V108.7ZM166.365 108.7V106.2L166.506 111.196L166.365 108.7ZM9 117.585L9.14094 120.081L8.71217 115.102L9 117.585ZM166.365 99.3463V96.8463L166.653 101.83L166.365 99.3463ZM9 99.3463V101.846H3.23388L7.17519 97.6375L9 99.3463ZM18.6346 89.0578L16.8098 87.3489L17.5701 86.5371L18.6821 86.5582L18.6346 89.0578ZM166.365 91.8637L166.413 89.3642L166.425 94.363L166.365 91.8637ZM9 95.605L9.05942 98.1043L8.81477 93.1119L9 95.605ZM166.365 83.9135V81.4135L166.551 86.4066L166.365 83.9135ZM18.6346 83.9135V86.4135L18.516 81.4163L18.6346 83.9135ZM166.365 76.8986L166.429 74.3994L166.484 79.3957L166.365 76.8986ZM18.5713 75.6565L16.0721 75.5932L16.1987 70.5948L18.6979 70.6581L18.5713 75.6565ZM92.5 113.142L92.6328 110.646L92.5 113.142ZM8.91604 148.758L175.916 143.146L176.084 148.143L9.08396 153.755L8.91604 148.758ZM176 148.145H9V143.145H176V148.145ZM8.8881 143.147L175.888 135.665L176.112 140.66L9.1119 148.142L8.8881 143.147ZM176 140.662H9V135.662H176V140.662ZM8.90206 135.664L175.902 129.117L176.098 134.113L9.09794 140.66L8.90206 135.664ZM176 134.115H9V129.115H176V134.115ZM8.92303 129.116L175.923 123.972L176.077 128.97L9.07697 134.114L8.92303 129.116ZM175.951 128.97L8.951 125.697L9.049 120.698L176.049 123.971L175.951 128.97ZM8.91604 120.698L175.916 115.087L176.084 120.084L9.08396 125.696L8.91604 120.698ZM9 106.2H166.365V111.2H9V106.2ZM166.506 111.196L9.14094 120.081L8.85906 115.089L166.224 106.204L166.506 111.196ZM8.71217 115.102L166.078 96.8629L166.653 101.83L9.28783 120.069L8.71217 115.102ZM7.17519 97.6375L16.8098 87.3489L20.4594 90.7666L10.8248 101.055L7.17519 97.6375ZM18.6821 86.5582L166.413 89.3642L166.318 94.3633L18.5871 91.5573L18.6821 86.5582ZM166.425 94.363L9.05942 98.1043L8.94058 93.1057L166.306 89.3644L166.425 94.363ZM8.81477 93.1119L166.18 81.4204L166.551 86.4066L9.18523 98.0982L8.81477 93.1119ZM166.365 86.4135H18.6346V81.4135H166.365V86.4135ZM18.516 81.4163L166.247 74.4014L166.484 79.3957L18.7532 86.4107L18.516 81.4163ZM166.302 79.3978L18.5713 75.6565L18.6979 70.6581L166.429 74.3994L166.302 79.3978ZM175.867 120.082L92.3672 115.639L92.6328 110.646L176.133 115.089L175.867 120.082ZM92.3672 115.639L8.86717 111.196L9.13283 106.203L92.6328 110.646L92.3672 115.639ZM166.365 101.846H87.6827V96.8463H166.365V101.846ZM87.6827 101.846H9V96.8463H87.6827V101.846Z" fill="#A5EEA0" fill-opacity="0.5"/>
<path d="M9.08396 83.5982L6.58537 83.6821L6.41745 78.685L8.91604 78.601L9.08396 83.5982ZM176 75.4876V72.9876L176.084 77.9862L176 75.4876ZM9 75.4876V77.9876L8.8881 72.9901L9 75.4876ZM176 68.005V65.505L176.112 70.5025L176 68.005ZM9 68.005V70.505L8.90206 65.507L9 68.005ZM176 61.4578V58.9578L176.098 63.9559L176 61.4578ZM9 61.4578V63.9578L8.92303 58.959L9 61.4578ZM176 56.3135L176.049 53.814L176.077 58.8123L176 56.3135ZM9 53.0399L8.951 55.5394L8.91604 50.5413L9 53.0399ZM176 47.4279L176.133 44.9314L176.084 49.9265L176 47.4279ZM9 38.5423L8.86717 41.0388L9 36.0423V38.5423ZM166.365 38.5423V36.0423L166.506 41.0384L166.365 38.5423ZM9 47.4279L9.14094 49.9239L8.71217 44.9445L9 47.4279ZM166.365 29.1891V26.6891L166.653 31.6725L166.365 29.1891ZM9 29.1891V31.6891H3.23389L7.17519 27.4803L9 29.1891ZM18.6346 18.9005L16.8098 17.1917L17.5701 16.3799L18.6821 16.401L18.6346 18.9005ZM166.365 21.7065L166.413 19.207L166.425 24.2058L166.365 21.7065ZM9 25.4478L9.05942 27.9471L8.81477 22.9547L9 25.4478ZM166.365 13.7563V11.2563L166.551 16.2494L166.365 13.7563ZM18.6346 13.7563V16.2563L18.516 11.2591L18.6346 13.7563ZM166.365 6.74133L166.429 4.24213L166.484 9.23852L166.365 6.74133ZM18.5713 5.49923L16.0721 5.43594L16.1987 0.437538L18.6979 0.500832L18.5713 5.49923ZM92.5 42.9851L92.6328 40.4887L92.5 42.9851ZM8.91604 78.601L175.916 72.989L176.084 77.9862L9.08396 83.5982L8.91604 78.601ZM176 77.9876H9V72.9876H176V77.9876ZM8.8881 72.9901L175.888 65.5075L176.112 70.5025L9.1119 77.9851L8.8881 72.9901ZM176 70.505H9V65.505H176V70.505ZM8.90206 65.507L175.902 58.9597L176.098 63.9559L9.09794 70.5031L8.90206 65.507ZM176 63.9578H9V58.9578H176V63.9578ZM8.92303 58.959L175.923 53.8147L176.077 58.8123L9.07697 63.9566L8.92303 58.959ZM175.951 58.813L8.951 55.5394L9.049 50.5403L176.049 53.814L175.951 58.813ZM8.91604 50.5413L175.916 44.9293L176.084 49.9265L9.08396 55.5385L8.91604 50.5413ZM9 36.0423H166.365V41.0423H9V36.0423ZM166.506 41.0384L9.14094 49.9239L8.85906 44.9319L166.224 36.0463L166.506 41.0384ZM8.71217 44.9445L166.078 26.7057L166.653 31.6725L9.28783 49.9113L8.71217 44.9445ZM7.17519 27.4803L16.8098 17.1917L20.4594 20.6094L10.8248 30.8979L7.17519 27.4803ZM18.6821 16.401L166.413 19.207L166.318 24.2061L18.5871 21.4001L18.6821 16.401ZM166.425 24.2058L9.05942 27.9471L8.94058 22.9485L166.306 19.2072L166.425 24.2058ZM8.81477 22.9547L166.18 11.2631L166.551 16.2494L9.18523 27.9409L8.81477 22.9547ZM166.365 16.2563H18.6346V11.2563H166.365V16.2563ZM18.516 11.2591L166.247 4.24415L166.484 9.23852L18.7532 16.2534L18.516 11.2591ZM166.302 9.24053L18.5713 5.49923L18.6979 0.500832L166.429 4.24213L166.302 9.24053ZM175.867 49.9244L92.3672 45.4816L92.6328 40.4887L176.133 44.9314L175.867 49.9244ZM92.3672 45.4816L8.86717 41.0388L9.13283 36.0459L92.6328 40.4887L92.3672 45.4816ZM166.365 31.6891H87.6827V26.6891H166.365V31.6891ZM87.6827 31.6891H9V26.6891H87.6827V31.6891Z" fill="#A5EEA0" fill-opacity="0.5"/>
<path d="M9.08197 207.59L6.58332 207.672L6.41937 202.674L8.91803 202.592L9.08197 207.59ZM176 199.612V197.112L176.082 202.111L176 199.612ZM9 199.612V202.112L8.89075 197.114L9 199.612ZM176 192.307V189.807L176.109 194.805L176 192.307ZM9 192.307V194.807L8.90438 189.809L9 192.307ZM176 185.915V183.415L176.096 188.413L176 185.915ZM9 185.915V188.415L8.92485 183.416L9 185.915ZM176 180.893L176.048 178.393L176.075 183.392L176 180.893ZM9 177.697L8.95216 180.196L8.91803 175.198L9 177.697ZM176 172.218L176.13 169.721L176.082 174.716L176 172.218ZM9 163.543L8.87031 166.04L9 161.043V163.543ZM166.365 163.543V161.043L166.503 166.039L166.365 163.543ZM9 172.218L9.1376 174.714L8.71891 169.734L9 172.218ZM166.365 154.412V151.912L166.646 156.896L166.365 154.412ZM9 154.412V156.912H3.1379L7.1958 152.681L9 154.412ZM18.6346 144.367L16.8304 142.636L17.5875 141.847L18.681 141.867L18.6346 144.367ZM166.365 147.106L166.412 144.607L166.423 149.606L166.365 147.106ZM9 150.759L9.05801 153.258L8.81914 148.266L9 150.759ZM166.365 139.345V136.845L166.546 141.838L166.365 139.345ZM18.6346 139.345V141.845L18.5188 136.847L18.6346 139.345ZM166.365 132.496L166.427 129.997L166.481 134.993L166.365 132.496ZM18.5728 131.343L16.0736 131.281L16.1972 126.283L18.6964 126.344L18.5728 131.343ZM92.5 167.88L92.6297 165.384L92.5 167.88ZM8.91803 202.592L175.918 197.113L176.082 202.111L9.08197 207.59L8.91803 202.592ZM176 202.112H9V197.112H176V202.112ZM8.89075 197.114L175.891 189.809L176.109 194.805L9.10925 202.11L8.89075 197.114ZM176 194.807H9V189.807H176V194.807ZM8.90438 189.809L175.904 183.417L176.096 188.413L9.09562 194.805L8.90438 189.809ZM176 188.415H9V183.415H176V188.415ZM8.92485 183.416L175.925 178.394L176.075 183.392L9.07515 188.414L8.92485 183.416ZM175.952 183.392L8.95216 180.196L9.04784 175.197L176.048 178.393L175.952 183.392ZM8.91803 175.198L175.918 169.719L176.082 174.716L9.08197 180.195L8.91803 175.198ZM9 161.043H166.365V166.043H9V161.043ZM166.503 166.039L9.1376 174.714L8.8624 169.722L166.228 161.047L166.503 166.039ZM8.71891 169.734L166.084 151.927L166.646 156.896L9.28109 174.702L8.71891 169.734ZM7.1958 152.681L16.8304 142.636L20.4388 146.098L10.8042 156.142L7.1958 152.681ZM18.681 141.867L166.412 144.607L166.319 149.606L18.5883 146.867L18.681 141.867ZM166.423 149.606L9.05801 153.258L8.94199 148.26L166.307 144.607L166.423 149.606ZM8.81914 148.266L166.185 136.851L166.546 141.838L9.18086 153.252L8.81914 148.266ZM166.365 141.845H18.6346V136.845H166.365V141.845ZM18.5188 136.847L166.25 129.999L166.481 134.993L18.7504 141.842L18.5188 136.847ZM166.304 134.995L18.5728 131.343L18.6964 126.344L166.427 129.997L166.304 134.995ZM175.87 174.714L92.3703 170.377L92.6297 165.384L176.13 169.721L175.87 174.714ZM92.3703 170.377L8.87031 166.04L9.12969 161.046L92.6297 165.384L92.3703 170.377ZM166.365 156.912H87.6827V151.912H166.365V156.912ZM87.6827 156.912H9V151.912H87.6827V156.912Z" fill="#A5EEA0" fill-opacity="0.5"/>
<path d="M9.08197 139.096L6.58332 139.178L6.41937 134.181L8.91803 134.099L9.08197 139.096ZM176 131.119V128.619L176.082 133.617L176 131.119ZM9 131.119V133.619L8.89075 128.621L9 131.119ZM176 123.813V121.313L176.109 126.311L176 123.813ZM9 123.813V126.313L8.90438 121.315L9 123.813ZM176 117.421V114.921L176.096 119.92L176 117.421ZM9 117.421V119.921L8.92485 114.923L9 117.421ZM176 112.399L176.048 109.9L176.075 114.898L176 112.399ZM9 109.203L8.95216 111.703L8.91803 106.705L9 109.203ZM176 103.724L176.13 101.228L176.082 106.223L176 103.724ZM9 95.0495L8.87031 97.5461L9 92.5495V95.0495ZM166.365 95.0495V92.5495L166.503 97.5457L166.365 95.0495ZM9 103.724L9.1376 106.221L8.71891 101.24L9 103.724ZM166.365 85.918V83.418L166.646 88.4022L166.365 85.918ZM9 85.918V88.418H3.1379L7.1958 84.1875L9 85.918ZM18.6346 75.8735L16.8304 74.1429L17.5875 73.3536L18.681 73.3739L18.6346 75.8735ZM166.365 78.6129L166.412 76.1133L166.423 81.1122L166.365 78.6129ZM9 82.2655L9.05801 84.7648L8.81914 79.772L9 82.2655ZM166.365 70.8512V68.3512L166.546 73.3446L166.365 70.8512ZM18.6346 70.8512V73.3512L18.5188 68.3539L18.6346 70.8512ZM166.365 64.0026L166.427 61.5034L166.481 66.4999L166.365 64.0026ZM18.5728 62.8493L16.0736 62.7875L16.1972 57.789L18.6964 57.8508L18.5728 62.8493ZM92.5 99.3869L92.6297 96.8902L92.5 99.3869ZM8.91803 134.099L175.918 128.62L176.082 133.617L9.08197 139.096L8.91803 134.099ZM176 133.619H9V128.619H176V133.619ZM8.89075 128.621L175.891 121.316L176.109 126.311L9.10925 133.616L8.89075 128.621ZM176 126.313H9V121.313H176V126.313ZM8.90438 121.315L175.904 114.923L176.096 119.92L9.09562 126.312L8.90438 121.315ZM176 119.921H9V114.921H176V119.921ZM8.92485 114.923L175.925 109.9L176.075 114.898L9.07515 119.92L8.92485 114.923ZM175.952 114.899L8.95216 111.703L9.04784 106.704L176.048 109.9L175.952 114.899ZM8.91803 106.705L175.918 101.226L176.082 106.223L9.08197 111.702L8.91803 106.705ZM9 92.5495H166.365V97.5495H9V92.5495ZM166.503 97.5457L9.1376 106.221L8.8624 101.228L166.228 92.5532L166.503 97.5457ZM8.71891 101.24L166.084 83.4339L166.646 88.4022L9.28109 106.208L8.71891 101.24ZM7.1958 84.1875L16.8304 74.1429L20.4388 77.604L10.8042 87.6486L7.1958 84.1875ZM18.681 73.3739L166.412 76.1133L166.319 81.1125L18.5883 78.373L18.681 73.3739ZM166.423 81.1122L9.05801 84.7648L8.94199 79.7661L166.307 76.1136L166.423 81.1122ZM8.81914 79.772L166.185 68.3577L166.546 73.3446L9.18086 84.7589L8.81914 79.772ZM166.365 73.3512H18.6346V68.3512H166.365V73.3512ZM18.5188 68.3539L166.25 61.5053L166.481 66.4999L18.7504 73.3485L18.5188 68.3539ZM166.304 66.5019L18.5728 62.8493L18.6964 57.8508L166.427 61.5034L166.304 66.5019ZM175.87 106.221L92.3703 101.884L92.6297 96.8902L176.13 101.228L175.87 106.221ZM92.3703 101.884L8.87031 97.5461L9.12969 92.5528L92.6297 96.8902L92.3703 101.884ZM166.365 88.418H87.6827V83.418H166.365V88.418ZM87.6827 88.418H9V83.418H87.6827V88.418Z" fill="#A5EEA0" fill-opacity="0.5"/>
<path d="M9.05245 212.499L6.553 212.552L6.4481 207.553L8.94755 207.501L9.05245 212.499ZM176 206.495V203.995L176.052 208.995L176 206.495ZM9 206.495V208.995L8.93007 203.996L9 206.495ZM176 201.822V199.322L176.07 204.321L176 201.822ZM9 201.822V204.322L8.93881 199.323L9 201.822ZM176 197.734V195.234L176.061 200.233L176 197.734ZM9 197.734V200.234L8.95192 195.234L9 197.734ZM176 194.521L176.031 192.021L176.048 197.02L176 194.521ZM9 192.477L8.9694 194.976L8.94755 189.977L9 192.477ZM176 188.972L176.083 186.473L176.052 191.471L176 188.972ZM9 183.423L8.91698 185.921L9 180.923V183.423ZM166.365 183.423V180.923L166.453 185.921L166.365 183.423ZM9 188.972L9.0881 191.47L8.81952 186.478L9 188.972ZM166.365 177.582V175.082L166.546 180.075L166.365 177.582ZM9 177.582V180.082H0.745403L7.61292 175.502L9 177.582ZM18.6346 171.156L17.2475 169.076L17.891 168.647L18.6643 168.657L18.6346 171.156ZM166.365 172.909L166.395 170.409L166.402 175.408L166.365 172.909ZM9 175.245L9.03711 177.745L8.88413 172.748L9 175.245ZM166.365 167.944V165.444L166.481 170.441L166.365 167.944ZM18.6346 167.944V170.444L18.5605 165.445L18.6346 167.944ZM166.365 163.563L166.405 161.063L166.439 166.062L166.365 163.563ZM18.5951 163.726L16.0954 163.687L16.1745 158.687L18.6741 158.727L18.5951 163.726ZM92.5 186.197L92.583 183.699L92.5 186.197ZM8.94755 207.501L175.948 203.996L176.052 208.995L9.05245 212.499L8.94755 207.501ZM176 208.995H9V203.995H176V208.995ZM8.93007 203.996L175.93 199.323L176.07 204.321L9.06993 208.994L8.93007 203.996ZM176 204.322H9V199.322H176V204.322ZM8.93881 199.323L175.939 195.234L176.061 200.233L9.06119 204.322L8.93881 199.323ZM176 200.234H9V195.234H176V200.234ZM8.95192 195.234L175.952 192.021L176.048 197.02L9.04808 200.233L8.95192 195.234ZM175.969 197.021L8.9694 194.976L9.0306 189.977L176.031 192.021L175.969 197.021ZM8.94755 189.977L175.948 186.472L176.052 191.471L9.05245 194.976L8.94755 189.977ZM9 180.923H166.365V185.923H9V180.923ZM166.453 185.921L9.0881 191.47L8.9119 186.473L166.277 180.924L166.453 185.921ZM8.81952 186.478L166.185 175.088L166.546 180.075L9.18048 191.465L8.81952 186.478ZM7.61292 175.502L17.2475 169.076L20.0217 173.236L10.3871 179.662L7.61292 175.502ZM18.6643 168.657L166.395 170.409L166.336 175.409L18.605 173.656L18.6643 168.657ZM166.402 175.408L9.03711 177.745L8.96289 172.745L166.328 170.409L166.402 175.408ZM8.88413 172.748L166.25 165.446L166.481 170.441L9.11587 177.742L8.88413 172.748ZM166.365 170.444H18.6346V165.444H166.365V170.444ZM18.5605 165.445L166.291 161.064L166.439 166.062L18.7087 170.443L18.5605 165.445ZM166.326 166.063L18.5951 163.726L18.6741 158.727L166.405 161.063L166.326 166.063ZM175.917 191.47L92.417 188.696L92.583 183.699L176.083 186.473L175.917 191.47ZM92.417 188.696L8.91698 185.921L9.08302 180.924L92.583 183.699L92.417 188.696ZM166.365 180.082H87.6827V175.082H166.365V180.082ZM87.6827 180.082H9V175.082H87.6827V180.082Z" fill="#A5EEA0" fill-opacity="0.5"/>
<path d="M9.05245 168.686L6.553 168.738L6.4481 163.739L8.94755 163.687L9.05245 168.686ZM176 162.682V160.182L176.052 165.181L176 162.682ZM9 162.682V165.182L8.93007 160.183L9 162.682ZM176 158.009V155.509L176.07 160.508L176 158.009ZM9 158.009V160.509L8.93881 155.509L9 158.009ZM176 153.92V151.42L176.061 156.419L176 153.92ZM9 153.92V156.42L8.95192 151.42L9 153.92ZM176 150.707L176.031 148.207L176.048 153.207L176 150.707ZM9 148.663L8.9694 151.163L8.94755 146.163L9 148.663ZM176 145.158L176.083 142.66L176.052 147.658L176 145.158ZM9 139.609L8.91698 142.108L9 137.109V139.609ZM166.365 139.609V137.109L166.453 142.108L166.365 139.609ZM9 145.158L9.0881 147.657L8.81952 142.665L9 145.158ZM166.365 133.768V131.268L166.546 136.261L166.365 133.768ZM9 133.768V136.268H0.745403L7.61292 131.688L9 133.768ZM18.6346 127.343L17.2475 125.263L17.891 124.834L18.6643 124.843L18.6346 127.343ZM166.365 129.095L166.395 126.595L166.402 131.595L166.365 129.095ZM9 131.432L9.03711 133.931L8.88413 128.934L9 131.432ZM166.365 124.13V121.63L166.481 126.627L166.365 124.13ZM18.6346 124.13V126.63L18.5605 121.631L18.6346 124.13ZM166.365 119.749L166.405 117.25L166.439 122.248L166.365 119.749ZM18.5951 119.912L16.0954 119.873L16.1745 114.874L18.6741 114.913L18.5951 119.912ZM92.5 142.384L92.583 139.885L92.5 142.384ZM8.94755 163.687L175.948 160.182L176.052 165.181L9.05245 168.686L8.94755 163.687ZM176 165.182H9V160.182H176V165.182ZM8.93007 160.183L175.93 155.51L176.07 160.508L9.06993 165.181L8.93007 160.183ZM176 160.509H9V155.509H176V160.509ZM8.93881 155.509L175.939 151.421L176.061 156.419L9.06119 160.508L8.93881 155.509ZM176 156.42H9V151.42H176V156.42ZM8.95192 151.42L175.952 148.208L176.048 153.207L9.04808 156.419L8.95192 151.42ZM175.969 153.207L8.9694 151.163L9.0306 146.163L176.031 148.207L175.969 153.207ZM8.94755 146.163L175.948 142.659L176.052 147.658L9.05245 151.162L8.94755 146.163ZM9 137.109H166.365V142.109H9V137.109ZM166.453 142.108L9.0881 147.657L8.9119 142.66L166.277 137.111L166.453 142.108ZM8.81952 142.665L166.185 131.274L166.546 136.261L9.18048 147.652L8.81952 142.665ZM7.61292 131.688L17.2475 125.263L20.0217 129.423L10.3871 135.848L7.61292 131.688ZM18.6643 124.843L166.395 126.595L166.336 131.595L18.605 129.843L18.6643 124.843ZM166.402 131.595L9.03711 133.931L8.96289 128.932L166.328 126.595L166.402 131.595ZM8.88413 128.934L166.25 121.633L166.481 126.627L9.11587 133.929L8.88413 128.934ZM166.365 126.63H18.6346V121.63H166.365V126.63ZM18.5605 121.631L166.291 117.25L166.439 122.248L18.7087 126.629L18.5605 121.631ZM166.326 122.249L18.5951 119.912L18.6741 114.913L166.405 117.25L166.326 122.249ZM175.917 147.657L92.417 144.882L92.583 139.885L176.083 142.66L175.917 147.657ZM92.417 144.882L8.91698 142.108L9.08302 137.11L92.583 139.885L92.417 144.882ZM166.365 136.268H87.6827V131.268H166.365V136.268ZM87.6827 136.268H9V131.268H87.6827V136.268Z" fill="#A5EEA0" fill-opacity="0.5"/>
<path d="M9.05245 175.814L6.553 175.866L6.4481 170.868L8.94755 170.815L9.05245 175.814ZM176 169.81V167.31L176.052 172.309L176 169.81ZM9 169.81V172.31L8.93007 167.311L9 169.81ZM176 165.137V162.637L176.07 167.636L176 165.137ZM9 165.137V167.637L8.93881 162.638L9 165.137ZM176 161.048V158.548L176.061 163.547L176 161.048ZM9 161.048V163.548L8.95192 158.549L9 161.048ZM176 157.835L176.031 155.336L176.048 160.335L176 157.835ZM9 155.791L8.9694 158.291L8.94755 153.292L9 155.791ZM176 152.286L176.083 149.788L176.052 154.786L176 152.286ZM9 146.737L8.91698 149.236L9 144.237V146.737ZM166.365 146.737V144.237L166.453 149.236L166.365 146.737ZM9 152.286L9.0881 154.785L8.81952 149.793L9 152.286ZM166.365 140.896V138.396L166.546 143.39L166.365 140.896ZM9 140.896V143.396H0.745405L7.61292 138.816L9 140.896ZM18.6346 134.471L17.2475 132.391L17.891 131.962L18.6643 131.971L18.6346 134.471ZM166.365 136.223L166.395 133.723L166.402 138.723L166.365 136.223ZM9 138.56L9.03711 141.059L8.88413 136.062L9 138.56ZM166.365 131.258V128.758L166.481 133.756L166.365 131.258ZM18.6346 131.258V133.758L18.5605 128.759L18.6346 131.258ZM166.365 126.877L166.405 124.378L166.439 129.376L166.365 126.877ZM18.5951 127.041L16.0954 127.001L16.1745 122.002L18.6741 122.041L18.5951 127.041ZM92.5 149.512L92.583 147.013L92.5 149.512ZM8.94755 170.815L175.948 167.31L176.052 172.309L9.05245 175.814L8.94755 170.815ZM176 172.31H9V167.31H176V172.31ZM8.93007 167.311L175.93 162.638L176.07 167.636L9.06993 172.309L8.93007 167.311ZM176 167.637H9V162.637H176V167.637ZM8.93881 162.638L175.939 158.549L176.061 163.547L9.06119 167.636L8.93881 162.638ZM176 163.548H9V158.548H176V163.548ZM8.95192 158.549L175.952 155.336L176.048 160.335L9.04808 163.548L8.95192 158.549ZM175.969 160.335L8.9694 158.291L9.0306 153.291L176.031 155.336L175.969 160.335ZM8.94755 153.292L175.948 149.787L176.052 154.786L9.05245 158.291L8.94755 153.292ZM9 144.237H166.365V149.237H9V144.237ZM166.453 149.236L9.0881 154.785L8.9119 149.788L166.277 144.239L166.453 149.236ZM8.81952 149.793L166.185 138.403L166.546 143.39L9.18048 154.78L8.81952 149.793ZM7.61292 138.816L17.2475 132.391L20.0217 136.551L10.3871 142.976L7.61292 138.816ZM18.6643 131.971L166.395 133.723L166.336 138.723L18.605 136.971L18.6643 131.971ZM166.402 138.723L9.03711 141.059L8.96289 136.06L166.328 133.723L166.402 138.723ZM8.88413 136.062L166.25 128.761L166.481 133.756L9.11587 141.057L8.88413 136.062ZM166.365 133.758H18.6346V128.758H166.365V133.758ZM18.5605 128.759L166.291 124.378L166.439 129.376L18.7087 133.757L18.5605 128.759ZM166.326 129.377L18.5951 127.041L18.6741 122.041L166.405 124.378L166.326 129.377ZM175.917 154.785L92.417 152.01L92.583 147.013L176.083 149.788L175.917 154.785ZM92.417 152.01L8.91698 149.236L9.08302 144.239L92.583 147.013L92.417 152.01ZM166.365 143.396H87.6827V138.396H166.365V143.396ZM87.6827 143.396H9V138.396H87.6827V143.396Z" fill="#A5EEA0" fill-opacity="0.5"/>
<path d="M9.05245 132L6.553 132.053L6.4481 127.054L8.94755 127.001L9.05245 132ZM176 125.996V123.496L176.052 128.496L176 125.996ZM9 125.996V128.496L8.93007 123.497L9 125.996ZM176 121.323V118.823L176.07 123.822L176 121.323ZM9 121.323V123.823L8.93881 118.824L9 121.323ZM176 117.235V114.735L176.061 119.734L176 117.235ZM9 117.235V119.735L8.95192 114.735L9 117.235ZM176 114.022L176.031 111.522L176.048 116.521L176 114.022ZM9 111.977L8.9694 114.477L8.94755 109.478L9 111.977ZM176 108.473L176.083 105.974L176.052 110.972L176 108.473ZM9 102.924L8.91698 105.422L9 100.424V102.924ZM166.365 102.924V100.424L166.453 105.422L166.365 102.924ZM9 108.473L9.0881 110.971L8.81952 105.979L9 108.473ZM166.365 97.0826V94.5826L166.546 99.576L166.365 97.0826ZM9 97.0826V99.5826H0.745403L7.61292 95.0027L9 97.0826ZM18.6346 90.6573L17.2475 88.5774L17.891 88.1483L18.6643 88.1575L18.6346 90.6573ZM166.365 92.4096L166.395 89.9098L166.402 94.9094L166.365 92.4096ZM9 94.7461L9.03711 97.2458L8.88413 92.2488L9 94.7461ZM166.365 87.4447V84.9447L166.481 89.942L166.365 87.4447ZM18.6346 87.4447V89.9447L18.5605 84.9458L18.6346 87.4447ZM166.365 83.0638L166.405 80.5641L166.439 85.5627L166.365 83.0638ZM18.5951 83.227L16.0954 83.1875L16.1745 78.1881L18.6741 78.2276L18.5951 83.227ZM92.5 105.698L92.583 103.2L92.5 105.698ZM8.94755 127.001L175.948 123.497L176.052 128.496L9.05245 132L8.94755 127.001ZM176 128.496H9V123.496H176V128.496ZM8.93007 123.497L175.93 118.824L176.07 123.822L9.06993 128.495L8.93007 123.497ZM176 123.823H9V118.823H176V123.823ZM8.93881 118.824L175.939 114.735L176.061 119.734L9.06119 123.823L8.93881 118.824ZM176 119.735H9V114.735H176V119.735ZM8.95192 114.735L175.952 111.522L176.048 116.521L9.04808 119.734L8.95192 114.735ZM175.969 116.522L8.9694 114.477L9.0306 109.478L176.031 111.522L175.969 116.522ZM8.94755 109.478L175.948 105.973L176.052 110.972L9.05245 114.477L8.94755 109.478ZM9 100.424H166.365V105.424H9V100.424ZM166.453 105.422L9.0881 110.971L8.9119 105.974L166.277 100.425L166.453 105.422ZM8.81952 105.979L166.185 94.5891L166.546 99.576L9.18048 110.966L8.81952 105.979ZM7.61292 95.0027L17.2475 88.5774L20.0217 92.7372L10.3871 99.1625L7.61292 95.0027ZM18.6643 88.1575L166.395 89.9098L166.336 94.9095L18.605 93.1571L18.6643 88.1575ZM166.402 94.9094L9.03711 97.2458L8.96289 92.2464L166.328 89.9099L166.402 94.9094ZM8.88413 92.2488L166.25 84.9473L166.481 89.942L9.11587 97.2434L8.88413 92.2488ZM166.365 89.9447H18.6346V84.9447H166.365V89.9447ZM18.5605 84.9458L166.291 80.5649L166.439 85.5627L18.7087 89.9436L18.5605 84.9458ZM166.326 85.5635L18.5951 83.227L18.6741 78.2276L166.405 80.5641L166.326 85.5635ZM175.917 110.971L92.417 108.197L92.583 103.2L176.083 105.974L175.917 110.971ZM92.417 108.197L8.91698 105.422L9.08302 100.425L92.583 103.2L92.417 108.197ZM166.365 99.5826H87.6827V94.5826H166.365V99.5826ZM87.6827 99.5826H9V94.5826H87.6827V99.5826Z" fill="#A5EEA0" fill-opacity="0.5"/>
<path d="M9.08197 150.239L6.58332 150.321L6.41937 145.324L8.91803 145.242L9.08197 150.239ZM176 142.262V139.762L176.082 144.761L176 142.262ZM9 142.262V144.762L8.89075 139.764L9 142.262ZM176 134.957V132.457L176.109 137.454L176 134.957ZM9 134.957V137.457L8.90438 132.459L9 134.957ZM176 128.565V126.065L176.096 131.063L176 128.565ZM9 128.565V131.065L8.92485 126.066L9 128.565ZM176 123.543L176.048 121.043L176.075 126.041L176 123.543ZM9 120.347L8.95216 122.846L8.91803 117.848L9 120.347ZM176 114.868L176.13 112.371L176.082 117.366L176 114.868ZM9 106.193L8.87031 108.689L9 103.693V106.193ZM166.365 106.193V103.693L166.503 108.689L166.365 106.193ZM9 114.868L9.1376 117.364L8.71891 112.384L9 114.868ZM166.365 97.0615V94.5615L166.646 99.5456L166.365 97.0615ZM9 97.0615V99.5615H3.13789L7.1958 95.3309L9 97.0615ZM18.6346 87.0169L16.8304 85.2863L17.5875 84.497L18.681 84.5173L18.6346 87.0169ZM166.365 89.7563L166.412 87.2567L166.423 92.2556L166.365 89.7563ZM9 93.4089L9.05801 95.9082L8.81914 90.9154L9 93.4089ZM166.365 81.9946V79.4946L166.546 84.4881L166.365 81.9946ZM18.6346 81.9946V84.4946L18.5188 79.4973L18.6346 81.9946ZM166.365 75.146L166.427 72.6468L166.481 77.6434L166.365 75.146ZM18.5728 73.9927L16.0736 73.9309L16.1972 68.9324L18.6964 68.9942L18.5728 73.9927ZM92.5 110.53L92.6297 108.034L92.5 110.53ZM8.91803 145.242L175.918 139.763L176.082 144.761L9.08197 150.239L8.91803 145.242ZM176 144.762H9V139.762H176V144.762ZM8.89075 139.764L175.891 132.459L176.109 137.454L9.10925 144.76L8.89075 139.764ZM176 137.457H9V132.457H176V137.457ZM8.90438 132.459L175.904 126.067L176.096 131.063L9.09562 137.455L8.90438 132.459ZM176 131.065H9V126.065H176V131.065ZM8.92485 126.066L175.925 121.044L176.075 126.041L9.07515 131.064L8.92485 126.066ZM175.952 126.042L8.95216 122.846L9.04784 117.847L176.048 121.043L175.952 126.042ZM8.91803 117.848L175.918 112.369L176.082 117.366L9.08197 122.845L8.91803 117.848ZM9 103.693H166.365V108.693H9V103.693ZM166.503 108.689L9.1376 117.364L8.8624 112.372L166.228 103.697L166.503 108.689ZM8.71891 112.384L166.084 94.5773L166.646 99.5456L9.28109 117.352L8.71891 112.384ZM7.1958 95.3309L16.8304 85.2863L20.4388 88.7475L10.8042 98.792L7.1958 95.3309ZM18.681 84.5173L166.412 87.2567L166.319 92.2559L18.5883 89.5165L18.681 84.5173ZM166.423 92.2556L9.05801 95.9082L8.94199 90.9096L166.307 87.257L166.423 92.2556ZM8.81914 90.9154L166.185 79.5012L166.546 84.4881L9.18086 95.9023L8.81914 90.9154ZM166.365 84.4946H18.6346V79.4946H166.365V84.4946ZM18.5188 79.4973L166.25 72.6487L166.481 77.6434L18.7504 84.4919L18.5188 79.4973ZM166.304 77.6453L18.5728 73.9927L18.6964 68.9942L166.427 72.6468L166.304 77.6453ZM175.87 117.364L92.3703 113.027L92.6297 108.034L176.13 112.371L175.87 117.364ZM92.3703 113.027L8.87031 108.689L9.12969 103.696L92.6297 108.034L92.3703 113.027ZM166.365 99.5615H87.6827V94.5615H166.365V99.5615ZM87.6827 99.5615H9V94.5615H87.6827V99.5615Z" fill="#A5EEA0" fill-opacity="0.5"/>
<path d="M9.08197 81.7461L6.58332 81.8281L6.41937 76.8308L8.91803 76.7488L9.08197 81.7461ZM176 73.7686V71.2686L176.082 76.2672L176 73.7686ZM9 73.7686V76.2686L8.89075 71.271L9 73.7686ZM176 66.4634V63.9634L176.109 68.9611L176 66.4634ZM9 66.4634V68.9634L8.90438 63.9653L9 66.4634ZM176 60.0714V57.5714L176.096 62.5696L176 60.0714ZM9 60.0714V62.5714L8.92485 57.5726L9 60.0714ZM176 55.0492L176.048 52.5496L176.075 57.548L176 55.0492ZM9 51.8532L8.95216 54.3527L8.91803 49.3545L9 51.8532ZM176 46.3743L176.13 43.8777L176.082 48.873L176 46.3743ZM9 37.6995L8.87031 40.1961L9 35.1995V37.6995ZM166.365 37.6995V35.1995L166.503 40.1957L166.365 37.6995ZM9 46.3743L9.1376 48.8705L8.71891 43.8902L9 46.3743ZM166.365 28.568V26.068L166.646 31.0522L166.365 28.568ZM9 28.568V31.068H3.1379L7.1958 26.8375L9 28.568ZM18.6346 18.5235L16.8304 16.7929L17.5875 16.0036L18.681 16.0239L18.6346 18.5235ZM166.365 21.2629L166.412 18.7633L166.423 23.7622L166.365 21.2629ZM9 24.9155L9.05801 27.4148L8.81914 22.422L9 24.9155ZM166.365 13.5012V11.0012L166.546 15.9946L166.365 13.5012ZM18.6346 13.5012V16.0012L18.5188 11.0039L18.6346 13.5012ZM166.365 6.65262L166.427 4.15338L166.481 9.14994L166.365 6.65262ZM18.5728 5.49928L16.0736 5.43748L16.1972 0.439018L18.6964 0.500809L18.5728 5.49928ZM92.5 42.0369L92.6297 39.5402L92.5 42.0369ZM8.91803 76.7488L175.918 71.2699L176.082 76.2672L9.08197 81.7461L8.91803 76.7488ZM176 76.2686H9V71.2686H176V76.2686ZM8.89075 71.271L175.891 63.9658L176.109 68.9611L9.10925 76.2662L8.89075 71.271ZM176 68.9634H9V63.9634H176V68.9634ZM8.90438 63.9653L175.904 57.5733L176.096 62.5696L9.09562 68.9616L8.90438 63.9653ZM176 62.5714H9V57.5714H176V62.5714ZM8.92485 57.5726L175.925 52.5503L176.075 57.548L9.07515 62.5703L8.92485 57.5726ZM175.952 57.5487L8.95216 54.3527L9.04784 49.3536L176.048 52.5496L175.952 57.5487ZM8.91803 49.3545L175.918 43.8757L176.082 48.873L9.08197 54.3518L8.91803 49.3545ZM9 35.1995H166.365V40.1995H9V35.1995ZM166.503 40.1957L9.1376 48.8705L8.8624 43.8781L166.228 35.2032L166.503 40.1957ZM8.71891 43.8902L166.084 26.0839L166.646 31.0522L9.28109 48.8585L8.71891 43.8902ZM7.1958 26.8375L16.8304 16.7929L20.4388 20.254L10.8042 30.2986L7.1958 26.8375ZM18.681 16.0239L166.412 18.7633L166.319 23.7625L18.5883 21.023L18.681 16.0239ZM166.423 23.7622L9.05801 27.4148L8.94199 22.4161L166.307 18.7636L166.423 23.7622ZM8.81914 22.422L166.185 11.0077L166.546 15.9946L9.18086 27.4089L8.81914 22.422ZM166.365 16.0012H18.6346V11.0012H166.365V16.0012ZM18.5188 11.0039L166.25 4.1553L166.481 9.14994L18.7504 15.9985L18.5188 11.0039ZM166.304 9.15186L18.5728 5.49928L18.6964 0.500809L166.427 4.15338L166.304 9.15186ZM175.87 48.8709L92.3703 44.5335L92.6297 39.5402L176.13 43.8777L175.87 48.8709ZM92.3703 44.5335L8.87031 40.1961L9.12969 35.2028L92.6297 39.5402L92.3703 44.5335ZM166.365 31.068H87.6827V26.068H166.365V31.068ZM87.6827 31.068H9V26.068H87.6827V31.068Z" fill="#A5EEA0" fill-opacity="0.5"/>
<path d="M9.05245 134.772L6.553 134.825L6.4481 129.826L8.94755 129.773L9.05245 134.772ZM176 128.768V126.268L176.052 131.267L176 128.768ZM9 128.768V131.268L8.93007 126.269L9 128.768ZM176 124.095V121.595L176.07 126.594L176 124.095ZM9 124.095V126.595L8.93881 121.596L9 124.095ZM176 120.006V117.506L176.061 122.506L176 120.006ZM9 120.006V122.506L8.95192 117.507L9 120.006ZM176 116.794L176.031 114.294L176.048 119.293L176 116.794ZM9 114.749L8.9694 117.249L8.94755 112.25L9 114.749ZM176 111.245L176.083 108.746L176.052 113.744L176 111.245ZM9 105.695L8.91698 108.194L9 103.195V105.695ZM166.365 105.695V103.195L166.453 108.194L166.365 105.695ZM9 111.245L9.0881 113.743L8.81952 108.751L9 111.245ZM166.365 99.8543V97.3543L166.546 102.348L166.365 99.8543ZM9 99.8543V102.354H0.745403L7.61292 97.7744L9 99.8543ZM18.6346 93.4291L17.2475 91.3492L17.891 90.9201L18.6643 90.9293L18.6346 93.4291ZM166.365 95.1814L166.395 92.6816L166.402 97.6811L166.365 95.1814ZM9 97.5179L9.03711 100.018L8.88413 95.0206L9 97.5179ZM166.365 90.2164V87.7164L166.481 92.7138L166.365 90.2164ZM18.6346 90.2164V92.7164L18.5605 87.7175L18.6346 90.2164ZM166.365 85.8356L166.405 83.3359L166.439 88.3345L166.365 85.8356ZM18.5951 85.9988L16.0954 85.9593L16.1745 80.9599L18.6741 80.9994L18.5951 85.9988ZM92.5 108.47L92.583 105.971L92.5 108.47ZM8.94755 129.773L175.948 126.269L176.052 131.267L9.05245 134.772L8.94755 129.773ZM176 131.268H9V126.268H176V131.268ZM8.93007 126.269L175.93 121.596L176.07 126.594L9.06993 131.267L8.93007 126.269ZM176 126.595H9V121.595H176V126.595ZM8.93881 121.596L175.939 117.507L176.061 122.506L9.06119 126.594L8.93881 121.596ZM176 122.506H9V117.506H176V122.506ZM8.95192 117.507L175.952 114.294L176.048 119.293L9.04808 122.506L8.95192 117.507ZM175.969 119.293L8.9694 117.249L9.0306 112.249L176.031 114.294L175.969 119.293ZM8.94755 112.25L175.948 108.745L176.052 113.744L9.05245 117.249L8.94755 112.25ZM9 103.195H166.365V108.195H9V103.195ZM166.453 108.194L9.0881 113.743L8.9119 108.746L166.277 103.197L166.453 108.194ZM8.81952 108.751L166.185 97.3609L166.546 102.348L9.18048 113.738L8.81952 108.751ZM7.61292 97.7744L17.2475 91.3492L20.0217 95.509L10.3871 101.934L7.61292 97.7744ZM18.6643 90.9293L166.395 92.6816L166.336 97.6812L18.605 95.9289L18.6643 90.9293ZM166.402 97.6811L9.03711 100.018L8.96289 95.0182L166.328 92.6817L166.402 97.6811ZM8.88413 95.0206L166.25 87.7191L166.481 92.7138L9.11587 100.015L8.88413 95.0206ZM166.365 92.7164H18.6346V87.7164H166.365V92.7164ZM18.5605 87.7175L166.291 83.3367L166.439 88.3345L18.7087 92.7153L18.5605 87.7175ZM166.326 88.3353L18.5951 85.9988L18.6741 80.9994L166.405 83.3359L166.326 88.3353ZM175.917 113.743L92.417 110.969L92.583 105.971L176.083 108.746L175.917 113.743ZM92.417 110.969L8.91698 108.194L9.08302 103.197L92.583 105.971L92.417 110.969ZM166.365 102.354H87.6827V97.3543H166.365V102.354ZM87.6827 102.354H9V97.3543H87.6827V102.354Z" fill="#A5EEA0" fill-opacity="0.5"/>
<path d="M9.05245 90.9585L6.553 91.011L6.4481 86.0121L8.94755 85.9596L9.05245 90.9585ZM176 84.9544V82.4544L176.052 87.4538L176 84.9544ZM9 84.9544V87.4544L8.93007 82.4554L9 84.9544ZM176 80.2815V77.7815L176.07 82.7805L176 80.2815ZM9 80.2815V82.7815L8.93881 77.7822L9 80.2815ZM176 76.1927V73.6927L176.061 78.6919L176 76.1927ZM9 76.1927V78.6927L8.95192 73.6931L9 76.1927ZM176 72.98L176.031 70.4802L176.048 75.4796L176 72.98ZM9 70.9356L8.9694 73.4354L8.94755 68.4362L9 70.9356ZM176 67.4309L176.083 64.9323L176.052 69.9304L176 67.4309ZM9 61.8818L8.91698 64.3805L9 59.3818V61.8818ZM166.365 61.8818V59.3818L166.453 64.3803L166.365 61.8818ZM9 67.4309L9.0881 69.9294L8.81952 64.9375L9 67.4309ZM166.365 56.0407V53.5407L166.546 58.5342L166.365 56.0407ZM9 56.0407V58.5407H0.745405L7.61292 53.9608L9 56.0407ZM18.6346 49.6154L17.2475 47.5355L17.891 47.1064L18.6643 47.1156L18.6346 49.6154ZM166.365 51.3678L166.395 48.8679L166.402 53.8675L166.365 51.3678ZM9 53.7042L9.03711 56.204L8.88413 51.2069L9 53.7042ZM166.365 46.4028V43.9028L166.481 48.9001L166.365 46.4028ZM18.6346 46.4028V48.9028L18.5605 43.9039L18.6346 46.4028ZM166.365 42.0219L166.405 39.5222L166.439 44.5208L166.365 42.0219ZM18.5951 42.1852L16.0954 42.1456L16.1745 37.1462L18.6741 37.1858L18.5951 42.1852ZM92.5 64.6564L92.583 62.1578L92.5 64.6564ZM8.94755 85.9596L175.948 82.4549L176.052 87.4538L9.05245 90.9585L8.94755 85.9596ZM176 87.4544H9V82.4544H176V87.4544ZM8.93007 82.4554L175.93 77.7825L176.07 82.7805L9.06993 87.4534L8.93007 82.4554ZM176 82.7815H9V77.7815H176V82.7815ZM8.93881 77.7822L175.939 73.6934L176.061 78.6919L9.06119 82.7807L8.93881 77.7822ZM176 78.6927H9V73.6927H176V78.6927ZM8.95192 73.6931L175.952 70.4805L176.048 75.4796L9.04808 78.6922L8.95192 73.6931ZM175.969 75.4798L8.9694 73.4354L9.0306 68.4358L176.031 70.4802L175.969 75.4798ZM8.94755 68.4362L175.948 64.9315L176.052 69.9304L9.05245 73.4351L8.94755 68.4362ZM9 59.3818H166.365V64.3818H9V59.3818ZM166.453 64.3803L9.0881 69.9294L8.9119 64.9325L166.277 59.3834L166.453 64.3803ZM8.81952 64.9375L166.185 53.5472L166.546 58.5342L9.18048 69.9244L8.81952 64.9375ZM7.61292 53.9608L17.2475 47.5355L20.0217 51.6953L10.3871 58.1206L7.61292 53.9608ZM18.6643 47.1156L166.395 48.8679L166.336 53.8676L18.605 52.1152L18.6643 47.1156ZM166.402 53.8675L9.03711 56.204L8.96289 51.2045L166.328 48.868L166.402 53.8675ZM8.88413 51.2069L166.25 43.9055L166.481 48.9001L9.11587 56.2015L8.88413 51.2069ZM166.365 48.9028H18.6346V43.9028H166.365V48.9028ZM18.5605 43.9039L166.291 39.523L166.439 44.5208L18.7087 48.9017L18.5605 43.9039ZM166.326 44.5216L18.5951 42.1852L18.6741 37.1858L166.405 39.5222L166.326 44.5216ZM175.917 69.9296L92.417 67.155L92.583 62.1578L176.083 64.9323L175.917 69.9296ZM92.417 67.155L8.91698 64.3805L9.08302 59.3832L92.583 62.1578L92.417 67.155ZM166.365 58.5407H87.6827V53.5407H166.365V58.5407ZM87.6827 58.5407H9V53.5407H87.6827V58.5407Z" fill="#A5EEA0" fill-opacity="0.5"/>
<path d="M9.05245 98.0867L6.553 98.1392L6.4481 93.1403L8.94755 93.0878L9.05245 98.0867ZM176 92.0826V89.5826L176.052 94.582L176 92.0826ZM9 92.0826V94.5826L8.93007 89.5835L9 92.0826ZM176 87.4096V84.9096L176.07 89.9087L176 87.4096ZM9 87.4096V89.9096L8.93881 84.9104L9 87.4096ZM176 83.3208V80.8208L176.061 85.8201L176 83.3208ZM9 83.3208V85.8208L8.95192 80.8213L9 83.3208ZM176 80.1082L176.031 77.6084L176.048 82.6077L176 80.1082ZM9 78.0638L8.9694 80.5636L8.94755 75.5643L9 78.0638ZM176 74.5591L176.083 72.0605L176.052 77.0586L176 74.5591ZM9 69.01L8.91698 71.5086L9 66.51V69.01ZM166.365 69.01V66.51L166.453 71.5085L166.365 69.01ZM9 74.5591L9.0881 77.0576L8.81952 72.0656L9 74.5591ZM166.365 63.1689V60.6689L166.546 65.6623L166.365 63.1689ZM9 63.1689V65.6689H0.745403L7.61292 61.089L9 63.1689ZM18.6346 56.7436L17.2475 54.6637L17.891 54.2346L18.6643 54.2438L18.6346 56.7436ZM166.365 58.4959L166.395 55.9961L166.402 60.9957L166.365 58.4959ZM9 60.8324L9.03711 63.3321L8.88413 58.3351L9 60.8324ZM166.365 53.531V51.031L166.481 56.0283L166.365 53.531ZM18.6346 53.531V56.031L18.5605 51.0321L18.6346 53.531ZM166.365 49.1501L166.405 46.6504L166.439 51.649L166.365 49.1501ZM18.5951 49.3133L16.0954 49.2738L16.1745 44.2744L18.6741 44.3139L18.5951 49.3133ZM92.5 71.7846L92.583 69.2859L92.5 71.7846ZM8.94755 93.0878L175.948 89.5831L176.052 94.582L9.05245 98.0867L8.94755 93.0878ZM176 94.5826H9V89.5826H176V94.5826ZM8.93007 89.5835L175.93 84.9106L176.07 89.9087L9.06993 94.5816L8.93007 89.5835ZM176 89.9096H9V84.9096H176V89.9096ZM8.93881 84.9104L175.939 80.8216L176.061 85.8201L9.06119 89.9089L8.93881 84.9104ZM176 85.8208H9V80.8208H176V85.8208ZM8.95192 80.8213L175.952 77.6087L176.048 82.6077L9.04808 85.8204L8.95192 80.8213ZM175.969 82.608L8.9694 80.5636L9.0306 75.564L176.031 77.6084L175.969 82.608ZM8.94755 75.5643L175.948 72.0597L176.052 77.0586L9.05245 80.5632L8.94755 75.5643ZM9 66.51H166.365V71.51H9V66.51ZM166.453 71.5085L9.0881 77.0576L8.9119 72.0607L166.277 66.5116L166.453 71.5085ZM8.81952 72.0656L166.185 60.6754L166.546 65.6623L9.18048 77.0526L8.81952 72.0656ZM7.61292 61.089L17.2475 54.6637L20.0217 58.8235L10.3871 65.2488L7.61292 61.089ZM18.6643 54.2438L166.395 55.9961L166.336 60.9958L18.605 59.2434L18.6643 54.2438ZM166.402 60.9957L9.03711 63.3321L8.96289 58.3327L166.328 55.9962L166.402 60.9957ZM8.88413 58.3351L166.25 51.0336L166.481 56.0283L9.11587 63.3297L8.88413 58.3351ZM166.365 56.031H18.6346V51.031H166.365V56.031ZM18.5605 51.0321L166.291 46.6512L166.439 51.649L18.7087 56.0299L18.5605 51.0321ZM166.326 51.6498L18.5951 49.3133L18.6741 44.3139L166.405 46.6504L166.326 51.6498ZM175.917 77.0577L92.417 74.2832L92.583 69.2859L176.083 72.0605L175.917 77.0577ZM92.417 74.2832L8.91698 71.5086L9.08302 66.5114L92.583 69.2859L92.417 74.2832ZM166.365 65.6689H87.6827V60.6689H166.365V65.6689ZM87.6827 65.6689H9V60.6689H87.6827V65.6689Z" fill="#A5EEA0" fill-opacity="0.5"/>
<path d="M9.05245 54.2731L6.553 54.3256L6.4481 49.3267L8.94755 49.2742L9.05245 54.2731ZM176 48.269V45.769L176.052 50.7684L176 48.269ZM9 48.269V50.769L8.93007 45.77L9 48.269ZM176 43.5961V41.0961L176.07 46.0951L176 43.5961ZM9 43.5961V46.0961L8.93881 41.0968L9 43.5961ZM176 39.5073V37.0073L176.061 42.0065L176 39.5073ZM9 39.5073V42.0073L8.95192 37.0077L9 39.5073ZM176 36.2946L176.031 33.7948L176.048 38.7942L176 36.2946ZM9 34.2502L8.9694 36.75L8.94755 31.7508L9 34.2502ZM176 30.7455L176.083 28.2469L176.052 33.245L176 30.7455ZM9 25.1964L8.91698 27.6951L9 22.6964V25.1964ZM166.365 25.1964V22.6964L166.453 27.6949L166.365 25.1964ZM9 30.7455L9.0881 33.244L8.81952 28.2521L9 30.7455ZM166.365 19.3553V16.8553L166.546 21.8488L166.365 19.3553ZM9 19.3553V21.8553H0.745406L7.61292 17.2754L9 19.3553ZM18.6346 12.93L17.2475 10.8501L17.891 10.421L18.6643 10.4302L18.6346 12.93ZM166.365 14.6824L166.395 12.1825L166.402 17.1821L166.365 14.6824ZM9 17.0188L9.03711 19.5185L8.88413 14.5215L9 17.0188ZM166.365 9.71738V7.21738L166.481 12.2147L166.365 9.71738ZM18.6346 9.71738V12.2174L18.5605 7.21848L18.6346 9.71738ZM166.365 5.33651L166.405 2.83682L166.439 7.83541L166.365 5.33651ZM18.5951 5.49973L16.0954 5.4602L16.1745 0.460823L18.6741 0.500359L18.5951 5.49973ZM92.5 27.971L92.583 25.4724L92.5 27.971ZM8.94755 49.2742L175.948 45.7695L176.052 50.7684L9.05245 54.2731L8.94755 49.2742ZM176 50.769H9V45.769H176V50.769ZM8.93007 45.77L175.93 41.097L176.07 46.0951L9.06993 50.768L8.93007 45.77ZM176 46.0961H9V41.0961H176V46.0961ZM8.93881 41.0968L175.939 37.008L176.061 42.0065L9.06119 46.0953L8.93881 41.0968ZM176 42.0073H9V37.0073H176V42.0073ZM8.95192 37.0077L175.952 33.7951L176.048 38.7942L9.04808 42.0068L8.95192 37.0077ZM175.969 38.7944L8.9694 36.75L9.0306 31.7504L176.031 33.7948L175.969 38.7944ZM8.94755 31.7508L175.948 28.2461L176.052 33.245L9.05245 36.7497L8.94755 31.7508ZM9 22.6964H166.365V27.6964H9V22.6964ZM166.453 27.6949L9.0881 33.244L8.9119 28.2471L166.277 22.698L166.453 27.6949ZM8.81952 28.2521L166.185 16.8618L166.546 21.8488L9.18048 33.239L8.81952 28.2521ZM7.61292 17.2754L17.2475 10.8501L20.0217 15.0099L10.3871 21.4352L7.61292 17.2754ZM18.6643 10.4302L166.395 12.1825L166.336 17.1822L18.605 15.4298L18.6643 10.4302ZM166.402 17.1821L9.03711 19.5185L8.96289 14.5191L166.328 12.1826L166.402 17.1821ZM8.88413 14.5215L166.25 7.22006L166.481 12.2147L9.11587 19.5161L8.88413 14.5215ZM166.365 12.2174H18.6346V7.21738H166.365V12.2174ZM18.5605 7.21848L166.291 2.83761L166.439 7.83541L18.7087 12.2163L18.5605 7.21848ZM166.326 7.8362L18.5951 5.49973L18.6741 0.500359L166.405 2.83682L166.326 7.8362ZM175.917 33.2442L92.417 30.4696L92.583 25.4724L176.083 28.2469L175.917 33.2442ZM92.417 30.4696L8.91698 27.6951L9.08302 22.6978L92.583 25.4724L92.417 30.4696ZM166.365 21.8553H87.6827V16.8553H166.365V21.8553ZM87.6827 21.8553H9V16.8553H87.6827V21.8553Z" fill="#A5EEA0" fill-opacity="0.5"/>
</svg>
