<svg width="176" height="213" viewBox="0 0 176 213" fill="none" xmlns="http://www.w3.org/2000/svg">
<path d="M8.08396 212.499L5.58537 212.583L5.41745 207.585L7.91604 207.501L8.08396 212.499ZM175 204.388V201.888L175.084 206.887L175 204.388ZM8 204.388V206.888L7.8881 201.891L8 204.388ZM175 196.905V194.405L175.112 199.403L175 196.905ZM8 196.905V199.405L7.90206 194.407L8 196.905ZM175 190.358V187.858L175.098 192.856L175 190.358ZM8 190.358V192.858L7.92303 187.859L8 190.358ZM175 185.214L175.049 182.714L175.077 187.713L175 185.214ZM8 181.94L7.951 184.44L7.91604 179.442L8 181.94ZM175 176.328L175.133 173.832L175.084 178.827L175 176.328ZM8 167.443L7.86717 169.939L8 164.943V167.443ZM165.365 167.443V164.943L165.506 169.939L165.365 167.443ZM8 176.328L8.14094 178.824L7.71217 173.845L8 176.328ZM165.365 158.09V155.59L165.653 160.573L165.365 158.09ZM8 158.09V160.59H2.23388L6.17519 156.381L8 158.09ZM17.6346 147.801L15.8098 146.092L16.5701 145.28L17.6821 145.301L17.6346 147.801ZM165.365 150.607L165.413 148.107L165.425 153.106L165.365 150.607ZM8 154.348L8.05942 156.848L7.81477 151.855L8 154.348ZM165.365 142.657V140.157L165.551 145.15L165.365 142.657ZM17.6346 142.657V145.157L17.516 140.16L17.6346 142.657ZM165.365 135.642L165.429 133.143L165.484 138.139L165.365 135.642ZM17.5713 134.4L15.0721 134.336L15.1987 129.338L17.6979 129.401L17.5713 134.4ZM91.5 171.886L91.6328 169.389L91.5 171.886ZM7.91604 207.501L174.916 201.889L175.084 206.887L8.08396 212.499L7.91604 207.501ZM175 206.888H8V201.888H175V206.888ZM7.8881 201.891L174.888 194.408L175.112 199.403L8.1119 206.886L7.8881 201.891ZM175 199.405H8V194.405H175V199.405ZM7.90206 194.407L174.902 187.86L175.098 192.856L8.09794 199.404L7.90206 194.407ZM175 192.858H8V187.858H175V192.858ZM7.92303 187.859L174.923 182.715L175.077 187.713L8.07697 192.857L7.92303 187.859ZM174.951 187.713L7.951 184.44L8.049 179.441L175.049 182.714L174.951 187.713ZM7.91604 179.442L174.916 173.83L175.084 178.827L8.08396 184.439L7.91604 179.442ZM8 164.943H165.365V169.943H8V164.943ZM165.506 169.939L8.14094 178.824L7.85906 173.832L165.224 164.947L165.506 169.939ZM7.71217 173.845L165.078 155.606L165.653 160.573L8.28783 178.812L7.71217 173.845ZM6.17519 156.381L15.8098 146.092L19.4594 149.51L9.82481 159.798L6.17519 156.381ZM17.6821 145.301L165.413 148.107L165.318 153.106L17.5871 150.301L17.6821 145.301ZM165.425 153.106L8.05942 156.848L7.94058 151.849L165.306 148.108L165.425 153.106ZM7.81477 151.855L165.18 140.164L165.551 145.15L8.18523 156.841L7.81477 151.855ZM165.365 145.157H17.6346V140.157H165.365V145.157ZM17.516 140.16L165.247 133.145L165.484 138.139L17.7532 145.154L17.516 140.16ZM165.302 138.141L17.5713 134.4L17.6979 129.401L165.429 133.143L165.302 138.141ZM174.867 178.825L91.3672 174.382L91.6328 169.389L175.133 173.832L174.867 178.825ZM91.3672 174.382L7.86717 169.939L8.13283 164.946L91.6328 169.389L91.3672 174.382ZM165.365 160.59H86.6827V155.59H165.365V160.59ZM86.6827 160.59H8V155.59H86.6827V160.59Z" fill="#42AB49" fill-opacity="0.5"/>
<path d="M8.08396 142.341L5.58537 142.425L5.41745 137.428L7.91604 137.344L8.08396 142.341ZM175 134.231V131.731L175.084 136.729L175 134.231ZM8 134.231V136.731L7.8881 131.733L8 134.231ZM175 126.748V124.248L175.112 129.246L175 126.748ZM8 126.748V129.248L7.90206 124.25L8 126.748ZM175 120.201V117.701L175.098 122.699L175 120.201ZM8 120.201V122.701L7.92303 117.702L8 120.201ZM175 115.057L175.049 112.557L175.077 117.555L175 115.057ZM8 111.783L7.951 114.283L7.91604 109.284L8 111.783ZM175 106.171L175.133 103.675L175.084 108.67L175 106.171ZM8 97.2855L7.86717 99.7819L8 94.7855V97.2855ZM165.365 97.2855V94.7855L165.506 99.7815L165.365 97.2855ZM8 106.171L8.14094 108.667L7.71217 103.688L8 106.171ZM165.365 87.9322V85.4322L165.653 90.4156L165.365 87.9322ZM8 87.9322V90.4322H2.23388L6.17519 86.2234L8 87.9322ZM17.6346 77.6437L15.8098 75.9349L16.5701 75.123L17.6821 75.1441L17.6346 77.6437ZM165.365 80.4497L165.413 77.9501L165.425 82.9489L165.365 80.4497ZM8 84.1909L8.05942 86.6902L7.81477 81.6978L8 84.1909ZM165.365 72.4994V69.9994L165.551 74.9925L165.365 72.4994ZM17.6346 72.4994V74.9994L17.516 70.0022L17.6346 72.4994ZM165.365 65.4845L165.429 62.9853L165.484 67.9817L165.365 65.4845ZM17.5713 64.2424L15.0721 64.1791L15.1987 59.1807L17.6979 59.244L17.5713 64.2424ZM91.5 101.728L91.6328 99.2318L91.5 101.728ZM7.91604 137.344L174.916 131.732L175.084 136.729L8.08396 142.341L7.91604 137.344ZM175 136.731H8V131.731H175V136.731ZM7.8881 131.733L174.888 124.251L175.112 129.246L8.1119 136.728L7.8881 131.733ZM175 129.248H8V124.248H175V129.248ZM7.90206 124.25L174.902 117.703L175.098 122.699L8.09794 129.246L7.90206 124.25ZM175 122.701H8V117.701H175V122.701ZM7.92303 117.702L174.923 112.558L175.077 117.555L8.07697 122.7L7.92303 117.702ZM174.951 117.556L7.951 114.283L8.049 109.283L175.049 112.557L174.951 117.556ZM7.91604 109.284L174.916 103.672L175.084 108.67L8.08396 114.282L7.91604 109.284ZM8 94.7855H165.365V99.7855H8V94.7855ZM165.506 99.7815L8.14094 108.667L7.85906 103.675L165.224 94.7895L165.506 99.7815ZM7.71217 103.688L165.078 85.4489L165.653 90.4156L8.28783 108.654L7.71217 103.688ZM6.17519 86.2234L15.8098 75.9349L19.4594 79.3525L9.82481 89.6411L6.17519 86.2234ZM17.6821 75.1441L165.413 77.9501L165.318 82.9492L17.5871 80.1432L17.6821 75.1441ZM165.425 82.9489L8.05942 86.6902L7.94058 81.6917L165.306 77.9504L165.425 82.9489ZM7.81477 81.6978L165.18 70.0063L165.551 74.9925L8.18523 86.6841L7.81477 81.6978ZM165.365 74.9994H17.6346V69.9994H165.365V74.9994ZM17.516 70.0022L165.247 62.9873L165.484 67.9817L17.7532 74.9966L17.516 70.0022ZM165.302 67.9837L17.5713 64.2424L17.6979 59.244L165.429 62.9853L165.302 67.9837ZM174.867 108.668L91.3672 104.225L91.6328 99.2318L175.133 103.675L174.867 108.668ZM91.3672 104.225L7.86717 99.7819L8.13283 94.789L91.6328 99.2318L91.3672 104.225ZM165.365 90.4322H86.6827V85.4322H165.365V90.4322ZM86.6827 90.4322H8V85.4322H86.6827V90.4322Z" fill="#42AB49" fill-opacity="0.5"/>
<path d="M8.08396 153.755L5.58537 153.839L5.41745 148.842L7.91604 148.758L8.08396 153.755ZM175 145.645V143.145L175.084 148.143L175 145.645ZM8 145.645V148.145L7.8881 143.147L8 145.645ZM175 138.162V135.662L175.112 140.66L175 138.162ZM8 138.162V140.662L7.90206 135.664L8 138.162ZM175 131.615V129.115L175.098 134.113L175 131.615ZM8 131.615V134.115L7.92303 129.116L8 131.615ZM175 126.471L175.049 123.971L175.077 128.97L175 126.471ZM8 123.197L7.951 125.697L7.91604 120.698L8 123.197ZM175 117.585L175.133 115.089L175.084 120.084L175 117.585ZM8 108.7L7.86717 111.196L8 106.2V108.7ZM165.365 108.7V106.2L165.506 111.196L165.365 108.7ZM8 117.585L8.14094 120.081L7.71217 115.102L8 117.585ZM165.365 99.3463V96.8463L165.653 101.83L165.365 99.3463ZM8 99.3463V101.846H2.23388L6.17519 97.6375L8 99.3463ZM17.6346 89.0578L15.8098 87.3489L16.5701 86.5371L17.6821 86.5582L17.6346 89.0578ZM165.365 91.8637L165.413 89.3642L165.425 94.363L165.365 91.8637ZM8 95.605L8.05942 98.1043L7.81477 93.1119L8 95.605ZM165.365 83.9135V81.4135L165.551 86.4066L165.365 83.9135ZM17.6346 83.9135V86.4135L17.516 81.4163L17.6346 83.9135ZM165.365 76.8986L165.429 74.3994L165.484 79.3957L165.365 76.8986ZM17.5713 75.6565L15.0721 75.5932L15.1987 70.5948L17.6979 70.6581L17.5713 75.6565ZM91.5 113.142L91.6328 110.646L91.5 113.142ZM7.91604 148.758L174.916 143.146L175.084 148.143L8.08396 153.755L7.91604 148.758ZM175 148.145H8V143.145H175V148.145ZM7.8881 143.147L174.888 135.665L175.112 140.66L8.1119 148.142L7.8881 143.147ZM175 140.662H8V135.662H175V140.662ZM7.90206 135.664L174.902 129.117L175.098 134.113L8.09794 140.66L7.90206 135.664ZM175 134.115H8V129.115H175V134.115ZM7.92303 129.116L174.923 123.972L175.077 128.97L8.07697 134.114L7.92303 129.116ZM174.951 128.97L7.951 125.697L8.049 120.698L175.049 123.971L174.951 128.97ZM7.91604 120.698L174.916 115.087L175.084 120.084L8.08396 125.696L7.91604 120.698ZM8 106.2H165.365V111.2H8V106.2ZM165.506 111.196L8.14094 120.081L7.85906 115.089L165.224 106.204L165.506 111.196ZM7.71217 115.102L165.078 96.8629L165.653 101.83L8.28783 120.069L7.71217 115.102ZM6.17519 97.6375L15.8098 87.3489L19.4594 90.7666L9.82481 101.055L6.17519 97.6375ZM17.6821 86.5582L165.413 89.3642L165.318 94.3633L17.5871 91.5573L17.6821 86.5582ZM165.425 94.363L8.05942 98.1043L7.94058 93.1057L165.306 89.3644L165.425 94.363ZM7.81477 93.1119L165.18 81.4204L165.551 86.4066L8.18523 98.0982L7.81477 93.1119ZM165.365 86.4135H17.6346V81.4135H165.365V86.4135ZM17.516 81.4163L165.247 74.4014L165.484 79.3957L17.7532 86.4107L17.516 81.4163ZM165.302 79.3978L17.5713 75.6565L17.6979 70.6581L165.429 74.3994L165.302 79.3978ZM174.867 120.082L91.3672 115.639L91.6328 110.646L175.133 115.089L174.867 120.082ZM91.3672 115.639L7.86717 111.196L8.13283 106.203L91.6328 110.646L91.3672 115.639ZM165.365 101.846H86.6827V96.8463H165.365V101.846ZM86.6827 101.846H8V96.8463H86.6827V101.846Z" fill="#42AB49" fill-opacity="0.5"/>
<path d="M8.08396 83.5982L5.58537 83.6821L5.41745 78.685L7.91604 78.601L8.08396 83.5982ZM175 75.4876V72.9876L175.084 77.9862L175 75.4876ZM8 75.4876V77.9876L7.8881 72.9901L8 75.4876ZM175 68.005V65.505L175.112 70.5025L175 68.005ZM8 68.005V70.505L7.90206 65.507L8 68.005ZM175 61.4578V58.9578L175.098 63.9559L175 61.4578ZM8 61.4578V63.9578L7.92303 58.959L8 61.4578ZM175 56.3135L175.049 53.814L175.077 58.8123L175 56.3135ZM8 53.0399L7.951 55.5394L7.91604 50.5413L8 53.0399ZM175 47.4279L175.133 44.9314L175.084 49.9265L175 47.4279ZM8 38.5423L7.86717 41.0388L8 36.0423V38.5423ZM165.365 38.5423V36.0423L165.506 41.0384L165.365 38.5423ZM8 47.4279L8.14094 49.9239L7.71217 44.9445L8 47.4279ZM165.365 29.1891V26.6891L165.653 31.6725L165.365 29.1891ZM8 29.1891V31.6891H2.23389L6.17519 27.4803L8 29.1891ZM17.6346 18.9005L15.8098 17.1917L16.5701 16.3799L17.6821 16.401L17.6346 18.9005ZM165.365 21.7065L165.413 19.207L165.425 24.2058L165.365 21.7065ZM8 25.4478L8.05942 27.9471L7.81477 22.9547L8 25.4478ZM165.365 13.7563V11.2563L165.551 16.2494L165.365 13.7563ZM17.6346 13.7563V16.2563L17.516 11.2591L17.6346 13.7563ZM165.365 6.74133L165.429 4.24213L165.484 9.23852L165.365 6.74133ZM17.5713 5.49923L15.0721 5.43594L15.1987 0.437538L17.6979 0.500832L17.5713 5.49923ZM91.5 42.9851L91.6328 40.4887L91.5 42.9851ZM7.91604 78.601L174.916 72.989L175.084 77.9862L8.08396 83.5982L7.91604 78.601ZM175 77.9876H8V72.9876H175V77.9876ZM7.8881 72.9901L174.888 65.5075L175.112 70.5025L8.1119 77.9851L7.8881 72.9901ZM175 70.505H8V65.505H175V70.505ZM7.90206 65.507L174.902 58.9597L175.098 63.9559L8.09794 70.5031L7.90206 65.507ZM175 63.9578H8V58.9578H175V63.9578ZM7.92303 58.959L174.923 53.8147L175.077 58.8123L8.07697 63.9566L7.92303 58.959ZM174.951 58.813L7.951 55.5394L8.049 50.5403L175.049 53.814L174.951 58.813ZM7.91604 50.5413L174.916 44.9293L175.084 49.9265L8.08396 55.5385L7.91604 50.5413ZM8 36.0423H165.365V41.0423H8V36.0423ZM165.506 41.0384L8.14094 49.9239L7.85906 44.9319L165.224 36.0463L165.506 41.0384ZM7.71217 44.9445L165.078 26.7057L165.653 31.6725L8.28783 49.9113L7.71217 44.9445ZM6.17519 27.4803L15.8098 17.1917L19.4594 20.6094L9.82481 30.8979L6.17519 27.4803ZM17.6821 16.401L165.413 19.207L165.318 24.2061L17.5871 21.4001L17.6821 16.401ZM165.425 24.2058L8.05942 27.9471L7.94058 22.9485L165.306 19.2072L165.425 24.2058ZM7.81477 22.9547L165.18 11.2631L165.551 16.2494L8.18523 27.9409L7.81477 22.9547ZM165.365 16.2563H17.6346V11.2563H165.365V16.2563ZM17.516 11.2591L165.247 4.24415L165.484 9.23852L17.7532 16.2534L17.516 11.2591ZM165.302 9.24053L17.5713 5.49923L17.6979 0.500832L165.429 4.24213L165.302 9.24053ZM174.867 49.9244L91.3672 45.4816L91.6328 40.4887L175.133 44.9314L174.867 49.9244ZM91.3672 45.4816L7.86717 41.0388L8.13283 36.0459L91.6328 40.4887L91.3672 45.4816ZM165.365 31.6891H86.6827V26.6891H165.365V31.6891ZM86.6827 31.6891H8V26.6891H86.6827V31.6891Z" fill="#42AB49" fill-opacity="0.5"/>
<path d="M8.08197 207.59L5.58332 207.672L5.41937 202.674L7.91803 202.592L8.08197 207.59ZM175 199.612V197.112L175.082 202.111L175 199.612ZM8 199.612V202.112L7.89075 197.114L8 199.612ZM175 192.307V189.807L175.109 194.805L175 192.307ZM8 192.307V194.807L7.90438 189.809L8 192.307ZM175 185.915V183.415L175.096 188.413L175 185.915ZM8 185.915V188.415L7.92485 183.416L8 185.915ZM175 180.893L175.048 178.393L175.075 183.392L175 180.893ZM8 177.697L7.95216 180.196L7.91803 175.198L8 177.697ZM175 172.218L175.13 169.721L175.082 174.716L175 172.218ZM8 163.543L7.87031 166.04L8 161.043V163.543ZM165.365 163.543V161.043L165.503 166.039L165.365 163.543ZM8 172.218L8.1376 174.714L7.71891 169.734L8 172.218ZM165.365 154.412V151.912L165.646 156.896L165.365 154.412ZM8 154.412V156.912H2.1379L6.1958 152.681L8 154.412ZM17.6346 144.367L15.8304 142.636L16.5875 141.847L17.681 141.867L17.6346 144.367ZM165.365 147.106L165.412 144.607L165.423 149.606L165.365 147.106ZM8 150.759L8.05801 153.258L7.81914 148.266L8 150.759ZM165.365 139.345V136.845L165.546 141.838L165.365 139.345ZM17.6346 139.345V141.845L17.5188 136.847L17.6346 139.345ZM165.365 132.496L165.427 129.997L165.481 134.993L165.365 132.496ZM17.5728 131.343L15.0736 131.281L15.1972 126.283L17.6964 126.344L17.5728 131.343ZM91.5 167.88L91.6297 165.384L91.5 167.88ZM7.91803 202.592L174.918 197.113L175.082 202.111L8.08197 207.59L7.91803 202.592ZM175 202.112H8V197.112H175V202.112ZM7.89075 197.114L174.891 189.809L175.109 194.805L8.10925 202.11L7.89075 197.114ZM175 194.807H8V189.807H175V194.807ZM7.90438 189.809L174.904 183.417L175.096 188.413L8.09562 194.805L7.90438 189.809ZM175 188.415H8V183.415H175V188.415ZM7.92485 183.416L174.925 178.394L175.075 183.392L8.07515 188.414L7.92485 183.416ZM174.952 183.392L7.95216 180.196L8.04784 175.197L175.048 178.393L174.952 183.392ZM7.91803 175.198L174.918 169.719L175.082 174.716L8.08197 180.195L7.91803 175.198ZM8 161.043H165.365V166.043H8V161.043ZM165.503 166.039L8.1376 174.714L7.8624 169.722L165.228 161.047L165.503 166.039ZM7.71891 169.734L165.084 151.927L165.646 156.896L8.28109 174.702L7.71891 169.734ZM6.1958 152.681L15.8304 142.636L19.4388 146.098L9.8042 156.142L6.1958 152.681ZM17.681 141.867L165.412 144.607L165.319 149.606L17.5883 146.867L17.681 141.867ZM165.423 149.606L8.05801 153.258L7.94199 148.26L165.307 144.607L165.423 149.606ZM7.81914 148.266L165.185 136.851L165.546 141.838L8.18086 153.252L7.81914 148.266ZM165.365 141.845H17.6346V136.845H165.365V141.845ZM17.5188 136.847L165.25 129.999L165.481 134.993L17.7504 141.842L17.5188 136.847ZM165.304 134.995L17.5728 131.343L17.6964 126.344L165.427 129.997L165.304 134.995ZM174.87 174.714L91.3703 170.377L91.6297 165.384L175.13 169.721L174.87 174.714ZM91.3703 170.377L7.87031 166.04L8.12969 161.046L91.6297 165.384L91.3703 170.377ZM165.365 156.912H86.6827V151.912H165.365V156.912ZM86.6827 156.912H8V151.912H86.6827V156.912Z" fill="#42AB49" fill-opacity="0.5"/>
<path d="M8.08197 139.096L5.58332 139.178L5.41937 134.181L7.91803 134.099L8.08197 139.096ZM175 131.119V128.619L175.082 133.617L175 131.119ZM8 131.119V133.619L7.89075 128.621L8 131.119ZM175 123.813V121.313L175.109 126.311L175 123.813ZM8 123.813V126.313L7.90438 121.315L8 123.813ZM175 117.421V114.921L175.096 119.92L175 117.421ZM8 117.421V119.921L7.92485 114.923L8 117.421ZM175 112.399L175.048 109.9L175.075 114.898L175 112.399ZM8 109.203L7.95216 111.703L7.91803 106.705L8 109.203ZM175 103.724L175.13 101.228L175.082 106.223L175 103.724ZM8 95.0495L7.87031 97.5461L8 92.5495V95.0495ZM165.365 95.0495V92.5495L165.503 97.5457L165.365 95.0495ZM8 103.724L8.1376 106.221L7.71891 101.24L8 103.724ZM165.365 85.918V83.418L165.646 88.4022L165.365 85.918ZM8 85.918V88.418H2.1379L6.1958 84.1875L8 85.918ZM17.6346 75.8735L15.8304 74.1429L16.5875 73.3536L17.681 73.3739L17.6346 75.8735ZM165.365 78.6129L165.412 76.1133L165.423 81.1122L165.365 78.6129ZM8 82.2655L8.05801 84.7648L7.81914 79.772L8 82.2655ZM165.365 70.8512V68.3512L165.546 73.3446L165.365 70.8512ZM17.6346 70.8512V73.3512L17.5188 68.3539L17.6346 70.8512ZM165.365 64.0026L165.427 61.5034L165.481 66.4999L165.365 64.0026ZM17.5728 62.8493L15.0736 62.7875L15.1972 57.789L17.6964 57.8508L17.5728 62.8493ZM91.5 99.3869L91.6297 96.8902L91.5 99.3869ZM7.91803 134.099L174.918 128.62L175.082 133.617L8.08197 139.096L7.91803 134.099ZM175 133.619H8V128.619H175V133.619ZM7.89075 128.621L174.891 121.316L175.109 126.311L8.10925 133.616L7.89075 128.621ZM175 126.313H8V121.313H175V126.313ZM7.90438 121.315L174.904 114.923L175.096 119.92L8.09562 126.312L7.90438 121.315ZM175 119.921H8V114.921H175V119.921ZM7.92485 114.923L174.925 109.9L175.075 114.898L8.07515 119.92L7.92485 114.923ZM174.952 114.899L7.95216 111.703L8.04784 106.704L175.048 109.9L174.952 114.899ZM7.91803 106.705L174.918 101.226L175.082 106.223L8.08197 111.702L7.91803 106.705ZM8 92.5495H165.365V97.5495H8V92.5495ZM165.503 97.5457L8.1376 106.221L7.8624 101.228L165.228 92.5532L165.503 97.5457ZM7.71891 101.24L165.084 83.4339L165.646 88.4022L8.28109 106.208L7.71891 101.24ZM6.1958 84.1875L15.8304 74.1429L19.4388 77.604L9.8042 87.6486L6.1958 84.1875ZM17.681 73.3739L165.412 76.1133L165.319 81.1125L17.5883 78.373L17.681 73.3739ZM165.423 81.1122L8.05801 84.7648L7.94199 79.7661L165.307 76.1136L165.423 81.1122ZM7.81914 79.772L165.185 68.3577L165.546 73.3446L8.18086 84.7589L7.81914 79.772ZM165.365 73.3512H17.6346V68.3512H165.365V73.3512ZM17.5188 68.3539L165.25 61.5053L165.481 66.4999L17.7504 73.3485L17.5188 68.3539ZM165.304 66.5019L17.5728 62.8493L17.6964 57.8508L165.427 61.5034L165.304 66.5019ZM174.87 106.221L91.3703 101.884L91.6297 96.8902L175.13 101.228L174.87 106.221ZM91.3703 101.884L7.87031 97.5461L8.12969 92.5528L91.6297 96.8902L91.3703 101.884ZM165.365 88.418H86.6827V83.418H165.365V88.418ZM86.6827 88.418H8V83.418H86.6827V88.418Z" fill="#42AB49" fill-opacity="0.5"/>
<path d="M8.05245 212.499L5.553 212.552L5.4481 207.553L7.94755 207.501L8.05245 212.499ZM175 206.495V203.995L175.052 208.995L175 206.495ZM8 206.495V208.995L7.93007 203.996L8 206.495ZM175 201.822V199.322L175.07 204.321L175 201.822ZM8 201.822V204.322L7.93881 199.323L8 201.822ZM175 197.734V195.234L175.061 200.233L175 197.734ZM8 197.734V200.234L7.95192 195.234L8 197.734ZM175 194.521L175.031 192.021L175.048 197.02L175 194.521ZM8 192.477L7.9694 194.976L7.94755 189.977L8 192.477ZM175 188.972L175.083 186.473L175.052 191.471L175 188.972ZM8 183.423L7.91698 185.921L8 180.923V183.423ZM165.365 183.423V180.923L165.453 185.921L165.365 183.423ZM8 188.972L8.0881 191.47L7.81952 186.478L8 188.972ZM165.365 177.582V175.082L165.546 180.075L165.365 177.582ZM8 177.582V180.082H-0.254597L6.61292 175.502L8 177.582ZM17.6346 171.156L16.2475 169.076L16.891 168.647L17.6643 168.657L17.6346 171.156ZM165.365 172.909L165.395 170.409L165.402 175.408L165.365 172.909ZM8 175.245L8.03711 177.745L7.88413 172.748L8 175.245ZM165.365 167.944V165.444L165.481 170.441L165.365 167.944ZM17.6346 167.944V170.444L17.5605 165.445L17.6346 167.944ZM165.365 163.563L165.405 161.063L165.439 166.062L165.365 163.563ZM17.5951 163.726L15.0954 163.687L15.1745 158.687L17.6741 158.727L17.5951 163.726ZM91.5 186.197L91.583 183.699L91.5 186.197ZM7.94755 207.501L174.948 203.996L175.052 208.995L8.05245 212.499L7.94755 207.501ZM175 208.995H8V203.995H175V208.995ZM7.93007 203.996L174.93 199.323L175.07 204.321L8.06993 208.994L7.93007 203.996ZM175 204.322H8V199.322H175V204.322ZM7.93881 199.323L174.939 195.234L175.061 200.233L8.06119 204.322L7.93881 199.323ZM175 200.234H8V195.234H175V200.234ZM7.95192 195.234L174.952 192.021L175.048 197.02L8.04808 200.233L7.95192 195.234ZM174.969 197.021L7.9694 194.976L8.0306 189.977L175.031 192.021L174.969 197.021ZM7.94755 189.977L174.948 186.472L175.052 191.471L8.05245 194.976L7.94755 189.977ZM8 180.923H165.365V185.923H8V180.923ZM165.453 185.921L8.0881 191.47L7.9119 186.473L165.277 180.924L165.453 185.921ZM7.81952 186.478L165.185 175.088L165.546 180.075L8.18048 191.465L7.81952 186.478ZM6.61292 175.502L16.2475 169.076L19.0217 173.236L9.38708 179.662L6.61292 175.502ZM17.6643 168.657L165.395 170.409L165.336 175.409L17.605 173.656L17.6643 168.657ZM165.402 175.408L8.03711 177.745L7.96289 172.745L165.328 170.409L165.402 175.408ZM7.88413 172.748L165.25 165.446L165.481 170.441L8.11587 177.742L7.88413 172.748ZM165.365 170.444H17.6346V165.444H165.365V170.444ZM17.5605 165.445L165.291 161.064L165.439 166.062L17.7087 170.443L17.5605 165.445ZM165.326 166.063L17.5951 163.726L17.6741 158.727L165.405 161.063L165.326 166.063ZM174.917 191.47L91.417 188.696L91.583 183.699L175.083 186.473L174.917 191.47ZM91.417 188.696L7.91698 185.921L8.08302 180.924L91.583 183.699L91.417 188.696ZM165.365 180.082H86.6827V175.082H165.365V180.082ZM86.6827 180.082H8V175.082H86.6827V180.082Z" fill="#42AB49" fill-opacity="0.5"/>
<path d="M8.05245 168.686L5.553 168.738L5.4481 163.739L7.94755 163.687L8.05245 168.686ZM175 162.682V160.182L175.052 165.181L175 162.682ZM8 162.682V165.182L7.93007 160.183L8 162.682ZM175 158.009V155.509L175.07 160.508L175 158.009ZM8 158.009V160.509L7.93881 155.509L8 158.009ZM175 153.92V151.42L175.061 156.419L175 153.92ZM8 153.92V156.42L7.95192 151.42L8 153.92ZM175 150.707L175.031 148.207L175.048 153.207L175 150.707ZM8 148.663L7.9694 151.163L7.94755 146.163L8 148.663ZM175 145.158L175.083 142.66L175.052 147.658L175 145.158ZM8 139.609L7.91698 142.108L8 137.109V139.609ZM165.365 139.609V137.109L165.453 142.108L165.365 139.609ZM8 145.158L8.0881 147.657L7.81952 142.665L8 145.158ZM165.365 133.768V131.268L165.546 136.261L165.365 133.768ZM8 133.768V136.268H-0.254597L6.61292 131.688L8 133.768ZM17.6346 127.343L16.2475 125.263L16.891 124.834L17.6643 124.843L17.6346 127.343ZM165.365 129.095L165.395 126.595L165.402 131.595L165.365 129.095ZM8 131.432L8.03711 133.931L7.88413 128.934L8 131.432ZM165.365 124.13V121.63L165.481 126.627L165.365 124.13ZM17.6346 124.13V126.63L17.5605 121.631L17.6346 124.13ZM165.365 119.749L165.405 117.25L165.439 122.248L165.365 119.749ZM17.5951 119.912L15.0954 119.873L15.1745 114.874L17.6741 114.913L17.5951 119.912ZM91.5 142.384L91.583 139.885L91.5 142.384ZM7.94755 163.687L174.948 160.182L175.052 165.181L8.05245 168.686L7.94755 163.687ZM175 165.182H8V160.182H175V165.182ZM7.93007 160.183L174.93 155.51L175.07 160.508L8.06993 165.181L7.93007 160.183ZM175 160.509H8V155.509H175V160.509ZM7.93881 155.509L174.939 151.421L175.061 156.419L8.06119 160.508L7.93881 155.509ZM175 156.42H8V151.42H175V156.42ZM7.95192 151.42L174.952 148.208L175.048 153.207L8.04808 156.419L7.95192 151.42ZM174.969 153.207L7.9694 151.163L8.0306 146.163L175.031 148.207L174.969 153.207ZM7.94755 146.163L174.948 142.659L175.052 147.658L8.05245 151.162L7.94755 146.163ZM8 137.109H165.365V142.109H8V137.109ZM165.453 142.108L8.0881 147.657L7.9119 142.66L165.277 137.111L165.453 142.108ZM7.81952 142.665L165.185 131.274L165.546 136.261L8.18048 147.652L7.81952 142.665ZM6.61292 131.688L16.2475 125.263L19.0217 129.423L9.38708 135.848L6.61292 131.688ZM17.6643 124.843L165.395 126.595L165.336 131.595L17.605 129.843L17.6643 124.843ZM165.402 131.595L8.03711 133.931L7.96289 128.932L165.328 126.595L165.402 131.595ZM7.88413 128.934L165.25 121.633L165.481 126.627L8.11587 133.929L7.88413 128.934ZM165.365 126.63H17.6346V121.63H165.365V126.63ZM17.5605 121.631L165.291 117.25L165.439 122.248L17.7087 126.629L17.5605 121.631ZM165.326 122.249L17.5951 119.912L17.6741 114.913L165.405 117.25L165.326 122.249ZM174.917 147.657L91.417 144.882L91.583 139.885L175.083 142.66L174.917 147.657ZM91.417 144.882L7.91698 142.108L8.08302 137.11L91.583 139.885L91.417 144.882ZM165.365 136.268H86.6827V131.268H165.365V136.268ZM86.6827 136.268H8V131.268H86.6827V136.268Z" fill="#42AB49" fill-opacity="0.5"/>
<path d="M8.05245 175.814L5.553 175.866L5.4481 170.868L7.94755 170.815L8.05245 175.814ZM175 169.81V167.31L175.052 172.309L175 169.81ZM8 169.81V172.31L7.93007 167.311L8 169.81ZM175 165.137V162.637L175.07 167.636L175 165.137ZM8 165.137V167.637L7.93881 162.638L8 165.137ZM175 161.048V158.548L175.061 163.547L175 161.048ZM8 161.048V163.548L7.95192 158.549L8 161.048ZM175 157.835L175.031 155.336L175.048 160.335L175 157.835ZM8 155.791L7.9694 158.291L7.94755 153.292L8 155.791ZM175 152.286L175.083 149.788L175.052 154.786L175 152.286ZM8 146.737L7.91698 149.236L8 144.237V146.737ZM165.365 146.737V144.237L165.453 149.236L165.365 146.737ZM8 152.286L8.0881 154.785L7.81952 149.793L8 152.286ZM165.365 140.896V138.396L165.546 143.39L165.365 140.896ZM8 140.896V143.396H-0.254595L6.61292 138.816L8 140.896ZM17.6346 134.471L16.2475 132.391L16.891 131.962L17.6643 131.971L17.6346 134.471ZM165.365 136.223L165.395 133.723L165.402 138.723L165.365 136.223ZM8 138.56L8.03711 141.059L7.88413 136.062L8 138.56ZM165.365 131.258V128.758L165.481 133.756L165.365 131.258ZM17.6346 131.258V133.758L17.5605 128.759L17.6346 131.258ZM165.365 126.877L165.405 124.378L165.439 129.376L165.365 126.877ZM17.5951 127.041L15.0954 127.001L15.1745 122.002L17.6741 122.041L17.5951 127.041ZM91.5 149.512L91.583 147.013L91.5 149.512ZM7.94755 170.815L174.948 167.31L175.052 172.309L8.05245 175.814L7.94755 170.815ZM175 172.31H8V167.31H175V172.31ZM7.93007 167.311L174.93 162.638L175.07 167.636L8.06993 172.309L7.93007 167.311ZM175 167.637H8V162.637H175V167.637ZM7.93881 162.638L174.939 158.549L175.061 163.547L8.06119 167.636L7.93881 162.638ZM175 163.548H8V158.548H175V163.548ZM7.95192 158.549L174.952 155.336L175.048 160.335L8.04808 163.548L7.95192 158.549ZM174.969 160.335L7.9694 158.291L8.0306 153.291L175.031 155.336L174.969 160.335ZM7.94755 153.292L174.948 149.787L175.052 154.786L8.05245 158.291L7.94755 153.292ZM8 144.237H165.365V149.237H8V144.237ZM165.453 149.236L8.0881 154.785L7.9119 149.788L165.277 144.239L165.453 149.236ZM7.81952 149.793L165.185 138.403L165.546 143.39L8.18048 154.78L7.81952 149.793ZM6.61292 138.816L16.2475 132.391L19.0217 136.551L9.38708 142.976L6.61292 138.816ZM17.6643 131.971L165.395 133.723L165.336 138.723L17.605 136.971L17.6643 131.971ZM165.402 138.723L8.03711 141.059L7.96289 136.06L165.328 133.723L165.402 138.723ZM7.88413 136.062L165.25 128.761L165.481 133.756L8.11587 141.057L7.88413 136.062ZM165.365 133.758H17.6346V128.758H165.365V133.758ZM17.5605 128.759L165.291 124.378L165.439 129.376L17.7087 133.757L17.5605 128.759ZM165.326 129.377L17.5951 127.041L17.6741 122.041L165.405 124.378L165.326 129.377ZM174.917 154.785L91.417 152.01L91.583 147.013L175.083 149.788L174.917 154.785ZM91.417 152.01L7.91698 149.236L8.08302 144.239L91.583 147.013L91.417 152.01ZM165.365 143.396H86.6827V138.396H165.365V143.396ZM86.6827 143.396H8V138.396H86.6827V143.396Z" fill="#42AB49" fill-opacity="0.5"/>
<path d="M8.05245 132L5.553 132.053L5.4481 127.054L7.94755 127.001L8.05245 132ZM175 125.996V123.496L175.052 128.496L175 125.996ZM8 125.996V128.496L7.93007 123.497L8 125.996ZM175 121.323V118.823L175.07 123.822L175 121.323ZM8 121.323V123.823L7.93881 118.824L8 121.323ZM175 117.235V114.735L175.061 119.734L175 117.235ZM8 117.235V119.735L7.95192 114.735L8 117.235ZM175 114.022L175.031 111.522L175.048 116.521L175 114.022ZM8 111.977L7.9694 114.477L7.94755 109.478L8 111.977ZM175 108.473L175.083 105.974L175.052 110.972L175 108.473ZM8 102.924L7.91698 105.422L8 100.424V102.924ZM165.365 102.924V100.424L165.453 105.422L165.365 102.924ZM8 108.473L8.0881 110.971L7.81952 105.979L8 108.473ZM165.365 97.0826V94.5826L165.546 99.576L165.365 97.0826ZM8 97.0826V99.5826H-0.254597L6.61292 95.0027L8 97.0826ZM17.6346 90.6573L16.2475 88.5774L16.891 88.1483L17.6643 88.1575L17.6346 90.6573ZM165.365 92.4096L165.395 89.9098L165.402 94.9094L165.365 92.4096ZM8 94.7461L8.03711 97.2458L7.88413 92.2488L8 94.7461ZM165.365 87.4447V84.9447L165.481 89.942L165.365 87.4447ZM17.6346 87.4447V89.9447L17.5605 84.9458L17.6346 87.4447ZM165.365 83.0638L165.405 80.5641L165.439 85.5627L165.365 83.0638ZM17.5951 83.227L15.0954 83.1875L15.1745 78.1881L17.6741 78.2276L17.5951 83.227ZM91.5 105.698L91.583 103.2L91.5 105.698ZM7.94755 127.001L174.948 123.497L175.052 128.496L8.05245 132L7.94755 127.001ZM175 128.496H8V123.496H175V128.496ZM7.93007 123.497L174.93 118.824L175.07 123.822L8.06993 128.495L7.93007 123.497ZM175 123.823H8V118.823H175V123.823ZM7.93881 118.824L174.939 114.735L175.061 119.734L8.06119 123.823L7.93881 118.824ZM175 119.735H8V114.735H175V119.735ZM7.95192 114.735L174.952 111.522L175.048 116.521L8.04808 119.734L7.95192 114.735ZM174.969 116.522L7.9694 114.477L8.0306 109.478L175.031 111.522L174.969 116.522ZM7.94755 109.478L174.948 105.973L175.052 110.972L8.05245 114.477L7.94755 109.478ZM8 100.424H165.365V105.424H8V100.424ZM165.453 105.422L8.0881 110.971L7.9119 105.974L165.277 100.425L165.453 105.422ZM7.81952 105.979L165.185 94.5891L165.546 99.576L8.18048 110.966L7.81952 105.979ZM6.61292 95.0027L16.2475 88.5774L19.0217 92.7372L9.38708 99.1625L6.61292 95.0027ZM17.6643 88.1575L165.395 89.9098L165.336 94.9095L17.605 93.1571L17.6643 88.1575ZM165.402 94.9094L8.03711 97.2458L7.96289 92.2464L165.328 89.9099L165.402 94.9094ZM7.88413 92.2488L165.25 84.9473L165.481 89.942L8.11587 97.2434L7.88413 92.2488ZM165.365 89.9447H17.6346V84.9447H165.365V89.9447ZM17.5605 84.9458L165.291 80.5649L165.439 85.5627L17.7087 89.9436L17.5605 84.9458ZM165.326 85.5635L17.5951 83.227L17.6741 78.2276L165.405 80.5641L165.326 85.5635ZM174.917 110.971L91.417 108.197L91.583 103.2L175.083 105.974L174.917 110.971ZM91.417 108.197L7.91698 105.422L8.08302 100.425L91.583 103.2L91.417 108.197ZM165.365 99.5826H86.6827V94.5826H165.365V99.5826ZM86.6827 99.5826H8V94.5826H86.6827V99.5826Z" fill="#42AB49" fill-opacity="0.5"/>
<path d="M8.08197 150.239L5.58332 150.321L5.41937 145.324L7.91803 145.242L8.08197 150.239ZM175 142.262V139.762L175.082 144.761L175 142.262ZM8 142.262V144.762L7.89075 139.764L8 142.262ZM175 134.957V132.457L175.109 137.454L175 134.957ZM8 134.957V137.457L7.90438 132.459L8 134.957ZM175 128.565V126.065L175.096 131.063L175 128.565ZM8 128.565V131.065L7.92485 126.066L8 128.565ZM175 123.543L175.048 121.043L175.075 126.041L175 123.543ZM8 120.347L7.95216 122.846L7.91803 117.848L8 120.347ZM175 114.868L175.13 112.371L175.082 117.366L175 114.868ZM8 106.193L7.87031 108.689L8 103.693V106.193ZM165.365 106.193V103.693L165.503 108.689L165.365 106.193ZM8 114.868L8.1376 117.364L7.71891 112.384L8 114.868ZM165.365 97.0615V94.5615L165.646 99.5456L165.365 97.0615ZM8 97.0615V99.5615H2.13789L6.1958 95.3309L8 97.0615ZM17.6346 87.0169L15.8304 85.2863L16.5875 84.497L17.681 84.5173L17.6346 87.0169ZM165.365 89.7563L165.412 87.2567L165.423 92.2556L165.365 89.7563ZM8 93.4089L8.05801 95.9082L7.81914 90.9154L8 93.4089ZM165.365 81.9946V79.4946L165.546 84.4881L165.365 81.9946ZM17.6346 81.9946V84.4946L17.5188 79.4973L17.6346 81.9946ZM165.365 75.146L165.427 72.6468L165.481 77.6434L165.365 75.146ZM17.5728 73.9927L15.0736 73.9309L15.1972 68.9324L17.6964 68.9942L17.5728 73.9927ZM91.5 110.53L91.6297 108.034L91.5 110.53ZM7.91803 145.242L174.918 139.763L175.082 144.761L8.08197 150.239L7.91803 145.242ZM175 144.762H8V139.762H175V144.762ZM7.89075 139.764L174.891 132.459L175.109 137.454L8.10925 144.76L7.89075 139.764ZM175 137.457H8V132.457H175V137.457ZM7.90438 132.459L174.904 126.067L175.096 131.063L8.09562 137.455L7.90438 132.459ZM175 131.065H8V126.065H175V131.065ZM7.92485 126.066L174.925 121.044L175.075 126.041L8.07515 131.064L7.92485 126.066ZM174.952 126.042L7.95216 122.846L8.04784 117.847L175.048 121.043L174.952 126.042ZM7.91803 117.848L174.918 112.369L175.082 117.366L8.08197 122.845L7.91803 117.848ZM8 103.693H165.365V108.693H8V103.693ZM165.503 108.689L8.1376 117.364L7.8624 112.372L165.228 103.697L165.503 108.689ZM7.71891 112.384L165.084 94.5773L165.646 99.5456L8.28109 117.352L7.71891 112.384ZM6.1958 95.3309L15.8304 85.2863L19.4388 88.7475L9.8042 98.792L6.1958 95.3309ZM17.681 84.5173L165.412 87.2567L165.319 92.2559L17.5883 89.5165L17.681 84.5173ZM165.423 92.2556L8.05801 95.9082L7.94199 90.9096L165.307 87.257L165.423 92.2556ZM7.81914 90.9154L165.185 79.5012L165.546 84.4881L8.18086 95.9023L7.81914 90.9154ZM165.365 84.4946H17.6346V79.4946H165.365V84.4946ZM17.5188 79.4973L165.25 72.6487L165.481 77.6434L17.7504 84.4919L17.5188 79.4973ZM165.304 77.6453L17.5728 73.9927L17.6964 68.9942L165.427 72.6468L165.304 77.6453ZM174.87 117.364L91.3703 113.027L91.6297 108.034L175.13 112.371L174.87 117.364ZM91.3703 113.027L7.87031 108.689L8.12969 103.696L91.6297 108.034L91.3703 113.027ZM165.365 99.5615H86.6827V94.5615H165.365V99.5615ZM86.6827 99.5615H8V94.5615H86.6827V99.5615Z" fill="#42AB49" fill-opacity="0.5"/>
<path d="M8.08197 81.7461L5.58332 81.8281L5.41937 76.8308L7.91803 76.7488L8.08197 81.7461ZM175 73.7686V71.2686L175.082 76.2672L175 73.7686ZM8 73.7686V76.2686L7.89075 71.271L8 73.7686ZM175 66.4634V63.9634L175.109 68.9611L175 66.4634ZM8 66.4634V68.9634L7.90438 63.9653L8 66.4634ZM175 60.0714V57.5714L175.096 62.5696L175 60.0714ZM8 60.0714V62.5714L7.92485 57.5726L8 60.0714ZM175 55.0492L175.048 52.5496L175.075 57.548L175 55.0492ZM8 51.8532L7.95216 54.3527L7.91803 49.3545L8 51.8532ZM175 46.3743L175.13 43.8777L175.082 48.873L175 46.3743ZM8 37.6995L7.87031 40.1961L8 35.1995V37.6995ZM165.365 37.6995V35.1995L165.503 40.1957L165.365 37.6995ZM8 46.3743L8.1376 48.8705L7.71891 43.8902L8 46.3743ZM165.365 28.568V26.068L165.646 31.0522L165.365 28.568ZM8 28.568V31.068H2.1379L6.1958 26.8375L8 28.568ZM17.6346 18.5235L15.8304 16.7929L16.5875 16.0036L17.681 16.0239L17.6346 18.5235ZM165.365 21.2629L165.412 18.7633L165.423 23.7622L165.365 21.2629ZM8 24.9155L8.05801 27.4148L7.81914 22.422L8 24.9155ZM165.365 13.5012V11.0012L165.546 15.9946L165.365 13.5012ZM17.6346 13.5012V16.0012L17.5188 11.0039L17.6346 13.5012ZM165.365 6.65262L165.427 4.15338L165.481 9.14994L165.365 6.65262ZM17.5728 5.49928L15.0736 5.43748L15.1972 0.439018L17.6964 0.500809L17.5728 5.49928ZM91.5 42.0369L91.6297 39.5402L91.5 42.0369ZM7.91803 76.7488L174.918 71.2699L175.082 76.2672L8.08197 81.7461L7.91803 76.7488ZM175 76.2686H8V71.2686H175V76.2686ZM7.89075 71.271L174.891 63.9658L175.109 68.9611L8.10925 76.2662L7.89075 71.271ZM175 68.9634H8V63.9634H175V68.9634ZM7.90438 63.9653L174.904 57.5733L175.096 62.5696L8.09562 68.9616L7.90438 63.9653ZM175 62.5714H8V57.5714H175V62.5714ZM7.92485 57.5726L174.925 52.5503L175.075 57.548L8.07515 62.5703L7.92485 57.5726ZM174.952 57.5487L7.95216 54.3527L8.04784 49.3536L175.048 52.5496L174.952 57.5487ZM7.91803 49.3545L174.918 43.8757L175.082 48.873L8.08197 54.3518L7.91803 49.3545ZM8 35.1995H165.365V40.1995H8V35.1995ZM165.503 40.1957L8.1376 48.8705L7.8624 43.8781L165.228 35.2032L165.503 40.1957ZM7.71891 43.8902L165.084 26.0839L165.646 31.0522L8.28109 48.8585L7.71891 43.8902ZM6.1958 26.8375L15.8304 16.7929L19.4388 20.254L9.8042 30.2986L6.1958 26.8375ZM17.681 16.0239L165.412 18.7633L165.319 23.7625L17.5883 21.023L17.681 16.0239ZM165.423 23.7622L8.05801 27.4148L7.94199 22.4161L165.307 18.7636L165.423 23.7622ZM7.81914 22.422L165.185 11.0077L165.546 15.9946L8.18086 27.4089L7.81914 22.422ZM165.365 16.0012H17.6346V11.0012H165.365V16.0012ZM17.5188 11.0039L165.25 4.1553L165.481 9.14994L17.7504 15.9985L17.5188 11.0039ZM165.304 9.15186L17.5728 5.49928L17.6964 0.500809L165.427 4.15338L165.304 9.15186ZM174.87 48.8709L91.3703 44.5335L91.6297 39.5402L175.13 43.8777L174.87 48.8709ZM91.3703 44.5335L7.87031 40.1961L8.12969 35.2028L91.6297 39.5402L91.3703 44.5335ZM165.365 31.068H86.6827V26.068H165.365V31.068ZM86.6827 31.068H8V26.068H86.6827V31.068Z" fill="#42AB49" fill-opacity="0.5"/>
<path d="M8.05245 134.772L5.553 134.825L5.4481 129.826L7.94755 129.773L8.05245 134.772ZM175 128.768V126.268L175.052 131.267L175 128.768ZM8 128.768V131.268L7.93007 126.269L8 128.768ZM175 124.095V121.595L175.07 126.594L175 124.095ZM8 124.095V126.595L7.93881 121.596L8 124.095ZM175 120.006V117.506L175.061 122.506L175 120.006ZM8 120.006V122.506L7.95192 117.507L8 120.006ZM175 116.794L175.031 114.294L175.048 119.293L175 116.794ZM8 114.749L7.9694 117.249L7.94755 112.25L8 114.749ZM175 111.245L175.083 108.746L175.052 113.744L175 111.245ZM8 105.695L7.91698 108.194L8 103.195V105.695ZM165.365 105.695V103.195L165.453 108.194L165.365 105.695ZM8 111.245L8.0881 113.743L7.81952 108.751L8 111.245ZM165.365 99.8543V97.3543L165.546 102.348L165.365 99.8543ZM8 99.8543V102.354H-0.254597L6.61292 97.7744L8 99.8543ZM17.6346 93.4291L16.2475 91.3492L16.891 90.9201L17.6643 90.9293L17.6346 93.4291ZM165.365 95.1814L165.395 92.6816L165.402 97.6811L165.365 95.1814ZM8 97.5179L8.03711 100.018L7.88413 95.0206L8 97.5179ZM165.365 90.2164V87.7164L165.481 92.7138L165.365 90.2164ZM17.6346 90.2164V92.7164L17.5605 87.7175L17.6346 90.2164ZM165.365 85.8356L165.405 83.3359L165.439 88.3345L165.365 85.8356ZM17.5951 85.9988L15.0954 85.9593L15.1745 80.9599L17.6741 80.9994L17.5951 85.9988ZM91.5 108.47L91.583 105.971L91.5 108.47ZM7.94755 129.773L174.948 126.269L175.052 131.267L8.05245 134.772L7.94755 129.773ZM175 131.268H8V126.268H175V131.268ZM7.93007 126.269L174.93 121.596L175.07 126.594L8.06993 131.267L7.93007 126.269ZM175 126.595H8V121.595H175V126.595ZM7.93881 121.596L174.939 117.507L175.061 122.506L8.06119 126.594L7.93881 121.596ZM175 122.506H8V117.506H175V122.506ZM7.95192 117.507L174.952 114.294L175.048 119.293L8.04808 122.506L7.95192 117.507ZM174.969 119.293L7.9694 117.249L8.0306 112.249L175.031 114.294L174.969 119.293ZM7.94755 112.25L174.948 108.745L175.052 113.744L8.05245 117.249L7.94755 112.25ZM8 103.195H165.365V108.195H8V103.195ZM165.453 108.194L8.0881 113.743L7.9119 108.746L165.277 103.197L165.453 108.194ZM7.81952 108.751L165.185 97.3609L165.546 102.348L8.18048 113.738L7.81952 108.751ZM6.61292 97.7744L16.2475 91.3492L19.0217 95.509L9.38708 101.934L6.61292 97.7744ZM17.6643 90.9293L165.395 92.6816L165.336 97.6812L17.605 95.9289L17.6643 90.9293ZM165.402 97.6811L8.03711 100.018L7.96289 95.0182L165.328 92.6817L165.402 97.6811ZM7.88413 95.0206L165.25 87.7191L165.481 92.7138L8.11587 100.015L7.88413 95.0206ZM165.365 92.7164H17.6346V87.7164H165.365V92.7164ZM17.5605 87.7175L165.291 83.3367L165.439 88.3345L17.7087 92.7153L17.5605 87.7175ZM165.326 88.3353L17.5951 85.9988L17.6741 80.9994L165.405 83.3359L165.326 88.3353ZM174.917 113.743L91.417 110.969L91.583 105.971L175.083 108.746L174.917 113.743ZM91.417 110.969L7.91698 108.194L8.08302 103.197L91.583 105.971L91.417 110.969ZM165.365 102.354H86.6827V97.3543H165.365V102.354ZM86.6827 102.354H8V97.3543H86.6827V102.354Z" fill="#42AB49" fill-opacity="0.5"/>
<path d="M8.05245 90.9585L5.553 91.011L5.4481 86.0121L7.94755 85.9596L8.05245 90.9585ZM175 84.9544V82.4544L175.052 87.4538L175 84.9544ZM8 84.9544V87.4544L7.93007 82.4554L8 84.9544ZM175 80.2815V77.7815L175.07 82.7805L175 80.2815ZM8 80.2815V82.7815L7.93881 77.7822L8 80.2815ZM175 76.1927V73.6927L175.061 78.6919L175 76.1927ZM8 76.1927V78.6927L7.95192 73.6931L8 76.1927ZM175 72.98L175.031 70.4802L175.048 75.4796L175 72.98ZM8 70.9356L7.9694 73.4354L7.94755 68.4362L8 70.9356ZM175 67.4309L175.083 64.9323L175.052 69.9304L175 67.4309ZM8 61.8818L7.91698 64.3805L8 59.3818V61.8818ZM165.365 61.8818V59.3818L165.453 64.3803L165.365 61.8818ZM8 67.4309L8.0881 69.9294L7.81952 64.9375L8 67.4309ZM165.365 56.0407V53.5407L165.546 58.5342L165.365 56.0407ZM8 56.0407V58.5407H-0.254595L6.61292 53.9608L8 56.0407ZM17.6346 49.6154L16.2475 47.5355L16.891 47.1064L17.6643 47.1156L17.6346 49.6154ZM165.365 51.3678L165.395 48.8679L165.402 53.8675L165.365 51.3678ZM8 53.7042L8.03711 56.204L7.88413 51.2069L8 53.7042ZM165.365 46.4028V43.9028L165.481 48.9001L165.365 46.4028ZM17.6346 46.4028V48.9028L17.5605 43.9039L17.6346 46.4028ZM165.365 42.0219L165.405 39.5222L165.439 44.5208L165.365 42.0219ZM17.5951 42.1852L15.0954 42.1456L15.1745 37.1462L17.6741 37.1858L17.5951 42.1852ZM91.5 64.6564L91.583 62.1578L91.5 64.6564ZM7.94755 85.9596L174.948 82.4549L175.052 87.4538L8.05245 90.9585L7.94755 85.9596ZM175 87.4544H8V82.4544H175V87.4544ZM7.93007 82.4554L174.93 77.7825L175.07 82.7805L8.06993 87.4534L7.93007 82.4554ZM175 82.7815H8V77.7815H175V82.7815ZM7.93881 77.7822L174.939 73.6934L175.061 78.6919L8.06119 82.7807L7.93881 77.7822ZM175 78.6927H8V73.6927H175V78.6927ZM7.95192 73.6931L174.952 70.4805L175.048 75.4796L8.04808 78.6922L7.95192 73.6931ZM174.969 75.4798L7.9694 73.4354L8.0306 68.4358L175.031 70.4802L174.969 75.4798ZM7.94755 68.4362L174.948 64.9315L175.052 69.9304L8.05245 73.4351L7.94755 68.4362ZM8 59.3818H165.365V64.3818H8V59.3818ZM165.453 64.3803L8.0881 69.9294L7.9119 64.9325L165.277 59.3834L165.453 64.3803ZM7.81952 64.9375L165.185 53.5472L165.546 58.5342L8.18048 69.9244L7.81952 64.9375ZM6.61292 53.9608L16.2475 47.5355L19.0217 51.6953L9.38708 58.1206L6.61292 53.9608ZM17.6643 47.1156L165.395 48.8679L165.336 53.8676L17.605 52.1152L17.6643 47.1156ZM165.402 53.8675L8.03711 56.204L7.96289 51.2045L165.328 48.868L165.402 53.8675ZM7.88413 51.2069L165.25 43.9055L165.481 48.9001L8.11587 56.2015L7.88413 51.2069ZM165.365 48.9028H17.6346V43.9028H165.365V48.9028ZM17.5605 43.9039L165.291 39.523L165.439 44.5208L17.7087 48.9017L17.5605 43.9039ZM165.326 44.5216L17.5951 42.1852L17.6741 37.1858L165.405 39.5222L165.326 44.5216ZM174.917 69.9296L91.417 67.155L91.583 62.1578L175.083 64.9323L174.917 69.9296ZM91.417 67.155L7.91698 64.3805L8.08302 59.3832L91.583 62.1578L91.417 67.155ZM165.365 58.5407H86.6827V53.5407H165.365V58.5407ZM86.6827 58.5407H8V53.5407H86.6827V58.5407Z" fill="#42AB49" fill-opacity="0.5"/>
<path d="M8.05245 98.0867L5.553 98.1392L5.4481 93.1403L7.94755 93.0878L8.05245 98.0867ZM175 92.0826V89.5826L175.052 94.582L175 92.0826ZM8 92.0826V94.5826L7.93007 89.5835L8 92.0826ZM175 87.4096V84.9096L175.07 89.9087L175 87.4096ZM8 87.4096V89.9096L7.93881 84.9104L8 87.4096ZM175 83.3208V80.8208L175.061 85.8201L175 83.3208ZM8 83.3208V85.8208L7.95192 80.8213L8 83.3208ZM175 80.1082L175.031 77.6084L175.048 82.6077L175 80.1082ZM8 78.0638L7.9694 80.5636L7.94755 75.5643L8 78.0638ZM175 74.5591L175.083 72.0605L175.052 77.0586L175 74.5591ZM8 69.01L7.91698 71.5086L8 66.51V69.01ZM165.365 69.01V66.51L165.453 71.5085L165.365 69.01ZM8 74.5591L8.0881 77.0576L7.81952 72.0656L8 74.5591ZM165.365 63.1689V60.6689L165.546 65.6623L165.365 63.1689ZM8 63.1689V65.6689H-0.254597L6.61292 61.089L8 63.1689ZM17.6346 56.7436L16.2475 54.6637L16.891 54.2346L17.6643 54.2438L17.6346 56.7436ZM165.365 58.4959L165.395 55.9961L165.402 60.9957L165.365 58.4959ZM8 60.8324L8.03711 63.3321L7.88413 58.3351L8 60.8324ZM165.365 53.531V51.031L165.481 56.0283L165.365 53.531ZM17.6346 53.531V56.031L17.5605 51.0321L17.6346 53.531ZM165.365 49.1501L165.405 46.6504L165.439 51.649L165.365 49.1501ZM17.5951 49.3133L15.0954 49.2738L15.1745 44.2744L17.6741 44.3139L17.5951 49.3133ZM91.5 71.7846L91.583 69.2859L91.5 71.7846ZM7.94755 93.0878L174.948 89.5831L175.052 94.582L8.05245 98.0867L7.94755 93.0878ZM175 94.5826H8V89.5826H175V94.5826ZM7.93007 89.5835L174.93 84.9106L175.07 89.9087L8.06993 94.5816L7.93007 89.5835ZM175 89.9096H8V84.9096H175V89.9096ZM7.93881 84.9104L174.939 80.8216L175.061 85.8201L8.06119 89.9089L7.93881 84.9104ZM175 85.8208H8V80.8208H175V85.8208ZM7.95192 80.8213L174.952 77.6087L175.048 82.6077L8.04808 85.8204L7.95192 80.8213ZM174.969 82.608L7.9694 80.5636L8.0306 75.564L175.031 77.6084L174.969 82.608ZM7.94755 75.5643L174.948 72.0597L175.052 77.0586L8.05245 80.5632L7.94755 75.5643ZM8 66.51H165.365V71.51H8V66.51ZM165.453 71.5085L8.0881 77.0576L7.9119 72.0607L165.277 66.5116L165.453 71.5085ZM7.81952 72.0656L165.185 60.6754L165.546 65.6623L8.18048 77.0526L7.81952 72.0656ZM6.61292 61.089L16.2475 54.6637L19.0217 58.8235L9.38708 65.2488L6.61292 61.089ZM17.6643 54.2438L165.395 55.9961L165.336 60.9958L17.605 59.2434L17.6643 54.2438ZM165.402 60.9957L8.03711 63.3321L7.96289 58.3327L165.328 55.9962L165.402 60.9957ZM7.88413 58.3351L165.25 51.0336L165.481 56.0283L8.11587 63.3297L7.88413 58.3351ZM165.365 56.031H17.6346V51.031H165.365V56.031ZM17.5605 51.0321L165.291 46.6512L165.439 51.649L17.7087 56.0299L17.5605 51.0321ZM165.326 51.6498L17.5951 49.3133L17.6741 44.3139L165.405 46.6504L165.326 51.6498ZM174.917 77.0577L91.417 74.2832L91.583 69.2859L175.083 72.0605L174.917 77.0577ZM91.417 74.2832L7.91698 71.5086L8.08302 66.5114L91.583 69.2859L91.417 74.2832ZM165.365 65.6689H86.6827V60.6689H165.365V65.6689ZM86.6827 65.6689H8V60.6689H86.6827V65.6689Z" fill="#42AB49" fill-opacity="0.5"/>
<path d="M8.05245 54.2731L5.553 54.3256L5.4481 49.3267L7.94755 49.2742L8.05245 54.2731ZM175 48.269V45.769L175.052 50.7684L175 48.269ZM8 48.269V50.769L7.93007 45.77L8 48.269ZM175 43.5961V41.0961L175.07 46.0951L175 43.5961ZM8 43.5961V46.0961L7.93881 41.0968L8 43.5961ZM175 39.5073V37.0073L175.061 42.0065L175 39.5073ZM8 39.5073V42.0073L7.95192 37.0077L8 39.5073ZM175 36.2946L175.031 33.7948L175.048 38.7942L175 36.2946ZM8 34.2502L7.9694 36.75L7.94755 31.7508L8 34.2502ZM175 30.7455L175.083 28.2469L175.052 33.245L175 30.7455ZM8 25.1964L7.91698 27.6951L8 22.6964V25.1964ZM165.365 25.1964V22.6964L165.453 27.6949L165.365 25.1964ZM8 30.7455L8.0881 33.244L7.81952 28.2521L8 30.7455ZM165.365 19.3553V16.8553L165.546 21.8488L165.365 19.3553ZM8 19.3553V21.8553H-0.254594L6.61292 17.2754L8 19.3553ZM17.6346 12.93L16.2475 10.8501L16.891 10.421L17.6643 10.4302L17.6346 12.93ZM165.365 14.6824L165.395 12.1825L165.402 17.1821L165.365 14.6824ZM8 17.0188L8.03711 19.5185L7.88413 14.5215L8 17.0188ZM165.365 9.71738V7.21738L165.481 12.2147L165.365 9.71738ZM17.6346 9.71738V12.2174L17.5605 7.21848L17.6346 9.71738ZM165.365 5.33651L165.405 2.83682L165.439 7.83541L165.365 5.33651ZM17.5951 5.49973L15.0954 5.4602L15.1745 0.460823L17.6741 0.500359L17.5951 5.49973ZM91.5 27.971L91.583 25.4724L91.5 27.971ZM7.94755 49.2742L174.948 45.7695L175.052 50.7684L8.05245 54.2731L7.94755 49.2742ZM175 50.769H8V45.769H175V50.769ZM7.93007 45.77L174.93 41.097L175.07 46.0951L8.06993 50.768L7.93007 45.77ZM175 46.0961H8V41.0961H175V46.0961ZM7.93881 41.0968L174.939 37.008L175.061 42.0065L8.06119 46.0953L7.93881 41.0968ZM175 42.0073H8V37.0073H175V42.0073ZM7.95192 37.0077L174.952 33.7951L175.048 38.7942L8.04808 42.0068L7.95192 37.0077ZM174.969 38.7944L7.9694 36.75L8.0306 31.7504L175.031 33.7948L174.969 38.7944ZM7.94755 31.7508L174.948 28.2461L175.052 33.245L8.05245 36.7497L7.94755 31.7508ZM8 22.6964H165.365V27.6964H8V22.6964ZM165.453 27.6949L8.0881 33.244L7.9119 28.2471L165.277 22.698L165.453 27.6949ZM7.81952 28.2521L165.185 16.8618L165.546 21.8488L8.18048 33.239L7.81952 28.2521ZM6.61292 17.2754L16.2475 10.8501L19.0217 15.0099L9.38708 21.4352L6.61292 17.2754ZM17.6643 10.4302L165.395 12.1825L165.336 17.1822L17.605 15.4298L17.6643 10.4302ZM165.402 17.1821L8.03711 19.5185L7.96289 14.5191L165.328 12.1826L165.402 17.1821ZM7.88413 14.5215L165.25 7.22006L165.481 12.2147L8.11587 19.5161L7.88413 14.5215ZM165.365 12.2174H17.6346V7.21738H165.365V12.2174ZM17.5605 7.21848L165.291 2.83761L165.439 7.83541L17.7087 12.2163L17.5605 7.21848ZM165.326 7.8362L17.5951 5.49973L17.6741 0.500359L165.405 2.83682L165.326 7.8362ZM174.917 33.2442L91.417 30.4696L91.583 25.4724L175.083 28.2469L174.917 33.2442ZM91.417 30.4696L7.91698 27.6951L8.08302 22.6978L91.583 25.4724L91.417 30.4696ZM165.365 21.8553H86.6827V16.8553H165.365V21.8553ZM86.6827 21.8553H8V16.8553H86.6827V21.8553Z" fill="#42AB49" fill-opacity="0.5"/>
</svg>
